<svg width="100" height="100" viewBox="0 0 100 100" fill="none" xmlns="http://www.w3.org/2000/svg">
<g clip-path="url(#clip0_2300_41821)">
<path d="M35.1992 12.5141C35.1992 7.79773 38.4065 4.65339 43.1858 4.65339C46.5815 4.65339 50.0402 6.22556 52.9957 9.1183C53.373 9.49561 53.7503 9.49561 54.2535 8.99259C60.1647 3.08121 65.007 0 68.3398 0C70.7295 0 72.0501 1.50923 72.0501 4.21332C72.0501 10.5018 64.8183 21.3809 54.1906 31.0652C53.436 31.757 52.8071 31.757 51.6752 31.1911C41.4877 26.0973 35.1992 18.9912 35.1992 12.5141Z" fill="#DB0007"/>
<path d="M46.225 87.9581C44.005 85.97 42.0731 87.2915 43.7521 89.3049C44.5741 90.2905 48.9534 93.4875 51.7709 95.506C51.771 95.506 51.771 95.5061 51.7711 95.5061C52.539 94.9916 53.3928 94.3802 54.3105 93.6921C54.01 93.5725 53.7006 93.4316 53.3814 93.2651C50.6557 91.734 48.6498 90.1297 46.225 87.9581Z" fill="#D0C9FF"/>
<path d="M53.5128 80.0275C50.8727 78.2746 48.864 80.2461 51.102 81.6108C55.153 84.0809 57.9631 86.109 60.0492 89.0482C60.0579 89.0605 60.0659 89.0733 60.0744 89.0857C60.8435 88.4408 61.6238 87.7765 62.4075 87.0999C62.323 87.0442 62.2391 86.986 62.1565 86.9225C60.1372 85.2111 56.8638 82.2523 53.5128 80.0275Z" fill="#D0C9FF"/>
<path d="M60.9241 73.1856C59.2466 72.2948 57.5204 74.2536 59.6372 75.5592C64.2794 78.4225 65.6411 79.2816 68.2338 81.9017C69.0213 81.1762 69.7909 80.4573 70.5332 79.7533C70.3797 79.6475 70.2255 79.5324 70.0706 79.4051C65.8804 75.9597 62.9741 74.2741 60.9241 73.1856Z" fill="#D0C9FF"/>
<path d="M99.2317 53.6695C98.4248 52.0459 91.4985 34.6356 90.6528 32.1911C88.716 26.5918 86.8857 23.878 79.537 31.5408C77.2693 33.3359 75.6211 36.1536 73.1642 37.5527C66.9983 41.0621 58.7969 37.8308 52.0836 39.2476C50.9256 39.4922 49.6918 39.9366 48.4458 40.513C47.2605 41.0612 46.0637 41.73 44.9109 42.4613C44.5667 42.6793 44.227 42.9033 43.892 43.1309C42.4396 44.174 41.1093 45.2824 40.0332 46.3138C39.4094 46.913 38.8743 47.734 38.1712 48.3465C36.3471 49.9349 33.8682 50.9926 32.2728 52.8581C28.5302 57.2342 31.391 62.8141 36.8082 63.1934C42.7049 63.607 48.1765 61.7749 52.8113 58.2269C53.0727 58.0262 53.3323 57.8203 53.5884 57.6091C54.0864 57.1973 55.2251 56.2548 55.7434 55.5464L58.7855 57.3882L71.8815 65.7893C75.5209 68.2022 77.2829 70.1463 77.9154 72.1278C78.1914 71.7858 78.4234 71.4777 78.6051 71.2091C78.6535 71.1369 78.6984 71.0683 78.7398 71.0023C79.0011 70.3361 79.7984 69.164 80.2278 68.5366C83.3851 63.922 88.4168 60.3317 93.819 58.8437C94.4288 58.6756 95.3747 58.5577 96.1747 58.3509C96.1764 58.3509 96.1782 58.35 96.1799 58.35C99.2783 57.6399 100.767 56.7591 99.2317 53.6695Z" fill="#D0C9FF"/>
<path d="M71.8815 65.7896L58.7855 57.3885L55.7435 55.5467C55.2252 56.2551 54.0865 57.1976 53.5884 57.6094C53.3323 57.8206 53.0727 58.0265 52.8114 58.2271C48.1766 61.7752 42.7049 63.6073 36.8082 63.1937C31.3911 62.8144 28.5303 57.2345 32.2728 52.8584C33.8682 50.9928 36.3471 49.9351 38.1713 48.3468C38.8744 47.7343 39.4094 46.9133 40.0333 46.314C41.1093 45.2827 42.4396 44.1743 43.892 43.1312C44.3829 42.7787 44.8875 42.4336 45.4011 42.1016C46.5275 41.3721 47.697 40.7051 48.855 40.1586C48.1202 39.3306 47.0784 38.2913 45.9115 37.5372C43.298 35.61 39.295 35.332 36.1869 35.6646C31.1931 36.1987 23.3446 39.6667 19.1339 35.4912C18.8048 35.1648 18.5628 34.7459 18.32 34.3384C18.3182 34.3341 18.3156 34.3288 18.312 34.3244C18.3032 34.3085 18.2936 34.2927 18.283 34.2768C18.2144 34.1642 18.1466 34.0551 18.0797 33.9469C18.0745 33.9381 18.0683 33.9301 18.063 33.9214C15.2541 29.3965 14.3222 29.0076 11.465 32.0892C8.73002 35.0389 3.09202 51.629 1.22472 54.9861C-0.641701 58.3441 0.150269 59.5145 1.99382 61.6739C4.17175 64.3746 7.09678 67.3155 9.51407 69.8603C16.4166 77.1272 23.8541 84.2189 31.3964 90.7931C34.647 93.6267 40.3967 98.8106 44.3813 99.7715C45.981 100.158 47.7455 100.074 49.587 99.3615C50.9296 98.8419 52.9411 96.3458 51.7711 95.5072C51.771 95.5071 51.771 95.5071 51.7709 95.507C48.9534 93.4886 44.5741 90.2916 43.7521 89.306C42.0732 87.2926 44.005 85.9711 46.225 87.9592C48.6499 90.1308 50.6557 91.7351 53.3814 93.2662C53.7006 93.4327 54.0101 93.5736 54.3105 93.6931C59.3117 95.6833 61.671 91.4156 60.0743 89.0854C60.0658 89.073 60.0579 89.0602 60.0491 89.0479C57.963 86.1087 55.1529 84.0806 51.1019 81.6105C48.8639 80.2458 50.8726 78.2743 53.5128 80.0272C56.8637 82.252 60.1371 85.2108 62.1565 86.9222C62.239 86.9857 62.3229 87.0439 62.4075 87.0996C65.9838 89.456 71.2453 84.9534 68.2841 81.9534C68.2671 81.9362 68.2507 81.9199 68.2338 81.9028C65.641 79.2827 64.2794 78.4236 59.6372 75.5603C57.5204 74.2547 59.2465 72.2959 60.9241 73.1867C62.9741 74.2752 65.8804 75.9608 70.0706 79.4062C70.2255 79.5335 70.3797 79.6487 70.5332 79.7544C74.2384 82.3077 77.5009 78.7164 78.0631 75.49C78.2698 74.3032 78.2609 73.21 77.9155 72.1281C77.2829 70.1466 75.5209 68.2025 71.8815 65.7896Z" fill="#DB0007"/>
</g>
<defs>
<clipPath id="clip0_2300_41821">
<rect width="100" height="100" fill="white"/>
</clipPath>
</defs>
</svg>
