<svg width="100" height="100" viewBox="0 0 100 100" fill="none" xmlns="http://www.w3.org/2000/svg">
<g clip-path="url(#clip0_2300_41808)">
<path d="M93.401 44.606C92.7614 47.7766 90.6596 50.3802 87.153 50.3802C87.153 50.3802 8.60474 50.3802 8.54261 50.3802C7.06492 50.3802 6.05501 49.0301 6.35445 47.6246C7.23747 43.48 9.91323 39.5674 13.521 37.3571C15.5284 36.1272 17.7959 35.3388 20.1245 35.0082C22.6689 19.9568 37.1938 13.1348 49.4049 15.3997C58.0307 16.9988 66.0695 21.5152 69.0047 29.1809C72.335 27.6183 76.1635 27.1521 79.7629 27.819C87.9687 29.3411 95.3813 34.7887 93.401 44.606Z" fill="#FFBC0D"/>
<path d="M6.59133 3.84257C6.59966 3.21036 6.61723 2.57324 6.70857 1.94668C6.76765 1.54136 6.85681 1.12041 7.06778 0.763907C7.23062 0.488742 7.47122 0.302162 7.76872 0.184272C8.23352 7.89762e-05 8.75458 0.0132561 9.24418 0.0367457C9.67902 0.057605 10.1131 0.0693498 10.5472 0.102327C10.9308 0.131477 11.323 0.139089 11.6932 0.254949C11.9091 0.322492 12.1134 0.429263 12.2744 0.590235C12.5691 0.885556 12.6718 1.31711 12.7289 1.71677C12.8062 2.25855 12.8108 2.81074 12.8151 3.35696C12.8861 5.89283 12.5912 25.9781 12.5919 28.7061C12.5921 29.6706 12.8003 31.2829 11.9314 31.9749C11.3845 32.4104 10.5038 32.3935 9.8426 32.4508C8.97983 32.5256 8.01972 32.6919 7.20347 32.3976C5.92232 31.9358 6.24668 30.8229 6.25149 29.7599C6.2563 28.6969 6.33315 26.1231 6.33315 22.7427C6.33315 19.3623 6.42287 15.9575 6.47 12.565C6.50741 9.87134 6.54595 7.17771 6.5827 4.48405C6.58561 4.27023 6.5885 4.0564 6.59133 3.84257Z" fill="#DB0007"/>
<path d="M18.932 1.84747C18.9723 0.378299 19.3855 0.000737847 21.2085 0C21.9821 0 22.7546 0.047309 23.5273 0.0784722C23.9357 0.0949479 24.448 0.125017 24.7852 0.388073C25.1565 0.677726 25.131 1.19155 25.1557 1.61403C25.2268 2.83301 24.9319 12.488 24.9325 13.7993C24.9331 14.8845 24.9334 15.4856 23.3822 15.5326C22.4105 15.5355 21.1779 15.638 19.5632 15.638C18.6162 15.638 18.6158 15.0889 18.6162 13.6534C18.6165 12.9024 18.8851 3.5608 18.932 1.84747Z" fill="#DB0007"/>
<path d="M55.3369 99.9085C71.7962 99.2491 88.4308 94.2281 96.3917 78.062C100.071 70.5905 103.13 55.7181 93.1374 56.3059C78.0253 57.1946 13.9739 57.1831 5.62214 56.2773C-3.04097 55.3378 0.728662 65.2504 2.19036 68.5544C10.4685 87.2658 21.4194 101.267 55.3369 99.9085Z" fill="#DB0007"/>
<path d="M40.2212 76.129C40.2212 73.3318 42.1234 71.4669 44.9579 71.4669C46.9719 71.4669 49.0232 72.3993 50.7761 74.115C50.9999 74.3388 51.2237 74.3388 51.5221 74.0404C55.028 70.5345 57.8999 68.707 59.8765 68.707C61.2938 68.707 62.0771 69.6021 62.0771 71.2059C62.0771 74.9355 57.788 81.3878 51.4848 87.1315C51.0372 87.5418 50.6642 87.5418 49.9929 87.2061C43.9508 84.185 40.2212 79.9705 40.2212 76.129Z" fill="#FFFDE9"/>
</g>
<defs>
<clipPath id="clip0_2300_41808">
<rect width="100" height="100" fill="white"/>
</clipPath>
</defs>
</svg>
