<svg width="60" height="60" viewBox="0 0 60 60" fill="none" xmlns="http://www.w3.org/2000/svg">
<g clip-path="url(#clip0_2312_41728)">
<path d="M44.7152 26.9162C44.6741 27.8602 44.4593 28.1034 43.4332 28.1034C34.0455 27.7536 27.2429 27.6939 18.1089 28.1034C17.2059 28.0623 16.9066 27.8348 16.8964 27.0961C17.293 18.1287 17.2321 9.78179 16.7476 1.69051C16.7476 0.992803 16.9577 0.76297 17.6208 0.576465C19.7628 -0.0088428 42.4602 -0.27764 43.8721 0.398423C44.4802 0.586256 44.4619 1.21122 44.51 2.10355C44.9203 11.0101 44.9614 19.2409 44.7152 26.9162Z" fill="#DB0007"/>
<path d="M28.0717 58.8038C28.0307 59.7444 27.8168 59.9868 26.7943 59.9868C17.4404 59.6382 10.6622 59.5787 1.56103 59.9868C0.661272 59.9459 0.363059 59.7192 0.352892 58.9831C0.748111 50.0479 0.687408 41.731 0.20459 33.6688C0.20459 32.9736 0.413975 32.7446 1.07468 32.5588C3.20895 31.9756 25.8248 31.7077 27.2317 32.3814C27.8375 32.5685 27.8193 33.1912 27.8672 34.0804C28.2761 42.9549 28.317 51.1561 28.0717 58.8038Z" fill="#DB0007"/>
<path d="M59.6438 58.8158C59.6028 59.7569 59.3887 59.9994 58.3657 59.9994C49.0069 59.6506 42.2252 59.5911 33.1194 59.9994C32.2191 59.9584 31.9208 59.7316 31.9106 58.9952C32.306 50.0553 32.2453 41.7341 31.7622 33.6677C31.7622 32.9722 31.9717 32.743 32.6328 32.5571C34.7681 31.9736 57.3957 31.7056 58.8033 32.3796C59.4095 32.5669 59.3913 33.1899 59.4392 34.0795C59.8483 42.9586 59.8893 51.1641 59.6438 58.8158Z" fill="#DB0007"/>
<path d="M22.8647 12.6348C22.8647 10.6017 24.2473 9.2462 26.3076 9.2462C27.7714 9.2462 29.2624 9.92393 30.5364 11.1709C30.6991 11.3336 30.8617 11.3336 31.0786 11.1167C33.6268 8.56847 35.7142 7.24023 37.1509 7.24023C38.1811 7.24023 38.7503 7.89083 38.7503 9.0565C38.7503 11.7673 35.6329 16.4571 31.0515 20.6317C30.7262 20.93 30.4551 20.93 29.9672 20.686C25.5756 18.4902 22.8647 15.4269 22.8647 12.6348Z" fill="#8EE7F8"/>
<path d="M47.2476 38.3547L48.474 42.1291C48.6113 42.5519 49.0053 42.8382 49.4499 42.8382H53.4186C54.0746 42.8382 54.3474 43.6777 53.8167 44.0633L50.6059 46.396C50.2463 46.6573 50.0958 47.1205 50.2332 47.5433L51.4595 51.3178C51.6623 51.9417 50.9482 52.4606 50.4174 52.0749L47.2067 49.7422C46.847 49.4809 46.36 49.4809 46.0003 49.7422L42.7896 52.0749C42.2588 52.4606 41.5447 51.9417 41.7474 51.3178L42.9738 47.5433C43.1112 47.1205 42.9607 46.6573 42.6011 46.396L39.3903 44.0633C38.8596 43.6777 39.1323 42.8382 39.7884 42.8382H43.7571C44.2016 42.8382 44.5956 42.5519 44.733 42.1291L45.9594 38.3547C46.1621 37.7307 47.0448 37.7307 47.2476 38.3547Z" fill="#9CD83E"/>
<path d="M13.2283 40.8067C12.7876 41.5808 12.3742 42.3712 11.9474 43.1529C11.1938 44.5327 10.4356 45.91 9.66204 47.2788C8.90494 48.6184 7.57148 50.6146 7.29896 51.0228C7.0611 51.3791 6.64595 51.9036 6.87081 52.2464C7.09567 52.5892 7.86271 52.4969 8.24388 52.4645C10.0384 52.312 11.7419 52.3127 13.5421 52.3205C15.1774 52.3275 16.8126 52.3447 18.4477 52.3719C19.1941 52.3843 19.9452 52.3796 20.6907 52.4256C21.5729 52.4799 21.8768 52.2683 21.3001 51.3699C20.4334 49.9239 16.3309 43.0058 15.5754 41.5975C14.8198 40.1892 14.6077 39.418 14.2137 39.418C13.8198 39.418 13.641 40.0817 13.2283 40.8067Z" fill="#FFBC0D"/>
</g>
<defs>
<clipPath id="clip0_2312_41728">
<rect width="60" height="60" fill="white"/>
</clipPath>
</defs>
</svg>
