<svg width="60" height="60" viewBox="0 0 60 60" fill="none" xmlns="http://www.w3.org/2000/svg">
<g clip-path="url(#clip0_2312_41712)">
<path d="M32.5119 35.997C31.8418 36.8413 31.0916 36.1497 30.4032 35.8696C28.5141 35.1008 26.7977 35.2369 25.4271 36.8578C24.6132 37.8204 24.2425 39.4319 24.3109 40.663C24.5195 44.4124 27.2598 48.752 31.0046 52.4023C31.7701 53.1483 32.7164 53.856 33.4404 54.6024C34.646 55.8451 33.1492 56.7852 32.0274 57.2179C29.9691 58.0116 27.4338 56.6485 25.6266 55.6495C19.4361 52.2287 14.1669 43.9362 16.0148 36.7223C16.5363 34.6874 17.8035 32.646 19.4736 31.3594C21.3219 29.9356 24.208 29.3548 26.5018 29.6689C28.4311 29.9332 30.4542 30.705 31.8627 32.0915C32.3086 32.5305 32.7046 33.0664 32.839 33.6886C32.9707 34.2979 32.9122 35.4931 32.5119 35.997Z" fill="#DB0007"/>
<path d="M23.2439 56.1903C22.947 56.028 22.9264 56.0164 23.8585 56.5104C24.7651 56.9673 25.9495 57.7232 25.5779 58.9307C25.3563 59.6505 24.6346 60.0345 23.9094 59.9939C21.5659 59.8629 17.5605 59.0597 14.6204 57.3553C1.9679 50.0206 -3.86232 31.5017 3.19514 18.4971C4.75074 15.6306 6.97262 13.0779 9.83153 11.4589C13.9263 9.13993 18.7458 9.09096 23.0161 10.9382C24.744 11.6857 26.3673 12.6566 27.925 13.7089C30.3214 15.3278 34.7021 19.3345 34.7289 22.4403C34.7413 23.8097 34.1043 24.1746 33 24.7095C31.84 25.2715 31.0042 24.811 30.262 23.894C27.0122 19.8788 20.9678 16.7742 16.4312 20.6443C15.0695 21.806 14.1875 23.5053 13.5239 25.1371C12.6114 27.3812 12.074 29.779 11.8067 32.1827C11.5031 34.9135 11.5575 37.6926 12.0158 40.4032C12.4918 43.2184 13.4161 45.971 14.8708 48.4347C16.8355 51.7618 19.8596 54.3694 23.2439 56.1903Z" fill="#DB0007"/>
<path d="M48.9124 9.4649C52.7476 10.9363 53.443 15.4104 51.0675 18.4845C50.1119 19.7213 48.85 20.2385 47.3271 20.3409C46.0172 20.4296 44.5766 20.1703 43.4087 19.5591C37.0449 16.2298 43.154 7.25532 48.9124 9.4649Z" fill="#DB0007"/>
<path d="M31.3531 9.86484C26.9813 13.4935 19.177 9.13294 21.068 3.76348C21.7116 1.93612 23.7349 0.542162 25.7017 0.175469C27.7392 -0.245494 30.4886 0.0238023 31.9175 1.72408C33.105 3.13713 33.3116 5.25465 32.9315 7.00232C32.6989 8.07204 32.211 9.15304 31.3531 9.86484Z" fill="#DB0007"/>
<path d="M26.1307 26.924C25.7095 27.5333 25.1337 28.0706 24.4089 28.2716C23.1428 28.6222 22.0252 28.4535 20.8885 27.8093C16.1856 25.1442 20.4753 18.9239 24.8608 21.3982C27.0017 22.6062 27.5493 24.8707 26.1307 26.924Z" fill="#DB0007"/>
<path d="M28.5542 41.5625C28.5542 39.3233 30.077 37.8304 32.3461 37.8304C33.9583 37.8304 35.6004 38.5769 37.0036 39.9503C37.1828 40.1294 37.3619 40.1294 37.6008 39.8906C40.4073 37.084 42.7063 35.6211 44.2886 35.6211C45.4232 35.6211 46.0502 36.3376 46.0502 37.6215C46.0502 40.6071 42.6167 45.7723 37.5709 50.3702C37.2126 50.6987 36.914 50.6987 36.3766 50.43C31.5398 48.0115 28.5542 44.6377 28.5542 41.5625Z" fill="#D0C9FF"/>
<path d="M45.6529 57.0986C43.8943 58.3869 41.6544 59.9995 39.3676 59.9995C38.0727 59.9995 35.9162 59.4089 36.3616 57.6877C36.563 56.9093 37.1593 56.287 37.7162 55.7391C40.9368 52.5705 43.7634 49.0151 46.2577 45.2523C48.497 41.8742 51.0708 38.2419 50.8159 33.9979C50.4038 27.1376 41.9257 27.1006 38.3901 31.616C37.949 32.1794 37.3689 33.003 36.724 32.7171C36.1964 32.4831 35.3637 30.7204 35.3643 29.9998C35.3664 27.4322 39.6108 24.1891 41.6864 23.0488C50.0861 18.4358 59.0112 23.5704 59.7973 32.9483C60.3219 39.2068 57.5055 45.0295 53.4786 49.6606C51.2805 52.1886 48.5631 54.9669 45.6529 57.0986Z" fill="#DB0007"/>
</g>
<defs>
<clipPath id="clip0_2312_41712">
<rect width="60" height="60" fill="white"/>
</clipPath>
</defs>
</svg>
