<svg width="60" height="60" viewBox="0 0 60 60" fill="none" xmlns="http://www.w3.org/2000/svg">
<g clip-path="url(#clip0_2312_41736)">
<path d="M24.0674 36.037C24.0674 36.037 17.1215 13.5901 17.0653 12.8818C17.009 12.1739 16.5637 11.2114 17.7538 10.8864C18.9434 10.5614 22.7559 9.94842 23.0252 9.90571C23.2944 9.86352 24.6642 9.54165 21.1944 8.23383C18.6153 7.26196 16.5486 6.42863 12.4278 6.99842C10.7002 7.23748 6.21267 8.92342 5.84444 9.03644C5.47621 9.14946 5.51944 8.96456 5.47361 8.81508C5.36059 8.44685 5.24652 8.4755 4.821 8.58175C3.99809 8.78696 3.66215 8.83383 3.02777 9.10883C2.3934 9.38331 2.56579 9.68331 2.74965 10.151C2.9335 10.6182 4.20434 14.8734 4.35121 15.3135C4.55225 15.9146 4.29288 16.2724 5.21371 15.9896C6.13454 15.7068 6.81163 15.5302 6.98819 15.4526C7.42829 15.2604 6.85329 14.7739 7.19861 14.6187C8.03038 14.2453 10.2038 13.8213 10.7965 13.6161C11.4148 13.4015 11.3351 14.4651 11.5601 15.0677C13.1345 19.2864 17.9929 35.8068 17.9929 35.8068L24.0679 36.0364L24.0674 36.037Z" fill="#8EE7F8"/>
<path d="M26.7832 32.4617C26.7832 32.4617 27.8801 23.3737 27.9322 23.1128C27.9843 22.8518 27.9285 22.5664 28.3989 22.5664C28.8692 22.5664 29.19 22.7112 29.4509 22.7242C29.977 22.7503 29.9244 22.4555 29.977 21.6195C30.0291 20.7841 31.678 8.95236 31.7452 8.59351C31.8963 7.7883 31.4921 5.76278 31.2754 5.09403C30.7327 3.42059 31.5364 2.8482 32.1108 1.64715C32.6853 0.446112 32.7489 0.00652871 33.5004 0.0565287C34.2895 0.109133 35.0306 0.224758 35.2968 0.236216C35.9989 0.266945 35.9233 1.01955 36.1322 1.85549C36.341 2.6909 36.9978 4.34299 36.1843 5.6159C35.5525 6.60497 34.8134 7.84976 34.6046 9.20757C34.3957 10.5654 33.0796 20.6727 32.7374 22.1716C32.5838 22.8456 32.6614 23.2237 33.0791 23.2763C33.4968 23.3284 33.7384 23.3414 33.9468 23.3289C34.3937 23.3029 34.4082 23.4784 34.3556 24.0529C34.3035 24.6274 32.9978 32.9315 32.9978 32.9315L26.7827 32.4612L26.7832 32.4617Z" fill="#8EE7F8"/>
<path d="M38.213 34.8891C38.213 34.8891 44.6312 17.4782 44.8921 17.0605C45.1531 16.6428 44.7567 16.4027 44.3135 15.8511C43.0249 14.247 41.9046 11.635 42.8729 8.75476C44.1296 5.01726 47.3124 3.63654 48.0958 3.47976C48.8791 3.32299 48.9838 3.37508 48.8791 3.79331C48.7744 4.21101 47.6781 6.6657 47.4687 7.24018C47.2598 7.81466 47.051 8.54591 47.4687 9.48601C47.8864 10.4261 48.8697 10.9917 49.7666 11.3141C51.1239 11.8016 51.8036 12.2542 52.8479 11.6277C53.8921 11.0011 54.3104 10.322 54.5192 9.69539C54.7281 9.06883 55.4593 6.66622 55.6161 6.35268C55.7728 6.03914 55.7979 5.5907 56.3994 6.50945C57.5921 8.33081 58.2275 11.3667 57.5484 13.1423C56.8692 14.9178 55.6729 17.2449 51.5702 18.4022C50.0114 18.8417 50.1749 18.46 49.9661 19.2438C49.7572 20.0272 44.339 35.2579 44.339 35.2579L38.2119 34.8897L38.213 34.8891Z" fill="#8EE7F8"/>
<path d="M59.6233 58.1709C59.5452 59.5844 59.1379 59.9485 57.19 59.9485C39.3718 59.4245 20.0077 59.3355 2.67126 59.9485C0.957194 59.887 0.389486 59.5464 0.369694 58.4402C1.1223 45.012 1.00667 43.6438 0.0874023 31.5277C0.0874023 30.4829 0.486361 30.1386 1.74469 29.8594C5.81032 28.9829 55.3431 28.5803 58.0233 29.5928C59.1775 29.874 59.1426 30.81 59.2343 32.1459C60.0129 45.4829 60.091 46.6771 59.6239 58.1704L59.6233 58.1709Z" fill="#DB0007"/>
<path d="M20.6709 42.5978C20.6709 39.9707 22.4574 38.2191 25.1199 38.2191C27.0115 38.2191 28.9381 39.0947 30.5844 40.7061C30.7949 40.9165 31.0048 40.9165 31.285 40.6363C34.5777 37.3436 37.2751 35.627 39.1313 35.627C40.4626 35.627 41.198 36.4676 41.198 37.9738C41.198 41.477 37.1693 47.5368 31.2495 52.9316C30.8292 53.3171 30.4787 53.3171 29.8485 53.002C24.1735 50.1645 20.6709 46.2061 20.6709 42.5983V42.5978Z" fill="#FFFDE9"/>
</g>
<defs>
<clipPath id="clip0_2312_41736">
<rect width="60" height="60" fill="white"/>
</clipPath>
</defs>
</svg>
