<svg width="100" height="100" viewBox="0 0 100 100" fill="none" xmlns="http://www.w3.org/2000/svg">
<path d="M47.2552 23.1364C47.1285 21.6824 46.4896 20.9168 45.342 20.9168C43.4288 20.764 38.8967 20.7336 37.0764 20.9932C35.4688 21.2232 35.8299 19.6329 35.8134 18.8482C35.7691 16.7684 35.7118 14.6546 35.638 12.5019C35.599 11.527 35.1632 10.7388 34.2448 10.6399C33.0964 9.90204 16.0113 10.1954 14.27 10.8343C13.7309 11.0383 13.0625 11.2892 13.0625 12.0505C13.1979 15.0809 13.1215 19.3578 13.1215 19.922C13.1215 21.6824 11.9149 21.4133 10.9965 21.3899C6.45747 21.2744 4.59983 21.2961 2.43577 21.672C0.55035 22.0001 0.500003 23.0479 0.55469 24.1182C1.02518 33.4316 0.80035 69.106 0.80035 75.488C0.80035 76.5592 1.10677 77.4012 2.56077 77.4012C4.45226 77.4012 9.08854 77.1642 15.6571 77.0201C15.9028 70.0192 15.8429 64.1329 15.7014 59.027C15.7014 58.5461 15.8464 58.3881 16.303 58.2597C17.7778 57.856 31.2526 57.6711 32.2248 58.1373C32.6432 58.2666 32.671 58.6963 32.6641 59.3126C32.605 64.5522 32.7318 71.3925 32.8594 76.6564C32.862 76.7779 32.901 76.8873 32.954 76.9871C39.2439 77.1164 42.4948 77.3699 45.1545 77.3699C47.1415 77.3699 47.5868 76.7293 47.6372 74.2345C47.9575 58.2458 47.9931 31.5592 47.2578 23.1373L47.2552 23.1364Z" fill="#D0C9FF"/>
<path d="M98.0893 89.7377C94.5867 89.6604 3.81149 89.571 1.27677 89.7802C0.356632 89.8558 0.146562 89.6552 0.0996874 88.6032C0.0528124 87.5511 0.149167 85.5433 0.0996874 84.7499C0.0528124 83.9999 0.247257 83.5285 1.27677 83.5728C3.56844 83.6709 96.2993 83.433 98.6171 83.5476C99.5867 83.5953 99.8211 83.7716 99.7941 84.7247C99.769 85.6292 99.7941 87.6874 99.7941 88.578C99.7941 89.4686 99.5172 89.7698 98.0884 89.7386L98.0893 89.7377Z" fill="#9CD83E"/>
<path d="M99.7074 75.6694C99.6519 76.9464 99.2074 77.3908 97.8194 77.3908C94.0989 77.3908 85.5477 76.7797 76.3862 76.7797C66.5025 76.7797 59.0616 77.5019 55.1753 77.3908C53.9539 77.3352 53.3567 76.8352 53.3428 75.8361C53.3211 74.2441 53.5737 70.2389 53.5737 61.2996C53.5737 55.0253 53.1206 45.9073 53.1206 43.1312C53.1206 42.1877 53.3428 41.7988 54.1197 41.2432C59.2838 37.5783 68.6128 29.6382 75.1093 23.0861C76.0538 22.1972 76.7751 22.1417 77.9409 22.9194C83.1605 26.5288 93.8767 35.4134 98.375 39.9108C99.2074 40.6885 99.4296 41.2988 99.4296 42.4099C99.9852 54.4594 100.041 65.2866 99.7074 75.6703V75.6694Z" fill="#DB0007"/>
<path d="M60.5605 53.7917C60.5605 49.6276 63.3921 46.8507 67.6126 46.8507C70.6109 46.8507 73.6647 48.2387 76.275 50.7934C76.6083 51.1267 76.9416 51.1267 77.3852 50.6823C82.6048 45.4627 86.88 42.7422 89.8236 42.7422C91.9338 42.7422 93.0996 44.0747 93.0996 46.4627C93.0996 52.0156 86.7142 61.6215 77.3296 70.1727C76.663 70.7839 76.1083 70.7839 75.1083 70.2839C66.1126 65.7865 60.5605 59.5113 60.5605 53.7925V53.7917Z" fill="#FFFDE9"/>
<path d="M21.6682 33.7897V28.8887H17.0779C16.5822 28.8887 16.2715 28.5779 16.2715 28.0822V24.9807C16.2715 24.4529 16.5814 24.1743 17.0779 24.1743H21.6682V19.2732C21.6682 18.7776 21.9781 18.4668 22.4755 18.4668H25.8869C26.4147 18.4668 26.6942 18.7776 26.6942 19.2732V24.1743H31.3158C31.8427 24.1743 32.1222 24.4842 32.1222 24.9807V28.0822C32.1222 28.6092 31.8123 28.8887 31.3158 28.8887H26.6942V33.7897C26.6942 34.2854 26.3843 34.5961 25.8869 34.5961H22.4755C21.9781 34.5961 21.6682 34.2854 21.6682 33.7897Z" fill="#DB0007"/>
</svg>
