<svg width="60" height="60" viewBox="0 0 60 60" fill="none" xmlns="http://www.w3.org/2000/svg">
<path d="M28.3533 13.8819C28.2773 13.0095 27.8939 12.5501 27.2054 12.5501C26.0575 12.4584 23.3382 12.4402 22.246 12.5959C21.2814 12.7339 21.4981 11.7798 21.4882 11.3089C21.4617 10.061 21.4273 8.79279 21.383 7.50112C21.3596 6.91623 21.0981 6.44331 20.5471 6.38393C19.858 5.94123 9.60697 6.11727 8.56218 6.5006C8.23874 6.623 7.8377 6.77352 7.8377 7.23029C7.91895 9.04852 7.87311 11.6147 7.87311 11.9532C7.87311 13.0095 7.14916 12.848 6.59811 12.8339C3.87468 12.7647 2.76009 12.7777 1.46166 13.0032C0.330405 13.2001 0.300197 13.8287 0.33301 14.4709C0.615301 20.0589 0.480405 41.4636 0.480405 45.2928C0.480405 45.9355 0.66426 46.4407 1.53666 46.4407C2.67155 46.4407 5.45332 46.2985 9.39447 46.2121C9.54186 42.0115 9.50593 38.4798 9.42103 35.4162C9.42103 35.1277 9.50801 35.0329 9.78197 34.9558C10.6669 34.7136 18.7518 34.6027 19.3351 34.8824C19.5861 34.96 19.6028 35.2178 19.5986 35.5876C19.5632 38.7313 19.6393 42.8355 19.7158 45.9938C19.7174 46.0667 19.7408 46.1324 19.7726 46.1923C23.5466 46.2699 25.4971 46.422 27.0929 46.422C28.2851 46.422 28.5523 46.0376 28.5825 44.5407C28.7747 34.9475 28.796 18.9355 28.3549 13.8824L28.3533 13.8819Z" fill="#D0C9FF"/>
<path d="M58.8535 53.8426C56.7519 53.7963 2.2868 53.7426 0.765965 53.8681C0.213881 53.9135 0.0878398 53.7931 0.0597148 53.1619C0.0315898 52.5306 0.0894023 51.326 0.0597148 50.8499C0.0315898 50.3999 0.148256 50.1171 0.765965 50.1437C2.14096 50.2025 57.7795 50.0598 59.1701 50.1286C59.7519 50.1572 59.8925 50.2629 59.8764 50.8348C59.8613 51.3775 59.8764 52.6124 59.8764 53.1468C59.8764 53.6812 59.7102 53.8619 58.8529 53.8431L58.8535 53.8426Z" fill="#9CD83E"/>
<path d="M59.8246 45.4024C59.7913 46.1686 59.5246 46.4353 58.6918 46.4353C56.4595 46.4353 51.3288 46.0686 45.8319 46.0686C39.9017 46.0686 35.4371 46.5019 33.1054 46.4353C32.3726 46.4019 32.0142 46.1019 32.0059 45.5024C31.9929 44.5472 32.1444 42.1441 32.1444 36.7806C32.1444 33.016 31.8726 27.5452 31.8726 25.8795C31.8726 25.3134 32.0059 25.0801 32.472 24.7467C35.5705 22.5478 41.1679 17.7837 45.0658 13.8524C45.6325 13.3191 46.0653 13.2858 46.7647 13.7524C49.8965 15.9181 56.3262 21.2488 59.0252 23.9472C59.5246 24.4139 59.658 24.7801 59.658 25.4467C59.9913 32.6764 60.0246 39.1728 59.8246 45.403V45.4024Z" fill="#DB0007"/>
<path d="M36.3364 32.2762C36.3364 29.7777 38.0354 28.1116 40.5677 28.1116C42.3666 28.1116 44.1989 28.9444 45.7651 30.4772C45.9651 30.6772 46.1651 30.6772 46.4312 30.4105C49.563 27.2788 52.1281 25.6465 53.8942 25.6465C55.1604 25.6465 55.8599 26.446 55.8599 27.8788C55.8599 31.2105 52.0286 36.9741 46.3979 42.1048C45.9979 42.4715 45.6651 42.4715 45.0651 42.1715C39.6677 39.473 36.3364 35.7079 36.3364 32.2767V32.2762Z" fill="#FFFDE9"/>
<path d="M13.0012 20.2738V17.3332H10.247C9.94964 17.3332 9.76318 17.1467 9.76318 16.8493V14.9884C9.76318 14.6717 9.94912 14.5046 10.247 14.5046H13.0012V11.5639C13.0012 11.2665 13.1871 11.0801 13.4856 11.0801H15.5325C15.8491 11.0801 16.0168 11.2665 16.0168 11.5639V14.5046H18.7897C19.1059 14.5046 19.2736 14.6905 19.2736 14.9884V16.8493C19.2736 17.1655 19.0877 17.3332 18.7897 17.3332H16.0168V20.2738C16.0168 20.5712 15.8309 20.7577 15.5325 20.7577H13.4856C13.1871 20.7577 13.0012 20.5712 13.0012 20.2738Z" fill="#DB0007"/>
</svg>
