<svg width="508" height="274" viewBox="0 0 508 274" fill="none" xmlns="http://www.w3.org/2000/svg">
<path d="M19.3206 274C8.27489 274 -0.755404 265.033 0.0500155 254.017C3.99618 200.042 23.8595 148.277 57.3468 105.384C94.9488 57.2213 147.571 23.009 206.848 8.18546C266.126 -6.63808 328.658 -1.22222 384.504 23.5722C434.24 45.6535 476.131 81.9757 505.019 127.739C510.915 137.08 507.168 149.242 497.423 154.442L496.452 154.959C486.707 160.159 474.662 156.416 468.646 147.152C444.158 109.442 409.183 79.4973 367.827 61.1364C320.357 40.0611 267.205 35.4576 216.819 48.0577C166.433 60.6577 121.705 89.7381 89.7429 130.677C61.8976 166.343 45.1346 209.226 41.2786 254.024C40.3313 265.029 31.4663 274 20.4206 274H19.3206Z" fill="#FFBC0D"/>
</svg>
