<svg width="547" height="274" viewBox="0 0 547 274" fill="none" xmlns="http://www.w3.org/2000/svg">
<path d="M19.3204 274C8.27474 274 -0.755513 265.034 0.0500305 254.018C2.18093 224.876 8.96294 196.219 20.1774 169.145C33.9472 135.902 54.1299 105.696 79.5732 80.2527C105.016 54.8095 135.222 34.6268 168.465 20.857C201.708 7.08721 237.338 -4.71849e-06 273.32 0C309.303 4.7185e-06 344.932 7.08723 378.176 20.857C411.419 34.6268 441.624 54.8095 467.068 80.2528C492.511 105.696 512.694 135.902 526.463 169.145C537.678 196.219 544.46 224.876 546.591 254.018C547.396 265.034 538.366 274 527.32 274H526.22C515.175 274 506.31 265.029 505.362 254.024C503.319 230.285 497.64 206.959 488.492 184.873C476.788 156.616 459.632 130.942 438.006 109.315C416.379 87.6881 390.704 70.5328 362.447 58.8285C334.191 47.1241 303.905 41.1 273.32 41.1C242.736 41.1 212.45 47.1241 184.193 58.8284C155.937 70.5328 130.262 87.688 108.635 109.315C87.0085 130.942 69.8532 156.616 58.1489 184.873C49.0004 206.959 43.3223 230.285 41.2786 254.024C40.3313 265.029 31.4661 274 20.4204 274H19.3204Z" fill="#DE93FF"/>
</svg>
