<svg width="546" height="274" viewBox="0 0 546 274" fill="none" xmlns="http://www.w3.org/2000/svg">
<path d="M19.3209 274C8.2752 274 -0.75517 265.033 0.0499833 254.017C4.77366 189.387 32.2943 128.269 78.058 81.7804C128.515 30.5247 197.102 1.16357 269.017 0.0338439C340.932 -1.09588 410.408 26.0964 462.45 75.7419C509.651 120.77 539.078 180.993 545.829 245.443C546.98 256.429 538.236 265.675 527.196 266.022L526.096 266.056C515.056 266.403 505.913 257.714 504.621 246.744C498.3 193.088 473.473 143.059 434.08 105.481C389.845 63.2819 330.79 40.1685 269.663 41.1288C208.535 42.089 150.236 67.046 107.347 110.613C69.1551 149.41 45.911 200.195 41.2787 254.023C40.3316 265.028 31.4666 274 20.4209 274H19.3209Z" fill="#75A6FE"/>
</svg>
