<svg width="545" height="274" viewBox="0 0 545 274" fill="none" xmlns="http://www.w3.org/2000/svg">
<path d="M19.3209 274C8.27517 274 -0.755195 265.034 0.0499866 254.017C4.69886 190.412 31.4294 130.177 75.9562 83.9391C125.123 32.8827 192.163 2.86638 262.994 0.194872C333.825 -2.47664 402.935 22.4046 455.808 69.6124C503.691 112.365 534.883 170.416 544.31 233.49C545.943 244.414 537.614 254.035 526.599 254.867L525.502 254.95C514.488 255.782 504.972 247.503 503.199 236.601C494.665 184.136 468.384 135.939 428.435 100.271C383.493 60.1439 324.749 38.9949 264.543 41.2657C204.337 43.5364 147.353 69.0503 105.561 112.448C68.4119 151.025 45.8363 201.064 41.2787 254.023C40.3316 265.028 31.4665 274 20.4209 274H19.3209Z" fill="#4FDCAF"/>
</svg>
