<svg width="537" height="274" viewBox="0 0 537 274" fill="none" xmlns="http://www.w3.org/2000/svg">
<path d="M19.3207 274.001C8.27503 274.001 -0.755292 265.033 0.05 254.017C4.4536 193.776 28.6719 136.463 69.2198 91.1926C114.23 40.9396 176.198 9.05837 243.254 1.65534C310.309 -5.74768 377.739 11.8479 432.628 51.0719C482.075 86.4072 518.212 137.057 535.651 194.886C538.84 205.462 531.983 216.183 521.204 218.592L520.13 218.832C509.35 221.242 498.742 214.42 495.417 203.887C480.277 155.925 449.943 113.961 408.732 84.5112C362.077 51.1708 304.761 36.2146 247.764 42.5071C190.766 48.7997 138.094 75.8987 99.8349 118.614C66.0409 156.344 45.5913 203.915 41.2786 254.024C40.3314 265.029 31.4664 274.001 20.4207 274.001H19.3207Z" fill="#FF7777"/>
</svg>
