<svg width="80" height="80" viewBox="0 0 80 80" fill="none" xmlns="http://www.w3.org/2000/svg">
<path d="M58.4544 68.4186C58.3815 70.0992 57.9988 70.5325 56.1717 70.5325C39.4585 69.9096 39.8412 69.6186 23.5794 70.3478C21.9717 70.2749 21.4391 69.8693 21.421 68.5547C22.1273 52.5895 22.019 26.7652 21.1558 12.3603C21.1558 11.1179 21.5301 10.7089 22.7106 10.377C26.5238 9.33459 54.4398 9.04084 56.9537 10.2443C58.0363 10.579 58.0037 11.6915 58.0891 13.2797C59.0092 33.2485 59.0349 50.3214 58.4544 68.4186Z" fill="#DB0007"/>
<path d="M53.7586 58.7919C53.7037 60.0447 53.419 60.3676 52.0572 60.3676C39.5968 59.903 39.8822 59.6863 27.7586 60.2301C26.56 60.1752 26.1628 59.8738 26.1489 58.8933C26.6753 46.9905 26.5947 27.7377 25.9517 16.9974C25.9517 16.0711 26.2308 15.7662 27.1107 15.519C29.9537 14.7419 50.7662 14.5224 52.6399 15.4204C53.4468 15.6697 53.4225 16.4995 53.4864 17.6836C54.1725 32.5711 54.1919 45.2995 53.7586 58.7919Z" fill="#FFFDE9"/>
<path d="M34.904 36.6093C35.4416 35.7997 36.1655 36.3249 36.6959 36.8172C37.3373 37.4126 38.2433 38.1977 38.505 38.1675C38.8485 38.1279 43.4863 33.4866 43.8321 33.1871C44.1779 32.8876 44.6935 32.9347 45.2153 33.4221C45.737 33.9094 46.0326 34.3337 46.3156 34.5852C46.5985 34.8367 46.567 35.2768 45.9383 35.7798C45.3096 36.2828 39.7139 41.0926 39.1166 41.6899C38.5193 42.2872 38.3376 42.1385 37.7088 41.6041C37.0801 41.0696 34.7783 39.2378 34.3382 38.9549C33.8981 38.672 33.9551 38.5348 34.1278 38.0915C34.3978 37.3985 34.6553 36.9839 34.904 36.6093Z" fill="#9CD83E"/>
<path d="M37.6959 64.6976C38.064 62.2441 41.6008 62.2163 42.2855 63.3004C44.8487 67.3608 36.9383 69.7511 37.6959 64.6976Z" fill="#FFFDE9"/>
</svg>
