<svg width="80" height="80" viewBox="0 0 80 80" fill="none" xmlns="http://www.w3.org/2000/svg">
<g clip-path="url(#clip0_2927_23782)">
<path d="M28.1797 10.0641C28.1797 6.2974 30.7408 3.78628 34.5582 3.78628C37.27 3.78628 40.0325 5.04184 42.3922 7.35226C42.6936 7.65365 42.995 7.65365 43.3964 7.25156C48.1179 2.53073 51.9845 0.0703125 54.6464 0.0703125C56.5547 0.0703125 57.6095 1.27587 57.6095 3.4349C57.6095 8.45712 51.8339 17.1453 43.347 24.8793C42.7443 25.4321 42.2422 25.4321 41.338 24.98C33.2019 20.912 28.1804 15.237 28.1804 10.0641H28.1797Z" fill="#DB0007"/>
<path d="M36.9858 70.3147C35.2129 68.7272 33.6698 69.782 35.0108 71.3904C35.6671 72.1779 39.165 74.7307 41.415 76.3425C42.0282 75.9313 42.7101 75.4432 43.4427 74.8938C43.2025 74.7987 42.9559 74.6855 42.7011 74.5529C40.524 73.33 38.9226 72.0487 36.9858 70.3147Z" fill="#D0C9FF"/>
<path d="M42.8054 63.9801C40.6971 62.5801 39.0929 64.1544 40.8804 65.2447C44.1158 67.2176 46.3596 68.8371 48.0255 71.1843C48.0325 71.194 48.0387 71.2044 48.0457 71.2141C48.6595 70.6989 49.2832 70.1683 49.9089 69.628C49.8415 69.5836 49.7741 69.537 49.7082 69.4864C48.0957 68.1197 45.4811 65.7565 42.8054 63.9801Z" fill="#D0C9FF"/>
<path d="M48.7243 58.5172C47.3848 57.8061 46.0063 59.37 47.6966 60.413C51.4042 62.6998 52.491 63.3859 54.5618 65.4783C55.191 64.8991 55.8056 64.3248 56.3979 63.7623C56.275 63.6776 56.1521 63.5859 56.0285 63.4846C52.682 60.7332 50.3611 59.3866 48.7236 58.5179L48.7243 58.5172Z" fill="#D0C9FF"/>
<path d="M79.3164 42.9309C78.6719 41.6344 73.1407 27.7302 72.465 25.7782C70.9184 21.3066 69.4566 19.1393 63.5879 25.2587C61.7768 26.6921 60.4608 28.9427 58.4983 30.0601C53.574 32.8629 47.0247 30.2823 41.6629 31.4136C40.7379 31.6087 39.7525 31.9636 38.758 32.424C37.8115 32.8615 36.8559 33.3962 35.9351 33.9802C35.6601 34.1546 35.3886 34.333 35.1212 34.515C33.9615 35.3483 32.899 36.233 32.0393 37.0566C31.5414 37.5351 31.1136 38.1907 30.5525 38.6802C29.0955 39.949 27.1157 40.7934 25.8421 42.283C22.8532 45.7782 25.1379 50.2337 29.4643 50.5372C34.1733 50.8677 38.5434 49.4046 42.2448 46.5705C42.4539 46.4101 42.6608 46.2455 42.8657 46.0775C43.2636 45.7483 44.1726 44.9962 44.5865 44.4302L47.0157 45.9011L57.474 52.6101C60.3802 54.5372 61.7879 56.09 62.2927 57.6719C62.5129 57.399 62.6983 57.1525 62.8434 56.9386C62.8823 56.8809 62.9177 56.8261 62.9511 56.7733C63.1601 56.2414 63.7962 55.3052 64.1393 54.8039C66.6608 51.1184 70.6789 48.2511 74.9934 47.0629C75.4802 46.9289 76.2358 46.8344 76.8747 46.6691C76.8761 46.6691 76.8775 46.6684 76.8789 46.6684C79.3532 46.1011 80.542 45.3976 79.3164 42.9302V42.9309Z" fill="#D0C9FF"/>
<path d="M57.4751 52.6093L47.0168 45.9003L44.5876 44.4295C44.1737 44.9955 43.264 45.7475 42.8668 46.0767C42.6626 46.2455 42.4549 46.41 42.2459 46.5698C38.5445 49.4031 34.1751 50.8663 29.4654 50.5364C25.139 50.2336 22.8543 45.7774 25.8431 42.2823C27.1174 40.7927 29.0966 39.9475 30.5536 38.6795C31.1154 38.1906 31.5424 37.5343 32.0404 37.0559C32.8994 36.2323 33.9619 35.3468 35.1223 34.5142C35.514 34.233 35.9174 33.9573 36.3272 33.692C37.2265 33.1093 38.1605 32.5767 39.0855 32.1406C38.4987 31.4795 37.6667 30.6496 36.7348 30.0468C34.6473 28.508 31.4508 28.2857 28.9688 28.5517C24.9806 28.9781 18.7126 31.7475 15.3501 28.4135C15.0876 28.1531 14.8938 27.8184 14.7001 27.4927C14.6987 27.4892 14.6966 27.485 14.6938 27.4816C14.6869 27.4691 14.6793 27.4566 14.6709 27.4434C14.6161 27.3531 14.5619 27.2663 14.5084 27.1802C14.5043 27.1732 14.4994 27.167 14.4952 27.16C12.2522 23.5461 11.5077 23.2357 9.22578 25.6968C7.04175 28.0524 2.53897 41.3017 1.048 43.9823C-0.442275 46.6642 0.18967 47.5989 1.66189 49.3232C3.40147 51.4802 5.73689 53.8288 7.66745 55.8607C13.1799 61.6642 19.1195 67.3274 25.1431 72.5781C27.739 74.8413 32.3306 78.9809 35.5133 79.7482C36.7911 80.0566 38.2001 79.9899 39.6709 79.4212C40.7431 79.0059 42.3494 77.0128 41.4154 76.3434C39.1654 74.7316 35.6681 72.1781 35.0112 71.3913C33.6702 69.7836 35.2133 68.7281 36.9862 70.3156C38.923 72.0496 40.5244 73.3309 42.7015 74.5538C42.9563 74.6864 43.2036 74.7996 43.4431 74.8948C47.4369 76.4843 49.3216 73.076 48.0459 71.2149C48.039 71.2052 48.0327 71.1948 48.0258 71.185C46.3598 68.8378 44.1154 67.2184 40.8806 65.2455C39.0931 64.1559 40.6973 62.5809 42.8056 63.9809C45.482 65.758 48.0959 68.1205 49.7084 69.4871C49.7744 69.5378 49.8411 69.5843 49.9091 69.6288C52.7654 71.5107 56.9668 67.9149 54.6022 65.5191C54.5883 65.5052 54.5758 65.492 54.5619 65.4788C52.4911 63.3864 51.4036 62.7003 47.6966 60.4135C46.0063 59.3711 47.3848 57.8066 48.7244 58.5177C50.3619 59.3871 52.6827 60.733 56.0293 63.4843C56.1529 63.5857 56.2758 63.6781 56.3987 63.7621C59.3577 65.801 61.9633 62.933 62.4119 60.3566C62.5772 59.4086 62.5695 58.5357 62.2938 57.6718C61.789 56.0892 60.3813 54.5371 57.4751 52.61V52.6093Z" fill="#DB0007"/>
</g>
<defs>
<clipPath id="clip0_2927_23782">
<rect width="80" height="80" fill="white"/>
</clipPath>
</defs>
</svg>
