<svg width="324" height="420" viewBox="0 0 324 420" fill="none" xmlns="http://www.w3.org/2000/svg">
<path d="M320.468 320.234C320.468 345.599 324.107 394.422 312.209 414.264C305.697 421.5 300.214 419.326 293.689 419.225C144.19 411.632 190.854 418.402 41.2589 419.111C28.1129 419.111 6.04305 423.97 5.56327 403.824C7.86622 343.778 9.78534 187.381 6.42688 85.0311C6.04305 68.1247 4.21989 51.117 3.26033 34.2105C1.62907 20.9486 7.6743 9.10391 21.1081 7.6866C94.29 -2.03209 226.063 -1.17278 279.104 2.82726C288.315 3.63715 301.174 2.92849 308.466 9.00267C314.607 15.3806 314.511 27.6302 315.279 36.3365C319.981 124.513 320.468 304.734 320.468 304.734V316.937V320.234Z" fill="#8EE7F8"/>
<path d="M24.1961 57.1201C25.3961 49.9201 32.3652 43.4534 35.6985 41.12C38.1988 39.12 40.6985 40.1199 42.1985 41.6199C43.3985 42.8199 42.8652 44.7868 42.1985 45.6201L37.1985 52.6201C38.1985 52.6201 42.1985 54.0199 42.1985 59.6199C42.1985 66.6199 37.1985 69.1201 33.6957 69.1201C30.1827 69.1201 22.6961 66.1201 24.1961 57.1201Z" fill="#1B43B2"/>
<path d="M44.3821 57.1201C45.5821 49.9201 52.5512 43.4534 55.8845 41.12C58.3848 39.12 60.8845 40.1199 62.3845 41.6199C63.5845 42.8199 63.0512 44.7868 62.3845 45.6201L57.3845 52.6201C58.3845 52.6201 62.3845 54.0199 62.3845 59.6199C62.3845 66.6199 57.3845 69.1201 53.8817 69.1201C50.3688 69.1201 42.8821 66.1201 44.3821 57.1201Z" fill="#1B43B2"/>
<g clip-path="url(#clip0_2893_20671)">
<path d="M266.315 394.892C265.315 395.859 263.787 396.049 262.58 395.354C249.697 387.939 222.681 369.288 219.045 347.594C215.868 328.644 230.128 322.244 239.442 323.369C248.079 324.413 253.789 330.159 257.846 334.851C258.312 335.39 259.165 335.348 259.585 334.771C263.503 329.379 272.23 319.726 280.805 318.126C290.038 316.403 296.98 321.738 297.912 332.39C299.886 354.953 276.957 384.597 266.315 394.892Z" fill="#1B43B2"/>
</g>
<defs>
<clipPath id="clip0_2893_20671">
<rect width="80" height="76" fill="white" transform="translate(216.84 323.63) rotate(-5)"/>
</clipPath>
</defs>
</svg>
