<svg width="120" height="110" viewBox="0 0 120 110" fill="none" xmlns="http://www.w3.org/2000/svg">
  <!-- 크레파스로 그린 듯한 러프한 하트 모양 패스 -->
  <path d="M60 95C60 95 15 65 15 35C15 17.5 28.5 10 45 10C54 10 60 18 60 18C60 18 66 10 75 10C91.5 10 105 17.5 105 35C105 65 60 95 60 95Z" fill="#db0007" fill-opacity="0.85" stroke="#db0007" stroke-width="4" stroke-linecap="round" stroke-linejoin="round" stroke-dasharray="1 3"/>
  <path d="M58 92C58 92 20 63 20 37C20 22 30 15 45 15C53 15 58 22 58 22C58 22 63 15 72 15C87 15 98 22 98 37C98 63 58 92 58 92Z" stroke="white" stroke-width="2" stroke-linecap="round" stroke-linejoin="round" stroke-dasharray="8 8"/>
</svg>
