<svg width="100" height="100" viewBox="0 0 100 100" fill="none" xmlns="http://www.w3.org/2000/svg">
<g clip-path="url(#clip0_2862_74320)">
<path d="M98.203 99.2039C94.696 99.1267 3.81583 99.0372 1.27851 99.2464C0.356632 99.3228 0.146562 99.1215 0.0996874 98.0676C0.0528124 97.0147 0.149167 95.0034 0.0996874 94.21C0.0528124 93.4591 0.248125 92.9869 1.27851 93.0312C3.57278 93.1301 96.4122 92.8914 98.7325 93.006C99.7039 93.0537 99.9382 93.23 99.9113 94.1848C99.8853 95.0902 99.9113 97.151 99.9113 98.0425C99.9113 98.9339 99.6344 99.2352 98.2039 99.2039H98.203Z" fill="#9CD83E"/>
<path d="M67.4716 85.4043C67.3926 87.656 67.1513 88.2385 65.8657 88.2385C54.107 87.4034 48.278 87.2611 36.8371 88.2385C35.706 88.1404 35.331 87.597 35.318 85.834C35.8145 64.4286 35.7381 24.0892 35.1313 4.77496C35.1313 3.10916 35.3944 2.56055 36.2251 2.11611C38.9083 0.718538 64.6461 0.0770446 66.4143 1.69076C67.1756 2.13954 67.3996 3.80621 67.4595 5.93642C68.8006 33.9043 68.3128 61.354 67.4699 85.4043H67.4716Z" fill="#D0C9FF"/>
<path d="M44.955 86.1883C44.876 87.8176 44.6347 88.2386 43.3491 88.2386C31.5904 87.6345 25.7614 87.5312 14.3205 88.2386C13.1894 88.1674 12.8144 87.7751 12.8014 86.499C13.2979 71.0138 13.2215 40.2499 12.6147 26.2768C12.6147 25.072 12.8778 24.6753 13.7085 24.3532C16.3917 23.3428 42.1295 22.8784 43.8977 24.0459C44.659 24.3706 44.883 25.5763 44.9429 27.1171C46.284 47.3497 45.7962 68.789 44.9533 86.1883H44.955Z" fill="#DB0007"/>
<path d="M86.562 86.7047C86.483 87.9234 86.2416 88.2385 84.9561 88.2385C73.1974 87.7863 67.3684 87.709 55.9274 88.2385C54.7963 88.1856 54.4213 87.8913 54.4083 86.9373C54.9048 75.3522 54.8285 50.8983 54.2217 40.4451C54.2217 39.5441 54.4847 39.2472 55.3154 39.0059C57.9986 38.2498 83.7364 37.9026 85.5047 38.7759C86.2659 39.0189 86.4899 39.9208 86.5498 41.0736C87.8909 56.2099 87.4031 73.6882 86.5602 86.7047H86.562Z" fill="#DB0007"/>
<path d="M73.3169 20.2483C73.3169 17.5312 75.165 15.7196 77.9176 15.7196C79.8742 15.7196 81.8664 16.625 83.5686 18.2917C83.7856 18.5087 84.0035 18.5087 84.2935 18.2196C87.6988 14.8142 90.4879 13.0391 92.408 13.0391C93.7848 13.0391 94.5452 13.9089 94.5452 15.4661C94.5452 19.0885 90.3794 25.3559 84.257 30.9349C83.8221 31.3333 83.4601 31.3333 82.8082 31.0078C76.9393 28.0729 73.3169 23.98 73.3169 20.2483Z" fill="#FFC829"/>
</g>
<defs>
<clipPath id="clip0_2862_74320">
<rect width="100" height="100" fill="white"/>
</clipPath>
</defs>
</svg>
