<svg width="100" height="100" viewBox="0 0 100 100" fill="none" xmlns="http://www.w3.org/2000/svg">
<g clip-path="url(#clip0_2862_74333)">
<path d="M24.4677 74.7299C21.9876 80.1864 18.6864 82.3375 20.8158 86.597C22.946 90.8575 29.0319 94.8132 32.3791 95.117C35.7264 95.4217 40.8991 95.117 43.0293 96.0302C45.1595 96.9434 48.8106 100.899 52.7672 99.6821C56.7229 98.4651 58.2446 89.0319 63.1135 88.1187C67.9824 87.2055 69.808 87.2055 76.5024 88.4234C83.1968 89.6404 85.327 93.2924 92.63 89.0319C99.9329 84.7715 99.3244 79.5988 96.8904 76.5554C94.4564 73.512 91.7177 72.295 93.2385 66.5137C94.7602 60.7325 93.5432 58.9061 89.8913 55.8635C86.2394 52.8201 85.6309 52.2116 90.8045 43.6917C95.9772 35.1717 98.1074 29.0858 98.7159 25.4338C99.3244 21.7819 100.541 19.0432 90.8045 19.3479C81.0666 19.6526 66.156 11.7403 63.1135 8.08922C60.0701 4.43731 53.9842 -4.69116 49.4199 3.2203C44.8557 11.1318 45.768 11.1318 41.8123 14.479C39.1838 16.7029 36.3349 21.1734 27.5102 14.7837C23.143 11.6213 18.7064 12.3505 18.3817 17.2177C18.0918 21.5606 19.3592 25.8071 16.2515 26.0423C10.1074 26.5076 7.73156 23.6083 4.38434 25.7377C1.03712 27.8679 -1.7016 31.8236 4.99285 36.6925C11.6873 41.5614 17.7941 43.2828 19.2949 46.7342C25.3809 60.7316 27.5111 68.0354 24.4677 74.7299Z" fill="#9CD83E"/>
<path d="M52.9634 16.4574C52.9634 14.6223 54.2108 13.3993 56.0701 13.3993C57.3913 13.3993 58.7429 14.0043 59.8861 15.1362C60.0337 15.2821 60.1795 15.2829 60.3757 15.0876C62.6752 12.7881 64.5589 11.5894 65.8549 11.5894C66.7846 11.5894 67.2984 12.1762 67.2984 13.2282C67.2984 15.6744 64.4799 19.9001 60.3514 23.6736C60.0571 23.9427 59.8132 23.9427 59.3731 23.7222C55.4104 21.7404 52.9642 18.9765 52.9642 16.4565L52.9634 16.4574Z" fill="#DB0007"/>
<path d="M45.6006 39.9486C45.6006 38.1136 46.848 36.8905 48.7074 36.8905C50.0285 36.8905 51.3801 37.4955 52.5233 38.6274C52.6709 38.7733 52.8167 38.7741 53.0129 38.5788C55.3124 36.2794 57.1961 35.0806 58.4921 35.0806C59.4218 35.0806 59.9357 35.6674 59.9357 36.7195C59.9357 39.1656 57.1171 43.3913 52.9886 47.1648C52.6943 47.4339 52.4504 47.4339 52.0103 47.2134C48.0476 45.2316 45.6015 42.4677 45.6015 39.9478L45.6006 39.9486Z" fill="#DB0007"/>
<path d="M67.8145 68.8568C67.8145 67.0218 69.0619 65.7987 70.9212 65.7987C72.2424 65.7987 73.594 66.4037 74.7372 67.5356C74.8848 67.6815 75.0306 67.6823 75.2268 67.487C77.5263 65.1876 79.4099 63.9888 80.7059 63.9888C81.6356 63.9888 82.1495 64.5756 82.1495 65.6277C82.1495 68.0738 79.3309 72.2995 75.2025 76.073C74.9082 76.3421 74.6643 76.3421 74.2242 76.1216C70.2615 74.1398 67.8153 71.3759 67.8153 68.856L67.8145 68.8568Z" fill="#DB0007"/>
<path d="M39.8184 83.7675C39.8184 81.9324 41.0658 80.7093 42.9251 80.7093C44.2463 80.7093 45.5979 81.3143 46.7411 82.4463C46.8887 82.5921 47.0345 82.593 47.2307 82.3977C49.5302 80.0982 51.4138 78.8994 52.7099 78.8994C53.6395 78.8994 54.1534 79.4862 54.1534 80.5383C54.1534 82.9845 51.3349 87.2102 47.2064 90.9836C46.9121 91.2527 46.6682 91.2527 46.2281 91.0322C42.2654 89.0505 39.8192 86.2866 39.8192 83.7666L39.8184 83.7675Z" fill="#DB0007"/>
<path d="M24.7319 41.3732C24.7319 40.2725 25.4802 39.5381 26.5956 39.5381C27.3882 39.5381 28.1989 39.9009 28.8856 40.5806C28.9741 40.6683 29.0618 40.6683 29.179 40.5511C30.5592 39.1718 31.6885 38.4521 32.4663 38.4521C33.0245 38.4521 33.3326 38.8046 33.3326 39.4357C33.3326 40.9035 31.6417 43.4391 29.1642 45.703C28.988 45.8645 28.8413 45.8645 28.5774 45.7325C26.1998 44.5433 24.7319 42.8853 24.7319 41.3732Z" fill="#DB0007"/>
<path d="M33.0947 67.0026C33.0947 65.9019 33.843 65.1675 34.9584 65.1675C35.751 65.1675 36.5617 65.5303 37.2484 66.21C37.3369 66.2977 37.4246 66.2977 37.5418 66.1805C38.922 64.8012 40.0513 64.0815 40.8291 64.0815C41.3873 64.0815 41.6954 64.434 41.6954 65.0651C41.6954 66.5329 40.0044 69.0685 37.527 71.3324C37.3508 71.4939 37.2041 71.4939 36.9402 71.3619C34.5626 70.1727 33.0947 68.5147 33.0947 67.0026Z" fill="#DB0007"/>
<path d="M84.2168 29.5738C84.2168 28.4731 84.9651 27.7388 86.0805 27.7388C86.873 27.7388 87.6838 28.1016 88.3704 28.7813C88.459 28.869 88.5467 28.869 88.6638 28.7518C90.0441 27.3724 91.1734 26.6528 91.9512 26.6528C92.5093 26.6528 92.8175 27.0053 92.8175 27.6363C92.8175 29.1042 91.1265 31.6398 88.6491 33.9037C88.4729 34.0652 88.3262 34.0652 88.0623 33.9332C85.6847 32.744 84.2168 31.086 84.2168 29.5738Z" fill="#DB0007"/>
</g>
<defs>
<clipPath id="clip0_2862_74333">
<rect width="100" height="100" fill="white"/>
</clipPath>
</defs>
</svg>
