<svg width="100" height="100" viewBox="0 0 100 100" fill="none" xmlns="http://www.w3.org/2000/svg">
<g clip-path="url(#clip0_2862_74308)">
<path d="M50.7292 95.4732C50.7292 97.2944 49.3212 99.4949 53.9471 99.4949H84.9176C86.5261 99.4949 87.3264 98.8855 87.2023 97.0218C86.9748 93.6103 86.5426 79.5834 86.3247 77.9766C85.9601 75.2822 87.7639 73.5435 88.5686 77.7674C89.3733 81.9905 91.4783 93.1242 92.1051 96.0478C92.5157 97.9628 93.454 98.5166 94.4306 98.7831C95.9349 99.1937 98.0643 98.8117 98.6702 97.9628C99.3542 97.0053 99.3967 96.2779 99.1962 93.8647C98.9948 91.4515 96.9306 66.527 94.7717 59.073C91.6945 48.4506 89.7309 44.0409 83.8985 42.4324C78.066 40.8239 53.5443 41.376 52.1372 41.9793C50.7292 42.5826 50.7292 93.2614 50.7292 95.4732Z" fill="#D0C9FF"/>
<path d="M22.0487 12.2093C22.0487 19.619 27.9185 26.6564 35.3265 26.6564C42.7345 26.6564 48.5314 21.6702 48.5314 14.2605C48.5314 6.8508 43.0713 0.0869141 35.6624 0.0869141C28.2536 0.0869141 22.0479 4.80046 22.0479 12.2093H22.0487Z" fill="#DB0007"/>
<path d="M61.0756 16.3908C61.0756 23.8006 66.9454 30.8379 74.3534 30.8379C81.7613 30.8379 87.5582 25.8518 87.5582 18.4421C87.5582 11.0323 82.0981 4.26758 74.6893 4.26758C67.2804 4.26758 61.0747 8.98112 61.0747 16.39L61.0756 16.3908Z" fill="#D0C9FF"/>
<path d="M53.6615 97.0225C53.6615 98.631 54.1467 99.8792 52.171 99.8792C45.9601 99.8792 22.4809 99.3827 17.8846 99.8792C16.5261 100.026 15.7726 99.7551 15.8967 97.7673C16.0721 94.9574 16.8794 80.0685 16.8794 77.8567C16.8794 75.0685 15.7847 73.0694 13.8707 77.5832C11.5504 83.0537 9.20055 95.3393 8.69794 96.881C7.98874 99.0563 7.59725 99.9088 6.08336 99.6961C3.47572 99.3298 2.24482 99.4669 1.1502 98.5094C0.526068 97.9634 0.603325 96.4582 1.05558 93.4617C1.49308 90.5667 5.88197 65.1058 8.29517 58.8714C10.7084 52.6371 16.0209 35.6544 29.8134 33.9339C39.0712 32.7794 53.5365 33.0459 65.2084 34.9391C72.9601 36.197 84.1441 39.5876 88.5686 40.9956C92.9931 42.4036 92.9167 42.565 92.961 43.7881C93.04 45.9652 92.5434 46.5858 91.7544 47.6093C91.0929 48.4669 90.8203 48.7994 88.0712 48.5737C79.0026 47.828 64.5686 47.4556 57.3637 48.4496C55.3907 48.7213 53.2882 48.822 53.3429 50.6258C53.4349 53.6475 53.6606 94.6084 53.6606 97.0216L53.6615 97.0225Z" fill="#DB0007"/>
<path d="M24.0426 65.7307C24.0426 62.6664 26.1268 60.623 29.2319 60.623C31.4384 60.623 33.685 61.6447 35.606 63.5241C35.8508 63.7689 36.0964 63.7689 36.4228 63.4425C40.2631 59.6013 43.4098 57.5996 45.5747 57.5996C47.1277 57.5996 47.9853 58.5805 47.9853 60.3375C47.9853 64.4234 43.2865 71.492 36.3812 77.7836C35.8907 78.2333 35.4819 78.2333 34.7466 77.8652C28.1277 74.5553 24.0417 69.939 24.0417 65.7307H24.0426Z" fill="#FFFDE9"/>
</g>
<defs>
<clipPath id="clip0_2862_74308">
<rect width="100" height="100" fill="white"/>
</clipPath>
</defs>
</svg>
