<svg width="464" height="392" viewBox="0 0 464 392" fill="none" xmlns="http://www.w3.org/2000/svg">
<path d="M463.729 293.519C461.647 317.77 467.979 368.033 457.223 387.199C453.319 391.501 446.379 392.088 440.48 391.99C305.327 384.656 169.827 390.23 34.5875 390.915C22.703 390.915 2.75103 395.609 2.31729 376.149C4.39924 277.579 6.13419 180.77 3.09802 81.9075C2.75103 65.5771 1.10282 49.1488 0.235345 32.8184C-1.23937 20.0083 4.22574 8.5672 16.3704 7.19818C152.478 -2.18939 290.754 -0.820366 427.295 2.5044C435.622 3.28669 447.247 2.60218 453.839 8.46941C459.391 14.63 459.305 26.4622 459.999 34.8719C464.249 120.044 464.249 207.564 463.815 293.225V293.421L463.729 293.519Z" fill="#9CD83E"/>
</svg>
