<svg width="60" height="60" viewBox="0 0 60 60" fill="none" xmlns="http://www.w3.org/2000/svg">
<g clip-path="url(#clip0_2927_22967)">
<path d="M32.5124 35.997C31.8422 36.8413 31.0921 36.1497 30.4037 35.8696C28.5146 35.1008 26.7982 35.2369 25.4276 36.8578C24.6137 37.8204 24.2429 39.4319 24.3114 40.663C24.52 44.4124 27.2603 48.752 31.0051 52.4023C31.7706 53.1483 32.7169 53.856 33.4409 54.6024C34.6465 55.8451 33.1497 56.7852 32.0279 57.2179C29.9696 58.0116 27.4343 56.6485 25.6271 55.6495C19.4366 52.2287 14.1674 43.9362 16.0153 36.7223C16.5368 34.6874 17.804 32.646 19.4741 31.3594C21.3224 29.9356 24.2085 29.3548 26.5023 29.6689C28.4315 29.9332 30.4547 30.705 31.8632 32.0915C32.3091 32.5305 32.705 33.0664 32.8395 33.6886C32.9712 34.2979 32.9127 35.4931 32.5124 35.997Z" fill="#DB0007"/>
<path d="M23.2439 56.1942C22.947 56.0319 22.9264 56.0203 23.8585 56.5143C24.7651 56.9712 25.9495 57.7271 25.5779 58.9347C25.3563 59.6544 24.6346 60.0384 23.9094 59.9978C21.5659 59.8668 17.5605 59.0636 14.6204 57.3592C1.9679 50.0245 -3.86232 31.5056 3.19514 18.501C4.75074 15.6345 6.97262 13.0818 9.83153 11.4628C13.9263 9.14384 18.7458 9.09487 23.0161 10.9421C24.744 11.6896 26.3673 12.6605 27.925 13.7128C30.3214 15.3317 34.7021 19.3384 34.7289 22.4442C34.7413 23.8136 34.1043 24.1785 33 24.7134C31.84 25.2754 31.0042 24.8149 30.262 23.8979C27.0122 19.8827 20.9678 16.7781 16.4312 20.6482C15.0695 21.81 14.1875 23.5092 13.5239 25.141C12.6114 27.3851 12.074 29.7829 11.8067 32.1866C11.5031 34.9174 11.5575 37.6965 12.0158 40.4071C12.4918 43.2223 13.4161 45.9749 14.8708 48.4386C16.8355 51.7657 19.8596 54.3733 23.2439 56.1942Z" fill="#DB0007"/>
<path d="M48.9129 9.46294C52.7481 10.9343 53.4435 15.4084 51.068 18.4825C50.1123 19.7193 48.8505 20.2365 47.3276 20.3389C46.0177 20.4276 44.5771 20.1684 43.4092 19.5572C37.0454 16.2279 43.1545 7.25337 48.9129 9.46294Z" fill="#DB0007"/>
<path d="M31.3527 9.86484C26.9808 13.4935 19.1765 9.13294 21.0676 3.76348C21.7111 1.93612 23.7344 0.542162 25.7012 0.175469C27.7387 -0.245494 30.4881 0.0238023 31.917 1.72408C33.1045 3.13713 33.3111 5.25465 32.931 7.00232C32.6984 8.07204 32.2105 9.15304 31.3527 9.86484Z" fill="#DB0007"/>
<path d="M26.1302 26.924C25.709 27.5333 25.1332 28.0706 24.4084 28.2716C23.1423 28.6222 22.0247 28.4535 20.888 27.8093C16.1851 25.1442 20.4748 18.9239 24.8603 21.3982C27.0012 22.6062 27.5488 24.8707 26.1302 26.924Z" fill="#DB0007"/>
<path d="M28.5547 41.5586C28.5547 39.3194 30.0774 37.8265 32.3465 37.8265C33.9588 37.8265 35.6009 38.5729 37.0041 39.9464C37.1832 40.1255 37.3624 40.1255 37.6013 39.8867C40.4078 37.0801 42.7068 35.6172 44.2891 35.6172C45.4237 35.6172 46.0507 36.3337 46.0507 37.6176C46.0507 40.6032 42.6172 45.7684 37.5714 50.3663C37.2131 50.6948 36.9145 50.6948 36.3771 50.4261C31.5403 48.0076 28.5547 44.6338 28.5547 41.5586Z" fill="#D0C9FF"/>
<path d="M45.6539 57.0967C43.8953 58.3849 41.6553 59.9975 39.3686 59.9975C38.0737 59.9975 35.9172 59.4069 36.3625 57.6857C36.564 56.9073 37.1602 56.2851 37.7171 55.7371C40.9377 52.5685 43.7644 49.0132 46.2587 45.2504C48.498 41.8722 51.0718 38.2399 50.8169 33.9959C50.4048 27.1357 41.9267 27.0986 38.3911 31.614C37.95 32.1775 37.3698 33.0011 36.725 32.7151C36.1974 32.4812 35.3647 30.7185 35.3652 29.9978C35.3674 27.4302 39.6118 24.1871 41.6873 23.0468C50.0871 18.4338 59.0122 23.5684 59.7983 32.9464C60.3229 39.2049 57.5064 45.0276 53.4796 49.6586C51.2814 52.1866 48.5641 54.965 45.6539 57.0967Z" fill="#DB0007"/>
</g>
<defs>
<clipPath id="clip0_2927_22967">
<rect width="60" height="60" fill="white"/>
</clipPath>
</defs>
</svg>
