<svg width="60" height="60" viewBox="0 0 60 60" fill="none" xmlns="http://www.w3.org/2000/svg">
<g clip-path="url(#clip0_2927_22932)">
<path d="M30.4374 57.2864C30.4374 58.3792 29.5926 59.6995 32.3681 59.6995H50.9504C51.9155 59.6995 52.3957 59.3338 52.3212 58.2156C52.1848 56.1687 51.9254 47.7526 51.7947 46.7885C51.5759 45.1719 52.6582 44.1286 53.141 46.663C53.6238 49.1969 54.8868 55.8771 55.2629 57.6312C55.5092 58.7802 56.0723 59.1125 56.6582 59.2724C57.5608 59.5187 58.8384 59.2896 59.202 58.7802C59.6124 58.2057 59.6379 57.7693 59.5176 56.3213C59.3967 54.8734 58.1582 39.9187 56.8629 35.4463C55.0165 29.0729 53.8384 26.4271 50.3389 25.462C46.8395 24.4969 32.1264 24.8281 31.2822 25.1901C30.4374 25.5521 30.4374 55.9594 30.4374 57.2864Z" fill="#D0C9FF"/>
<path d="M13.229 7.32812C13.229 11.774 16.7509 15.9964 21.1957 15.9964C25.6405 15.9964 29.1186 13.0047 29.1186 8.55885C29.1186 4.11302 25.8426 0.0546875 21.3973 0.0546875C16.952 0.0546875 13.2285 2.88281 13.2285 7.32812H13.229Z" fill="#DB0007"/>
<path d="M36.6451 9.83646C36.6451 14.2823 40.1669 18.5047 44.6117 18.5047C49.0565 18.5047 52.5346 15.513 52.5346 11.0672C52.5346 6.62135 49.2586 2.5625 44.8133 2.5625C40.368 2.5625 36.6445 5.39062 36.6445 9.83594L36.6451 9.83646Z" fill="#D0C9FF"/>
<path d="M32.1973 58.2126C32.1973 59.1777 32.4884 59.9267 31.303 59.9267C27.5765 59.9267 13.4889 59.6287 10.7311 59.9267C9.91603 60.0147 9.46395 59.8522 9.53843 58.6595C9.64364 56.9735 10.128 48.0402 10.128 46.7131C10.128 45.0402 9.47124 43.8407 8.3228 46.5491C6.93061 49.8314 5.52072 57.2027 5.21916 58.1277C4.79364 59.4329 4.55874 59.9444 3.65041 59.8168C2.08582 59.597 1.34728 59.6793 0.690511 59.1048C0.316031 58.7772 0.362386 57.8741 0.63374 56.0761C0.89624 54.3392 3.52957 39.0626 4.97749 35.322C6.42541 31.5814 9.61291 21.3918 17.8884 20.3595C23.4431 19.6668 32.1223 19.8267 39.1254 20.9626C43.7765 21.7173 50.4869 23.7517 53.1416 24.5965C55.7962 25.4413 55.7504 25.5381 55.777 26.272C55.8244 27.5782 55.5265 27.9506 55.053 28.5647C54.6561 29.0793 54.4926 29.2788 52.8431 29.1433C47.402 28.6959 38.7416 28.4725 34.4186 29.0689C33.2348 29.2319 31.9733 29.2923 32.0061 30.3746C32.0613 32.1876 32.1968 56.7642 32.1968 58.2121L32.1973 58.2126Z" fill="#DB0007"/>
<path d="M14.4253 39.4411C14.4253 37.6026 15.6758 36.3766 17.5389 36.3766C18.8628 36.3766 20.2107 36.9896 21.3633 38.1172C21.5102 38.2641 21.6576 38.2641 21.8535 38.0682C24.1576 35.7635 26.0456 34.5625 27.3446 34.5625C28.2764 34.5625 28.7909 35.151 28.7909 36.2052C28.7909 38.6568 25.9717 42.8979 21.8285 46.6729C21.5342 46.9427 21.2889 46.9427 20.8477 46.7219C16.8764 44.7359 14.4248 41.9661 14.4248 39.4411H14.4253Z" fill="#FFFDE9"/>
</g>
<defs>
<clipPath id="clip0_2927_22932">
<rect width="60" height="60" fill="white"/>
</clipPath>
</defs>
</svg>
