<svg width="60" height="60" viewBox="0 0 60 60" fill="none" xmlns="http://www.w3.org/2000/svg">
<g clip-path="url(#clip0_2927_22947)">
<path d="M51.979 56.3532C50.0326 50.36 49.2503 46.0245 46.9043 40.1875C46.6524 39.5606 46.8145 38.8433 47.3134 38.3879C48.8823 36.9559 50.4642 35.536 52.0033 34.0705C53.8765 32.2864 55.7883 30.4859 57.5922 28.6276C58.5352 27.6555 59.5626 26.7317 58.7343 25.5509C58.5176 25.242 58.1944 25.0245 57.8297 24.9278C52.4251 23.4947 47.115 21.5531 41.5967 20.6205C41.0075 20.521 40.5225 20.105 40.3316 19.5387C38.6676 14.6032 36.5195 9.83579 33.9205 5.37569C33.4577 4.58055 32.0145 1.95876 31.3679 1.60757C30.447 1.10658 29.5863 1.50999 29.1281 2.4405C27.8407 5.05337 26.6632 8.76239 25.6481 11.578C24.7091 14.1817 23.8291 16.8123 22.9545 19.4409C22.7612 20.0217 22.2568 20.4437 21.651 20.5312C16.7463 21.2393 11.8343 21.9463 6.97753 22.949C5.26664 23.3022 2.70881 23.7098 1.13471 24.3193C-0.00740836 24.7612 -0.440044 26.3467 0.556774 27.1933C1.11442 27.6675 3.80708 28.5238 4.71685 28.9568C9.19749 31.0856 13.2902 34.2685 16.6166 38.0698C16.9974 38.5049 17.1157 39.1119 16.9267 39.6584C16.6443 40.475 16.3271 41.2807 16.0562 42.1015C14.3513 47.2657 12.9693 52.5929 11.8316 57.9178C11.7134 58.4708 11.8846 59.0551 12.3055 59.4328C12.7001 59.7868 13.2492 59.9238 13.846 59.7614C14.8886 59.4769 17.3149 57.9286 18.5067 57.3609C22.9647 55.2363 27.6568 53.4054 32.3568 51.9501C32.6499 51.8593 32.9679 51.839 33.259 51.9361C37.8866 53.4801 40.066 54.6703 42.2248 55.828C44.4341 57.0127 46.3449 58.3113 48.0609 59.2397C50.5076 60.5634 53.1839 60.0632 51.979 56.3532Z" fill="#DB0007"/>
<path d="M21.0606 32.3838C21.0606 29.6187 22.941 27.7751 25.7431 27.7751C27.734 27.7751 29.7618 28.6969 31.4946 30.3929C31.7158 30.6141 31.9371 30.6141 32.2321 30.3192C35.6978 26.8534 38.5368 25.0469 40.4908 25.0469C41.8919 25.0469 42.6662 25.9317 42.6662 27.5171C42.6662 31.2041 38.4262 37.5825 32.1952 43.2604C31.7528 43.666 31.384 43.666 30.7204 43.3342C24.7475 40.3477 21.0606 36.1814 21.0606 32.3838Z" fill="#FFFDE9"/>
<path d="M44.93 12.2884C44.4042 13.1497 44.0594 13.2499 43.1102 12.7019C41.4431 11.6418 42.7735 12.4538 42.0279 12.0233C41.2146 11.5031 41.2252 11.2436 41.6103 10.5549C41.9921 9.80875 46.3712 1.99072 46.8215 1.21088C47.194 0.56555 47.4004 0.20805 48.224 0.646779C48.7308 0.937415 49.3936 1.27212 50.2481 1.73305C50.6879 1.98701 50.4911 2.34679 50.059 3.19781C49.8081 3.64835 45.5432 11.2839 44.93 12.2884Z" fill="#FFBC0D"/>
<path d="M50.0355 19.1654C49.1494 19.6485 48.8007 19.5628 48.2528 18.6137C47.3391 16.862 48.0852 18.2304 47.6547 17.4848C47.2105 16.6276 47.3495 16.4082 48.0273 16.0043C48.731 15.5491 56.4325 10.968 57.2123 10.5177C57.8576 10.1452 58.2151 9.93876 58.709 10.7305C59.0026 11.2356 59.4092 11.8568 59.9187 12.6833C60.1727 13.1231 59.8223 13.3363 59.0226 13.8573C58.5801 14.122 51.0687 18.6021 50.0355 19.1654Z" fill="#FFBC0D"/>
<path d="M11.1975 42.0324C12.039 41.4754 12.3938 41.531 13.0209 42.4298C14.0809 44.097 13.2206 42.7974 13.7132 43.5034C14.2291 44.3195 14.1094 44.55 13.4685 45.0104C12.8063 45.5241 5.52456 50.7466 4.78606 51.2619C4.17493 51.6882 3.83638 51.9244 3.27662 51.1778C2.941 50.6997 2.48276 50.1154 1.90444 49.3356C1.61382 48.919 1.9447 48.6767 2.69692 48.0893C3.11527 47.7877 10.2162 42.682 11.1975 42.0324Z" fill="#FFBC0D"/>
<path d="M9.49193 35.1499C10.4992 35.0883 10.7786 35.3138 10.8723 36.4057C10.9568 38.3796 10.8615 36.8239 10.9351 37.6817C10.9738 38.6464 10.7549 38.7861 9.9697 38.8644C9.13931 38.9782 3.46397 39.8601 2.56679 39.9371C1.82434 40.0008 1.41305 40.0361 1.3016 39.1096C1.25001 38.5277 1.14527 37.7926 1.03437 36.8281C0.990962 36.322 1.39867 36.2776 2.34382 36.145C2.8569 36.093 8.31726 35.2218 9.49193 35.1499Z" fill="#FFBC0D"/>
<path d="M54.4114 39.0229C53.4473 38.7248 53.2655 38.4152 53.5635 37.3605C54.1816 35.484 53.7213 36.9731 53.9554 36.1446C54.2599 35.2285 54.5141 35.175 55.2763 35.3791C56.0934 35.566 58.1691 36.0618 59.0357 36.3067C59.7528 36.5093 60.15 36.6216 59.927 37.5277C59.7698 38.0903 59.6082 38.815 59.3713 39.7566C59.2331 40.2454 58.836 40.1429 57.905 39.9332C57.4066 39.8006 55.5357 39.3706 54.4114 39.0229Z" fill="#FFBC0D"/>
<path d="M51.0087 44.7033C50.3228 43.9631 50.3202 43.604 51.1056 42.8397C52.5792 41.5236 51.436 42.5831 52.053 41.9826C52.7748 41.3415 53.0217 41.4223 53.5797 41.9801C54.1939 42.5504 58.4722 46.3823 59.1002 47.0276C59.6199 47.5617 59.9078 47.8575 59.2616 48.5308C58.8442 48.9394 58.3418 49.4862 57.6659 50.1831C57.3019 50.5374 57.0092 50.2501 56.3078 49.6029C55.9424 49.2389 51.8086 45.5665 51.0087 44.7033Z" fill="#FFBC0D"/>
<path d="M12.3011 15.6442C13.1624 16.1699 13.2626 16.5148 12.7146 17.4639C11.6545 19.131 12.4665 17.8007 12.036 18.5463C11.5158 19.3595 11.2563 19.3489 10.5675 18.9639C9.82144 18.582 2.00342 14.2029 1.22358 13.7527C0.578245 13.3801 0.220745 13.1737 0.659474 12.3501C0.95011 11.8434 1.28481 11.1806 1.74575 10.3261C1.99971 9.88621 2.35949 10.0831 3.2105 10.5151C3.66105 10.7661 11.2966 15.031 12.3011 15.6442Z" fill="#FFBC0D"/>
<path d="M21.2621 10.1289C21.7451 11.0149 21.6595 11.3636 20.7104 11.9116C18.9587 12.8253 20.3271 12.0792 19.5815 12.5096C18.7243 12.9538 18.5049 12.8149 18.1009 12.137C17.6457 11.4333 13.0647 3.73187 12.6144 2.95204C12.2418 2.30671 12.0354 1.94921 12.8272 1.45531C13.3323 1.16179 13.9535 0.755146 14.7799 0.245604C15.2198 -0.00835943 15.4329 0.342026 15.9539 1.14169C16.2186 1.58428 20.6988 9.09559 21.2621 10.1289Z" fill="#FFBC0D"/>
</g>
<defs>
<clipPath id="clip0_2927_22947">
<rect width="60" height="60" fill="white"/>
</clipPath>
</defs>
</svg>
