<svg width="1867" height="1019" viewBox="0 0 1867 1019" fill="none" xmlns="http://www.w3.org/2000/svg">
<path d="M1268.18 0.255956C1442.93 3.04627 1633.81 -6.08567 1808.55 14.2075C1867.86 24.8615 1849.61 126.581 1855.93 162.855C1860.84 431.233 1875.57 701.894 1860.14 969.764C1861.89 1003.25 1834.87 1018.98 1788.9 1018.47C1257.66 1003.5 723.252 1004.77 191.303 1015.93C140.775 1014.92 55.8593 1028.87 18.314 1004.52C-5.89739 981.94 7.08554 946.681 6.03287 919.538C8.83999 876.923 12.6998 834.307 14.1033 791.945C22.1738 548.173 3.92753 309.22 0.0677425 66.4626C-2.0376 30.9494 45.3325 22.0712 86.0358 18.5198C479.384 6.09025 874.486 -1.5197 1268.54 0.255956H1268.18Z" fill="#FFFDE9"/>
</svg>
