<svg width="80" height="80" viewBox="0 0 80 80" fill="none" xmlns="http://www.w3.org/2000/svg">
<g clip-path="url(#clip0_2312_41742)">
<path d="M43.3491 47.9953C42.4557 49.1211 41.4555 48.199 40.5377 47.8255C38.0188 46.8004 35.7302 46.9819 33.9028 49.143C32.8176 50.4266 32.3233 52.5752 32.4146 54.2167C32.6926 59.2159 36.3464 65.002 41.3395 69.8691C42.3601 70.8638 43.6219 71.8074 44.5871 72.8026C46.1947 74.4594 44.1989 75.713 42.7033 76.2899C39.9589 77.3482 36.5784 75.5306 34.1688 74.1986C25.9148 69.6376 18.8892 58.581 21.3531 48.9624C22.0484 46.2492 23.738 43.5273 25.9648 41.8119C28.4292 39.9135 32.2774 39.139 35.3357 39.5579C37.9081 39.9102 40.6056 40.9393 42.4836 42.788C43.0781 43.3733 43.6061 44.0878 43.7853 44.9175C43.9609 45.7299 43.8829 47.3235 43.3491 47.9953Z" fill="#DB0007"/>
<path d="M30.9918 74.9217C30.596 74.7053 30.5685 74.6899 31.8113 75.3485C33.0202 75.9577 34.5994 76.9656 34.1038 78.5756C33.8085 79.5353 32.8462 80.0473 31.8793 79.9932C28.7545 79.8185 23.414 78.7476 19.4939 76.4751C2.62386 66.6955 -5.14975 42.0036 4.26018 24.664C6.33431 20.8421 9.29682 17.4385 13.1087 15.2798C18.5685 12.1879 24.9944 12.1226 30.6882 14.5856C32.9921 15.5822 35.1564 16.8768 37.2333 18.2799C40.4285 20.4384 46.2694 25.7807 46.3052 29.9217C46.3217 31.7475 45.4725 32.234 44 32.9473C42.4534 33.6966 41.3389 33.0827 40.3493 31.86C36.0163 26.5064 27.9571 22.3669 21.9083 27.5271C20.0926 29.076 18.9166 31.3416 18.0319 33.5174C16.8152 36.5096 16.0987 39.7067 15.7423 42.9115C15.3374 46.5526 15.41 50.2582 16.0211 53.8722C16.6557 57.6258 17.8881 61.2959 19.8278 64.5808C22.4473 69.0171 26.4795 72.4938 30.9918 74.9217Z" fill="#DB0007"/>
<path d="M65.2169 12.6192C70.3304 14.581 71.2576 20.5465 68.0904 24.6453C66.8161 26.2944 65.1337 26.984 63.1031 27.1205C61.3566 27.2388 59.4358 26.8931 57.8786 26.0782C49.3935 21.6391 57.539 9.67311 65.2169 12.6192Z" fill="#DB0007"/>
<path d="M41.8045 13.1531C35.9754 17.9913 25.5696 12.1772 28.091 5.01797C28.9492 2.58149 31.6468 0.722882 34.2693 0.233959C36.9859 -0.327326 40.6518 0.0317364 42.5569 2.29877C44.1403 4.18283 44.4158 7.0062 43.909 9.33642C43.5989 10.7627 42.9483 12.204 41.8045 13.1531Z" fill="#DB0007"/>
<path d="M34.8409 35.8984C34.2794 36.7107 33.5115 37.4271 32.5452 37.6951C30.857 38.1626 29.3669 37.9377 27.8513 37.0788C21.5808 33.5253 27.3004 25.2315 33.1477 28.5307C36.0023 30.1412 36.7324 33.1606 34.8409 35.8984Z" fill="#DB0007"/>
<path d="M38.0723 55.416C38.0723 52.4304 40.1026 50.4399 43.1281 50.4399C45.2777 50.4399 47.4672 51.4352 49.3382 53.2664C49.577 53.5052 49.8159 53.5052 50.1344 53.1868C53.8764 49.4447 56.9417 47.4941 59.0515 47.4941C60.5643 47.4941 61.4003 48.4495 61.4003 50.1613C61.4003 54.1422 56.8223 61.0291 50.0946 67.1596C49.6168 67.5976 49.2187 67.5976 48.5022 67.2393C42.0531 64.0147 38.0723 59.5163 38.0723 55.416Z" fill="#D0C9FF"/>
<path d="M60.8706 76.1318C58.5257 77.8495 55.5392 79.9996 52.4901 79.9996C50.7636 79.9996 47.8882 79.2121 48.4821 76.9172C48.7506 75.8794 49.5457 75.0497 50.2882 74.3191C54.5824 70.0943 58.3513 65.3538 61.6769 60.3368C64.6626 55.8326 68.0944 50.9895 67.7545 45.3309C67.205 36.1838 55.9009 36.1344 51.1868 42.155C50.5987 42.9062 49.8252 44.0044 48.9653 43.6231C48.2619 43.3112 47.1516 40.9609 47.1523 40C47.1552 36.5766 52.8144 32.2524 55.5818 30.7321C66.7815 24.5813 78.6816 31.4275 79.7297 43.9314C80.4292 52.2761 76.6739 60.0397 71.3048 66.2144C68.374 69.5851 64.7509 73.2895 60.8706 76.1318Z" fill="#DB0007"/>
</g>
<defs>
<clipPath id="clip0_2312_41742">
<rect width="80" height="80" fill="white"/>
</clipPath>
</defs>
</svg>
