<svg width="80" height="80" viewBox="0 0 80 80" fill="none" xmlns="http://www.w3.org/2000/svg">
<path d="M55.433 6.29986C56.2566 3.78528 58.5156 2.6693 61.0636 3.50403C62.874 4.09708 64.4434 5.53944 65.5136 7.59778C65.649 7.86514 65.8497 7.93042 66.2059 7.75055C70.39 5.6318 73.5094 4.83458 75.2858 5.41653C76.5601 5.83389 77.0004 6.8693 76.5281 8.31097C75.4295 11.6637 69.6747 16.2006 62.317 19.5068C61.7941 19.7436 61.4587 19.6339 60.9538 19.1346C56.4122 14.6394 54.3011 9.75333 55.4323 6.29986H55.433Z" fill="#D0C9FF"/>
<path d="M7.44102 68.1196C7.17297 65.7335 8.61672 63.9599 11.0355 63.6884C12.7535 63.4953 14.5931 64.0946 16.2528 65.3898C16.4653 65.5592 16.6563 65.5377 16.882 65.2543C19.5369 61.9273 21.8119 60.0932 23.498 59.9036C24.707 59.7675 25.4612 60.4564 25.6146 61.8245C25.9723 65.0064 22.9313 70.9217 18.1042 76.4259C17.7619 76.8189 17.4438 76.8543 16.8389 76.6328C11.3952 74.6342 7.80908 71.3967 7.44102 68.1189V68.1196Z" fill="#9CD83E"/>
<path d="M2.17672 38.4914C13.3483 32.9442 14.6955 27.5546 19.4114 24.0178C24.1017 20.5004 29.7087 17.7324 35.5739 23.2296C37.717 25.2386 34.8371 24.9678 38.1906 28.1755C40.0802 29.9824 42.0795 33.4616 40.7489 36.6074C39.7066 39.0706 36.7698 39.3546 36.4858 36.2282C36.0976 31.956 29.2858 31.4727 26.917 34.5227C24.4316 37.722 25.7698 41.4352 27.6739 43.3393C30.5469 46.2123 34.2364 48.1123 36.2962 49.6817C40.067 52.5546 41.2226 57.4505 38.4469 57.7039C35.3913 57.9824 35.633 54.7977 28.5712 53.9331C24.626 53.4498 25.6983 53.7532 21.9274 53.9331C18.1566 54.113 15.4635 52.1373 11.1538 53.7532C6.84478 55.3692 2.17603 58.6011 1.45797 59.4991C0.739917 60.397 -0.517027 59.14 0.38089 55.7282C1.27881 52.3164 0.560751 44.5956 0.38089 42.0817C0.201029 39.5678 0.659362 39.2442 2.17672 38.4907V38.4914Z" fill="#DB0007"/>
<path d="M77.8232 38.4914C66.6516 32.9442 65.3044 27.5546 60.5884 24.0178C55.8982 20.5004 50.2912 17.7324 44.4259 23.2296C42.2829 25.2386 45.1627 24.9678 41.8093 28.1755C39.9197 29.9824 37.9204 33.4616 39.2509 36.6074C40.2933 39.0706 43.2301 39.3546 43.5141 36.2282C43.9023 31.956 50.7141 31.4727 53.0829 34.5227C55.5683 37.722 54.2301 41.4352 52.3259 43.3393C49.453 46.2123 45.7634 48.1123 43.7037 49.6817C39.9329 52.5546 38.7773 57.4505 41.553 57.7039C44.6086 57.9824 44.3669 54.7977 51.4287 53.9331C55.3738 53.4498 54.3016 53.7532 58.0725 53.9331C61.8433 54.113 64.5363 52.1373 68.8461 53.7532C73.1551 55.3692 77.8238 58.6011 78.5419 59.4991C79.26 60.397 80.5169 59.14 79.619 55.7282C78.7211 52.3164 79.4391 44.5956 79.619 42.0817C79.7988 39.5678 79.3405 39.2442 77.8232 38.4907V38.4914Z" fill="#DB0007"/>
</svg>
