<svg width="80" height="80" viewBox="0 0 80 80" fill="none" xmlns="http://www.w3.org/2000/svg">
<path d="M73.4531 73.9401C73.6336 70.1242 73.6857 72.9186 72.3753 65.3151C70.8788 56.636 66.7302 41.32 51.0295 38.5783C46.3975 37.7693 36.1857 37.8728 31.6899 38.4339C15.7711 40.4193 10.4323 52.5922 8.33711 59.9249C6.21767 67.3436 6.25031 70.913 6.69961 76.1505C6.99822 79.6346 10.7399 79.5922 13.1343 79.8915C14.7996 80.0999 66.6781 79.4047 68.3524 79.2929C70.5968 79.1436 73.2885 77.4332 73.4538 73.9401H73.4531Z" fill="#DB0007"/>
<path d="M28.1924 54.5065C28.1924 51.4842 30.2479 49.469 33.3104 49.469C35.4868 49.469 37.7028 50.4766 39.5972 52.3301C39.8389 52.5717 40.0806 52.5717 40.4035 52.2495C44.1917 48.4613 47.2945 46.4863 49.4306 46.4863C50.9618 46.4863 51.8084 47.4537 51.8084 49.1863C51.8084 53.2162 47.1736 60.1884 40.3632 66.394C39.8799 66.837 39.4764 66.837 38.7514 66.4745C32.2229 63.2099 28.1931 58.6565 28.1931 54.5051L28.1924 54.5065Z" fill="#FFFDE9"/>
<path d="M40.415 5.7566C38.8191 5.52466 37.4858 4.6441 37.192 3.01285C36.7809 0.730214 36.2629 1.54271 35.999 2.57119C35.8004 3.3448 35.8191 4.26563 36.1976 5.26702C36.5073 6.08438 36.1316 6.01841 35.7663 5.72952C34.94 5.07605 33.7955 4.55035 32.5733 1.59271C31.633 -0.683675 31.0698 -0.0308973 30.8275 1.11216C30.6608 1.89619 29.8323 3.70174 30.2018 6.06216C30.4962 7.94063 30.1886 7.92119 29.8775 7.38855C29.7379 7.14966 29.3031 6.15105 29.3372 5.38507C29.4393 3.09966 28.4872 2.7698 27.6045 5.09063C27.04 6.57535 26.7531 9.97257 27.3323 12.4594C26.2386 14.3038 25.6143 16.4802 25.6143 18.9281C25.6143 26.9788 31.9913 34.6253 40.0413 34.6253C48.0913 34.6253 54.3893 29.208 54.3893 21.1573C54.3893 13.1066 48.4608 5.76216 40.4163 5.7566H40.415Z" fill="#DB0007"/>
</svg>
