<svg width="80" height="80" viewBox="0 0 80 80" fill="none" xmlns="http://www.w3.org/2000/svg">
<path d="M70.7132 29.4171C72.5315 29.4955 73 29.9043 73 31.8587C72.3259 49.7359 72.2113 53.0144 73 70.4079C72.9207 72.1276 72.4823 72.6972 71.0595 72.7166C53.7847 71.9616 25.8432 72.0772 10.2565 73C8.91242 73 8.47 72.5998 8.11039 71.337C6.9829 67.2583 6.4652 33.7111 7.76757 31.0223C8.1295 29.8642 9.33342 29.8991 11.0521 29.8075C32.6579 28.8235 51.1314 28.796 70.7132 29.4165V29.4171Z" fill="#DB0007"/>
<path d="M25 47.2968C25 43.4166 27.6109 40.829 31.502 40.829C34.2667 40.829 37.0821 42.1228 39.4881 44.5026C39.795 44.8128 40.1025 44.8128 40.5119 44.399C45.3244 39.5352 49.2662 37 51.9796 37C53.9249 37 55 38.242 55 40.4664C55 45.6404 49.113 54.5916 40.4607 62.5592C39.8462 63.1284 39.3343 63.1284 38.4129 62.6628C30.1194 58.4718 25 52.625 25 47.2962V47.2968Z" fill="#FFFDE9"/>
<path d="M73 16.0777C73 14.0037 72.5301 13.5692 70.7063 13.4859C67.0511 13.3632 62.6658 13.0302 61.2927 13.1924C59.9196 13.3547 59.829 15.2421 59.829 15.2421C59.829 16.2406 60.005 17.7361 59.1477 18.565C57.7363 19.9299 54.6642 22.1716 50.9562 19.4802C49.7033 18.5705 49.2369 16.1087 49.227 14.5998C49.2212 13.7332 48.9668 13.2811 47.5589 13.0557C41.4956 13.0216 32.9585 12.8934 31.874 13.1997C30.7896 13.506 30.8291 15.1012 30.8291 15.1012C30.8291 16.0996 30.8802 17.4736 30.1478 18.424C28.6934 20.3121 23.5617 20.9927 21.6002 18.7522C20.5704 17.5757 20.0337 16.6726 20.1644 15.1698C20.2364 14.3379 19.8031 13.3547 18.3574 13.5035C15.2796 13.6147 14.0662 13.746 10.8647 13.9004C9.14077 13.9976 7.93322 13.9605 7.5702 15.1899C6.50379 18.8117 7.31289 21.9164 7.04338 26.5731C7.4035 27.9137 8.71851 28 10.0666 28C25.7004 27.0204 53.7268 26.897 71.053 27.6992C72.4802 27.6785 72.9198 27.0733 72.9994 25.2484C72.8647 20.6463 72.5946 18.5298 72.9994 16.0777H73Z" fill="#8EE7F8"/>
<path d="M26.7953 17.7563L25.0975 18C23.2822 18 21.8504 16.071 22.0442 14.3292C22.1801 13.1117 22.0442 10.0659 22.0442 10.0659C21.7967 8.67875 22.5898 7 24.4051 7L25.6998 7.20998C27.5151 7.20998 29 8.67875 29 10.4734V14.7366C29 16.5312 28.61 17.7563 26.7947 17.7563H26.7953Z" fill="#8EE7F8"/>
<path d="M55.7943 17.7563L54.097 18C52.2821 18 50.8496 16.071 51.0441 14.3292C51.1799 13.1117 51.0441 10.0659 51.0441 10.0659C50.7969 8.67875 51.5895 7 53.405 7L54.6999 7.20998C56.5148 7.20998 58 8.67875 58 10.4734V14.7366C58 16.5312 57.6098 17.7563 55.7949 17.7563H55.7943Z" fill="#8EE7F8"/>
</svg>
