<svg width="60" height="60" viewBox="0 0 60 60" fill="none" xmlns="http://www.w3.org/2000/svg">
<path d="M18.3262 8.40797C18.3262 5.25902 20.4678 3.15954 23.659 3.15954C25.9262 3.15954 28.2355 4.20954 30.209 6.14079C30.4611 6.39287 30.7126 6.39287 31.0491 6.05693C34.996 2.10954 38.2293 0.0522461 40.4543 0.0522461C42.0501 0.0522461 42.9319 1.06006 42.9319 2.86527C42.9319 7.06423 38.1033 14.3283 31.0069 20.7944C30.5033 21.2564 30.0829 21.2564 29.3272 20.8783C22.5251 17.4772 18.3262 12.7325 18.3262 8.40745V8.40797Z" fill="#DB0007"/>
<path d="M22.5464 9.16051C22.5464 7.09124 23.9537 5.71208 26.0501 5.71208C27.5396 5.71208 29.0574 6.40166 30.3537 7.67093C30.5193 7.83656 30.685 7.83656 30.9053 7.61572C33.4985 5.02249 35.623 3.67041 37.085 3.67041C38.1334 3.67041 38.7126 4.33239 38.7126 5.51885C38.7126 8.2777 35.5402 13.0501 30.8777 17.2985C30.5464 17.6022 30.2709 17.6022 29.774 17.3537C25.3048 15.1188 22.5459 12.0017 22.5459 9.15999L22.5464 9.16051Z" fill="#FFFDE9"/>
<path d="M27.0987 58.6945C27.0674 59.6914 26.9029 59.9481 26.1169 59.9481C18.9268 59.5789 15.3628 59.5159 8.36693 59.9481C7.67526 59.9049 7.44609 59.6643 7.43828 58.8846C7.74193 49.4159 7.69557 34.0992 7.32422 25.5554C7.32422 24.8185 7.48516 24.5763 7.99297 24.3789C9.63359 23.7606 25.3716 23.4768 26.4529 24.1909C26.9185 24.3893 26.9044 25.0492 26.9414 25.9914C27.3372 37.8346 27.3482 47.9606 27.0987 58.6945Z" fill="#DB0007"/>
<path d="M52.5079 58.6945C52.4766 59.6914 52.312 59.9481 51.5261 59.9481C44.336 59.5789 40.7719 59.5159 33.7761 59.9481C33.0844 59.9049 32.8553 59.6643 32.8475 58.8846C33.1511 49.4159 33.1048 34.0992 32.7334 25.5554C32.7334 24.8185 32.8943 24.5763 33.4021 24.3789C35.0428 23.7606 50.7808 23.4768 51.862 24.1909C52.3277 24.3893 52.3136 25.0492 52.3506 25.9914C52.7464 37.8346 52.7574 47.9606 52.5079 58.6945Z" fill="#DB0007"/>
</svg>
