<svg width="80" height="80" viewBox="0 0 80 80" fill="none" xmlns="http://www.w3.org/2000/svg">
<path d="M65.5628 71.6437C65.4807 73.5172 65.0519 74 63.0026 74C44.2542 73.3056 34.9604 73.1872 16.7187 74C14.9153 73.9185 14.3176 73.4669 14.2972 72.0007C15.0894 54.2028 14.9677 25.4142 14 9.3552C14 7.97045 14.4197 7.5143 15.7439 7.14414C20.0217 5.98245 61.0593 5.44896 63.8791 6.79076C65.0935 7.16356 65.057 8.40395 65.153 10.175C66.1851 32.4357 66.2141 51.4689 65.5628 71.6437Z" fill="#DB0007"/>
<path d="M55.8474 26.9254C53.4834 26.8766 40.514 26.859 38.8036 26.9909C38.1823 27.0389 38.0407 26.9119 38.009 26.2476C37.9772 25.5834 38.0425 24.3156 38.009 23.8147C37.9772 23.3412 38.1088 23.0436 38.8036 23.0715C40.3501 23.1336 54.6397 22.9444 56.204 23.0168C56.8587 23.047 57.0168 23.1579 56.9986 23.76C56.9814 24.3311 56.9986 25.6304 56.9986 26.1929C56.9986 26.7554 56.8117 26.9453 55.8474 26.9254Z" fill="#FFFDE9"/>
<path d="M23.7968 22.7837C24.2704 22.1593 24.9081 22.5644 25.3753 22.9441C25.9403 23.4033 26.7384 24.0089 26.969 23.9856C27.2716 23.955 31.3571 20.3753 31.6617 20.1443C31.9663 19.9133 32.4206 19.9497 32.8802 20.3255C33.3398 20.7014 33.6003 21.0287 33.8495 21.2226C34.0987 21.4166 34.071 21.7561 33.5172 22.144C32.9633 22.5319 28.0339 26.2416 27.5077 26.7023C26.9816 27.163 26.8215 27.0483 26.2676 26.6361C25.7138 26.2239 23.6861 24.8111 23.2983 24.5929C22.9106 24.3747 22.9609 24.2688 23.113 23.9269C23.3509 23.3924 23.5777 23.0726 23.7968 22.7837Z" fill="#9CD83E"/>
<path d="M55.8474 39.9254C53.4834 39.8766 40.514 39.859 38.8036 39.9909C38.1823 40.0389 38.0407 39.9119 38.009 39.2476C37.9772 38.5834 38.0425 37.3156 38.009 36.8147C37.9772 36.3412 38.1088 36.0435 38.8036 36.0715C40.3501 36.1336 54.6397 35.9444 56.204 36.0168C56.8587 36.047 57.0168 36.1579 56.9986 36.76C56.9814 37.3311 56.9986 38.6304 56.9986 39.1929C56.9986 39.7554 56.8117 39.9453 55.8474 39.9254Z" fill="#FFFDE9"/>
<path d="M55.8474 52.9067C53.4834 52.8458 40.514 52.8237 38.8036 52.9887C38.1823 53.0486 38.0407 52.8898 38.009 52.0596C37.9772 51.2293 38.0425 49.6445 38.009 49.0184C37.9772 48.4265 38.1088 48.0544 38.8036 48.0893C40.3501 48.167 54.6397 47.9305 56.204 48.0209C56.8587 48.0588 57.0168 48.1974 56.9986 48.95C56.9814 49.6639 56.9986 51.288 56.9986 51.9912C56.9986 52.6943 56.8117 52.9316 55.8474 52.9067Z" fill="#FFFDE9"/>
<path d="M23.7968 36.1814C24.2704 35.4678 24.9081 35.9307 25.3753 36.3647C25.9403 36.8895 26.7384 37.5816 26.969 37.555C27.2716 37.52 31.3571 33.429 31.6617 33.165C31.9663 32.901 32.4206 32.9425 32.8802 33.372C33.3398 33.8016 33.6003 34.1756 33.8495 34.3973C34.0987 34.619 34.071 35.0069 33.5172 35.4503C32.9633 35.8937 28.0339 40.1333 27.5077 40.6598C26.9815 41.1863 26.8215 41.0552 26.2676 40.5841C25.7138 40.113 23.6861 38.4984 23.2983 38.249C22.9106 37.9996 22.9609 37.8786 23.113 37.4879C23.3509 36.8771 23.5777 36.5116 23.7968 36.1814Z" fill="#9CD83E"/>
<path d="M23.7968 49.1814C24.2704 48.4678 24.9081 48.9307 25.3753 49.3647C25.9403 49.8895 26.7384 50.5816 26.969 50.555C27.2716 50.52 31.3571 46.429 31.6617 46.165C31.9663 45.901 32.4206 45.9425 32.8802 46.372C33.3398 46.8016 33.6003 47.1756 33.8495 47.3973C34.0987 47.619 34.071 48.0069 33.5172 48.4503C32.9633 48.8936 28.0339 53.1333 27.5077 53.6598C26.9815 54.1863 26.8215 54.0552 26.2676 53.5841C25.7138 53.113 23.6861 51.4984 23.2983 51.249C22.9106 50.9996 22.9609 50.8786 23.113 50.4879C23.3509 49.8771 23.5777 49.5116 23.7968 49.1814Z" fill="#9CD83E"/>
</svg>
