<svg width="100" height="100" viewBox="0 0 100 100" fill="none" xmlns="http://www.w3.org/2000/svg">
<g clip-path="url(#clip0_2312_41795)">
<path d="M50.7289 95.4732C50.7289 97.2944 49.321 99.4949 53.9468 99.4949H84.9173C86.5258 99.4949 87.3262 98.8855 87.202 97.0218C86.9746 93.6103 86.5423 79.5834 86.3244 77.9766C85.9598 75.2822 87.7637 73.5435 88.5684 77.7674C89.373 81.9905 91.4781 93.1242 92.1048 96.0478C92.5154 97.9628 93.4538 98.5166 94.4303 98.7831C95.9347 99.1937 98.064 98.8117 98.6699 97.9628C99.3539 97.0053 99.3965 96.2779 99.196 93.8647C98.9946 91.4515 96.9303 66.527 94.7715 59.073C91.6942 48.4506 89.7307 44.0409 83.8982 42.4324C78.0658 40.8239 53.544 41.376 52.1369 41.9793C50.7289 42.5826 50.7289 93.2614 50.7289 95.4732Z" fill="#D0C9FF"/>
<path d="M22.0487 12.2093C22.0487 19.619 27.9185 26.6564 35.3265 26.6564C42.7345 26.6564 48.5314 21.6702 48.5314 14.2605C48.5314 6.8508 43.0713 0.0869141 35.6624 0.0869141C28.2536 0.0869141 22.0479 4.80046 22.0479 12.2093H22.0487Z" fill="#DB0007"/>
<path d="M61.0756 16.3908C61.0756 23.8006 66.9454 30.8379 74.3533 30.8379C81.7613 30.8379 87.5582 25.8518 87.5582 18.4421C87.5582 11.0323 82.0981 4.26758 74.6893 4.26758C67.2804 4.26758 61.0747 8.98112 61.0747 16.39L61.0756 16.3908Z" fill="#D0C9FF"/>
<path d="M53.6615 97.023C53.6615 98.6315 54.1467 99.8797 52.171 99.8797C45.9601 99.8797 22.4809 99.3832 17.8846 99.8797C16.5261 100.026 15.7726 99.7556 15.8967 97.7678C16.0721 94.9579 16.8794 80.069 16.8794 77.8572C16.8794 75.069 15.7847 73.0698 13.8707 77.5837C11.5504 83.0542 9.20055 95.3398 8.69794 96.8815C7.98874 99.0568 7.59725 99.9092 6.08336 99.6966C3.47572 99.3303 2.24482 99.4674 1.1502 98.5099C0.526068 97.9639 0.603325 96.4587 1.05558 93.4622C1.49308 90.5672 5.88197 65.1063 8.29517 58.8719C10.7084 52.6375 16.0209 35.6549 29.8134 33.9344C39.0712 32.7799 53.5365 33.0464 65.2084 34.9396C72.9601 36.1974 84.1441 39.5881 88.5686 40.9961C92.9931 42.404 92.9167 42.5655 92.961 43.7886C93.04 45.9657 92.5434 46.5863 91.7544 47.6098C91.0929 48.4674 90.8203 48.7999 88.0712 48.5742C79.0026 47.8285 64.5686 47.4561 57.3637 48.45C55.3907 48.7217 53.2882 48.8224 53.3429 50.6263C53.4349 53.648 53.6606 94.6089 53.6606 97.0221L53.6615 97.023Z" fill="#DB0007"/>
<path d="M24.0424 65.7307C24.0424 62.6664 26.1266 60.623 29.2316 60.623C31.4382 60.623 33.6847 61.6447 35.6057 63.5241C35.8505 63.7689 36.0962 63.7689 36.4226 63.4425C40.2629 59.6013 43.4096 57.5996 45.5745 57.5996C47.1274 57.5996 47.9851 58.5805 47.9851 60.3375C47.9851 64.4234 43.2863 71.492 36.3809 77.7836C35.8905 78.2333 35.4816 78.2333 34.7464 77.8652C28.1274 74.5553 24.0415 69.939 24.0415 65.7307H24.0424Z" fill="#FFFDE9"/>
</g>
<defs>
<clipPath id="clip0_2312_41795">
<rect width="100" height="100" fill="white"/>
</clipPath>
</defs>
</svg>
