<svg width="80" height="80" viewBox="0 0 80 80" fill="none" xmlns="http://www.w3.org/2000/svg">
<path d="M24.1766 78.7539C25.2016 78.365 26.0808 77.5831 26.7002 76.4914C27.5051 75.0727 27.7766 73.3157 27.4641 71.5442C27.419 71.2893 27.4773 71.0261 27.6259 70.8143C27.7745 70.6018 28.0016 70.4574 28.2565 70.4123L61.394 64.5692L61.3801 64.4942C61.3801 64.4942 61.1412 60.4234 59.6704 54.5748C55.2287 36.9074 50.9676 4.32545 50.4308 2.39698C49.7065 -0.203715 47.7981 -0.119688 44.1134 0.279618C40.4287 0.678924 9.63841 6.3824 8.13424 6.62406C6.63077 6.86503 4.92452 6.97128 5.22521 10.2317C5.4641 12.8206 10.7592 48.3817 14.362 64.2984C15.2981 68.4345 15.6877 70.2629 15.6877 70.2629L16.3502 73.3553C17.0773 77.4796 20.278 79.4414 23.6863 78.8407L24.1766 78.7546V78.7539Z" fill="#DB0007"/>
<path d="M18.1016 42.7121C17.6363 42.7121 17.7842 42.1482 17.7002 41.6746C17.6065 41.1426 17.4016 40.8662 17.9328 40.7732L50.1051 35.1003C50.6391 35.0065 50.7363 35.3836 50.8301 35.9135C50.9238 36.4454 50.9759 36.9308 50.4447 37.0246L18.2724 42.6975C18.2148 42.7079 18.1578 42.7128 18.1016 42.7128V42.7121Z" fill="#9CD83E"/>
<path d="M15.5829 14.3183C14.8676 14.3183 14.8406 13.6996 14.7121 12.9718C14.5676 12.1551 14.5072 11.4822 15.3232 11.3378L42.4885 6.54751C43.3045 6.40723 43.11 6.98084 43.2538 7.79682C43.3982 8.61348 43.8267 9.36071 43.01 9.50515L15.8447 14.2954C15.7565 14.3107 15.6683 14.3183 15.5822 14.3183H15.5829Z" fill="#9CD83E"/>
<path d="M35.3847 32.184C34.9194 32.184 34.9083 31.6368 34.825 31.1632C34.7312 30.6313 34.6847 30.3382 35.2166 30.2444L47.2868 28.1167C47.8229 28.0215 47.9083 28.4986 48.0021 29.0292C48.0958 29.5611 48.1576 29.9472 47.6257 30.041L35.5555 32.1688C35.4979 32.1792 35.4409 32.184 35.3847 32.184Z" fill="#9CD83E"/>
<path d="M34.2701 25.8592C33.8048 25.8592 33.7888 25.396 33.7055 24.9224C33.6118 24.3905 33.5701 24.0134 34.102 23.9196L46.1722 21.7912C46.7069 21.6925 46.6819 21.9911 46.7757 22.5217C46.8694 23.0536 47.043 23.6217 46.5111 23.7155L34.4409 25.8439C34.3833 25.8543 34.3263 25.8592 34.2701 25.8592Z" fill="#9CD83E"/>
<path d="M33.1503 19.5115C32.685 19.5115 32.5079 19.0997 32.4246 18.6268C32.3308 18.0949 32.4503 17.6664 32.9822 17.5726L45.0524 15.4442C45.5864 15.3497 45.4551 15.8032 45.5482 16.3331C45.6419 16.865 45.9232 17.2747 45.3912 17.3685L33.3211 19.4969C33.2635 19.5074 33.2065 19.5122 33.1503 19.5122V19.5115Z" fill="#9CD83E"/>
<path d="M18.2149 50.7517C17.7497 50.7517 17.6774 50.2045 17.5941 49.7302C17.5003 49.1983 17.5149 48.9059 18.0469 48.8128L30.117 46.6844C30.6524 46.5906 30.7316 46.9066 30.8247 47.4364C30.9184 47.9684 30.9878 48.5149 30.4559 48.6087L18.3858 50.7371C18.3281 50.7476 18.2712 50.7524 18.2149 50.7524V50.7517Z" fill="#9CD83E"/>
<path d="M19.3311 57.0776C18.8659 57.0776 18.7985 56.4984 18.7152 56.0248C18.6214 55.4929 18.6311 55.2318 19.1631 55.138L31.2332 53.0095C31.7666 52.913 31.6923 53.2526 31.786 53.7838C31.8798 54.3158 32.1041 54.8401 31.5728 54.9331L19.5027 57.0616C19.445 57.072 19.3881 57.0769 19.3318 57.0769L19.3311 57.0776Z" fill="#9CD83E"/>
<path d="M20.4495 63.4242C19.9843 63.4242 20.0252 63.0068 19.9412 62.5339C19.8475 62.0019 19.7495 61.579 20.2808 61.4853L32.3509 59.3568C32.8857 59.2623 33.0245 59.6568 33.1183 60.1867C33.212 60.7186 33.2218 61.1874 32.6905 61.2811L20.6204 63.4096C20.5627 63.42 20.5058 63.4249 20.4495 63.4249V63.4242Z" fill="#9CD83E"/>
<path d="M56.6872 9.74212C57.267 7.56782 59.1323 6.51226 61.3358 7.10046C62.9011 7.51782 64.3025 8.66851 65.3094 10.365C65.4372 10.5852 65.6108 10.6317 65.9045 10.4616C69.3566 8.46295 71.9684 7.63796 73.5045 8.04768C74.6066 8.34143 75.0295 9.19976 74.6969 10.4463C73.9233 13.3456 69.2518 17.472 63.1608 20.6303C62.7275 20.8567 62.4379 20.7789 61.9858 20.3789C57.9156 16.7775 55.89 12.7282 56.6865 9.74212H56.6872Z" fill="#8EE7F8"/>
<path d="M30.3051 32.5704C30.3731 33.0753 30.2821 33.2246 29.7377 33.3225C26.5995 33.6329 20.2669 34.7607 16.2995 35.7281C15.8162 35.7919 15.6363 35.6996 15.5606 35.3086C14.9189 30.5114 14.0919 26.0774 13.0662 21.8288C13.0002 21.4586 13.0891 21.3156 13.4238 21.1544C14.503 20.6364 26.5238 18.3413 27.337 18.5663C27.6773 18.6079 27.7294 18.9413 27.8377 19.4107C28.9203 24.0954 29.7071 28.4732 30.3058 32.5704H30.3051Z" fill="#FFFDE9"/>
<path d="M53.2904 57.5079C53.3585 58.0128 53.2675 58.1621 52.7231 58.26C49.5849 58.5704 43.2522 59.6982 39.2849 60.6656C38.8015 60.7294 38.6217 60.6371 38.546 60.2461C37.9043 55.4489 37.0772 51.0149 36.0515 46.7663C35.9856 46.3961 36.0744 46.2531 36.4092 46.0919C37.4883 45.5739 49.5092 43.2788 50.3224 43.5038C50.6626 43.5454 50.7147 43.8788 50.823 44.3482C51.9057 49.0329 52.6925 53.4107 53.2911 57.5079H53.2904Z" fill="#FFFDE9"/>
<path d="M29.513 72.1753C29.663 74.0621 29.2789 75.9072 28.3998 77.4559C28.2588 77.7045 28.1074 77.942 27.9463 78.167L62.413 72.0899C64.1505 71.7836 65.665 70.8191 66.6768 69.3732C67.4998 68.1982 67.9102 66.8197 67.8706 65.4121L29.513 72.1753Z" fill="#DB0007"/>
</svg>
