<svg width="100" height="100" viewBox="0 0 100 100" fill="none" xmlns="http://www.w3.org/2000/svg">
<g clip-path="url(#clip0_2312_41809)">
<path d="M24.4677 74.7299C21.9876 80.1864 18.6864 82.3375 20.8158 86.597C22.946 90.8575 29.0319 94.8132 32.3791 95.117C35.7264 95.4217 40.8991 95.117 43.0293 96.0302C45.1595 96.9434 48.8106 100.899 52.7672 99.6821C56.7229 98.4651 58.2446 89.0319 63.1135 88.1187C67.9824 87.2055 69.8079 87.2055 76.5024 88.4234C83.1968 89.6404 85.327 93.2924 92.63 89.0319C99.9329 84.7715 99.3244 79.5988 96.8904 76.5554C94.4564 73.512 91.7177 72.295 93.2385 66.5137C94.7602 60.7325 93.5432 58.9061 89.8913 55.8635C86.2394 52.8201 85.6309 52.2116 90.8045 43.6917C95.9772 35.1717 98.1074 29.0858 98.7159 25.4338C99.3244 21.7819 100.541 19.0432 90.8045 19.3479C81.0666 19.6526 66.156 11.7403 63.1135 8.08922C60.0701 4.43731 53.9842 -4.69116 49.4199 3.2203C44.8557 11.1318 45.768 11.1318 41.8123 14.479C39.1838 16.7029 36.3349 21.1734 27.5102 14.7837C23.143 11.6213 18.7064 12.3505 18.3817 17.2177C18.0918 21.5606 19.3592 25.8071 16.2515 26.0423C10.1074 26.5076 7.73156 23.6083 4.38434 25.7377C1.03712 27.8679 -1.7016 31.8236 4.99285 36.6925C11.6873 41.5614 17.7941 43.2828 19.2949 46.7342C25.3809 60.7316 27.5111 68.0354 24.4677 74.7299Z" fill="#9CD83E"/>
<path d="M52.9639 16.4579C52.9639 14.6228 54.2113 13.3997 56.0706 13.3997C57.3918 13.3997 58.7434 14.0048 59.8866 15.1367C60.0342 15.2826 60.18 15.2834 60.3762 15.0881C62.6757 12.7886 64.5594 11.5898 65.8554 11.5898C66.785 11.5898 67.2989 12.1766 67.2989 13.2287C67.2989 15.6749 64.4804 19.9006 60.3519 23.674C60.0576 23.9431 59.8137 23.9431 59.3736 23.7227C55.4109 21.7409 52.9647 18.977 52.9647 16.457L52.9639 16.4579Z" fill="#DB0007"/>
<path d="M45.6006 39.9491C45.6006 38.114 46.848 36.891 48.7074 36.891C50.0285 36.891 51.3801 37.496 52.5233 38.6279C52.6709 38.7738 52.8167 38.7746 53.0129 38.5793C55.3124 36.2798 57.1961 35.0811 58.4921 35.0811C59.4218 35.0811 59.9357 35.6679 59.9357 36.7199C59.9357 39.1661 57.1171 43.3918 52.9886 47.1653C52.6943 47.4344 52.4504 47.4344 52.0103 47.2139C48.0476 45.2321 45.6015 42.4682 45.6015 39.9482L45.6006 39.9491Z" fill="#DB0007"/>
<path d="M67.8145 68.8563C67.8145 67.0213 69.0619 65.7982 70.9212 65.7982C72.2424 65.7982 73.594 66.4032 74.7372 67.5352C74.8848 67.681 75.0306 67.6819 75.2268 67.4865C77.5263 65.1871 79.4099 63.9883 80.7059 63.9883C81.6356 63.9883 82.1495 64.5751 82.1495 65.6272C82.1495 68.0734 79.3309 72.299 75.2025 76.0725C74.9082 76.3416 74.6643 76.3416 74.2242 76.1211C70.2615 74.1393 67.8153 71.3754 67.8153 68.8555L67.8145 68.8563Z" fill="#DB0007"/>
<path d="M39.8184 83.7675C39.8184 81.9324 41.0658 80.7093 42.9251 80.7093C44.2463 80.7093 45.5979 81.3143 46.7411 82.4463C46.8887 82.5921 47.0345 82.593 47.2307 82.3977C49.5302 80.0982 51.4138 78.8994 52.7099 78.8994C53.6395 78.8994 54.1534 79.4862 54.1534 80.5383C54.1534 82.9845 51.3349 87.2102 47.2064 90.9836C46.9121 91.2527 46.6682 91.2527 46.2281 91.0322C42.2654 89.0505 39.8192 86.2866 39.8192 83.7666L39.8184 83.7675Z" fill="#DB0007"/>
<path d="M24.7314 41.3732C24.7314 40.2725 25.4797 39.5381 26.5952 39.5381C27.3877 39.5381 28.1985 39.9009 28.8851 40.5806C28.9736 40.6683 29.0613 40.6683 29.1785 40.5511C30.5587 39.1718 31.688 38.4521 32.4658 38.4521C33.024 38.4521 33.3321 38.8046 33.3321 39.4357C33.3321 40.9035 31.6412 43.4391 29.1637 45.703C28.9875 45.8645 28.8408 45.8645 28.5769 45.7325C26.1993 44.5433 24.7314 42.8853 24.7314 41.3732Z" fill="#DB0007"/>
<path d="M33.0947 67.003C33.0947 65.9023 33.843 65.168 34.9584 65.168C35.751 65.168 36.5617 65.5308 37.2484 66.2105C37.3369 66.2982 37.4246 66.2982 37.5418 66.181C38.922 64.8017 40.0513 64.082 40.8291 64.082C41.3873 64.082 41.6954 64.4345 41.6954 65.0655C41.6954 66.5334 40.0044 69.069 37.527 71.3329C37.3508 71.4944 37.2041 71.4944 36.9402 71.3624C34.5626 70.1732 33.0947 68.5152 33.0947 67.003Z" fill="#DB0007"/>
<path d="M84.2168 29.5734C84.2168 28.4727 84.9651 27.7383 86.0805 27.7383C86.873 27.7383 87.6838 28.1011 88.3704 28.7808C88.459 28.8685 88.5467 28.8685 88.6638 28.7513C90.0441 27.372 91.1734 26.6523 91.9512 26.6523C92.5093 26.6523 92.8175 27.0048 92.8175 27.6358C92.8175 29.1037 91.1265 31.6393 88.6491 33.9032C88.4729 34.0647 88.3262 34.0647 88.0623 33.9327C85.6847 32.7435 84.2168 31.0855 84.2168 29.5734Z" fill="#DB0007"/>
</g>
<defs>
<clipPath id="clip0_2312_41809">
<rect width="100" height="100" fill="white"/>
</clipPath>
</defs>
</svg>
