<svg width="60" height="60" viewBox="0 0 60 60" fill="none" xmlns="http://www.w3.org/2000/svg">
<g clip-path="url(#clip0_2305_40855)">
<path d="M51.979 56.3502C50.0326 50.357 49.2503 46.0216 46.9043 40.1845C46.6524 39.5577 46.8145 38.8404 47.3134 38.3849C48.8823 36.953 50.4642 35.5331 52.0033 34.0676C53.8765 32.2835 55.7883 30.4829 57.5922 28.6247C58.5352 27.6526 59.5626 26.7288 58.7343 25.5479C58.5176 25.2391 58.1944 25.0215 57.8297 24.9248C52.4251 23.4918 47.115 21.5502 41.5967 20.6176C41.0075 20.518 40.5225 20.1021 40.3316 19.5358C38.6676 14.6003 36.5195 9.83286 33.9205 5.37276C33.4577 4.57762 32.0145 1.95583 31.3679 1.60464C30.447 1.10365 29.5863 1.50706 29.1281 2.43757C27.8407 5.05044 26.6632 8.75946 25.6481 11.5751C24.7091 14.1788 23.8291 16.8094 22.9545 19.438C22.7612 20.0188 22.2568 20.4408 21.651 20.5282C16.7463 21.2364 11.8343 21.9434 6.97753 22.9461C5.26664 23.2993 2.70881 23.7068 1.13471 24.3164C-0.00740836 24.7583 -0.440044 26.3437 0.556774 27.1904C1.11442 27.6646 3.80708 28.5209 4.71685 28.9539C9.19749 31.0827 13.2902 34.2656 16.6166 38.0668C16.9974 38.502 17.1157 39.109 16.9267 39.6554C16.6443 40.4721 16.3271 41.2777 16.0562 42.0986C14.3513 47.2628 12.9693 52.59 11.8316 57.9148C11.7134 58.4678 11.8846 59.0522 12.3055 59.4298C12.7001 59.7839 13.2492 59.9208 13.846 59.7585C14.8886 59.474 17.3149 57.9256 18.5067 57.358C22.9647 55.2334 27.6568 53.4024 32.3568 51.9472C32.6499 51.8564 32.9679 51.8361 33.259 51.9332C37.8866 53.4772 40.066 54.6674 42.2248 55.825C44.4341 57.0098 46.3449 58.3084 48.0609 59.2368C50.5076 60.5605 53.1839 60.0602 51.979 56.3502Z" fill="#DB0007"/>
<path d="M21.0606 32.3858C21.0606 29.6206 22.941 27.7771 25.7431 27.7771C27.734 27.7771 29.7618 28.6989 31.4946 30.3949C31.7158 30.6161 31.9371 30.6161 32.2321 30.3212C35.6978 26.8553 38.5368 25.0488 40.4908 25.0488C41.8919 25.0488 42.6662 25.9337 42.6662 27.5191C42.6662 31.206 38.4262 37.5844 32.1952 43.2623C31.7528 43.6679 31.384 43.6679 30.7204 43.3361C24.7475 40.3496 21.0606 36.1833 21.0606 32.3858Z" fill="#FFFDE9"/>
<path d="M44.93 12.2855C44.4042 13.1468 44.0594 13.247 43.1102 12.699C41.4431 11.6389 42.7735 12.4509 42.0279 12.0204C41.2146 11.5002 41.2252 11.2406 41.6103 10.5519C41.9921 9.80582 46.3712 1.98779 46.8215 1.20795C47.194 0.56262 47.4004 0.20512 48.224 0.64385C48.7308 0.934485 49.3936 1.26919 50.2481 1.73012C50.6879 1.98408 50.4911 2.34386 50.059 3.19488C49.8081 3.64542 45.5432 11.281 44.93 12.2855Z" fill="#FFBC0D"/>
<path d="M50.0355 19.1664C49.1494 19.6494 48.8007 19.5638 48.2528 18.6147C47.3391 16.863 48.0852 18.2314 47.6547 17.4858C47.2105 16.6286 47.3495 16.4092 48.0273 16.0052C48.731 15.55 56.4325 10.969 57.2123 10.5187C57.8576 10.1461 58.2151 9.93974 58.709 10.7315C59.0026 11.2365 59.4092 11.8578 59.9187 12.6842C60.1727 13.1241 59.8223 13.3372 59.0226 13.8582C58.5801 14.1229 51.0687 18.6031 50.0355 19.1664Z" fill="#FFBC0D"/>
<path d="M11.1975 42.029C12.039 41.472 12.3938 41.5276 13.0209 42.4264C14.0809 44.0936 13.2206 42.7939 13.7132 43.5C14.2291 44.3161 14.1094 44.5466 13.4685 45.007C12.8063 45.5207 5.52456 50.7432 4.78606 51.2584C4.17493 51.6848 3.83638 51.921 3.27662 51.1744C2.941 50.6962 2.48276 50.112 1.90444 49.3322C1.61382 48.9156 1.9447 48.6733 2.69692 48.0859C3.11527 47.7843 10.2162 42.6786 11.1975 42.029Z" fill="#FFBC0D"/>
<path d="M9.49193 35.1494C10.4992 35.0878 10.7786 35.3133 10.8723 36.4052C10.9568 38.3791 10.8615 36.8234 10.9351 37.6812C10.9738 38.6459 10.7549 38.7856 9.9697 38.8639C9.13931 38.9777 3.46397 39.8597 2.56679 39.9366C1.82434 40.0003 1.41305 40.0356 1.3016 39.1091C1.25001 38.5272 1.14527 37.7921 1.03437 36.8276C0.990962 36.3215 1.39867 36.2771 2.34382 36.1445C2.8569 36.0925 8.31726 35.2213 9.49193 35.1494Z" fill="#FFBC0D"/>
<path d="M54.4114 39.022C53.4473 38.7239 53.2655 38.4142 53.5635 37.3596C54.1816 35.4831 53.7213 36.9721 53.9554 36.1436C54.2599 35.2275 54.5141 35.174 55.2763 35.3781C56.0934 35.565 58.1691 36.0608 59.0357 36.3057C59.7528 36.5084 60.15 36.6206 59.927 37.5268C59.7698 38.0894 59.6082 38.8141 59.3713 39.7556C59.2331 40.2444 58.836 40.1419 57.905 39.9322C57.4066 39.7996 55.5357 39.3696 54.4114 39.022Z" fill="#FFBC0D"/>
<path d="M51.0087 44.6999C50.3228 43.9597 50.3202 43.6006 51.1056 42.8363C52.5792 41.5202 51.436 42.5796 52.053 41.9792C52.7748 41.338 53.0217 41.4188 53.5797 41.9767C54.1939 42.547 58.4722 46.3789 59.1002 47.0242C59.6199 47.5583 59.9078 47.8541 59.2616 48.5274C58.8442 48.936 58.3418 49.4828 57.6659 50.1797C57.3019 50.5339 57.0092 50.2466 56.3078 49.5995C55.9424 49.2355 51.8086 45.5631 51.0087 44.6999Z" fill="#FFBC0D"/>
<path d="M12.3011 15.6466C13.1624 16.1724 13.2626 16.5172 12.7146 17.4663C11.6545 19.1335 12.4665 17.8031 12.036 18.5487C11.5158 19.362 11.2563 19.3514 10.5675 18.9663C9.82144 18.5844 2.00342 14.2054 1.22358 13.7551C0.578245 13.3825 0.220745 13.1761 0.659474 12.3525C0.95011 11.8458 1.28481 11.183 1.74575 10.3285C1.99971 9.88865 2.35949 10.0855 3.2105 10.5176C3.66105 10.7685 11.2966 15.0334 12.3011 15.6466Z" fill="#FFBC0D"/>
<path d="M21.2621 10.1313C21.7451 11.0173 21.6595 11.366 20.7104 11.914C18.9587 12.8277 20.3271 12.0816 19.5815 12.5121C18.7243 12.9563 18.5049 12.8173 18.1009 12.1395C17.6457 11.4357 13.0647 3.73432 12.6144 2.95448C12.2418 2.30915 12.0354 1.95165 12.8272 1.45775C13.3323 1.16423 13.9535 0.757587 14.7799 0.248046C15.2198 -0.00591803 15.4329 0.344467 15.9539 1.14413C16.2186 1.58672 20.6988 9.09803 21.2621 10.1313Z" fill="#FFBC0D"/>
</g>
<defs>
<clipPath id="clip0_2305_40855">
<rect width="60" height="60" fill="white"/>
</clipPath>
</defs>
</svg>
