<svg width="100" height="100" viewBox="0 0 100 100" fill="none" xmlns="http://www.w3.org/2000/svg">
<g clip-path="url(#clip0_2312_41802)">
<path d="M93.401 44.606C92.7614 47.7766 90.6596 50.3802 87.153 50.3802C87.153 50.3802 8.60474 50.3802 8.54261 50.3802C7.06492 50.3802 6.05501 49.0301 6.35445 47.6246C7.23747 43.48 9.91323 39.5674 13.521 37.3571C15.5284 36.1272 17.7959 35.3388 20.1245 35.0082C22.6689 19.9568 37.1938 13.1348 49.4049 15.3997C58.0307 16.9988 66.0695 21.5152 69.0047 29.1809C72.335 27.6183 76.1634 27.1521 79.7629 27.819C87.9687 29.3411 95.3813 34.7887 93.401 44.606Z" fill="#FFBC0D"/>
<path d="M6.59181 3.84257C6.60015 3.21036 6.61772 2.57324 6.70905 1.94668C6.76814 1.54136 6.8573 1.12041 7.06827 0.763907C7.23111 0.488742 7.47171 0.302162 7.76921 0.184272C8.23401 7.89767e-05 8.75507 0.0132561 9.24467 0.0367457C9.6795 0.057605 10.1136 0.0693498 10.5476 0.102327C10.9313 0.131477 11.3235 0.139089 11.6937 0.254949C11.9095 0.322492 12.1139 0.429263 12.2749 0.590235C12.5696 0.885556 12.6723 1.31711 12.7293 1.71677C12.8067 2.25855 12.8113 2.81074 12.8155 3.35696C12.8866 5.89283 12.5917 25.9781 12.5923 28.7061C12.5926 29.6706 12.8008 31.2829 11.9319 31.9749C11.385 32.4104 10.5043 32.3935 9.84309 32.4508C8.98032 32.5255 8.02021 32.6919 7.20396 32.3976C5.9228 31.9358 6.24717 30.8229 6.25198 29.7599C6.25679 28.6969 6.33364 26.1231 6.33364 22.7427C6.33364 19.3623 6.42336 15.9575 6.47049 12.565C6.5079 9.87134 6.54644 7.17771 6.58319 4.48405C6.5861 4.27023 6.58899 4.0564 6.59181 3.84257Z" fill="#DB0007"/>
<path d="M18.932 1.84747C18.9723 0.378299 19.3855 0.000737847 21.2085 0C21.9821 0 22.7546 0.047309 23.5273 0.0784722C23.9357 0.0949479 24.448 0.125017 24.7852 0.388073C25.1565 0.677726 25.131 1.19155 25.1557 1.61403C25.2268 2.83301 24.9319 12.488 24.9325 13.7993C24.9331 14.8845 24.9334 15.4856 23.3822 15.5326C22.4105 15.5355 21.1779 15.638 19.5632 15.638C18.6162 15.638 18.6158 15.0889 18.6162 13.6534C18.6165 12.9024 18.8851 3.5608 18.932 1.84747Z" fill="#DB0007"/>
<path d="M55.3369 99.9095C71.7962 99.25 88.4308 94.2291 96.3917 78.063C100.071 70.5914 103.13 55.7191 93.1374 56.3068C78.0253 57.1956 13.9739 57.1841 5.62214 56.2783C-3.04097 55.3388 0.728662 65.2514 2.19036 68.5553C10.4685 87.2668 21.4194 101.268 55.3369 99.9095Z" fill="#DB0007"/>
<path d="M40.2217 76.1309C40.2217 73.3337 42.1239 71.4689 44.9584 71.4689C46.9724 71.4689 49.0237 72.4013 50.7766 74.117C51.0004 74.3407 51.2242 74.3407 51.5226 74.0424C55.0285 70.5364 57.9003 68.709 59.877 68.709C61.2943 68.709 62.0775 69.6041 62.0775 71.2079C62.0775 74.9375 57.7885 81.3898 51.4853 87.1334C51.0377 87.5438 50.6647 87.5438 49.9934 87.2081C43.9513 84.187 40.2217 79.9725 40.2217 76.1309Z" fill="#FFFDE9"/>
</g>
<defs>
<clipPath id="clip0_2312_41802">
<rect width="100" height="100" fill="white"/>
</clipPath>
</defs>
</svg>
