<svg width="80" height="80" viewBox="0 0 80 80" fill="none" xmlns="http://www.w3.org/2000/svg">
<path d="M37.8043 18.5101C37.7029 17.3469 37.1918 16.7344 36.2737 16.7344C34.7432 16.6122 31.1175 16.5879 29.6612 16.7955C28.3751 16.9796 28.664 15.7073 28.6508 15.0796C28.6154 13.4157 28.5695 11.7247 28.5105 10.0025C28.4793 9.22261 28.1307 8.59206 27.3959 8.51289C26.4772 7.92261 12.8091 8.15733 11.4161 8.66844C10.9848 8.83164 10.4501 9.03233 10.4501 9.64136C10.5584 12.0657 10.4973 15.4872 10.4973 15.9386C10.4973 17.3469 9.53204 17.1316 8.79732 17.1129C5.16607 17.0205 3.67996 17.0379 1.94871 17.3386C0.440378 17.6011 0.4001 18.4393 0.44385 19.2955C0.820239 26.7462 0.640378 55.2858 0.640378 60.3914C0.640378 61.2483 0.885517 61.9219 2.04871 61.9219C3.56191 61.9219 7.27093 61.7323 12.5258 61.6171C12.7223 56.0164 12.6744 51.3073 12.5612 47.2226C12.5612 46.8379 12.6772 46.7115 13.0425 46.6087C14.2223 46.2858 25.0022 46.1379 25.78 46.5108C26.1147 46.6143 26.1369 46.958 26.1313 47.4511C26.0841 51.6427 26.1855 57.115 26.2876 61.3261C26.2897 61.4233 26.3209 61.5108 26.3633 61.5907C31.3952 61.6941 33.9959 61.8969 36.1237 61.8969C37.7133 61.8969 38.0695 61.3844 38.1098 59.3886C38.3661 46.5976 38.3945 25.2483 37.8063 18.5108L37.8043 18.5101Z" fill="#D0C9FF"/>
<path d="M78.4716 71.7902C75.6695 71.7284 3.04939 71.6568 1.02161 71.8242C0.285501 71.8846 0.117445 71.7242 0.0799452 70.8825C0.0424452 70.0409 0.119529 68.4346 0.0799452 67.7999C0.0424452 67.1999 0.198001 66.8228 1.02161 66.8582C2.85495 66.9367 77.0397 66.7464 78.8938 66.8381C79.6695 66.8763 79.857 67.0172 79.8355 67.7797C79.8154 68.5034 79.8355 70.1499 79.8355 70.8624C79.8355 71.5749 79.614 71.8159 78.4709 71.7909L78.4716 71.7902Z" fill="#9CD83E"/>
<path d="M79.766 60.535C79.7216 61.5565 79.366 61.9121 78.2556 61.9121C75.2792 61.9121 68.4382 61.4232 61.1091 61.4232C53.2021 61.4232 47.2494 62.0009 44.1403 61.9121C43.1632 61.8676 42.6855 61.4676 42.6744 60.6683C42.657 59.3947 42.8591 56.1905 42.8591 49.0391C42.8591 44.0197 42.4966 36.7252 42.4966 34.5044C42.4966 33.7496 42.6744 33.4384 43.2959 32.994C47.4271 30.0621 54.8903 23.71 60.0876 18.4683C60.8431 17.7572 61.4202 17.7127 62.3528 18.335C66.5285 21.2225 75.1014 28.3301 78.7001 31.928C79.366 32.5502 79.5438 33.0384 79.5438 33.9273C79.9883 43.5669 80.0327 52.2287 79.766 60.5357V60.535Z" fill="#DB0007"/>
<path d="M48.4487 43.0329C48.4487 39.7017 50.714 37.4802 54.0904 37.4802C56.489 37.4802 58.9321 38.5906 61.0203 40.6343C61.2869 40.901 61.5536 40.901 61.9085 40.5454C66.0841 36.3697 69.5043 34.1934 71.8591 34.1934C73.5473 34.1934 74.48 35.2593 74.48 37.1697C74.48 41.6121 69.3716 49.2968 61.864 56.1378C61.3307 56.6267 60.8869 56.6267 60.0869 56.2267C52.8904 52.6288 48.4487 47.6086 48.4487 43.0336V43.0329Z" fill="#FFFDE9"/>
<path d="M17.3349 27.0308V23.11H13.6627C13.2662 23.11 13.0176 22.8613 13.0176 22.4648V19.9836C13.0176 19.5613 13.2655 19.3384 13.6627 19.3384H17.3349V15.4176C17.3349 15.0211 17.5829 14.7725 17.9808 14.7725H20.7099C21.1322 14.7725 21.3558 15.0211 21.3558 15.4176V19.3384H25.053C25.4745 19.3384 25.6981 19.5863 25.6981 19.9836V22.4648C25.6981 22.8863 25.4502 23.11 25.053 23.11H21.3558V27.0308C21.3558 27.4273 21.1079 27.6759 20.7099 27.6759H17.9808C17.5829 27.6759 17.3349 27.4273 17.3349 27.0308Z" fill="#DB0007"/>
</svg>
