<svg width="60" height="60" viewBox="0 0 60 60" fill="none" xmlns="http://www.w3.org/2000/svg">
<path d="M55.0898 55.4551C55.2252 52.5931 55.2643 54.689 54.2815 48.9863C53.1591 42.477 50.0476 30.99 38.2721 28.9337C34.7981 28.327 27.1393 28.4046 23.7674 28.8254C11.8284 30.3145 7.82419 39.4442 6.25283 44.9436C4.66325 50.5077 4.68773 53.1848 5.02471 57.1129C5.24867 59.7259 8.05492 59.6942 9.85075 59.9186C11.0997 60.0749 50.0086 59.5535 51.2643 59.4697C52.9476 59.3577 54.9664 58.0749 55.0903 55.4551H55.0898Z" fill="#DB0007"/>
<path d="M21.144 40.8798C21.144 38.6132 22.6857 37.1017 24.9826 37.1017C26.6149 37.1017 28.2769 37.8575 29.6977 39.2476C29.8789 39.4288 30.0602 39.4288 30.3024 39.1871C33.1435 36.346 35.4706 34.8647 37.0727 34.8647C38.2211 34.8647 38.856 35.5903 38.856 36.8897C38.856 39.9121 35.38 45.1413 30.2722 49.7955C29.9097 50.1278 29.6071 50.1278 29.0633 49.8559C24.167 47.4075 21.1446 43.9923 21.1446 40.8788L21.144 40.8798Z" fill="#FFFDE9"/>
<path d="M30.311 4.3177C29.1141 4.14374 28.1141 3.48332 27.8938 2.25988C27.5854 0.547904 27.1969 1.15728 26.999 1.92863C26.85 2.50884 26.8641 3.19947 27.1479 3.95051C27.3802 4.56353 27.0985 4.51405 26.8245 4.29738C26.2047 3.80728 25.3464 3.41301 24.4297 1.19478C23.7245 -0.512512 23.3021 -0.0229289 23.1203 0.834363C22.9953 1.42238 22.374 2.77655 22.6511 4.54686C22.8719 5.95572 22.6412 5.94113 22.4078 5.54165C22.3032 5.36249 21.9771 4.61353 22.0026 4.03905C22.0792 2.32499 21.3651 2.07759 20.7032 3.81822C20.2797 4.93176 20.0646 7.47968 20.499 9.34478C19.6787 10.7281 19.2104 12.3604 19.2104 14.1963C19.2104 20.2344 23.9933 25.9693 30.0308 25.9693C36.0683 25.9693 40.7917 21.9062 40.7917 15.8682C40.7917 9.8302 36.3453 4.32186 30.312 4.3177H30.311Z" fill="#DB0007"/>
</svg>
