<svg width="80" height="80" viewBox="0 0 80 80" fill="none" xmlns="http://www.w3.org/2000/svg">
<path d="M78.5626 78.6977C75.757 78.6359 3.05286 78.5644 1.023 78.7317C0.285501 78.7928 0.117445 78.6317 0.0799452 77.7887C0.0424452 76.9463 0.119529 75.3373 0.0799452 74.7026C0.0424452 74.1019 0.198695 73.7241 1.023 73.7595C2.85842 73.8387 77.13 73.6477 78.9862 73.7394C79.7633 73.7776 79.9508 73.9185 79.9293 74.6824C79.9084 75.4067 79.9293 77.0553 79.9293 77.7685C79.9293 78.4817 79.7077 78.7227 78.5633 78.6977H78.5626Z" fill="#9CD83E"/>
<path d="M68.4657 69.1793C68.3976 70.7466 67.8525 71.2925 66.1483 71.2925C61.5817 71.2925 51.0851 70.5425 39.8393 70.5425C27.7067 70.5425 18.5733 71.4286 13.8025 71.2925C12.3032 71.2244 11.5706 70.6105 11.5532 69.3841C11.5261 67.43 11.8365 61.1883 11.8365 50.2147C11.8365 42.5126 11.2803 30.1425 11.2803 26.7341C11.2803 25.5758 11.5532 25.098 12.5074 24.4168C18.8462 19.9182 30.2969 10.1716 38.2712 2.12926C39.4303 1.03898 40.3157 0.970233 41.7476 1.92509C48.1546 6.35496 61.3087 17.2605 66.8303 22.7813C67.8525 23.7355 68.1254 24.4855 68.1254 25.8487C68.8067 40.639 68.8754 56.4341 68.4664 69.18L68.4657 69.1793Z" fill="#DB0007"/>
<path d="M2.15238 10.4934C1.82321 8.01905 3.28641 6.14613 5.79405 5.8128C7.5753 5.57599 9.4996 6.15932 11.2517 7.47044C11.476 7.64196 11.6739 7.61557 11.9031 7.31696C14.592 3.80377 16.917 1.8496 18.6656 1.61696C19.919 1.4503 20.717 2.1496 20.9059 3.56835C21.3447 6.86696 18.3093 13.0788 13.41 18.901C13.0621 19.3163 12.7322 19.3607 12.0989 19.1427C6.39891 17.1809 2.60446 13.892 2.15307 10.494L2.15238 10.4934Z" fill="#FFBC0D"/>
<path d="M36.5957 17.9283C33.6423 19.2574 31.6298 26.7803 35.3006 30.0192C38.9707 33.2581 44.5846 33.9053 47.3916 29.3713C50.1985 24.8373 49.3346 20.3033 45.4485 18.7914C41.5624 17.2803 40.9145 15.9845 36.5964 17.9276L36.5957 17.9283Z" fill="#FFFDE9"/>
<path d="M35.4608 36.5086C33.1851 34.4725 30.8935 31.9461 28.7344 30.2183C26.5754 28.4912 24.4351 26.7815 22.4921 28.2926C20.549 29.8037 19.0858 31.401 22.3247 35.5037C25.5636 39.6058 28.8879 42.8676 29.7469 44.5003C30.8712 46.6371 31.1761 46.2253 31.3921 51.6232C31.608 57.0211 30.7358 61.7426 30.5199 63.6857C30.3039 65.6287 30.883 66.0836 32.6997 66.0107C38.5407 65.7774 47.9039 66.0107 49.631 66.0107C51.358 66.0107 50.5775 64.2315 50.7935 60.5607C51.0094 56.8905 49.6969 50.5315 50.1289 49.0204C50.5608 47.5093 50.7622 45.9669 53.1372 43.376C55.5122 40.785 59.0539 36.3426 60.3344 34.6044C62.8754 31.1544 62.0414 29.5253 60.2768 28.5093C57.9733 27.1829 56.399 27.9697 53.8122 30.5565C51.8219 32.5468 48.308 35.9405 46.7969 37.2357C45.2858 38.5308 39.5636 40.1794 35.4608 36.5093V36.5086Z" fill="#FFFDE9"/>
</svg>
