<svg width="1000" height="508" viewBox="0 0 1000 508" fill="none" xmlns="http://www.w3.org/2000/svg">
<g clip-path="url(#clip0_2927_36231)">
<path d="M999.272 430.731C998.896 452.432 994.305 458.004 974.38 458.004C861.142 447.454 151.467 448.885 26.4502 458.004C8.91689 457.06 3.10564 451.834 2.90752 434.864C7.08111 314.973 2.57939 191.548 0.0175709 68.8931C-0.317064 52.8705 4.08444 47.5294 16.9729 43.3017C58.5203 29.6733 955.487 23.6815 982.903 39.2118C994.709 43.5267 994.216 57.8929 995.288 78.3811C999.971 167.827 1000.87 338.6 999.272 430.731Z" fill="#D0C9FF"/>
</g>
<path d="M89.9527 44.5844C91.1148 29.6943 104.167 15.2701 110.545 9.91948C115.285 5.39691 120.559 6.98923 123.884 9.77925C126.544 12.0113 125.807 16.1155 124.597 17.933L115.654 33.0931C117.692 32.9148 126.095 35.0547 127.094 46.4695C128.342 60.7379 118.596 66.7258 111.456 67.3505C104.296 67.9769 88.5002 63.197 89.9527 44.5844Z" fill="#91187D"/>
<path d="M131.099 40.9906C132.261 26.1006 145.313 11.6763 151.692 6.32573C156.431 1.80316 161.705 3.39548 165.03 6.1855C167.69 8.41752 166.954 12.5218 165.743 14.3393L156.8 29.4994C158.838 29.321 167.241 31.461 168.24 42.8757C169.488 57.1441 159.743 63.132 152.603 63.7567C145.442 64.3832 129.647 59.6032 131.099 40.9906Z" fill="#91187D"/>
<g clip-path="url(#clip1_2927_36231)">
<path d="M883.736 494.861C882.147 495.57 880.272 495.14 879.151 493.807C867.189 479.589 843.429 446.131 848.432 419.095C852.803 395.478 872.289 394.058 882.748 399.361C892.448 404.279 896.697 413.469 899.457 420.715C899.774 421.548 900.794 421.863 901.534 421.365C908.441 416.706 922.819 409.099 933.575 410.886C945.158 412.809 951.031 422.043 947.571 434.954C940.244 462.3 900.638 487.319 883.736 494.861Z" fill="#91187D"/>
</g>
<g clip-path="url(#clip2_2927_36231)">
<path d="M874.18 60.6943C873.94 61.7238 873.88 62.3276 874.012 62.4684C874.123 62.587 874.639 62.7678 875.148 62.8639C875.99 63.037 876.105 63.0051 876.339 62.5503C876.483 62.2778 876.702 62.1159 876.808 62.1881C877.056 62.3533 878.043 61.6786 877.852 61.4797C877.775 61.4071 878 61.1665 878.363 60.9545C878.72 60.7318 879.135 60.3577 879.315 60.0982C879.72 59.4805 880.876 59.3892 880.831 59.966C880.813 60.1897 881.064 60.5902 881.408 60.8932C881.752 61.2013 882.166 61.6759 882.366 61.9907C882.549 62.2862 882.82 62.5579 882.942 62.5675C883.072 62.5776 883.308 62.7264 883.49 62.9094C883.879 63.3054 884.472 63.2264 885.317 62.6353C885.656 62.3959 886.004 62.2569 886.094 62.3125C886.182 62.3782 886.399 62.1446 886.585 61.8011C887.101 60.8367 887.812 60.1609 888.142 60.3018C888.296 60.3675 888.787 60.9683 889.217 61.6079C890.102 62.9476 891.11 64.0005 891.549 64.0347C891.886 64.0611 893.001 63.1434 893.039 62.796C893.049 62.6639 893.161 62.5653 893.273 62.574C893.395 62.5835 893.776 62.2733 894.116 61.9009C894.251 61.7453 894.373 61.6218 894.484 61.5385C894.624 61.4088 894.724 61.3655 894.718 61.4392C894.708 61.5713 894.897 61.6935 895.148 61.7131C895.428 61.735 895.587 61.8803 895.569 62.1039C895.541 62.4597 896.516 63.4818 897.145 63.7482C897.337 63.8297 897.47 64.0242 897.457 64.1894C897.444 64.3622 897.509 64.5002 897.602 64.5075C897.921 64.5324 899.751 63.76 899.764 63.5872C899.791 63.2492 901.554 61.6253 901.873 61.6502C902.023 61.662 902.633 62.1673 903.268 62.8304L903.478 63.0463C904.192 63.8 905.096 64.6121 905.493 64.8501C906.166 65.253 906.223 65.2574 906.452 64.9583C906.589 64.7772 906.843 64.5312 907.044 64.373C907.244 64.2147 907.412 64.0029 907.421 63.886C907.43 63.7691 907.52 63.6866 907.634 63.6955C907.756 63.705 907.913 63.4924 908.018 63.2193C908.115 62.9431 908.29 62.742 908.412 62.7515C908.524 62.7602 908.775 62.5472 908.958 62.2777L909.296 61.7877L909.648 62.3316C909.831 62.6296 910.114 62.8844 910.262 62.8959C910.42 62.9083 910.741 63.3731 910.978 63.949C911.359 64.8506 911.5 64.9869 912.078 65.032C912.444 65.0606 912.735 65.1754 912.726 65.2897C912.678 65.9022 914.747 65.2405 914.811 64.614C914.826 64.4668 915.01 64.0133 915.22 63.59C915.433 63.1745 915.536 62.7837 915.458 62.7188C915.237 62.543 915.447 58.5122 915.681 58.5304C915.953 58.5517 915.942 57.7275 915.661 57.2147C915.538 56.9801 915.493 56.7286 915.581 56.669C915.661 56.6088 915.8 55.9037 915.9 55.1139C915.942 54.818 915.983 54.5221 916.033 54.2524C916.104 53.808 916.19 53.4491 916.256 53.3392C916.354 53.155 916.397 52.8005 916.353 52.5644C916.31 52.3361 916.382 51.9607 916.519 51.772C916.698 51.5124 916.681 51.2682 916.456 50.9106C916.279 50.6309 916.167 50.1645 916.191 49.8519C916.216 49.5393 916.129 49.1772 915.991 49.0386C915.725 48.7723 916.059 47.2669 916.424 47.1113C916.559 47.0528 916.606 46.9415 916.539 46.8365C916.483 46.7248 916.528 46.6107 916.656 46.5465C916.79 46.4906 916.733 46.1537 916.513 45.7376C916.323 45.3905 916.248 45.1519 916.268 44.8953C916.28 44.7453 916.32 44.5926 916.401 44.3994C916.597 43.9238 916.59 43.6497 916.357 43.2813C916.082 42.8277 916.089 42.7439 916.519 42.2789C916.898 41.8764 916.952 41.6812 916.786 41.2694C916.666 40.9942 916.519 40.7091 916.459 40.6456C916.196 40.4001 916.438 38.5065 916.801 37.929C917.05 37.524 917.123 37.1896 917.017 36.9743C916.86 36.6782 917.256 35.4895 917.594 35.2322C917.744 35.1186 917.826 32.1336 917.688 31.9899C917.635 31.9372 917.765 31.7377 917.996 31.5487C918.34 31.2585 918.365 31.1403 918.146 30.7039C917.997 30.4059 917.97 29.9512 918.082 29.5842C918.186 29.2266 918.177 28.8424 918.048 28.6841C917.894 28.488 917.918 28.316 918.145 28.0423C918.229 27.9414 918.29 27.8542 918.318 27.7643C918.367 27.602 918.315 27.4393 918.158 27.1791C917.768 26.5172 918.053 23.5787 918.593 22.6749C918.949 22.0967 918.962 21.9214 918.72 21.4218C918.556 21.1099 918.501 20.8473 918.576 20.8532C918.659 20.8597 918.632 20.7425 918.512 20.5977C918.357 20.4117 918.4 20.231 918.636 19.9835C919.116 19.4891 919.169 18.5703 918.738 18.3117C918.693 18.2826 918.649 18.2459 918.624 18.203C918.359 17.8576 918.418 16.9981 918.785 16.137C919.005 15.6224 918.997 15.4633 918.753 15.3521C918.133 15.0967 918.556 13.7567 919.491 13.0167C919.821 12.7613 919.92 12.567 919.769 12.4657C919.645 12.3819 919.61 12.1874 919.698 12.0281C919.787 11.8612 919.63 11.4654 919.346 11.1288C918.898 10.5773 918.883 10.4432 919.127 9.81544C919.385 9.15294 919.403 8.69919 919.221 7.04616C919.048 5.51907 918.954 5.05661 918.731 4.63779C918.609 4.3956 918.485 4.1712 918.478 4.12719C918.463 4.09273 918.131 4.00033 917.722 3.92746C917.119 3.82162 916.856 3.91104 916.076 4.51484C915.565 4.91466 915.147 5.31415 915.139 5.42342C915.121 5.65467 914.179 6.1462 913.785 6.11541C913.627 6.10305 913.437 5.93224 913.373 5.74319C913.203 5.25178 912.329 4.40633 911.946 4.37635C911.767 4.36238 911.524 4.16444 911.396 3.92693C911.278 3.70547 911.067 3.5612 910.897 3.5709C910.879 3.56948 910.868 3.5763 910.85 3.57488C910.658 3.61874 910.524 3.53157 910.538 3.35876C910.551 3.18596 910.431 3.05894 910.233 3.04354C910.036 3.02815 909.9 3.10188 909.891 3.21624C909.883 3.32297 909.632 3.39541 909.361 3.38197C908.65 3.33409 908.411 3.49182 907.756 4.41993C907.439 4.87835 906.974 5.28181 906.745 5.31247C906.508 5.34253 906.311 5.45246 906.303 5.55919C906.282 5.82348 904.943 4.43029 904.666 3.86155C904.535 3.60077 904.289 3.37447 904.113 3.3607C903.944 3.34753 903.706 3.15508 903.607 2.95558C903.5 2.74784 903.222 2.57522 902.987 2.57478C902.536 2.57278 900.818 3.70937 900.793 4.0321C900.787 4.11342 900.635 4.26004 900.437 4.38776C900.387 4.41715 900.338 4.44654 900.279 4.47512C899.612 4.82193 899.191 5.12912 899.028 5.41551C898.877 5.68745 898.02 4.82035 898.051 4.42392C898.062 4.29177 897.881 4.07054 897.64 3.90859C897.39 3.7382 897.222 3.48474 897.235 3.31956C897.248 3.15438 897.089 3.01669 896.902 3.00211C896.705 2.98671 896.61 2.89495 896.691 2.80152C896.763 2.70748 896.569 2.42638 896.242 2.16819C895.923 1.9106 895.56 1.60871 895.439 1.48931C895.117 1.17268 894.449 1.17165 894.424 1.49184C894.41 1.66464 894.306 1.78949 894.174 1.77916C894.052 1.76964 893.94 1.86827 893.928 2.02583C893.903 2.34094 892.525 3.24578 892.123 3.21439C891.944 3.20041 891.818 3.28258 891.808 3.4071C891.799 3.52145 891.899 3.57275 892.026 3.5162C892.154 3.45965 892.255 3.49316 892.247 3.5999C892.239 3.70663 891.929 3.82564 891.529 3.86855C890.826 3.95423 890.605 3.77845 889.215 2.05919C888.745 1.4651 887.959 0.897524 887.596 0.869167C887.233 0.840809 885.07 2.74282 884.768 3.34049C884.477 3.92372 883.822 4.25609 883.857 3.80121C883.862 3.74276 883.753 3.56806 883.592 3.35607C883.497 3.23362 883.378 3.0888 883.248 2.95589C882.908 2.58934 882.629 2.19168 882.636 2.09257C882.645 1.98584 882.43 1.82591 882.166 1.73115C881.892 1.63558 881.342 1.32673 880.942 1.03725C880.087 0.420808 879.848 0.46865 879.786 1.26405C879.761 1.58679 879.645 1.86919 879.518 1.92575C879.391 1.9823 879.313 2.3827 879.336 2.82679C879.378 3.47955 879.31 3.62249 879.022 3.6C878.734 3.57752 878.686 3.69138 878.793 4.13178C878.93 4.68195 878.85 5.93874 878.552 7.8202C878.453 8.47727 878.491 8.83048 878.673 8.90097C879.02 9.04307 878.989 9.43188 878.604 9.92589C878.571 9.97194 878.539 10.0129 878.499 10.0584C878.119 10.4863 878.113 10.6597 878.316 12.5369C878.435 13.6507 878.473 14.6354 878.399 14.7216C878.327 14.808 878.192 15.3293 878.092 15.8789C877.97 16.6082 878.01 16.9208 878.252 17.0624C878.694 17.3295 878.819 19.1008 878.44 19.7028C877.852 20.6207 877.743 21.0443 878.079 21.1882C878.362 21.31 878.351 21.4421 877.964 22.1942C877.674 22.7622 877.601 23.1041 877.744 23.2074C877.887 23.3106 877.878 24.7314 877.734 26.9394C877.438 31.4622 877.413 32.3934 877.628 32.4102C877.732 32.4183 877.797 32.5563 877.784 32.7215C877.77 32.8943 877.656 33.0183 877.516 33.0074C877.207 32.9833 877.222 33.4011 877.562 34.0924C877.879 34.7487 877.754 35.2452 877.155 35.6969C876.855 35.9241 876.833 36.0707 877.025 36.5178C877.415 37.4456 877.399 38.0171 876.964 38.5072C876.654 38.8665 876.625 39.01 876.838 39.1468C876.938 39.2108 876.977 39.3085 876.962 39.4965C876.945 39.7202 876.832 40.0923 876.604 40.706C876.269 41.6284 876.169 42.1754 876.317 42.3531C876.642 42.762 876.739 44.0556 876.455 44.1843C876.31 44.2394 876.23 44.5247 876.287 44.7694C876.343 45.0244 876.265 45.4171 876.127 45.6135C875.957 45.8507 875.933 46.056 876.064 46.1914C876.168 46.2993 876.148 46.5483 875.997 46.9174C875.961 47.0067 875.917 47.0953 875.87 47.199C875.533 47.9115 875.525 48.0414 875.811 48.3245C875.988 48.5019 876.021 48.64 875.881 48.6291C875.752 48.6189 875.627 48.7422 875.616 48.8896C875.604 49.037 875.371 49.3767 875.127 49.6005C874.816 49.8864 874.833 50.2645 875.179 50.7347C875.622 51.342 875.646 51.51 875.405 51.9489C875.253 52.2285 875.056 52.819 874.975 53.2448C874.895 53.6782 874.725 54.2735 874.608 54.5712C874.492 54.8612 874.46 55.2653 874.539 55.4631C874.617 55.661 874.664 55.8897 874.641 55.9544C874.359 56.9218 874.302 57.3903 874.41 58.1811C874.488 58.7522 874.393 59.7267 874.178 60.6814L874.18 60.6943Z" fill="#8EE7F8"/>
<path d="M879.021 3.60724C879.311 3.62992 879.377 3.48424 879.334 2.83402C879.311 2.39248 879.39 1.98953 879.517 1.93298C879.644 1.87643 879.76 1.59402 879.785 1.27128C879.847 0.478424 880.086 0.430582 880.94 1.04449C881.341 1.33396 881.891 1.64281 882.165 1.73838C882.432 1.83335 882.643 1.99307 882.635 2.09981C882.627 2.19891 882.907 2.59404 883.246 2.96312C883.377 3.09858 883.498 3.24105 883.591 3.3633C883.467 3.60424 883.417 3.82269 883.472 3.91904C883.54 4.03947 883.512 4.29807 883.408 4.49702C883.301 4.69831 883.254 4.90172 883.307 4.95446C883.361 5.0072 883.2 5.25292 882.934 5.52358C882.687 5.77787 882.424 6.27378 882.359 6.6011C882.269 7.02611 882.058 7.31647 881.644 7.57558C881.317 7.78273 880.935 8.22591 880.785 8.57979C880.627 8.93305 880.475 9.17939 880.422 9.12411C880.291 8.98865 879.602 9.4922 879.582 9.74886C879.565 9.97249 879.071 10.0157 878.6 9.93038C878.986 9.43637 879.016 9.04756 878.67 8.90546C878.487 8.83242 878.449 8.48175 878.548 7.82468C878.846 5.94322 878.923 4.68624 878.789 4.13627C878.682 3.69587 878.728 3.58181 879.018 3.60449L879.021 3.60724ZM900.428 4.45832C900.439 4.44389 900.441 4.41847 900.443 4.39306C900.641 4.26788 900.793 4.12126 900.8 4.0374C900.825 3.71467 902.542 2.57807 902.994 2.58008C903.228 2.58306 903.507 2.75314 903.614 2.96087C903.71 3.16018 903.951 3.35283 904.119 3.366C904.298 3.37997 904.542 3.60607 904.673 3.86685C904.949 4.43813 906.289 5.83132 906.309 5.56449C906.318 5.45776 906.514 5.34783 906.751 5.31777C906.981 5.28457 907.443 4.8809 907.763 4.42523C908.42 3.49478 908.657 3.33939 909.368 3.38727C909.641 3.40091 909.889 3.32827 909.898 3.22154C909.907 3.10718 910.043 3.03345 910.24 3.04884C910.437 3.06424 910.557 3.19888 910.544 3.36406C910.531 3.52924 910.665 3.6215 910.856 3.58018C910.874 3.58159 910.885 3.57478 910.903 3.5762C910.906 3.67612 910.922 3.80266 910.957 3.96386C911.04 4.32834 911.01 4.61744 910.873 4.80613C910.756 4.96321 910.7 5.20941 910.755 5.34662C910.809 5.49145 910.659 5.8377 910.419 6.136C910.18 6.42413 909.982 6.79215 909.969 6.9497C909.956 7.11488 909.84 7.27196 909.688 7.31124C909.555 7.34177 909.2 7.64641 908.922 7.96728C908.651 8.29639 908.142 8.79613 907.8 9.06853C907.458 9.34094 906.757 10.0251 906.232 10.6003C905.696 11.1823 905.173 11.6323 905.051 11.6228C904.799 11.6031 903.828 10.4049 903.849 10.133C903.856 10.0415 903.591 9.69608 903.271 9.35657C902.94 9.01371 902.731 8.64967 902.789 8.53662C902.853 8.41636 902.794 8.24551 902.652 8.1194C902.511 7.99076 902.412 7.81687 902.423 7.68473C902.432 7.56021 902.328 7.46001 902.178 7.44826C902.027 7.43652 901.926 7.29566 901.94 7.1127C901.954 6.92973 901.764 6.59272 901.513 6.33024C901.26 6.0701 901.044 5.7209 901.018 5.55268C900.996 5.36688 900.835 5.13182 900.647 4.9919C900.432 4.84214 900.353 4.64426 900.424 4.46829L900.428 4.45832ZM883.5 16.8506C883.654 16.6887 883.803 16.3501 883.833 16.0943C883.891 15.4928 884.715 14.3248 885.06 14.3518C885.211 14.3635 885.388 14.27 885.464 14.1251C885.608 13.8525 885.926 13.862 886.798 14.1551C887.118 14.2645 887.498 14.4833 887.616 14.6358C887.745 14.7966 887.998 14.9238 888.195 14.9392C888.392 14.9546 888.542 15.0737 888.531 15.216C888.52 15.3659 888.586 15.4785 888.68 15.4858C888.999 15.5108 890.138 16.8295 890.113 17.1522C890.09 17.4419 890.152 17.4877 890.612 17.5083C890.688 17.5065 890.747 17.3526 890.732 17.1776C890.718 16.9924 890.837 16.8023 890.999 16.7587C891.173 16.7134 891.309 16.5425 891.322 16.3672C891.336 16.1918 891.522 15.9839 891.745 15.9016C891.957 15.8261 892.401 15.5796 892.689 15.3771C893.205 15.0109 893.618 14.9434 894.415 15.0951C894.638 15.1381 894.924 15.186 895.103 15.2076C896.013 15.3452 896.649 17.3227 896.454 19.4601C896.35 20.6562 896.277 20.8832 895.958 21.0014C895.745 21.0845 895.571 21.2448 895.561 21.3693C895.551 21.4938 895.359 21.778 895.125 22.0001C894.891 22.2221 894.695 22.5647 894.68 22.7629C894.664 22.9611 894.282 23.4145 893.84 23.7609C893.397 24.1175 892.971 24.5317 892.902 24.6695C892.844 24.8158 892.505 25.045 892.184 25.1861C891.863 25.3195 891.572 25.5295 891.563 25.6439C891.513 26.1564 889.51 27.3372 889.55 26.834C889.557 26.7425 889.277 26.355 888.937 25.9885C888.598 25.6219 888.315 25.2751 888.319 25.2243C888.322 25.1836 888.159 24.9613 887.969 24.7572C887.779 24.543 887.622 24.2571 887.631 24.1402C887.641 24.0081 887.566 23.9025 887.452 23.8936C887.348 23.8855 887.276 23.7392 887.291 23.541C887.307 23.3428 887.188 23.1929 886.973 23.1761C886.534 23.1419 886.193 22.8083 886.221 22.445C886.233 22.2874 886.084 22.0277 885.883 21.828C885.681 21.6383 885.531 21.3939 885.541 21.2618C885.551 21.1296 885.44 20.9803 885.287 20.9095C885.14 20.847 885.026 20.6386 885.04 20.4582C885.054 20.2778 884.912 20.0647 884.747 20.0032C884.282 19.8084 884.134 19.5309 884.295 19.1779C884.373 19.0101 884.184 18.5531 883.81 18.0253C883.278 17.2526 883.242 17.1168 883.498 16.8529L883.5 16.8506ZM911.194 16.6023C911.282 16.5351 911.496 16.2348 911.68 15.9244C912.006 15.3516 912.416 15.2839 913.531 15.6037C913.761 15.6702 914.068 15.8527 914.26 16.0262C914.445 16.1992 914.784 16.4404 915.027 16.5693C915.262 16.6951 915.596 17.097 915.749 17.449C916.572 19.3004 917.185 19.9133 917.539 19.225C917.616 19.0649 917.926 18.7695 918.192 18.5781C918.363 18.4534 918.523 18.3125 918.625 18.2054C918.651 18.2483 918.695 18.285 918.74 18.314C919.171 18.5727 919.117 19.4915 918.638 19.9858C918.402 20.2333 918.359 20.4141 918.514 20.6C918.633 20.7423 918.663 20.8622 918.578 20.8555C918.502 20.8497 918.558 21.1122 918.721 21.4241C918.964 21.9263 918.95 22.0991 918.595 22.6772C918.054 23.5836 917.767 26.5193 918.159 27.1814C918.319 27.4419 918.372 27.6045 918.32 27.7667C918.27 27.8037 918.174 27.8294 918.062 27.8207C917.912 27.809 917.721 27.9782 917.641 28.1713C917.51 28.5113 917.407 28.5263 916.542 28.3769C915.56 28.1928 914.977 27.6974 914.513 26.6563C914.139 25.7962 913.417 24.7836 913.098 24.659C912.797 24.5434 912.215 23.3091 912.249 22.872C912.256 22.7729 912.049 22.4243 911.799 22.1133C911.549 21.8023 911.347 21.3877 911.361 21.2073C911.375 21.0268 911.217 20.7793 911.017 20.664C910.675 20.471 910.612 20.2003 910.507 18.4049C910.482 17.8967 910.883 16.8388 911.193 16.6049L911.194 16.6023ZM897.596 29.9885C898.07 29.4757 899.261 29.2875 899.882 29.6275C900.124 29.7615 900.519 29.8945 900.726 29.9107C901.203 29.9556 902.634 31.3815 902.602 31.7856C902.59 31.9431 902.705 32.1745 902.854 32.3038C902.995 32.4299 903.104 32.7068 903.099 32.9059C903.083 33.2447 903.101 33.2461 903.384 32.8617C903.561 32.6352 903.708 32.3219 903.732 32.1576C903.744 31.9924 903.848 31.8675 903.952 31.8756C904.063 31.8844 904.157 31.7843 904.169 31.6344C904.18 31.4946 904.264 31.3912 904.367 31.3993C904.471 31.4074 904.613 31.2676 904.703 31.0854C904.921 30.5962 906.334 29.6072 906.673 29.7104C906.709 29.7209 906.855 29.7834 907.009 29.8542C907.174 29.9157 907.558 30.1783 907.867 30.4275C908.417 30.8693 908.557 31.1129 908.687 31.8543C908.721 32.0231 908.846 32.5979 908.964 33.1236C909.183 34.056 909.17 34.0958 908.789 34.2911C908.553 34.4133 908.379 34.5991 908.369 34.7313C908.358 34.8634 908.265 35.0888 908.159 35.2467C908.053 35.3969 907.612 36.0937 907.164 36.7899C906.716 37.4861 906.276 38.0424 906.172 38.0343C906.068 38.0262 905.974 38.1595 905.96 38.3348C905.947 38.5102 905.806 38.7395 905.628 38.8483C905.45 38.9597 905.312 39.1484 905.302 39.2805C905.292 39.405 905.053 39.5909 904.791 39.6727C904.524 39.7566 904.295 39.8743 904.291 39.9328C904.286 39.9912 903.951 40.3127 903.549 40.6393C903.156 40.9665 902.819 41.3058 902.812 41.3871C902.806 41.4684 902.68 41.5174 902.54 41.5064C902.389 41.4947 902.22 41.6221 902.149 41.8006C902.066 42.0268 901.873 42.0859 901.38 42.0244C900.447 41.9004 900.082 41.6724 900.115 41.243C900.132 41.0269 900.02 40.7957 899.873 40.7332C899.719 40.6624 899.612 40.4724 899.626 40.2894C899.64 40.1065 899.522 39.8543 899.37 39.7198C899.221 39.588 899.102 39.4074 899.11 39.3159C899.116 39.2346 898.97 38.9317 898.785 38.6591C898.59 38.378 898.439 37.9161 898.444 37.6098C898.44 37.3026 898.332 37.0028 898.196 36.941C898.06 36.8818 897.969 36.7161 897.982 36.5509C897.993 36.401 897.893 36.112 897.767 35.9282C897.63 35.7437 897.579 35.4303 897.649 35.262C897.731 35.051 897.653 34.8379 897.449 34.6813C896.845 34.2276 896.964 30.6703 897.599 29.9887L897.596 29.9885ZM876.125 45.6258C876.263 45.4294 876.341 45.0367 876.285 44.7818C876.229 44.537 876.308 44.2518 876.454 44.1966C876.738 44.068 876.64 42.7743 876.315 42.3654C876.169 42.1879 876.267 41.6381 876.603 40.7183C876.831 40.1046 876.943 39.7299 876.961 39.5089C877.147 39.4237 877.367 39.3565 877.586 39.3174C878.34 39.1845 878.591 39.2118 878.716 39.4235C878.773 39.52 878.976 39.6023 879.181 39.6183C879.386 39.6343 879.572 39.7895 879.614 39.9769C879.656 40.1796 879.841 40.3193 880.085 40.3383C880.533 40.3734 881.41 41.2139 881.388 41.5957C881.378 41.7202 881.506 42.1214 881.666 42.4816C881.825 42.8519 881.91 43.1986 881.858 43.2611C881.807 43.3159 881.848 43.3856 881.96 43.3943C882.071 43.403 882.246 43.2326 882.358 43.0086C882.468 42.7999 882.844 42.4304 883.172 42.208C883.5 41.9856 883.885 41.6322 884.012 41.4351C884.139 41.2456 884.446 41.065 884.663 41.0538C884.889 41.0407 885.075 40.9607 885.081 40.8794C885.088 40.7981 885.262 40.7426 885.448 40.7572C885.646 40.7726 885.867 40.7157 885.928 40.6285C886 40.5421 886.127 40.4855 886.213 40.4922C886.4 40.5068 887.921 42.0062 887.909 42.1612C887.905 42.2197 888.06 42.4057 888.253 42.5716C888.554 42.8278 888.571 42.9467 888.383 43.313C888.26 43.5539 888.202 43.823 888.253 43.9088C888.311 44.0053 888.231 44.1908 888.079 44.3273C887.916 44.4731 887.775 44.7202 887.753 44.9001C887.677 45.4004 887.553 45.6873 887.354 45.7995C887.247 45.8602 887.269 45.908 887.41 45.919C887.588 45.9329 887.612 46.0933 887.493 46.5237C887.22 47.474 887.111 47.6649 886.821 47.6422C886.652 47.6291 886.545 47.7946 886.521 48.1021C886.493 48.4655 886.337 48.6604 885.857 48.8888C885.515 49.0615 885.085 49.3935 884.885 49.6438C884.696 49.8949 884.386 50.1213 884.196 50.1473C884.006 50.1734 883.738 50.3622 883.589 50.5653C883.443 50.7712 883.125 50.9611 882.888 50.9937C882.658 51.0269 882.324 51.1977 882.172 51.3623C882.004 51.546 881.784 51.6234 881.62 51.5518C881.466 51.481 881.296 51.4933 881.224 51.5797C881.16 51.6591 880.94 51.7083 880.745 51.6932C880.551 51.678 880.078 51.9146 879.667 52.2404C879.054 52.7321 878.861 52.7937 878.361 52.6881C877.658 52.5335 877.391 52.2135 877.364 51.4802C877.352 51.1725 877.224 50.7381 877.09 50.5436C876.964 50.3598 876.873 49.9539 876.894 49.6794C876.916 49.405 876.855 49.1113 876.755 49.0524C876.667 48.9867 876.596 48.7894 876.609 48.6242C876.623 48.4412 876.485 48.1748 876.29 48.001C876.077 47.8182 875.961 47.5023 875.986 47.1796C875.992 47.0957 875.989 47.006 875.987 46.9291C876.139 46.5575 876.158 46.311 876.054 46.2031C875.924 46.0677 875.95 45.8627 876.118 45.6252L876.125 45.6258ZM909.559 45.0128C909.68 44.8713 909.858 44.4301 909.957 44.0288C910.066 43.6052 910.219 43.318 910.351 43.3284C910.577 43.346 910.874 43.0113 910.929 42.6755C910.963 42.4787 912.276 42.5327 912.395 42.7235C912.436 42.8008 912.664 42.8851 912.879 42.9019C913.281 42.9333 913.818 43.415 913.793 43.7301C913.785 43.8368 913.904 43.8794 914.058 43.8429C914.231 43.7976 914.33 43.8641 914.32 44.0039C914.309 44.136 914.42 44.2853 914.567 44.3479C914.713 44.4079 914.798 44.5245 914.763 44.6036C914.728 44.6852 914.863 44.8952 915.048 45.0656C915.241 45.2391 915.463 45.6707 915.537 46.0267C915.64 46.5078 915.682 46.5699 915.724 46.274C915.769 45.9272 916.024 45.3336 916.272 44.8953C916.252 45.1519 916.328 45.3905 916.517 45.7377C916.738 46.1537 916.797 46.4908 916.66 46.5465C916.532 46.6107 916.487 46.7248 916.543 46.8366C916.611 46.9415 916.563 47.0529 916.428 47.1113C916.064 47.267 915.729 48.7749 915.996 49.0386C916.134 49.1772 916.221 49.5292 916.196 49.8519C916.171 50.1746 916.286 50.6311 916.46 50.9106C916.685 51.2682 916.705 51.5127 916.523 51.772C916.386 51.9607 916.315 52.3361 916.357 52.5644C916.401 52.8005 916.358 53.1551 916.26 53.3392C916.194 53.4516 916.111 53.8107 916.037 54.2524C915.975 54.3217 915.922 54.3942 915.899 54.4564C915.822 54.6089 915.512 54.8327 915.212 54.9345C914.729 55.1039 914.656 55.0982 914.584 54.8855C914.539 54.7567 914.291 54.5302 914.031 54.3846C913.481 54.0758 911.865 51.6767 912.026 51.385C912.09 51.2724 911.94 51.1456 911.665 51.0653C911.069 50.8782 910.751 50.4417 911.029 50.1847C911.184 50.0409 911.146 49.8947 910.876 49.6077C910.686 49.4011 910.527 49.1305 910.535 49.0314C910.542 48.9323 910.466 48.8419 910.362 48.8338C910.269 48.8265 910.217 48.6487 910.261 48.4603C910.305 48.2567 910.227 47.9182 910.087 47.6823C909.936 47.4455 909.809 47.0291 909.793 46.7287C909.77 46.4277 909.663 45.9949 909.55 45.728C909.39 45.3754 909.39 45.2067 909.56 45.0051L909.559 45.0128ZM892.728 56.0678C892.797 56.022 892.822 55.7018 892.785 55.3486C892.74 54.9539 892.804 54.7339 892.954 54.7457C893.076 54.7552 893.196 54.6239 893.212 54.459C893.257 54.0125 894.011 53.3836 894.459 53.4187C894.656 53.4341 895.4 53.7657 896.096 54.1448C896.8 54.5244 897.457 55.0334 897.57 55.2902C897.681 55.5392 897.915 55.8157 898.077 55.9127C898.25 56.008 898.544 56.4478 898.761 56.9147C898.996 57.4162 899.254 57.7177 899.417 57.6716C899.55 57.6309 899.647 57.4902 899.608 57.3874C899.571 57.2694 899.843 56.9225 900.196 56.6177C900.548 56.3205 900.855 55.9967 900.861 55.9129C900.904 55.3665 903.312 55.1404 903.884 55.6325C904.324 56.0171 905.022 57.7003 904.937 58.1921C904.888 58.4466 904.922 58.7791 905.003 58.9132C905.082 59.0421 905.045 59.2514 904.932 59.3576C904.814 59.466 904.569 60.0273 904.393 60.6118C904.116 61.5208 903.735 62.2887 903.269 62.8353C902.635 62.1696 902.025 61.6668 901.874 61.6551C901.555 61.6302 899.792 63.2541 899.766 63.5921C899.752 63.7649 897.923 64.5373 897.604 64.5124C897.51 64.5051 897.445 64.3671 897.459 64.1943C897.472 64.0215 897.336 63.8344 897.146 63.7531C896.517 63.4867 895.543 62.4646 895.571 62.1088C895.588 61.8852 895.43 61.7399 895.15 61.718C894.898 61.6984 894.709 61.5762 894.72 61.4441C894.725 61.3704 894.628 61.4114 894.485 61.5434C894.372 61.4169 894.307 61.2789 894.314 61.19C894.327 61.0324 894.175 60.8058 893.968 60.6721C893.718 60.5017 893.64 60.3064 893.735 60.0556C893.831 59.7895 893.756 59.6507 893.473 59.5621C893.089 59.4325 893.018 59.2428 892.855 57.8596C892.825 57.6324 892.716 57.3323 892.614 57.2017C892.434 56.9626 892.508 56.2449 892.731 56.073L892.728 56.0678Z" fill="#91187D"/>
</g>
<defs>
<clipPath id="clip0_2927_36231">
<rect width="1000" height="428" fill="white" transform="translate(0 30.0039)"/>
</clipPath>
<clipPath id="clip1_2927_36231">
<rect width="101" height="95" fill="white" transform="translate(856.006 390.004) rotate(15)"/>
</clipPath>
<clipPath id="clip2_2927_36231">
<rect width="42" height="63" fill="white" transform="matrix(-0.996964 -0.077858 -0.077858 0.996964 920.568 3.26953)"/>
</clipPath>
</defs>
</svg>
