<svg width="1000" height="508" viewBox="0 0 1000 508" fill="none" xmlns="http://www.w3.org/2000/svg">
<g clip-path="url(#clip0_2946_45928)">
<path d="M999.272 430.731C998.896 452.432 994.305 458.004 974.38 458.004C861.142 447.454 151.467 448.885 26.4502 458.004C8.91689 457.06 3.10564 451.834 2.90752 434.864C7.08111 314.973 2.57939 191.548 0.0175709 68.8931C-0.317064 52.8705 4.08444 47.5294 16.9729 43.3017C58.5203 29.6733 955.487 23.6815 982.903 39.2118C994.709 43.5267 994.216 57.8929 995.288 78.3811C999.971 167.827 1000.87 338.6 999.272 430.731Z" fill="#FFBC0D"/>
</g>
<path d="M89.9527 44.5844C91.1148 29.6943 104.167 15.2701 110.545 9.91948C115.285 5.39691 120.559 6.98923 123.884 9.77925C126.544 12.0113 125.807 16.1155 124.597 17.933L115.654 33.0931C117.692 32.9148 126.095 35.0547 127.094 46.4695C128.342 60.7379 118.596 66.7258 111.456 67.3505C104.296 67.9769 88.5002 63.197 89.9527 44.5844Z" fill="#FF6E0D"/>
<path d="M131.099 40.9906C132.261 26.1006 145.313 11.6763 151.692 6.32573C156.431 1.80316 161.705 3.39548 165.03 6.1855C167.69 8.41752 166.954 12.5218 165.743 14.3393L156.8 29.4994C158.838 29.321 167.241 31.461 168.24 42.8757C169.488 57.1441 159.743 63.132 152.603 63.7567C145.442 64.3832 129.647 59.6032 131.099 40.9906Z" fill="#FF6E0D"/>
<g clip-path="url(#clip1_2946_45928)">
<path d="M883.736 494.861C882.147 495.57 880.272 495.14 879.151 493.807C867.189 479.589 843.429 446.131 848.432 419.095C852.803 395.478 872.289 394.058 882.748 399.361C892.448 404.279 896.697 413.469 899.457 420.715C899.774 421.548 900.794 421.863 901.534 421.365C908.441 416.706 922.819 409.099 933.575 410.886C945.158 412.809 951.031 422.043 947.571 434.954C940.244 462.3 900.638 487.319 883.736 494.861Z" fill="#FF6E0D"/>
</g>
<g clip-path="url(#clip2_2946_45928)">
<path d="M874.181 60.6943C873.941 61.7238 873.881 62.3276 874.013 62.4684C874.124 62.587 874.64 62.7678 875.149 62.8639C875.991 63.037 876.106 63.0051 876.34 62.5503C876.484 62.2778 876.703 62.1159 876.809 62.1881C877.057 62.3533 878.044 61.6786 877.853 61.4797C877.776 61.4071 878.001 61.1665 878.364 60.9545C878.721 60.7318 879.136 60.3577 879.316 60.0982C879.721 59.4805 880.877 59.3892 880.832 59.966C880.814 60.1897 881.065 60.5902 881.409 60.8932C881.753 61.2013 882.167 61.6759 882.367 61.9907C882.55 62.2862 882.821 62.5579 882.943 62.5675C883.073 62.5776 883.309 62.7264 883.491 62.9094C883.88 63.3054 884.473 63.2264 885.318 62.6353C885.657 62.3959 886.005 62.2569 886.094 62.3125C886.183 62.3782 886.4 62.1446 886.586 61.8011C887.102 60.8367 887.813 60.1609 888.143 60.3018C888.297 60.3675 888.788 60.9683 889.218 61.6079C890.103 62.9476 891.111 64.0005 891.55 64.0347C891.887 64.0611 893.002 63.1434 893.04 62.796C893.05 62.6639 893.162 62.5653 893.274 62.574C893.396 62.5835 893.777 62.2733 894.117 61.9009C894.252 61.7453 894.374 61.6218 894.484 61.5385C894.625 61.4088 894.725 61.3655 894.719 61.4392C894.709 61.5713 894.898 61.6935 895.149 61.7131C895.429 61.735 895.588 61.8803 895.57 62.1039C895.542 62.4597 896.517 63.4818 897.146 63.7482C897.338 63.8297 897.471 64.0242 897.458 64.1894C897.445 64.3622 897.51 64.5002 897.603 64.5075C897.922 64.5324 899.752 63.76 899.765 63.5872C899.792 63.2492 901.555 61.6253 901.874 61.6502C902.024 61.662 902.634 62.1673 903.269 62.8304L903.479 63.0463C904.193 63.8 905.097 64.6121 905.494 64.8501C906.167 65.253 906.224 65.2574 906.453 64.9583C906.59 64.7772 906.844 64.5312 907.044 64.373C907.245 64.2147 907.413 64.0029 907.422 63.886C907.431 63.7691 907.521 63.6866 907.635 63.6955C907.757 63.705 907.914 63.4924 908.019 63.2193C908.116 62.9431 908.291 62.742 908.413 62.7515C908.525 62.7602 908.776 62.5472 908.959 62.2777L909.297 61.7877L909.649 62.3316C909.832 62.6296 910.115 62.8844 910.263 62.8959C910.421 62.9083 910.742 63.3731 910.979 63.949C911.36 64.8506 911.501 64.9869 912.079 65.032C912.445 65.0606 912.736 65.1754 912.727 65.2897C912.679 65.9022 914.748 65.2405 914.812 64.614C914.827 64.4668 915.011 64.0133 915.221 63.59C915.434 63.1745 915.537 62.7837 915.459 62.7188C915.238 62.543 915.448 58.5122 915.682 58.5304C915.954 58.5517 915.943 57.7275 915.662 57.2147C915.539 56.9801 915.493 56.7286 915.582 56.669C915.662 56.6088 915.801 55.9037 915.901 55.1139C915.943 54.818 915.984 54.5221 916.034 54.2524C916.105 53.808 916.191 53.4491 916.257 53.3392C916.354 53.155 916.398 52.8005 916.354 52.5644C916.311 52.3361 916.383 51.9607 916.52 51.772C916.699 51.5124 916.682 51.2682 916.457 50.9106C916.28 50.6309 916.168 50.1645 916.192 49.8519C916.217 49.5393 916.13 49.1772 915.992 49.0386C915.726 48.7723 916.06 47.2669 916.425 47.1113C916.56 47.0528 916.607 46.9415 916.54 46.8365C916.483 46.7248 916.529 46.6107 916.657 46.5465C916.791 46.4906 916.734 46.1537 916.514 45.7376C916.324 45.3905 916.249 45.1519 916.269 44.8953C916.281 44.7453 916.321 44.5926 916.402 44.3994C916.598 43.9238 916.591 43.6497 916.358 43.2813C916.083 42.8277 916.09 42.7439 916.52 42.2789C916.899 41.8764 916.953 41.6812 916.787 41.2694C916.667 40.9942 916.52 40.7091 916.46 40.6456C916.197 40.4001 916.439 38.5065 916.802 37.929C917.051 37.524 917.124 37.1896 917.018 36.9743C916.861 36.6782 917.257 35.4895 917.595 35.2322C917.745 35.1186 917.827 32.1336 917.689 31.9899C917.636 31.9372 917.766 31.7377 917.997 31.5487C918.341 31.2585 918.366 31.1403 918.147 30.7039C917.998 30.4059 917.971 29.9512 918.083 29.5842C918.187 29.2266 918.177 28.8424 918.049 28.6841C917.895 28.488 917.919 28.316 918.146 28.0423C918.23 27.9414 918.291 27.8542 918.319 27.7643C918.368 27.602 918.316 27.4393 918.159 27.1791C917.769 26.5172 918.054 23.5787 918.594 22.6749C918.95 22.0967 918.963 21.9214 918.72 21.4218C918.557 21.1099 918.502 20.8473 918.577 20.8532C918.66 20.8597 918.633 20.7425 918.513 20.5977C918.358 20.4117 918.401 20.231 918.637 19.9835C919.117 19.4891 919.17 18.5703 918.739 18.3117C918.694 18.2826 918.65 18.2459 918.625 18.203C918.359 17.8576 918.419 16.9981 918.786 16.137C919.006 15.6224 918.998 15.4633 918.753 15.3521C918.134 15.0967 918.557 13.7567 919.492 13.0167C919.822 12.7613 919.921 12.567 919.77 12.4657C919.646 12.3819 919.611 12.1874 919.699 12.0281C919.788 11.8612 919.631 11.4654 919.347 11.1288C918.899 10.5773 918.884 10.4432 919.128 9.81544C919.386 9.15294 919.404 8.69919 919.222 7.04616C919.049 5.51907 918.955 5.05661 918.732 4.63779C918.61 4.3956 918.486 4.1712 918.479 4.12719C918.464 4.09273 918.132 4.00033 917.722 3.92746C917.12 3.82162 916.857 3.91104 916.077 4.51484C915.566 4.91466 915.148 5.31415 915.14 5.42342C915.122 5.65467 914.18 6.1462 913.786 6.11541C913.628 6.10305 913.438 5.93224 913.374 5.74319C913.204 5.25178 912.33 4.40633 911.947 4.37635C911.768 4.36238 911.525 4.16444 911.397 3.92693C911.279 3.70547 911.068 3.5612 910.898 3.5709C910.88 3.56948 910.869 3.5763 910.85 3.57488C910.659 3.61874 910.525 3.53157 910.539 3.35876C910.552 3.18596 910.432 3.05894 910.234 3.04354C910.037 3.02815 909.901 3.10188 909.892 3.21624C909.884 3.32297 909.633 3.39541 909.362 3.38197C908.651 3.33409 908.412 3.49182 907.757 4.41993C907.44 4.87835 906.975 5.28181 906.746 5.31247C906.509 5.34253 906.312 5.45246 906.304 5.55919C906.283 5.82348 904.944 4.43029 904.667 3.86155C904.536 3.60077 904.29 3.37447 904.114 3.3607C903.945 3.34753 903.707 3.15508 903.608 2.95558C903.501 2.74784 903.223 2.57522 902.988 2.57478C902.537 2.57278 900.819 3.70937 900.794 4.0321C900.788 4.11342 900.636 4.26004 900.438 4.38776C900.388 4.41715 900.339 4.44654 900.28 4.47512C899.613 4.82193 899.192 5.12912 899.029 5.41551C898.877 5.68745 898.021 4.82035 898.052 4.42392C898.063 4.29177 897.882 4.07054 897.641 3.90859C897.391 3.7382 897.223 3.48474 897.236 3.31956C897.249 3.15438 897.09 3.01669 896.903 3.00211C896.706 2.98671 896.611 2.89495 896.692 2.80152C896.764 2.70748 896.57 2.42638 896.243 2.16819C895.924 1.9106 895.561 1.60871 895.44 1.48931C895.117 1.17268 894.45 1.17165 894.425 1.49184C894.411 1.66464 894.307 1.78949 894.175 1.77916C894.053 1.76964 893.941 1.86827 893.929 2.02583C893.904 2.34094 892.526 3.24578 892.124 3.21439C891.945 3.20041 891.819 3.28258 891.809 3.4071C891.8 3.52145 891.9 3.57275 892.027 3.5162C892.155 3.45965 892.256 3.49316 892.248 3.5999C892.24 3.70663 891.93 3.82564 891.53 3.86855C890.827 3.95423 890.606 3.77845 889.216 2.05919C888.746 1.4651 887.96 0.897524 887.597 0.869167C887.234 0.840809 885.071 2.74282 884.768 3.34049C884.478 3.92372 883.823 4.25609 883.858 3.80121C883.863 3.74276 883.754 3.56806 883.593 3.35607C883.498 3.23362 883.379 3.0888 883.248 2.95589C882.909 2.58934 882.63 2.19168 882.637 2.09257C882.646 1.98584 882.431 1.82591 882.167 1.73115C881.893 1.63558 881.343 1.32673 880.943 1.03725C880.088 0.420808 879.849 0.46865 879.787 1.26405C879.762 1.58679 879.646 1.86919 879.519 1.92575C879.392 1.9823 879.314 2.3827 879.336 2.82679C879.379 3.47955 879.311 3.62249 879.023 3.6C878.735 3.57752 878.687 3.69138 878.794 4.13178C878.931 4.68195 878.851 5.93874 878.552 7.8202C878.454 8.47727 878.492 8.83048 878.674 8.90097C879.021 9.04307 878.99 9.43188 878.605 9.92589C878.572 9.97194 878.54 10.0129 878.5 10.0584C878.12 10.4863 878.114 10.6597 878.317 12.5369C878.436 13.6507 878.474 14.6354 878.4 14.7216C878.328 14.808 878.193 15.3293 878.093 15.8789C877.971 16.6082 878.011 16.9208 878.253 17.0624C878.694 17.3295 878.82 19.1008 878.441 19.7028C877.853 20.6207 877.744 21.0443 878.08 21.1882C878.363 21.31 878.352 21.4421 877.965 22.1942C877.675 22.7622 877.602 23.1041 877.745 23.2074C877.888 23.3106 877.879 24.7314 877.735 26.9394C877.439 31.4622 877.414 32.3934 877.629 32.4102C877.733 32.4183 877.798 32.5563 877.785 32.7215C877.771 32.8943 877.657 33.0183 877.517 33.0074C877.208 32.9833 877.223 33.4011 877.563 34.0924C877.88 34.7487 877.755 35.2452 877.156 35.6969C876.856 35.9241 876.834 36.0707 877.026 36.5178C877.416 37.4456 877.4 38.0171 876.965 38.5072C876.655 38.8665 876.626 39.01 876.839 39.1468C876.939 39.2108 876.978 39.3085 876.963 39.4965C876.946 39.7202 876.833 40.0923 876.605 40.706C876.27 41.6284 876.17 42.1754 876.318 42.3531C876.643 42.762 876.74 44.0556 876.456 44.1843C876.311 44.2394 876.231 44.5247 876.288 44.7694C876.344 45.0244 876.266 45.4171 876.128 45.6135C875.958 45.8507 875.934 46.056 876.065 46.1914C876.169 46.2993 876.149 46.5483 875.998 46.9174C875.962 47.0067 875.918 47.0953 875.871 47.199C875.534 47.9115 875.526 48.0414 875.812 48.3245C875.989 48.5019 876.022 48.64 875.882 48.6291C875.753 48.6189 875.628 48.7422 875.617 48.8896C875.605 49.037 875.372 49.3767 875.128 49.6005C874.817 49.8864 874.834 50.2645 875.18 50.7347C875.623 51.342 875.647 51.51 875.406 51.9489C875.254 52.2285 875.057 52.819 874.976 53.2448C874.896 53.6782 874.726 54.2735 874.609 54.5712C874.493 54.8612 874.461 55.2653 874.54 55.4631C874.618 55.661 874.665 55.8897 874.642 55.9544C874.36 56.9218 874.303 57.3903 874.411 58.1811C874.489 58.7522 874.394 59.7267 874.179 60.6814L874.181 60.6943Z" fill="#5ABD64"/>
<path d="M879.023 3.60724C879.313 3.62992 879.379 3.48424 879.336 2.83402C879.313 2.39248 879.392 1.98953 879.519 1.93298C879.646 1.87643 879.762 1.59402 879.787 1.27128C879.849 0.478424 880.087 0.430582 880.942 1.04449C881.343 1.33396 881.893 1.64281 882.167 1.73838C882.433 1.83335 882.645 1.99307 882.637 2.09981C882.629 2.19891 882.909 2.59404 883.248 2.96312C883.378 3.09858 883.5 3.24105 883.593 3.3633C883.469 3.60424 883.418 3.82269 883.474 3.91904C883.542 4.03947 883.514 4.29807 883.41 4.49702C883.303 4.69831 883.256 4.90172 883.309 4.95446C883.362 5.0072 883.202 5.25292 882.936 5.52358C882.689 5.77787 882.426 6.27378 882.361 6.6011C882.271 7.02611 882.06 7.31647 881.646 7.57558C881.319 7.78273 880.937 8.22591 880.787 8.57979C880.629 8.93305 880.477 9.17939 880.424 9.12411C880.293 8.98865 879.604 9.4922 879.584 9.74886C879.567 9.97249 879.073 10.0157 878.602 9.93038C878.988 9.43637 879.018 9.04756 878.671 8.90546C878.489 8.83242 878.451 8.48175 878.55 7.82468C878.848 5.94322 878.925 4.68624 878.791 4.13627C878.684 3.69587 878.73 3.58181 879.02 3.60449L879.023 3.60724ZM900.43 4.45832C900.441 4.44389 900.443 4.41847 900.445 4.39306C900.643 4.26788 900.795 4.12126 900.802 4.0374C900.827 3.71467 902.544 2.57807 902.995 2.58008C903.23 2.58306 903.509 2.75314 903.616 2.96087C903.712 3.16018 903.953 3.35283 904.121 3.366C904.3 3.37997 904.544 3.60607 904.675 3.86685C904.951 4.43813 906.29 5.83132 906.311 5.56449C906.32 5.45776 906.516 5.34783 906.753 5.31777C906.983 5.28457 907.445 4.8809 907.765 4.42523C908.422 3.49478 908.659 3.33939 909.37 3.38727C909.643 3.40091 909.891 3.32827 909.9 3.22154C909.909 3.10718 910.045 3.03345 910.242 3.04884C910.439 3.06424 910.559 3.19888 910.546 3.36406C910.533 3.52924 910.667 3.6215 910.858 3.58018C910.876 3.58159 910.887 3.57478 910.905 3.5762C910.908 3.67612 910.924 3.80266 910.959 3.96386C911.042 4.32834 911.012 4.61744 910.875 4.80613C910.758 4.96321 910.702 5.20941 910.757 5.34662C910.811 5.49145 910.661 5.8377 910.421 6.136C910.182 6.42413 909.984 6.79215 909.971 6.9497C909.958 7.11488 909.842 7.27196 909.69 7.31124C909.557 7.34177 909.202 7.64641 908.924 7.96728C908.653 8.29639 908.144 8.79613 907.802 9.06853C907.459 9.34094 906.759 10.0251 906.234 10.6003C905.698 11.1823 905.175 11.6323 905.053 11.6228C904.801 11.6031 903.83 10.4049 903.851 10.133C903.858 10.0415 903.593 9.69608 903.273 9.35657C902.942 9.01371 902.733 8.64967 902.791 8.53662C902.855 8.41636 902.796 8.24551 902.654 8.1194C902.513 7.99076 902.414 7.81687 902.425 7.68473C902.434 7.56021 902.33 7.46001 902.18 7.44826C902.029 7.43652 901.928 7.29566 901.942 7.1127C901.956 6.92973 901.766 6.59272 901.515 6.33024C901.262 6.0701 901.046 5.7209 901.02 5.55268C900.998 5.36688 900.836 5.13182 900.649 4.9919C900.434 4.84214 900.355 4.64426 900.426 4.46829L900.43 4.45832ZM883.502 16.8506C883.656 16.6887 883.805 16.3501 883.835 16.0943C883.893 15.4928 884.717 14.3248 885.062 14.3518C885.213 14.3635 885.39 14.27 885.466 14.1251C885.61 13.8525 885.928 13.862 886.8 14.1551C887.12 14.2645 887.5 14.4833 887.618 14.6358C887.747 14.7966 888 14.9238 888.197 14.9392C888.394 14.9546 888.544 15.0737 888.533 15.216C888.521 15.3659 888.588 15.4785 888.682 15.4858C889.001 15.5108 890.14 16.8295 890.115 17.1522C890.092 17.4419 890.154 17.4877 890.614 17.5083C890.69 17.5065 890.749 17.3526 890.734 17.1776C890.72 16.9924 890.839 16.8023 891.001 16.7587C891.174 16.7134 891.31 16.5425 891.324 16.3672C891.338 16.1918 891.524 15.9839 891.747 15.9016C891.959 15.8261 892.403 15.5796 892.691 15.3771C893.207 15.0109 893.62 14.9434 894.417 15.0951C894.64 15.1381 894.926 15.186 895.105 15.2076C896.015 15.3452 896.651 17.3227 896.456 19.4601C896.352 20.6562 896.279 20.8832 895.959 21.0014C895.747 21.0845 895.573 21.2448 895.563 21.3693C895.553 21.4938 895.361 21.778 895.127 22.0001C894.893 22.2221 894.697 22.5647 894.682 22.7629C894.666 22.9611 894.284 23.4145 893.842 23.7609C893.399 24.1175 892.972 24.5317 892.904 24.6695C892.846 24.8158 892.507 25.045 892.186 25.1861C891.865 25.3195 891.574 25.5295 891.565 25.6439C891.515 26.1564 889.512 27.3372 889.552 26.834C889.559 26.7425 889.279 26.355 888.939 25.9885C888.6 25.6219 888.316 25.2751 888.32 25.2243C888.324 25.1836 888.161 24.9613 887.971 24.7572C887.781 24.543 887.624 24.2571 887.633 24.1402C887.643 24.0081 887.568 23.9025 887.454 23.8936C887.35 23.8855 887.278 23.7392 887.293 23.541C887.309 23.3428 887.19 23.1929 886.975 23.1761C886.536 23.1419 886.194 22.8083 886.223 22.445C886.235 22.2874 886.086 22.0277 885.885 21.828C885.683 21.6383 885.533 21.3939 885.543 21.2618C885.553 21.1296 885.442 20.9803 885.289 20.9095C885.142 20.847 885.028 20.6386 885.042 20.4582C885.056 20.2778 884.914 20.0647 884.749 20.0032C884.284 19.8084 884.136 19.5309 884.296 19.1779C884.375 19.0101 884.186 18.5531 883.812 18.0253C883.28 17.2526 883.244 17.1168 883.499 16.8529L883.502 16.8506ZM911.195 16.6023C911.284 16.5351 911.498 16.2348 911.682 15.9244C912.008 15.3516 912.418 15.2839 913.533 15.6037C913.763 15.6702 914.07 15.8527 914.262 16.0262C914.447 16.1992 914.786 16.4404 915.029 16.5693C915.264 16.6951 915.598 17.097 915.751 17.449C916.574 19.3004 917.187 19.9133 917.541 19.225C917.618 19.0649 917.928 18.7695 918.194 18.5781C918.365 18.4534 918.525 18.3125 918.627 18.2054C918.653 18.2483 918.697 18.285 918.742 18.314C919.173 18.5727 919.119 19.4915 918.64 19.9858C918.404 20.2333 918.361 20.4141 918.516 20.6C918.635 20.7423 918.665 20.8622 918.58 20.8555C918.504 20.8497 918.56 21.1122 918.723 21.4241C918.966 21.9263 918.952 22.0991 918.597 22.6772C918.056 23.5836 917.769 26.5193 918.161 27.1814C918.321 27.4419 918.374 27.6045 918.322 27.7667C918.272 27.8037 918.176 27.8294 918.064 27.8207C917.914 27.809 917.723 27.9782 917.643 28.1713C917.512 28.5113 917.409 28.5263 916.544 28.3769C915.562 28.1928 914.979 27.6974 914.515 26.6563C914.141 25.7962 913.419 24.7836 913.1 24.659C912.799 24.5434 912.217 23.3091 912.251 22.872C912.258 22.7729 912.051 22.4243 911.801 22.1133C911.551 21.8023 911.349 21.3877 911.363 21.2073C911.377 21.0268 911.219 20.7793 911.019 20.664C910.677 20.471 910.614 20.2003 910.509 18.4049C910.484 17.8967 910.885 16.8388 911.195 16.6049L911.195 16.6023ZM897.598 29.9885C898.072 29.4757 899.263 29.2875 899.884 29.6275C900.126 29.7615 900.521 29.8945 900.728 29.9107C901.205 29.9556 902.636 31.3815 902.604 31.7856C902.592 31.9431 902.707 32.1745 902.856 32.3038C902.997 32.4299 903.106 32.7068 903.101 32.9059C903.085 33.2447 903.103 33.2461 903.386 32.8617C903.563 32.6352 903.71 32.3219 903.734 32.1576C903.746 31.9924 903.85 31.8675 903.954 31.8756C904.065 31.8844 904.159 31.7843 904.171 31.6344C904.182 31.4946 904.266 31.3912 904.369 31.3993C904.473 31.4074 904.615 31.2676 904.704 31.0854C904.923 30.5962 906.336 29.6072 906.675 29.7104C906.711 29.7209 906.857 29.7834 907.011 29.8542C907.176 29.9157 907.56 30.1783 907.869 30.4275C908.419 30.8693 908.559 31.1129 908.689 31.8543C908.723 32.0231 908.848 32.5979 908.966 33.1236C909.185 34.056 909.172 34.0958 908.791 34.2911C908.555 34.4133 908.381 34.5991 908.371 34.7313C908.36 34.8634 908.267 35.0888 908.161 35.2467C908.055 35.3969 907.614 36.0937 907.166 36.7899C906.718 37.4861 906.277 38.0424 906.174 38.0343C906.07 38.0262 905.976 38.1595 905.962 38.3348C905.949 38.5102 905.808 38.7395 905.63 38.8483C905.452 38.9597 905.314 39.1484 905.304 39.2805C905.294 39.405 905.055 39.5909 904.793 39.6727C904.526 39.7566 904.297 39.8743 904.293 39.9328C904.288 39.9912 903.953 40.3127 903.551 40.6393C903.158 40.9665 902.821 41.3058 902.814 41.3871C902.808 41.4684 902.682 41.5174 902.542 41.5064C902.391 41.4947 902.222 41.6221 902.151 41.8006C902.068 42.0268 901.875 42.0859 901.382 42.0244C900.449 41.9004 900.083 41.6724 900.117 41.243C900.134 41.0269 900.021 40.7957 899.875 40.7332C899.721 40.6624 899.614 40.4724 899.628 40.2894C899.642 40.1065 899.523 39.8543 899.372 39.7198C899.223 39.588 899.104 39.4074 899.111 39.3159C899.118 39.2346 898.972 38.9317 898.787 38.6591C898.592 38.378 898.441 37.9161 898.446 37.6098C898.442 37.3026 898.334 37.0028 898.198 36.941C898.062 36.8818 897.971 36.7161 897.984 36.5509C897.995 36.401 897.895 36.112 897.769 35.9282C897.632 35.7437 897.58 35.4303 897.651 35.262C897.733 35.051 897.655 34.8379 897.451 34.6813C896.847 34.2276 896.966 30.6703 897.601 29.9887L897.598 29.9885ZM876.127 45.6258C876.265 45.4294 876.343 45.0367 876.287 44.7818C876.231 44.537 876.31 44.2518 876.456 44.1966C876.74 44.068 876.642 42.7743 876.317 42.3654C876.171 42.1879 876.269 41.6381 876.605 40.7183C876.833 40.1046 876.945 39.7299 876.963 39.5089C877.149 39.4237 877.369 39.3565 877.588 39.3174C878.342 39.1845 878.593 39.2118 878.718 39.4235C878.775 39.52 878.978 39.6023 879.183 39.6183C879.387 39.6343 879.574 39.7895 879.616 39.9769C879.658 40.1796 879.843 40.3193 880.087 40.3383C880.535 40.3734 881.412 41.2139 881.39 41.5957C881.38 41.7202 881.508 42.1214 881.668 42.4816C881.827 42.8519 881.912 43.1986 881.86 43.2611C881.809 43.3159 881.85 43.3856 881.962 43.3943C882.073 43.403 882.248 43.2326 882.36 43.0086C882.47 42.7999 882.846 42.4304 883.174 42.208C883.502 41.9856 883.887 41.6322 884.014 41.4351C884.141 41.2456 884.448 41.065 884.665 41.0538C884.891 41.0407 885.077 40.9607 885.083 40.8794C885.09 40.7981 885.264 40.7426 885.45 40.7572C885.647 40.7726 885.869 40.7157 885.93 40.6285C886.002 40.5421 886.129 40.4855 886.215 40.4922C886.402 40.5068 887.923 42.0062 887.911 42.1612C887.907 42.2197 888.062 42.4057 888.255 42.5716C888.556 42.8278 888.573 42.9467 888.385 43.313C888.262 43.5539 888.204 43.823 888.255 43.9088C888.312 44.0053 888.233 44.1908 888.081 44.3273C887.918 44.4731 887.776 44.7202 887.755 44.9001C887.679 45.4004 887.555 45.6873 887.356 45.7995C887.249 45.8602 887.271 45.908 887.411 45.919C887.59 45.9329 887.614 46.0933 887.495 46.5237C887.222 47.474 887.113 47.6649 886.823 47.6422C886.654 47.6291 886.547 47.7946 886.523 48.1021C886.495 48.4655 886.339 48.6604 885.859 48.8888C885.517 49.0615 885.086 49.3935 884.887 49.6438C884.698 49.8949 884.388 50.1213 884.198 50.1473C884.008 50.1734 883.74 50.3622 883.591 50.5653C883.444 50.7712 883.127 50.9611 882.89 50.9937C882.66 51.0269 882.326 51.1977 882.174 51.3623C882.006 51.546 881.786 51.6234 881.622 51.5518C881.468 51.481 881.298 51.4933 881.226 51.5797C881.162 51.6591 880.942 51.7083 880.747 51.6932C880.553 51.678 880.08 51.9146 879.669 52.2404C879.056 52.7321 878.863 52.7937 878.363 52.6881C877.66 52.5335 877.393 52.2135 877.366 51.4802C877.354 51.1725 877.226 50.7381 877.092 50.5436C876.966 50.3598 876.875 49.9539 876.896 49.6794C876.918 49.405 876.857 49.1113 876.757 49.0524C876.669 48.9867 876.598 48.7894 876.611 48.6242C876.625 48.4412 876.487 48.1748 876.292 48.001C876.079 47.8182 875.963 47.5023 875.988 47.1796C875.994 47.0957 875.991 47.006 875.989 46.9291C876.141 46.5575 876.16 46.311 876.056 46.2031C875.926 46.0677 875.952 45.8627 876.12 45.6252L876.127 45.6258ZM909.561 45.0128C909.682 44.8713 909.86 44.4301 909.959 44.0288C910.068 43.6052 910.221 43.318 910.353 43.3284C910.579 43.346 910.876 43.0113 910.931 42.6755C910.965 42.4787 912.278 42.5327 912.397 42.7235C912.437 42.8008 912.666 42.8851 912.881 42.9019C913.283 42.9333 913.82 43.415 913.795 43.7301C913.787 43.8368 913.906 43.8794 914.06 43.8429C914.233 43.7976 914.332 43.8641 914.322 44.0039C914.311 44.136 914.422 44.2853 914.569 44.3479C914.715 44.4079 914.8 44.5245 914.765 44.6036C914.73 44.6852 914.865 44.8952 915.05 45.0656C915.243 45.2391 915.465 45.6707 915.539 46.0267C915.642 46.5078 915.684 46.5699 915.726 46.274C915.771 45.9272 916.026 45.3336 916.274 44.8953C916.254 45.1519 916.33 45.3905 916.519 45.7377C916.74 46.1537 916.799 46.4908 916.662 46.5465C916.534 46.6107 916.489 46.7248 916.545 46.8366C916.613 46.9415 916.565 47.0529 916.43 47.1113C916.066 47.267 915.731 48.7749 915.998 49.0386C916.136 49.1772 916.223 49.5292 916.198 49.8519C916.173 50.1746 916.288 50.6311 916.462 50.9106C916.687 51.2682 916.707 51.5127 916.525 51.772C916.388 51.9607 916.317 52.3361 916.359 52.5644C916.403 52.8005 916.36 53.1551 916.262 53.3392C916.196 53.4516 916.113 53.8107 916.039 54.2524C915.977 54.3217 915.924 54.3942 915.901 54.4564C915.824 54.6089 915.514 54.8327 915.214 54.9345C914.731 55.1039 914.658 55.0982 914.586 54.8855C914.541 54.7567 914.293 54.5302 914.033 54.3846C913.483 54.0758 911.867 51.6767 912.028 51.385C912.092 51.2724 911.942 51.1456 911.667 51.0653C911.071 50.8782 910.753 50.4417 911.031 50.1847C911.186 50.0409 911.148 49.8947 910.878 49.6077C910.688 49.4011 910.529 49.1305 910.537 49.0314C910.544 48.9323 910.468 48.8419 910.364 48.8338C910.271 48.8265 910.219 48.6487 910.263 48.4603C910.307 48.2567 910.229 47.9182 910.089 47.6823C909.938 47.4455 909.811 47.0291 909.795 46.7287C909.772 46.4277 909.665 45.9949 909.552 45.728C909.392 45.3754 909.392 45.2067 909.562 45.0051L909.561 45.0128ZM892.73 56.0678C892.799 56.022 892.824 55.7018 892.787 55.3486C892.742 54.9539 892.806 54.7339 892.956 54.7457C893.078 54.7552 893.198 54.6239 893.214 54.459C893.259 54.0125 894.012 53.3836 894.461 53.4187C894.658 53.4341 895.402 53.7657 896.098 54.1448C896.802 54.5244 897.459 55.0334 897.572 55.2902C897.683 55.5392 897.917 55.8157 898.079 55.9127C898.252 56.008 898.546 56.4478 898.763 56.9147C898.997 57.4162 899.256 57.7177 899.419 57.6716C899.552 57.6309 899.649 57.4902 899.61 57.3874C899.573 57.2694 899.845 56.9225 900.198 56.6177C900.55 56.3205 900.857 55.9967 900.863 55.9129C900.906 55.3665 903.314 55.1404 903.886 55.6325C904.326 56.0171 905.024 57.7003 904.939 58.1921C904.89 58.4466 904.924 58.7791 905.005 58.9132C905.084 59.0421 905.047 59.2514 904.934 59.3576C904.816 59.466 904.571 60.0273 904.395 60.6118C904.118 61.5208 903.737 62.2887 903.271 62.8353C902.637 62.1696 902.027 61.6668 901.876 61.6551C901.557 61.6302 899.794 63.2541 899.768 63.5921C899.754 63.7649 897.925 64.5373 897.606 64.5124C897.512 64.5051 897.447 64.3671 897.461 64.1943C897.474 64.0215 897.338 63.8344 897.148 63.7531C896.519 63.4867 895.545 62.4646 895.573 62.1088C895.59 61.8852 895.432 61.7399 895.152 61.718C894.9 61.6984 894.711 61.5762 894.722 61.4441C894.727 61.3704 894.63 61.4114 894.487 61.5434C894.374 61.4169 894.309 61.2789 894.316 61.19C894.328 61.0324 894.177 60.8058 893.97 60.6721C893.72 60.5017 893.641 60.3064 893.737 60.0556C893.833 59.7895 893.758 59.6507 893.475 59.5621C893.091 59.4325 893.02 59.2428 892.857 57.8596C892.827 57.6324 892.718 57.3323 892.616 57.2017C892.436 56.9626 892.51 56.2449 892.733 56.073L892.73 56.0678Z" fill="#FF6E0D"/>
</g>
<defs>
<clipPath id="clip0_2946_45928">
<rect width="1000" height="428" fill="white" transform="translate(0 30.0039)"/>
</clipPath>
<clipPath id="clip1_2946_45928">
<rect width="101" height="95" fill="white" transform="translate(856.006 390.004) rotate(15)"/>
</clipPath>
<clipPath id="clip2_2946_45928">
<rect width="42" height="63" fill="white" transform="matrix(-0.996964 -0.077858 -0.077858 0.996964 920.568 3.26953)"/>
</clipPath>
</defs>
</svg>
