<svg width="210" height="56" viewBox="0 0 210 56" fill="none" xmlns="http://www.w3.org/2000/svg">
<path d="M0 8C0 3.58172 3.58172 0 8 0H202C206.418 0 210 3.58172 210 8V48C210 52.4183 206.418 56 202 56H8C3.58172 56 0 52.4183 0 48V8Z" fill="#DB0007"/>
<path d="M33.8711 22.002V23.1445H32.1309V30.668C32.9746 30.6064 33.8096 30.5361 34.6094 30.4395L34.6797 31.459C31.375 31.9863 27.6309 32.0391 24.8711 32.0566L24.6953 30.8789L26.8047 30.8613V23.1445H25.082V22.002H33.8711ZM36.9824 20.2969V26.5723H39.6016V27.7324H36.9824V35.9238H35.6113V20.2969H36.9824ZM28.1406 30.8438C29.0107 30.8262 29.916 30.791 30.8125 30.7383V23.1445H28.1406V30.8438ZM53.1016 28.752V29.877H42.291V21.6504H52.9258V22.8105H43.6973V25.1309H52.5918V26.2383H43.6973V28.752H53.1016ZM54.7539 32.7422V33.8848H40.4453V32.7422H54.7539ZM68.9746 20.2969V35.959H67.5859V26.6074H62.7168V25.4648H67.5859V20.2969H68.9746ZM58.252 22.0547V31.002C60.6338 30.9756 62.7607 30.8525 65.1074 30.3691L65.2832 31.5117C62.7871 32.0215 60.5898 32.1621 58.0586 32.1621H56.8633V22.0547H58.252ZM81.3672 25.0957C81.3496 27.6094 83.1602 30.3691 85.4277 31.4414L84.6367 32.5312C82.8789 31.6787 81.3936 29.8154 80.6992 27.6973C79.9785 30 78.4053 32.0215 76.6562 32.918L75.8125 31.8281C78.0625 30.7383 79.9961 27.7676 80.0137 25.0957V23.0566H76.375V21.9141H84.8828V23.0566H81.3672V25.0957ZM88.1699 20.2969V26.625H90.7891V27.8027H88.1699V35.9238H86.7988V20.2969H88.1699ZM96.2734 24.7441C96.2734 27.2227 97.4863 29.9121 99.5605 31.1426L98.7695 32.2148C97.2666 31.3008 96.1855 29.6309 95.6406 27.7324C95.0605 29.8066 93.9004 31.5908 92.3359 32.5488L91.457 31.5117C93.6191 30.2461 94.9375 27.4688 94.9375 24.7969V21.7734H96.2734V24.7441ZM105.027 20.2969V35.9238H103.691V20.2969H105.027ZM101.793 20.6309V35.1328H100.492V27.082H97.8379V25.9043H100.492V20.6309H101.793ZM120.074 20.2969V35.9238H118.686V20.2969H120.074ZM116.998 22.8457V23.9707H107.541V22.8457H111.566V20.4551H112.955V22.8457H116.998ZM112.305 25.2539C114.555 25.2539 116.172 26.7305 116.172 28.8398C116.172 30.9492 114.555 32.4258 112.305 32.4258C110.037 32.4258 108.402 30.9492 108.42 28.8398C108.402 26.7305 110.037 25.2539 112.305 25.2539ZM112.305 26.4141C110.811 26.4141 109.721 27.4336 109.721 28.8398C109.721 30.2637 110.811 31.2656 112.305 31.248C113.781 31.2656 114.854 30.2637 114.854 28.8398C114.854 27.4336 113.781 26.4141 112.305 26.4141ZM141.572 32.7773V33.9199H127.264V32.7773H133.697V29.4023H128.951V21.4043H130.34V24.2344H138.461V21.4043H139.814V29.4023H135.051V32.7773H141.572ZM130.34 28.2773H138.461V25.3594H130.34V28.2773ZM155.74 20.2969V35.9238H154.352V20.2969H155.74ZM151.117 22.002C151.1 26.502 149.008 30.4746 143.77 32.9883L143.014 31.8633C147.241 29.8594 149.395 26.8623 149.711 23.127H143.734V22.002H151.117Z" fill="#FFFDE9"/>
<path d="M176.278 32H173.643L176.457 29H168V27H176.457L173.643 24L176.278 24L180 28L176.278 32Z" fill="#FFFDE9"/>
</svg>
