<svg width="163" height="56" viewBox="0 0 163 56" fill="none" xmlns="http://www.w3.org/2000/svg">
<path d="M0 8C0 3.58172 3.58172 0 8 0H155C159.418 0 163 3.58172 163 8V48C163 52.4183 159.418 56 155 56H8C3.58173 56 0 52.4183 0 48V8Z" fill="#DB0007"/>
<path d="M31.79 30.1758C35.1475 30.1758 37.2744 31.2305 37.2744 33.041C37.2744 34.834 35.1475 35.8887 31.79 35.8887C28.4502 35.8887 26.3232 34.834 26.3232 33.041C26.3232 31.2305 28.4502 30.1758 31.79 30.1758ZM31.79 31.2305C29.2939 31.248 27.6768 31.9336 27.6943 33.041C27.6768 34.1309 29.2939 34.7988 31.79 34.7988C34.2861 34.7988 35.8857 34.1309 35.9033 33.041C35.8857 31.9336 34.2861 31.248 31.79 31.2305ZM37.1514 21.1055V22.4238C37.1514 23.6895 37.1514 24.9551 36.7119 26.5723L35.3584 26.4141C35.7803 24.7969 35.7803 23.6543 35.7803 22.4238V22.2305H26.4287V21.1055H37.1514ZM38.9619 27.5918V28.7168H24.7412V27.5918H30.6299V24.5684H31.9834V27.5918H38.9619ZM45.8701 25.0957C45.8701 27.75 47.8037 30.4395 50.1064 31.4414L49.333 32.5312C47.5049 31.6963 45.9229 29.8945 45.2021 27.7324C44.4639 30.0264 42.8906 32.0215 41.1064 32.918L40.2803 31.8281C42.5127 30.7559 44.4639 27.8027 44.4814 25.0957V23.0566H40.79V21.9141H49.5967V23.0566H45.8701V25.0957ZM53.165 20.2969V35.9238H51.7764V20.2969H53.165ZM68.3174 21.791V22.9512H62.5342V30.9141C65.3467 30.9141 67.21 30.8174 69.3721 30.4043L69.5479 31.5469C67.2451 31.9863 65.3467 32.0918 62.3408 32.0918H61.1455V21.791H68.3174ZM73.3271 20.2969V35.959H71.9385V27.1348H67.3857V25.9922H71.9385V20.2969H73.3271ZM94.7373 32.7773V33.9199H80.4287V32.7773H86.8623V29.4023H82.1162V21.4043H83.5049V24.2344H91.626V21.4043H92.9795V29.4023H88.2158V32.7773H94.7373ZM83.5049 28.2773H91.626V25.3594H83.5049V28.2773ZM108.905 20.2969V35.9238H107.517V20.2969H108.905ZM104.282 22.002C104.265 26.502 102.173 30.4746 96.9346 32.9883L96.1787 31.8633C100.406 29.8594 102.56 26.8623 102.876 23.127H96.8994V22.002H104.282Z" fill="#FFFDE9"/>
<path d="M129.278 32H126.643L129.457 29H121V27H129.457L126.643 24L129.278 24L133 28L129.278 32Z" fill="#FFFDE9"/>
</svg>
