<svg width="200" height="52" viewBox="0 0 200 52" fill="none" xmlns="http://www.w3.org/2000/svg">
<path d="M8 0.5H192C196.142 0.5 199.5 3.85787 199.5 8V44C199.5 48.1421 196.142 51.5 192 51.5H8C3.85787 51.5 0.5 48.1421 0.5 44V8C0.5 3.85786 3.85786 0.5 8 0.5Z" stroke="#BBBBBB"/>
<path d="M82.5098 18.2969V33.9238H81.1914V18.2969H82.5098ZM79.3457 18.7188V33.1328H78.0273V27.7188H75.127V26.5762H78.0273V23.7988H75.3906C74.626 26.4443 72.9121 28.7822 69.959 30.5488L69.1152 29.5469C72.5166 27.5342 74.2217 24.7129 74.4941 21.4434H69.8184V20.3008H75.8652C75.8652 21.1006 75.7949 21.8916 75.6543 22.6562H78.0273V18.7188H79.3457ZM90.1738 21.1094C90.1562 23.0957 91.7734 24.8535 94.0586 25.5566L93.4082 26.6465C91.5889 26.0664 90.165 24.8711 89.4883 23.2891C88.8027 25.0029 87.335 26.2949 85.4805 26.9102L84.7598 25.8203C87.1152 25.082 88.7676 23.2539 88.7852 21.1094V20.916H85.2344V19.7559H93.6895V20.916H90.1738V21.1094ZM90.1738 26.2598V29.3887C91.5977 29.3359 93.0479 29.2217 94.3926 29.0371L94.4805 30.0566C91.123 30.6543 87.4316 30.6543 84.707 30.6543L84.4961 29.4941C85.7617 29.4941 87.2383 29.4941 88.7852 29.4414V26.2598H90.1738ZM99.3145 24.8008V25.9785H96.7656V33.9238H95.3945V18.2969H96.7656V24.8008H99.3145ZM113.131 18.2969V33.959H111.742V18.2969H113.131ZM104.816 19.5098C107.137 19.5273 108.807 21.6367 108.807 24.959C108.807 28.2812 107.137 30.3906 104.816 30.3906C102.479 30.3906 100.826 28.2812 100.826 24.959C100.826 21.6367 102.479 19.5273 104.816 19.5098ZM104.816 20.7402C103.252 20.7578 102.162 22.4102 102.162 24.959C102.162 27.5078 103.252 29.1602 104.816 29.1602C106.381 29.1602 107.471 27.5078 107.471 24.959C107.471 22.4102 106.381 20.7578 104.816 20.7402ZM120.373 23.1133C120.373 25.627 121.656 28.1934 123.783 29.3359L122.992 30.373C121.437 29.5293 120.312 27.9121 119.74 26.0312C119.178 28.0352 118.062 29.7754 116.506 30.7246L115.68 29.6699C117.807 28.4395 119.055 25.6973 119.072 23.1133V22.3398H116.102V21.1973H119.072V18.877H120.391V21.1973H123.309V22.3398H120.373V23.1133ZM129.162 18.2969V33.9238H127.844V18.2969H129.162ZM125.998 18.6836V33.1152H124.697V25.6445H122.236V24.4668H124.697V18.6836H125.998Z" fill="black"/>
</svg>
