<svg width="200" height="52" viewBox="0 0 200 52" fill="none" xmlns="http://www.w3.org/2000/svg">
<path d="M8 0.5H192C196.142 0.5 199.5 3.85787 199.5 8V44C199.5 48.1421 196.142 51.5 192 51.5H8C3.85787 51.5 0.5 48.1421 0.5 44V8C0.5 3.85786 3.85786 0.5 8 0.5Z" stroke="#BBBBBB"/>
<path d="M68.8438 32.6758C66.541 32.6758 64.8008 31.252 64.7129 29.3008H66.2422C66.3652 30.4434 67.4727 31.2871 68.8438 31.2871C70.4961 31.2871 71.6914 30.0742 71.6914 28.4746C71.6914 26.8223 70.4434 25.6094 68.7383 25.5918C67.666 25.5742 66.8398 25.9082 66.3652 26.7344H64.8359L65.7324 19.7734H72.623V21.1797H67.0508L66.5762 24.9062H66.6992C67.2617 24.4668 68.123 24.168 69.0195 24.168C71.4453 24.168 73.2383 25.9609 73.2383 28.4395C73.2383 30.9004 71.375 32.6758 68.8438 32.6758ZM79.6016 32.6758C76.7715 32.6758 75.1543 30.3027 75.1543 26.1367C75.1543 22.0059 76.8066 19.5977 79.6016 19.5977C82.3965 19.5977 84.0488 22.0059 84.0488 26.1367C84.0488 30.3027 82.4141 32.6758 79.6016 32.6758ZM79.6016 31.2695C81.4297 31.2695 82.502 29.4238 82.502 26.1367C82.502 22.8496 81.4297 20.9688 79.6016 20.9688C77.7734 20.9688 76.6836 22.8496 76.6836 26.1367C76.6836 29.4238 77.7559 31.2695 79.6016 31.2695ZM87.7227 31.3223L86.3516 36.1035H85.0508L86.0176 31.3223H87.7227ZM94.0859 32.6758C91.2559 32.6758 89.6387 30.3027 89.6387 26.1367C89.6387 22.0059 91.291 19.5977 94.0859 19.5977C96.8809 19.5977 98.5332 22.0059 98.5332 26.1367C98.5332 30.3027 96.8984 32.6758 94.0859 32.6758ZM94.0859 31.2695C95.9141 31.2695 96.9863 29.4238 96.9863 26.1367C96.9863 22.8496 95.9141 20.9688 94.0859 20.9688C92.2578 20.9688 91.168 22.8496 91.168 26.1367C91.168 29.4238 92.2402 31.2695 94.0859 31.2695ZM104.809 32.6758C101.979 32.6758 100.361 30.3027 100.361 26.1367C100.361 22.0059 102.014 19.5977 104.809 19.5977C107.604 19.5977 109.256 22.0059 109.256 26.1367C109.256 30.3027 107.621 32.6758 104.809 32.6758ZM104.809 31.2695C106.637 31.2695 107.709 29.4238 107.709 26.1367C107.709 22.8496 106.637 20.9688 104.809 20.9688C102.98 20.9688 101.891 22.8496 101.891 26.1367C101.891 29.4238 102.963 31.2695 104.809 31.2695ZM115.531 32.6758C112.701 32.6758 111.084 30.3027 111.084 26.1367C111.084 22.0059 112.736 19.5977 115.531 19.5977C118.326 19.5977 119.979 22.0059 119.979 26.1367C119.979 30.3027 118.344 32.6758 115.531 32.6758ZM115.531 31.2695C117.359 31.2695 118.432 29.4238 118.432 26.1367C118.432 22.8496 117.359 20.9688 115.531 20.9688C113.703 20.9688 112.613 22.8496 112.613 26.1367C112.613 29.4238 113.686 31.2695 115.531 31.2695ZM134.41 18.3145V30.1797H133.021V28.5625H129.787V27.5605H133.021V18.3145H134.41ZM134.797 32.4297V33.5898H123.688V29.0195H125.076V32.4297H134.797ZM121.438 25.5566C124.355 25.5391 128.258 25.5215 131.615 25.0996L131.703 26.1016C130.306 26.3213 128.847 26.4619 127.414 26.541V29.6348H126.025V26.6113C124.443 26.6816 122.94 26.6904 121.631 26.6816L121.438 25.5566ZM126.57 18.9473C128.855 18.9473 130.42 20.0371 130.438 21.6719C130.42 23.3418 128.855 24.3789 126.57 24.3789C124.268 24.3789 122.703 23.3418 122.703 21.6719C122.703 20.0371 124.268 18.9473 126.57 18.9473ZM126.57 20.002C125.041 19.9844 124.004 20.6699 124.021 21.6719C124.004 22.6914 125.041 23.3594 126.57 23.3594C128.047 23.3594 129.102 22.6914 129.119 21.6719C129.102 20.6699 128.047 19.9844 126.57 20.002Z" fill="black"/>
</svg>
