<svg width="200" height="52" viewBox="0 0 200 52" fill="none" xmlns="http://www.w3.org/2000/svg">
<path d="M8 0.5H192C196.142 0.5 199.5 3.85787 199.5 8V44C199.5 48.1421 196.142 51.5 192 51.5H8C3.85787 51.5 0.5 48.1421 0.5 44V8C0.5 3.85786 3.85786 0.5 8 0.5Z" stroke="#BBBBBB"/>
<path d="M57.0898 23.7812C56.7207 22.0234 55.209 21.0742 53.5391 21.0742C51.2363 21.0742 49.4434 22.8496 49.4434 26.1367C49.4434 29.4238 51.2363 31.1992 53.5391 31.1992C55.209 31.1992 56.7031 30.25 57.0898 28.5098H58.6719C58.2148 31.1113 56.123 32.6758 53.5391 32.6758C50.2695 32.6758 47.9141 30.1621 47.9141 26.1367C47.9141 22.1113 50.2695 19.5977 53.5391 19.5977C56.1055 19.5977 58.1973 21.1445 58.6719 23.7812H57.0898ZM60.8867 19.7734H62.7852L67.0742 30.25H67.2324L71.5215 19.7734H73.4199V32.5H71.9258V22.8848H71.8027L67.8477 32.5H66.4414L62.4863 22.8848H62.3809V32.5H60.8867V19.7734ZM83.1758 22.9727C83.0352 21.7246 81.8926 21.0039 80.3633 21.0039C78.6758 21.0039 77.5684 21.8828 77.5684 23.0957C77.5684 24.4316 79.0625 24.9238 80.0293 25.1699L81.2949 25.5215C82.666 25.873 84.8984 26.6641 84.8984 29.0371C84.8984 31.1113 83.2285 32.7285 80.2754 32.7285C77.5332 32.7285 75.8281 31.3047 75.6875 29.1953H77.3047C77.4453 30.6191 78.7637 31.2871 80.2754 31.2871C82.0332 31.2871 83.3516 30.3906 83.3516 29.002C83.3516 27.7715 82.1738 27.2969 80.8379 26.9102L79.2734 26.4883C77.2695 25.9082 76.0391 24.8887 76.0391 23.166C76.0391 21.0215 77.9551 19.5977 80.416 19.5977C82.877 19.5977 84.6523 21.0391 84.7227 22.9727H83.1758ZM96.2012 23.0957C96.1836 25.6094 97.9941 28.3691 100.262 29.4414L99.4707 30.5312C97.7129 29.6787 96.2275 27.8154 95.5332 25.6973C94.8125 28 93.2393 30.0215 91.4902 30.918L90.6465 29.8281C92.8965 28.7383 94.8301 25.7676 94.8477 23.0957V21.0566H91.209V19.9141H99.7168V21.0566H96.2012V23.0957ZM103.004 18.2969V24.625H105.623V25.8027H103.004V33.9238H101.633V18.2969H103.004ZM120.723 26.0312V27.1387H106.467V26.0312H112.918V24.2031H108.277V19.0352H118.947V20.1426H109.631V23.0781H119.053V24.2031H114.254V26.0312H120.723ZM113.586 28.2812C116.943 28.2812 118.947 29.3008 118.965 31.0938C118.947 32.9043 116.943 33.9062 113.586 33.9238C110.211 33.9062 108.189 32.9043 108.189 31.0938C108.189 29.3008 110.211 28.2812 113.586 28.2812ZM113.586 29.3711C111.072 29.3711 109.578 30.0215 109.596 31.0938C109.578 32.1836 111.072 32.8164 113.586 32.8164C116.064 32.8164 117.576 32.1836 117.576 31.0938C117.576 30.0215 116.064 29.3711 113.586 29.3711ZM134.908 18.2969V33.959H133.52V18.2969H134.908ZM126.594 19.5098C128.914 19.5273 130.584 21.6367 130.584 24.959C130.584 28.2812 128.914 30.3906 126.594 30.3906C124.256 30.3906 122.604 28.2812 122.604 24.959C122.604 21.6367 124.256 19.5273 126.594 19.5098ZM126.594 20.7402C125.029 20.7578 123.939 22.4102 123.939 24.959C123.939 27.5078 125.029 29.1602 126.594 29.1602C128.158 29.1602 129.248 27.5078 129.248 24.959C129.248 22.4102 128.158 20.7578 126.594 20.7402ZM142.15 23.1133C142.15 25.627 143.434 28.1934 145.561 29.3359L144.77 30.373C143.214 29.5293 142.089 27.9121 141.518 26.0312C140.955 28.0352 139.839 29.7754 138.283 30.7246L137.457 29.6699C139.584 28.4395 140.832 25.6973 140.85 23.1133V22.3398H137.879V21.1973H140.85V18.877H142.168V21.1973H145.086V22.3398H142.15V23.1133ZM150.939 18.2969V33.9238H149.621V18.2969H150.939ZM147.775 18.6836V33.1152H146.475V25.6445H144.014V24.4668H146.475V18.6836H147.775Z" fill="black"/>
</svg>
