<svg width="200" height="52" viewBox="0 0 200 52" fill="none" xmlns="http://www.w3.org/2000/svg">
<path d="M8 0.5H192C196.142 0.5 199.5 3.85787 199.5 8V44C199.5 48.1421 196.142 51.5 192 51.5H8C3.85787 51.5 0.5 48.1421 0.5 44V8C0.5 3.85786 3.85786 0.5 8 0.5Z" stroke="#BBBBBB"/>
<path d="M72.7578 21.1973C72.7578 23.3066 74.4277 25.2227 76.7656 25.9785L76.0625 27.0508C74.2432 26.4355 72.793 25.1436 72.0898 23.4824C71.4043 25.2666 69.9365 26.6729 68.082 27.3496L67.3613 26.2773C69.6992 25.4512 71.3691 23.4121 71.3691 21.1973V20.5293H67.7129V19.4043H76.3613V20.5293H72.7578V21.1973ZM80.0352 18.2969V27.7539H78.6641V18.2969H80.0352ZM80.0352 28.5801V33.9238H78.6641V29.7227H69.5234V28.5801H80.0352ZM95.627 18.2969V26.7871H94.2559V23.2539H91.0918V22.0938H94.2559V18.2969H95.627ZM86.9609 27.543V29.4941H94.2559V27.543H95.627V33.7129H85.5723V27.543H86.9609ZM86.9609 32.5879H94.2559V30.6016H86.9609V32.5879ZM88.1211 20.8457C88.1211 22.8496 89.6855 24.8184 91.9707 25.6094L91.25 26.6816C89.4834 26.04 88.1211 24.7305 87.4531 23.1133C86.7764 24.9238 85.335 26.374 83.4805 27.0508L82.7598 25.9609C85.0625 25.1348 86.7324 23.0605 86.7324 20.8457V20.3887H83.1992V19.2461H91.6191V20.3887H88.1211V20.8457ZM115.666 18.2969V26.6816H114.295V18.2969H115.666ZM106.912 27.4727V29.3711H114.295V27.4727H115.666V33.7129H105.541V27.4727H106.912ZM106.912 32.5879H114.295V30.4785H106.912V32.5879ZM107.229 19.0703C109.602 19.0527 111.324 20.5117 111.324 22.6562C111.324 24.7832 109.602 26.2422 107.229 26.2422C104.855 26.2422 103.133 24.7832 103.133 22.6562C103.133 20.5117 104.855 19.0527 107.229 19.0703ZM107.229 20.2305C105.629 20.2129 104.469 21.2324 104.486 22.6562C104.469 24.0801 105.629 25.0996 107.229 25.0996C108.811 25.0996 109.971 24.0801 109.971 22.6562C109.971 21.2324 108.811 20.2129 107.229 20.2305ZM125.738 19.2637V23.6406H120.359V26.0664C123.295 26.0664 124.807 26.0225 126.652 25.6797L126.793 26.8223C124.842 27.1387 123.26 27.1914 120.096 27.1914H118.988V22.5859H124.367V20.3711H118.953V19.2637H125.738ZM131.275 18.3145V27.9121H129.887V25.0117H126.775V23.8691H129.887V21.7598H126.775V20.6348H129.887V18.3145H131.275ZM131.275 28.7559V33.959H129.887V29.8809H120.746V28.7559H131.275Z" fill="black"/>
</svg>
