<svg width="200" height="52" viewBox="0 0 200 52" fill="none" xmlns="http://www.w3.org/2000/svg">
<path d="M8 0.5H192C196.142 0.5 199.5 3.85787 199.5 8V44C199.5 48.1421 196.142 51.5 192 51.5H8C3.85787 51.5 0.5 48.1421 0.5 44V8C0.5 3.85786 3.85786 0.5 8 0.5Z" stroke="#BBBBBB"/>
<path d="M64.6953 32.5L64.6777 31.3398L69.0195 26.7695C70.5312 25.1699 71.252 24.3086 71.252 23.1309C71.252 21.8301 70.1445 20.9688 68.7207 20.9688C67.209 20.9688 66.2422 21.9355 66.2422 23.3594H64.748C64.7305 21.1094 66.4707 19.5977 68.7734 19.5977C71.0762 19.5977 72.7285 21.1445 72.7285 23.1309C72.7285 24.5547 72.0605 25.6621 69.8105 27.9824L66.8926 30.9883V31.0938H72.957V32.5H64.6953ZM79.4258 32.6758C76.5957 32.6758 74.9785 30.3027 74.9785 26.1367C74.9785 22.0059 76.6309 19.5977 79.4258 19.5977C82.2207 19.5977 83.873 22.0059 83.873 26.1367C83.873 30.3027 82.2383 32.6758 79.4258 32.6758ZM79.4258 31.2695C81.2539 31.2695 82.3262 29.4238 82.3262 26.1367C82.3262 22.8496 81.2539 20.9688 79.4258 20.9688C77.5977 20.9688 76.5078 22.8496 76.5078 26.1367C76.5078 29.4238 77.5801 31.2695 79.4258 31.2695ZM87.5469 31.3223L86.1758 36.1035H84.875L85.8418 31.3223H87.5469ZM93.9102 32.6758C91.0801 32.6758 89.4629 30.3027 89.4629 26.1367C89.4629 22.0059 91.1152 19.5977 93.9102 19.5977C96.7051 19.5977 98.3574 22.0059 98.3574 26.1367C98.3574 30.3027 96.7227 32.6758 93.9102 32.6758ZM93.9102 31.2695C95.7383 31.2695 96.8105 29.4238 96.8105 26.1367C96.8105 22.8496 95.7383 20.9688 93.9102 20.9688C92.082 20.9688 90.9922 22.8496 90.9922 26.1367C90.9922 29.4238 92.0645 31.2695 93.9102 31.2695ZM104.633 32.6758C101.803 32.6758 100.186 30.3027 100.186 26.1367C100.186 22.0059 101.838 19.5977 104.633 19.5977C107.428 19.5977 109.08 22.0059 109.08 26.1367C109.08 30.3027 107.445 32.6758 104.633 32.6758ZM104.633 31.2695C106.461 31.2695 107.533 29.4238 107.533 26.1367C107.533 22.8496 106.461 20.9688 104.633 20.9688C102.805 20.9688 101.715 22.8496 101.715 26.1367C101.715 29.4238 102.787 31.2695 104.633 31.2695ZM115.355 32.6758C112.525 32.6758 110.908 30.3027 110.908 26.1367C110.908 22.0059 112.561 19.5977 115.355 19.5977C118.15 19.5977 119.803 22.0059 119.803 26.1367C119.803 30.3027 118.168 32.6758 115.355 32.6758ZM115.355 31.2695C117.184 31.2695 118.256 29.4238 118.256 26.1367C118.256 22.8496 117.184 20.9688 115.355 20.9688C113.527 20.9688 112.438 22.8496 112.438 26.1367C112.438 29.4238 113.51 31.2695 115.355 31.2695ZM134.234 18.3145V30.1797H132.846V28.5625H129.611V27.5605H132.846V18.3145H134.234ZM134.621 32.4297V33.5898H123.512V29.0195H124.9V32.4297H134.621ZM121.262 25.5566C124.18 25.5391 128.082 25.5215 131.439 25.0996L131.527 26.1016C130.13 26.3213 128.671 26.4619 127.238 26.541V29.6348H125.85V26.6113C124.268 26.6816 122.765 26.6904 121.455 26.6816L121.262 25.5566ZM126.395 18.9473C128.68 18.9473 130.244 20.0371 130.262 21.6719C130.244 23.3418 128.68 24.3789 126.395 24.3789C124.092 24.3789 122.527 23.3418 122.527 21.6719C122.527 20.0371 124.092 18.9473 126.395 18.9473ZM126.395 20.002C124.865 19.9844 123.828 20.6699 123.846 21.6719C123.828 22.6914 124.865 23.3594 126.395 23.3594C127.871 23.3594 128.926 22.6914 128.943 21.6719C128.926 20.6699 127.871 19.9844 126.395 20.002Z" fill="black"/>
</svg>
