<svg width="200" height="52" viewBox="0 0 200 52" fill="none" xmlns="http://www.w3.org/2000/svg">
<path d="M8 0.5H192C196.142 0.5 199.5 3.85787 199.5 8V44C199.5 48.1421 196.142 51.5 192 51.5H8C3.85787 51.5 0.5 48.1421 0.5 44V8C0.5 3.85786 3.85786 0.5 8 0.5Z" stroke="#BBBBBB"/>
<path d="M65.1953 19.7734V32.5H63.5957V21.4258H63.5254L60.4316 23.4824V21.8828L63.5957 19.7734H65.1953ZM72.7539 32.6758C69.9238 32.6758 68.3066 30.3027 68.3066 26.1367C68.3066 22.0059 69.959 19.5977 72.7539 19.5977C75.5488 19.5977 77.2012 22.0059 77.2012 26.1367C77.2012 30.3027 75.5664 32.6758 72.7539 32.6758ZM72.7539 31.2695C74.582 31.2695 75.6543 29.4238 75.6543 26.1367C75.6543 22.8496 74.582 20.9688 72.7539 20.9688C70.9258 20.9688 69.8359 22.8496 69.8359 26.1367C69.8359 29.4238 70.9082 31.2695 72.7539 31.2695ZM83.4766 32.6758C80.6465 32.6758 79.0293 30.3027 79.0293 26.1367C79.0293 22.0059 80.6816 19.5977 83.4766 19.5977C86.2715 19.5977 87.9238 22.0059 87.9238 26.1367C87.9238 30.3027 86.2891 32.6758 83.4766 32.6758ZM83.4766 31.2695C85.3047 31.2695 86.377 29.4238 86.377 26.1367C86.377 22.8496 85.3047 20.9688 83.4766 20.9688C81.6484 20.9688 80.5586 22.8496 80.5586 26.1367C80.5586 29.4238 81.6309 31.2695 83.4766 31.2695ZM91.5977 31.3223L90.2266 36.1035H88.9258L89.8926 31.3223H91.5977ZM97.9609 32.6758C95.1309 32.6758 93.5137 30.3027 93.5137 26.1367C93.5137 22.0059 95.166 19.5977 97.9609 19.5977C100.756 19.5977 102.408 22.0059 102.408 26.1367C102.408 30.3027 100.773 32.6758 97.9609 32.6758ZM97.9609 31.2695C99.7891 31.2695 100.861 29.4238 100.861 26.1367C100.861 22.8496 99.7891 20.9688 97.9609 20.9688C96.1328 20.9688 95.043 22.8496 95.043 26.1367C95.043 29.4238 96.1152 31.2695 97.9609 31.2695ZM108.684 32.6758C105.854 32.6758 104.236 30.3027 104.236 26.1367C104.236 22.0059 105.889 19.5977 108.684 19.5977C111.479 19.5977 113.131 22.0059 113.131 26.1367C113.131 30.3027 111.496 32.6758 108.684 32.6758ZM108.684 31.2695C110.512 31.2695 111.584 29.4238 111.584 26.1367C111.584 22.8496 110.512 20.9688 108.684 20.9688C106.855 20.9688 105.766 22.8496 105.766 26.1367C105.766 29.4238 106.838 31.2695 108.684 31.2695ZM119.406 32.6758C116.576 32.6758 114.959 30.3027 114.959 26.1367C114.959 22.0059 116.611 19.5977 119.406 19.5977C122.201 19.5977 123.854 22.0059 123.854 26.1367C123.854 30.3027 122.219 32.6758 119.406 32.6758ZM119.406 31.2695C121.234 31.2695 122.307 29.4238 122.307 26.1367C122.307 22.8496 121.234 20.9688 119.406 20.9688C117.578 20.9688 116.488 22.8496 116.488 26.1367C116.488 29.4238 117.561 31.2695 119.406 31.2695ZM138.285 18.3145V30.1797H136.896V28.5625H133.662V27.5605H136.896V18.3145H138.285ZM138.672 32.4297V33.5898H127.562V29.0195H128.951V32.4297H138.672ZM125.312 25.5566C128.23 25.5391 132.133 25.5215 135.49 25.0996L135.578 26.1016C134.181 26.3213 132.722 26.4619 131.289 26.541V29.6348H129.9V26.6113C128.318 26.6816 126.815 26.6904 125.506 26.6816L125.312 25.5566ZM130.445 18.9473C132.73 18.9473 134.295 20.0371 134.312 21.6719C134.295 23.3418 132.73 24.3789 130.445 24.3789C128.143 24.3789 126.578 23.3418 126.578 21.6719C126.578 20.0371 128.143 18.9473 130.445 18.9473ZM130.445 20.002C128.916 19.9844 127.879 20.6699 127.896 21.6719C127.879 22.6914 128.916 23.3594 130.445 23.3594C131.922 23.3594 132.977 22.6914 132.994 21.6719C132.977 20.6699 131.922 19.9844 130.445 20.002Z" fill="black"/>
</svg>
