<svg width="200" height="52" viewBox="0 0 200 52" fill="none" xmlns="http://www.w3.org/2000/svg">
<path d="M0 8C0 3.58172 3.58172 0 8 0H192C196.418 0 200 3.58172 200 8V44C200 48.4183 196.418 52 192 52H8C3.58173 52 0 48.4183 0 44V8Z" fill="#DB0007"/>
<path d="M82.0352 18.3145V29.7754H80.6641V18.3145H82.0352ZM82.5273 32.4297V33.5898H71.9453V28.7207H73.3164V32.4297H82.5273ZM74.6699 20.7578C74.6523 23.1309 76.2871 25.2754 78.6074 26.1191L77.8867 27.2266C76.0762 26.5322 74.6699 25.126 73.9844 23.3242C73.29 25.2402 71.8662 26.7783 70.0469 27.5078L69.291 26.4355C71.6641 25.5215 73.2637 23.2188 73.2637 20.7578V19.1934H74.6699V20.7578ZM98.9277 26.0312V27.1738H84.6895V26.0312H88.2227V23.834C86.9746 23.3506 86.2715 22.5508 86.2715 21.4961C86.2715 19.6504 88.3809 18.5957 91.8086 18.5957C95.2012 18.5957 97.3281 19.6504 97.3281 21.4961C97.3281 22.542 96.6338 23.3418 95.3945 23.8164V26.0312H98.9277ZM91.8086 28.3691C95.166 28.3691 97.1699 29.3359 97.1875 31.1289C97.1699 32.9043 95.166 33.8887 91.8086 33.8887C88.416 33.8887 86.4121 32.9043 86.4121 31.1289C86.4121 29.3359 88.416 28.3691 91.8086 28.3691ZM91.8086 29.4238C89.2949 29.4414 87.8008 30.0566 87.8184 31.1289C87.8008 32.1836 89.2949 32.8164 91.8086 32.8164C94.2871 32.8164 95.7988 32.1836 95.7988 31.1289C95.7988 30.0566 94.2871 29.4414 91.8086 29.4238ZM91.8086 19.6855C89.2598 19.6855 87.6777 20.3711 87.6953 21.4961C87.6777 22.6387 89.2598 23.3066 91.8086 23.3066C94.3398 23.3066 95.9219 22.6387 95.9219 21.4961C95.9219 20.3711 94.3398 19.6855 91.8086 19.6855ZM89.5938 26.0312H94.0234V24.2031C93.3643 24.3174 92.626 24.3789 91.8086 24.3789C90.9912 24.3789 90.2529 24.3174 89.5938 24.2031V26.0312ZM108.35 19.9316C108.332 24.4492 106.803 28.5801 101.178 31.3398L100.404 30.2852C103.349 28.8613 105.115 27.0508 106.064 24.9414L100.703 25.4512L100.475 24.2383L106.486 23.834C106.759 22.9551 106.917 22.0322 106.979 21.0742H101.266V19.9316H108.35ZM112.34 18.2969V24.6602H114.871V25.8203H112.34V33.9238H110.969V18.2969H112.34ZM128.424 25.8203V26.9629H117.631V19.7559H128.266V20.8984H119.002V25.8203H128.424ZM130.111 30.6367V31.7969H115.803V30.6367H130.111Z" fill="#FFFDE9"/>
</svg>
