<svg width="200" height="52" viewBox="0 0 200 52" fill="none" xmlns="http://www.w3.org/2000/svg">
<path d="M8 0.5H192C196.142 0.5 199.5 3.85787 199.5 8V44C199.5 48.1421 196.142 51.5 192 51.5H8C3.85787 51.5 0.5 48.1421 0.5 44V8C0.5 3.85786 3.85786 0.5 8 0.5Z" stroke="#BBBBBB"/>
<path d="M68.5898 32.6758C66.0586 32.6758 64.248 31.3223 64.1602 29.3008H65.7598C65.8477 30.5137 67.0605 31.2695 68.5723 31.2695C70.2422 31.2695 71.4727 30.3555 71.4727 29.0371C71.4727 27.6484 70.3652 26.6641 68.3789 26.6641H67.3418V25.2754H68.3789C69.9258 25.2754 70.998 24.4141 70.998 23.0957C70.998 21.8301 70.0664 20.9688 68.625 20.9688C67.2715 20.9688 66.0234 21.7246 65.9531 22.9727H64.4238C64.5117 20.9512 66.375 19.5977 68.6426 19.5977C71.0684 19.5977 72.5449 21.1797 72.5273 23.0078C72.5449 24.4492 71.7012 25.5215 70.3652 25.8906V25.9785C72.0176 26.2422 73.0371 27.4199 73.0195 29.0371C73.0371 31.1289 71.1211 32.6758 68.5898 32.6758ZM79.4707 32.6758C76.6406 32.6758 75.0234 30.3027 75.0234 26.1367C75.0234 22.0059 76.6758 19.5977 79.4707 19.5977C82.2656 19.5977 83.918 22.0059 83.918 26.1367C83.918 30.3027 82.2832 32.6758 79.4707 32.6758ZM79.4707 31.2695C81.2988 31.2695 82.3711 29.4238 82.3711 26.1367C82.3711 22.8496 81.2988 20.9688 79.4707 20.9688C77.6426 20.9688 76.5527 22.8496 76.5527 26.1367C76.5527 29.4238 77.625 31.2695 79.4707 31.2695ZM87.5918 31.3223L86.2207 36.1035H84.9199L85.8867 31.3223H87.5918ZM93.9551 32.6758C91.125 32.6758 89.5078 30.3027 89.5078 26.1367C89.5078 22.0059 91.1602 19.5977 93.9551 19.5977C96.75 19.5977 98.4023 22.0059 98.4023 26.1367C98.4023 30.3027 96.7676 32.6758 93.9551 32.6758ZM93.9551 31.2695C95.7832 31.2695 96.8555 29.4238 96.8555 26.1367C96.8555 22.8496 95.7832 20.9688 93.9551 20.9688C92.127 20.9688 91.0371 22.8496 91.0371 26.1367C91.0371 29.4238 92.1094 31.2695 93.9551 31.2695ZM104.678 32.6758C101.848 32.6758 100.23 30.3027 100.23 26.1367C100.23 22.0059 101.883 19.5977 104.678 19.5977C107.473 19.5977 109.125 22.0059 109.125 26.1367C109.125 30.3027 107.49 32.6758 104.678 32.6758ZM104.678 31.2695C106.506 31.2695 107.578 29.4238 107.578 26.1367C107.578 22.8496 106.506 20.9688 104.678 20.9688C102.85 20.9688 101.76 22.8496 101.76 26.1367C101.76 29.4238 102.832 31.2695 104.678 31.2695ZM115.4 32.6758C112.57 32.6758 110.953 30.3027 110.953 26.1367C110.953 22.0059 112.605 19.5977 115.4 19.5977C118.195 19.5977 119.848 22.0059 119.848 26.1367C119.848 30.3027 118.213 32.6758 115.4 32.6758ZM115.4 31.2695C117.229 31.2695 118.301 29.4238 118.301 26.1367C118.301 22.8496 117.229 20.9688 115.4 20.9688C113.572 20.9688 112.482 22.8496 112.482 26.1367C112.482 29.4238 113.555 31.2695 115.4 31.2695ZM134.279 18.3145V30.1797H132.891V28.5625H129.656V27.5605H132.891V18.3145H134.279ZM134.666 32.4297V33.5898H123.557V29.0195H124.945V32.4297H134.666ZM121.307 25.5566C124.225 25.5391 128.127 25.5215 131.484 25.0996L131.572 26.1016C130.175 26.3213 128.716 26.4619 127.283 26.541V29.6348H125.895V26.6113C124.312 26.6816 122.81 26.6904 121.5 26.6816L121.307 25.5566ZM126.439 18.9473C128.725 18.9473 130.289 20.0371 130.307 21.6719C130.289 23.3418 128.725 24.3789 126.439 24.3789C124.137 24.3789 122.572 23.3418 122.572 21.6719C122.572 20.0371 124.137 18.9473 126.439 18.9473ZM126.439 20.002C124.91 19.9844 123.873 20.6699 123.891 21.6719C123.873 22.6914 124.91 23.3594 126.439 23.3594C127.916 23.3594 128.971 22.6914 128.988 21.6719C128.971 20.6699 127.916 19.9844 126.439 20.002Z" fill="black"/>
</svg>
