<svg width="624" height="52" viewBox="0 0 624 52" fill="none" xmlns="http://www.w3.org/2000/svg">
<path d="M8 0.5H616C620.142 0.5 623.5 3.85787 623.5 8V44C623.5 48.1421 620.142 51.5 616 51.5H8C3.85787 51.5 0.5 48.1421 0.5 44V8C0.5 3.85786 3.85786 0.5 8 0.5Z" stroke="#BBBBBB"/>
<path d="M284.758 21.1973C284.758 23.3066 286.428 25.2227 288.766 25.9785L288.062 27.0508C286.243 26.4355 284.793 25.1436 284.09 23.4824C283.404 25.2666 281.937 26.6729 280.082 27.3496L279.361 26.2773C281.699 25.4512 283.369 23.4121 283.369 21.1973V20.5293H279.713V19.4043H288.361V20.5293H284.758V21.1973ZM292.035 18.2969V27.7539H290.664V18.2969H292.035ZM292.035 28.5801V33.9238H290.664V29.7227H281.523V28.5801H292.035ZM307.627 18.2969V26.7871H306.256V23.2539H303.092V22.0938H306.256V18.2969H307.627ZM298.961 27.543V29.4941H306.256V27.543H307.627V33.7129H297.572V27.543H298.961ZM298.961 32.5879H306.256V30.6016H298.961V32.5879ZM300.121 20.8457C300.121 22.8496 301.686 24.8184 303.971 25.6094L303.25 26.6816C301.483 26.04 300.121 24.7305 299.453 23.1133C298.776 24.9238 297.335 26.374 295.48 27.0508L294.76 25.9609C297.062 25.1348 298.732 23.0605 298.732 20.8457V20.3887H295.199V19.2461H303.619V20.3887H300.121V20.8457ZM327.666 18.2969V26.6816H326.295V18.2969H327.666ZM318.912 27.4727V29.3711H326.295V27.4727H327.666V33.7129H317.541V27.4727H318.912ZM318.912 32.5879H326.295V30.4785H318.912V32.5879ZM319.229 19.0703C321.602 19.0527 323.324 20.5117 323.324 22.6562C323.324 24.7832 321.602 26.2422 319.229 26.2422C316.855 26.2422 315.133 24.7832 315.133 22.6562C315.133 20.5117 316.855 19.0527 319.229 19.0703ZM319.229 20.2305C317.629 20.2129 316.469 21.2324 316.486 22.6562C316.469 24.0801 317.629 25.0996 319.229 25.0996C320.811 25.0996 321.971 24.0801 321.971 22.6562C321.971 21.2324 320.811 20.2129 319.229 20.2305ZM337.738 19.2637V23.6406H332.359V26.0664C335.295 26.0664 336.807 26.0225 338.652 25.6797L338.793 26.8223C336.842 27.1387 335.26 27.1914 332.096 27.1914H330.988V22.5859H336.367V20.3711H330.953V19.2637H337.738ZM343.275 18.3145V27.9121H341.887V25.0117H338.775V23.8691H341.887V21.7598H338.775V20.6348H341.887V18.3145H343.275ZM343.275 28.7559V33.959H341.887V29.8809H332.746V28.7559H343.275Z" fill="black"/>
</svg>
