<svg width="200" height="52" viewBox="0 0 200 52" fill="none" xmlns="http://www.w3.org/2000/svg">
<path d="M8 0.5H192C196.142 0.5 199.5 3.85787 199.5 8V44C199.5 48.1421 196.142 51.5 192 51.5H8C3.85787 51.5 0.5 48.1421 0.5 44V8C0.5 3.85786 3.85786 0.5 8 0.5Z" stroke="#BBBBBB"/>
<path d="M70.1953 19.7734V32.5H68.5957V21.4258H68.5254L65.4316 23.4824V21.8828L68.5957 19.7734H70.1953ZM77.7539 32.6758C74.9238 32.6758 73.3066 30.3027 73.3066 26.1367C73.3066 22.0059 74.959 19.5977 77.7539 19.5977C80.5488 19.5977 82.2012 22.0059 82.2012 26.1367C82.2012 30.3027 80.5664 32.6758 77.7539 32.6758ZM77.7539 31.2695C79.582 31.2695 80.6543 29.4238 80.6543 26.1367C80.6543 22.8496 79.582 20.9688 77.7539 20.9688C75.9258 20.9688 74.8359 22.8496 74.8359 26.1367C74.8359 29.4238 75.9082 31.2695 77.7539 31.2695ZM85.875 31.3223L84.5039 36.1035H83.2031L84.1699 31.3223H85.875ZM92.2383 32.6758C89.4082 32.6758 87.791 30.3027 87.791 26.1367C87.791 22.0059 89.4434 19.5977 92.2383 19.5977C95.0332 19.5977 96.6855 22.0059 96.6855 26.1367C96.6855 30.3027 95.0508 32.6758 92.2383 32.6758ZM92.2383 31.2695C94.0664 31.2695 95.1387 29.4238 95.1387 26.1367C95.1387 22.8496 94.0664 20.9688 92.2383 20.9688C90.4102 20.9688 89.3203 22.8496 89.3203 26.1367C89.3203 29.4238 90.3926 31.2695 92.2383 31.2695ZM102.961 32.6758C100.131 32.6758 98.5137 30.3027 98.5137 26.1367C98.5137 22.0059 100.166 19.5977 102.961 19.5977C105.756 19.5977 107.408 22.0059 107.408 26.1367C107.408 30.3027 105.773 32.6758 102.961 32.6758ZM102.961 31.2695C104.789 31.2695 105.861 29.4238 105.861 26.1367C105.861 22.8496 104.789 20.9688 102.961 20.9688C101.133 20.9688 100.043 22.8496 100.043 26.1367C100.043 29.4238 101.115 31.2695 102.961 31.2695ZM113.684 32.6758C110.854 32.6758 109.236 30.3027 109.236 26.1367C109.236 22.0059 110.889 19.5977 113.684 19.5977C116.479 19.5977 118.131 22.0059 118.131 26.1367C118.131 30.3027 116.496 32.6758 113.684 32.6758ZM113.684 31.2695C115.512 31.2695 116.584 29.4238 116.584 26.1367C116.584 22.8496 115.512 20.9688 113.684 20.9688C111.855 20.9688 110.766 22.8496 110.766 26.1367C110.766 29.4238 111.838 31.2695 113.684 31.2695ZM132.562 18.3145V30.1797H131.174V28.5625H127.939V27.5605H131.174V18.3145H132.562ZM132.949 32.4297V33.5898H121.84V29.0195H123.229V32.4297H132.949ZM119.59 25.5566C122.508 25.5391 126.41 25.5215 129.768 25.0996L129.855 26.1016C128.458 26.3213 126.999 26.4619 125.566 26.541V29.6348H124.178V26.6113C122.596 26.6816 121.093 26.6904 119.783 26.6816L119.59 25.5566ZM124.723 18.9473C127.008 18.9473 128.572 20.0371 128.59 21.6719C128.572 23.3418 127.008 24.3789 124.723 24.3789C122.42 24.3789 120.855 23.3418 120.855 21.6719C120.855 20.0371 122.42 18.9473 124.723 18.9473ZM124.723 20.002C123.193 19.9844 122.156 20.6699 122.174 21.6719C122.156 22.6914 123.193 23.3594 124.723 23.3594C126.199 23.3594 127.254 22.6914 127.271 21.6719C127.254 20.6699 126.199 19.9844 124.723 20.002Z" fill="black"/>
</svg>
