<svg width="200" height="52" viewBox="0 0 200 52" fill="none" xmlns="http://www.w3.org/2000/svg">
<path d="M8 0.5H192C196.142 0.5 199.5 3.85787 199.5 8V44C199.5 48.1421 196.142 51.5 192 51.5H8C3.85787 51.5 0.5 48.1421 0.5 44V8C0.5 3.85786 3.85786 0.5 8 0.5Z" stroke="#BBBBBB"/>
<path d="M65.5996 32.5L71.4355 21.2676V21.1797H64.7031V19.7734H73.0703V21.25L67.252 32.5H65.5996ZM79.0293 32.6758C76.1992 32.6758 74.582 30.3027 74.582 26.1367C74.582 22.0059 76.2344 19.5977 79.0293 19.5977C81.8242 19.5977 83.4766 22.0059 83.4766 26.1367C83.4766 30.3027 81.8418 32.6758 79.0293 32.6758ZM79.0293 31.2695C80.8574 31.2695 81.9297 29.4238 81.9297 26.1367C81.9297 22.8496 80.8574 20.9688 79.0293 20.9688C77.2012 20.9688 76.1113 22.8496 76.1113 26.1367C76.1113 29.4238 77.1836 31.2695 79.0293 31.2695ZM87.1504 31.3223L85.7793 36.1035H84.4785L85.4453 31.3223H87.1504ZM93.5137 32.6758C90.6836 32.6758 89.0664 30.3027 89.0664 26.1367C89.0664 22.0059 90.7188 19.5977 93.5137 19.5977C96.3086 19.5977 97.9609 22.0059 97.9609 26.1367C97.9609 30.3027 96.3262 32.6758 93.5137 32.6758ZM93.5137 31.2695C95.3418 31.2695 96.4141 29.4238 96.4141 26.1367C96.4141 22.8496 95.3418 20.9688 93.5137 20.9688C91.6855 20.9688 90.5957 22.8496 90.5957 26.1367C90.5957 29.4238 91.668 31.2695 93.5137 31.2695ZM104.236 32.6758C101.406 32.6758 99.7891 30.3027 99.7891 26.1367C99.7891 22.0059 101.441 19.5977 104.236 19.5977C107.031 19.5977 108.684 22.0059 108.684 26.1367C108.684 30.3027 107.049 32.6758 104.236 32.6758ZM104.236 31.2695C106.064 31.2695 107.137 29.4238 107.137 26.1367C107.137 22.8496 106.064 20.9688 104.236 20.9688C102.408 20.9688 101.318 22.8496 101.318 26.1367C101.318 29.4238 102.391 31.2695 104.236 31.2695ZM114.959 32.6758C112.129 32.6758 110.512 30.3027 110.512 26.1367C110.512 22.0059 112.164 19.5977 114.959 19.5977C117.754 19.5977 119.406 22.0059 119.406 26.1367C119.406 30.3027 117.771 32.6758 114.959 32.6758ZM114.959 31.2695C116.787 31.2695 117.859 29.4238 117.859 26.1367C117.859 22.8496 116.787 20.9688 114.959 20.9688C113.131 20.9688 112.041 22.8496 112.041 26.1367C112.041 29.4238 113.113 31.2695 114.959 31.2695ZM133.838 18.3145V30.1797H132.449V28.5625H129.215V27.5605H132.449V18.3145H133.838ZM134.225 32.4297V33.5898H123.115V29.0195H124.504V32.4297H134.225ZM120.865 25.5566C123.783 25.5391 127.686 25.5215 131.043 25.0996L131.131 26.1016C129.733 26.3213 128.274 26.4619 126.842 26.541V29.6348H125.453V26.6113C123.871 26.6816 122.368 26.6904 121.059 26.6816L120.865 25.5566ZM125.998 18.9473C128.283 18.9473 129.848 20.0371 129.865 21.6719C129.848 23.3418 128.283 24.3789 125.998 24.3789C123.695 24.3789 122.131 23.3418 122.131 21.6719C122.131 20.0371 123.695 18.9473 125.998 18.9473ZM125.998 20.002C124.469 19.9844 123.432 20.6699 123.449 21.6719C123.432 22.6914 124.469 23.3594 125.998 23.3594C127.475 23.3594 128.529 22.6914 128.547 21.6719C128.529 20.6699 127.475 19.9844 125.998 20.002Z" fill="black"/>
</svg>
