<svg width="1600" height="2381" viewBox="0 0 1600 2381" fill="none" xmlns="http://www.w3.org/2000/svg">
<rect width="1600" height="2381" rx="100" fill="#D0C9FF"/>
<path d="M549.023 1101.67V1127.3H345.654V1101.67H431.348V1068.22H369.092V993.514H494.824V969.1H368.848V944.197H525.586V1017.93H400.342V1042.83H530.713V1068.22H462.354V1101.67H549.023ZM739.453 950.301V976.912C739.453 1007.43 739.453 1037.7 731.396 1083.6L699.902 1080.92C708.203 1038.19 708.203 1006.45 708.447 976.912V975.203H582.715V950.301H739.453ZM764.355 1097.27V1122.91H561.719V1097.27H764.355ZM963.818 930.037V1089.71H932.568V930.037H963.818ZM969.678 1123.15V1148.05H814.893V1073.59H846.387V1123.15H969.678ZM841.992 944.197C876.172 944.197 902.783 967.635 902.783 1000.11C902.783 1033.31 876.172 1056.5 841.992 1056.5C807.812 1056.5 781.201 1033.31 781.201 1000.11C781.201 967.635 807.812 944.197 841.992 944.197ZM841.992 971.297C824.658 971.053 811.475 982.039 811.719 1000.11C811.475 1018.66 824.658 1029.4 841.992 1029.4C858.838 1029.4 872.021 1018.66 872.021 1000.11C872.021 982.039 858.838 971.053 841.992 971.297ZM1243.6 952.742V977.889H1061.23V952.742H1137.16V929.549H1168.16V952.742H1243.6ZM1254.83 1073.35V1098.74H1168.16V1152.21H1137.16V1098.74H1051.46V1073.35H1254.83ZM1152.78 986.434C1200.39 986.434 1229.2 999.861 1229.44 1024.52C1229.2 1049.18 1200.39 1062.61 1152.78 1062.61C1104.69 1062.61 1075.88 1049.18 1076.12 1024.52C1075.88 999.861 1104.69 986.434 1152.78 986.434ZM1152.78 1009.38C1123 1009.63 1108.35 1014.27 1108.35 1024.52C1108.35 1034.53 1123 1039.41 1152.78 1039.41C1182.08 1039.41 1196.97 1034.53 1196.97 1024.52C1196.97 1014.27 1182.08 1009.63 1152.78 1009.38ZM777.295 1229.79V1451.96H745.801V1229.79H777.295ZM710.645 1252.99C710.645 1320.37 686.963 1376.28 607.617 1413.88L591.26 1388.97C648.633 1361.87 673.901 1326.72 678.906 1277.4H603.223V1252.99H710.645ZM1009.72 1357.97V1382.38H922.803V1451.96H892.041V1382.38H806.348V1357.97H1009.72ZM861.035 1238.34V1263.97H954.297V1238.34H985.547V1336.48H830.273V1238.34H861.035ZM861.035 1311.58H954.297V1288.39H861.035V1311.58Z" fill="#33363D"/>
</svg>
