<svg width="1600" height="8336" viewBox="0 0 1600 8336" fill="none" xmlns="http://www.w3.org/2000/svg">
<rect width="1600" height="8336" rx="100" fill="#D0C9FF"/>
<path d="M793.896 4227.95V4252.85H590.527V4227.95H675.488V4177.65H706.494V4227.95H793.896ZM707.471 4085.86C707.471 4117.6 736.035 4151.04 786.816 4158.86L773.633 4184.73C734.57 4177.65 705.518 4156.78 690.869 4129.07C676.221 4156.66 647.412 4177.78 608.594 4184.73L595.41 4158.86C645.703 4151.04 674.023 4117.35 674.268 4085.86V4069.99H707.471V4085.86ZM998.242 4057.29V4279.46H968.213V4166.42H947.949V4269.7H918.896V4063.15H947.949V4141.52H968.213V4057.29H998.242ZM903.271 4084.64C903.027 4146.65 884.473 4197.43 821.973 4233.81L803.906 4212.32C849.194 4185.71 868.604 4153.12 872.998 4109.54H815.137V4084.64H903.271Z" fill="#33363D"/>
</svg>
