<svg width="1600" height="12359" viewBox="0 0 1600 12359" fill="none" xmlns="http://www.w3.org/2000/svg">
<rect width="1600" height="12359" rx="100" fill="#D0C9FF"/>
<path d="M685.254 6091.74V6149.6H707.471V6071.97H736.768V6280.71H707.471V6174.51H685.254V6235.05H596.875V6091.74H685.254ZM625.928 6116.4V6210.64H656.201V6116.4H625.928ZM783.154 6068.79V6290.96H753.369V6068.79H783.154ZM992.627 6069.04V6228.71H961.377V6069.04H992.627ZM998.486 6262.15V6287.05H843.701V6212.59H875.195V6262.15H998.486ZM870.801 6083.2C904.98 6083.2 931.592 6106.63 931.592 6139.11C931.592 6172.31 904.98 6195.5 870.801 6195.5C836.621 6195.5 810.01 6172.31 810.01 6139.11C810.01 6106.63 836.621 6083.2 870.801 6083.2ZM870.801 6110.3C853.467 6110.05 840.283 6121.04 840.527 6139.11C840.283 6157.66 853.467 6168.4 870.801 6168.4C887.646 6168.4 900.83 6157.66 900.83 6139.11C900.83 6121.04 887.646 6110.05 870.801 6110.3Z" fill="#33363D"/>
</svg>
