<svg width="1600" height="6565" viewBox="0 0 1600 6565" fill="none" xmlns="http://www.w3.org/2000/svg">
<rect width="1600" height="6565" rx="100" fill="#D0C9FF"/>
<path d="M685.864 3343.67V3369.3H482.495V3343.67H568.188V3310.22H505.933V3235.51H631.665V3211.1H505.688V3186.2H662.427V3259.93H537.183V3284.83H667.554V3310.22H599.194V3343.67H685.864ZM876.294 3192.3V3218.91C876.294 3249.43 876.294 3279.7 868.237 3325.6L836.743 3322.92C845.044 3280.19 845.044 3248.45 845.288 3218.91V3217.2H719.556V3192.3H876.294ZM901.196 3339.27V3364.91H698.56V3339.27H901.196ZM1100.66 3172.04V3331.71H1069.41V3172.04H1100.66ZM1106.52 3365.15V3390.05H951.733V3315.59H983.228V3365.15H1106.52ZM978.833 3186.2C1013.01 3186.2 1039.62 3209.63 1039.62 3242.11C1039.62 3275.31 1013.01 3298.5 978.833 3298.5C944.653 3298.5 918.042 3275.31 918.042 3242.11C918.042 3209.63 944.653 3186.2 978.833 3186.2ZM978.833 3213.3C961.499 3213.05 948.315 3224.04 948.56 3242.11C948.315 3260.66 961.499 3271.4 978.833 3271.4C995.679 3271.4 1008.86 3260.66 1008.86 3242.11C1008.86 3224.04 995.679 3213.05 978.833 3213.3Z" fill="#33363D"/>
</svg>
