<svg width="1600" height="3354" viewBox="0 0 1600 3354" fill="none" xmlns="http://www.w3.org/2000/svg">
<rect width="1600" height="3354" rx="100" fill="#D0C9FF"/>
<path d="M793.896 1736.95V1761.85H590.527V1736.95H675.488V1686.65H706.494V1736.95H793.896ZM707.471 1594.86C707.471 1626.6 736.035 1660.04 786.816 1667.86L773.633 1693.73C734.57 1686.65 705.518 1665.78 690.869 1638.07C676.221 1665.66 647.412 1686.78 608.594 1693.73L595.41 1667.86C645.703 1660.04 674.023 1626.35 674.268 1594.86V1578.99H707.471V1594.86ZM891.797 1597.79C891.553 1625.62 907.422 1652.47 944.043 1663.46L928.418 1687.88C903.149 1679.82 885.693 1664.07 875.684 1643.69C865.674 1665.66 847.607 1682.87 821.484 1691.29L805.859 1666.88C842.969 1654.92 859.326 1626.11 859.326 1597.79V1576.55H891.797V1597.79ZM992.627 1708.38V1788.46H961.377V1733.29H839.795V1708.38H992.627ZM992.627 1566.29V1698.86H961.377V1566.29H992.627Z" fill="#33363D"/>
</svg>
