<svg width="1600" height="6296" viewBox="0 0 1600 6296" fill="none" xmlns="http://www.w3.org/2000/svg">
<rect width="1600" height="6296" rx="100" fill="#D0C9FF"/>
<path d="M775.83 3047.55V3072.45H746.533V3122.99H773.877V3147.4H610.059V3122.99H637.646V3072.45H608.838V3047.55H775.83ZM793.652 3166.2V3191.59H707.227V3259.22H676.221V3191.59H590.283V3166.2H793.652ZM668.896 3122.99H715.771V3072.45H668.896V3122.99ZM994.092 3037.29V3259.95H963.33V3140.81H924.268V3115.66H963.33V3037.29H994.092ZM920.605 3055.85V3080.99H847.852V3117.86H912.549V3142.27H847.852V3184.27C878.613 3184.02 903.271 3182.92 930.859 3178.65L934.033 3203.55C901.562 3208.44 872.51 3209.66 834.424 3209.66H816.846V3055.85H920.605Z" fill="#33363D"/>
</svg>
