<svg width="1600" height="12904" viewBox="0 0 1600 12904" fill="none" xmlns="http://www.w3.org/2000/svg">
<rect width="1600" height="12904" rx="100" fill="#D0C9FF"/>
<path d="M412.915 6341.29V6428.21H445.63V6453.84H412.915V6563.46H382.153V6341.29H412.915ZM367.017 6374.5V6399.4H236.401V6374.5H286.694V6344.71H317.944V6374.5H367.017ZM302.319 6411.85C334.79 6411.85 358.96 6433.82 358.96 6464.83C358.96 6495.83 334.79 6517.81 302.319 6517.81C269.604 6517.81 245.435 6495.83 245.435 6464.83C245.435 6433.82 269.604 6411.85 302.319 6411.85ZM302.319 6437C286.694 6437.24 275.22 6447.74 275.22 6464.83C275.22 6482.16 286.694 6492.42 302.319 6492.17C317.944 6492.42 329.175 6482.16 329.175 6464.83C329.175 6447.74 317.944 6437.24 302.319 6437ZM656.812 6465.56V6490.95H569.897V6563.71H539.136V6490.95H453.442V6465.56H656.812ZM554.517 6348.62C602.124 6348.62 635.571 6368.39 635.571 6399.15C635.571 6429.43 602.124 6448.71 554.517 6448.71C506.909 6448.71 473.706 6429.43 473.95 6399.15C473.706 6368.39 506.909 6348.62 554.517 6348.62ZM554.517 6373.52C524.731 6373.52 505.688 6382.8 505.933 6399.15C505.688 6415.02 524.731 6424.06 554.517 6424.06C584.546 6424.06 603.345 6415.02 603.345 6399.15C603.345 6382.8 584.546 6373.52 554.517 6373.52ZM786.694 6370.59C786.694 6403.06 815.503 6437.97 865.796 6446.52L852.124 6472.4C813.428 6464.71 784.619 6442.98 770.337 6414.29C755.566 6442.73 726.758 6464.58 688.306 6472.4L674.878 6446.52C724.194 6437.73 753.247 6402.82 753.491 6370.59V6354.48H786.694V6370.59ZM873.12 6510.48V6536.12H669.751V6510.48H873.12ZM1070.14 6362.78V6387.44H1025.22C1025.71 6409.29 1041.82 6431.75 1077.22 6440.66L1063.55 6464.58C1037.92 6458.11 1020.09 6444.2 1010.08 6426.5C1000.2 6446.03 982.373 6461.53 956.372 6468.73L941.724 6444.08C977.124 6434.92 993.726 6411.48 994.214 6387.44H949.536V6362.78H994.214V6340.32H1025.71V6362.78H1070.14ZM1119.7 6341.29V6391.1H1149.73V6416.73H1119.7V6468H1088.45V6341.29H1119.7ZM1122.39 6477.52V6501.94H1065.99C1071.61 6518.29 1093.46 6534.16 1132.15 6539.29L1121.17 6562.97C1085.4 6558.21 1060.25 6543.93 1047.44 6524.89C1034.74 6543.81 1009.72 6557.72 974.438 6562.48L963.208 6538.8C1002.27 6534.04 1023.88 6518.66 1029.61 6501.94H972.729V6477.52H1122.39ZM1346.26 6341.29V6563.46H1314.77V6341.29H1346.26ZM1279.61 6364.49C1279.61 6431.87 1255.93 6487.78 1176.59 6525.38L1160.23 6500.47C1217.6 6473.37 1242.87 6438.22 1247.88 6388.9H1172.19V6364.49H1279.61Z" fill="#33363D"/>
</svg>
