<svg width="1600" height="6406" viewBox="0 0 1600 6406" fill="none" xmlns="http://www.w3.org/2000/svg">
<rect width="1600" height="6406" rx="100" fill="#8EE7F8"/>
<path d="M549.023 3264.17V3289.8H345.654V3264.17H431.348V3230.72H369.092V3156.01H494.824V3131.6H368.848V3106.7H525.586V3180.43H400.342V3205.33H530.713V3230.72H462.354V3264.17H549.023ZM739.453 3112.8V3139.41C739.453 3169.93 739.453 3200.2 731.396 3246.1L699.902 3243.42C708.203 3200.69 708.203 3168.95 708.447 3139.41V3137.7H582.715V3112.8H739.453ZM764.355 3259.77V3285.41H561.719V3259.77H764.355ZM963.818 3092.54V3252.21H932.568V3092.54H963.818ZM969.678 3285.65V3310.55H814.893V3236.09H846.387V3285.65H969.678ZM841.992 3106.7C876.172 3106.7 902.783 3130.13 902.783 3162.61C902.783 3195.81 876.172 3219 841.992 3219C807.812 3219 781.201 3195.81 781.201 3162.61C781.201 3130.13 807.812 3106.7 841.992 3106.7ZM841.992 3133.8C824.658 3133.55 811.475 3144.54 811.719 3162.61C811.475 3181.16 824.658 3191.9 841.992 3191.9C858.838 3191.9 872.021 3181.16 872.021 3162.61C872.021 3144.54 858.838 3133.55 841.992 3133.8ZM1238.72 3092.54V3254.65H1207.71V3175.06H1171.34V3149.91H1207.71V3092.54H1238.72ZM1244.09 3285.65V3310.55H1091.26V3240.49H1122.51V3285.65H1244.09ZM1135.45 3135.99C1135.45 3161.63 1151.07 3189.22 1186.47 3200.69L1171.09 3225.35C1146.44 3217.42 1129.59 3201.18 1119.82 3180.92C1110.06 3203.38 1092.36 3221.2 1066.11 3229.99L1050.24 3204.6C1086.87 3193.12 1103.47 3164.07 1103.71 3135.75V3132.33H1059.03V3107.43H1179.64V3132.33H1135.45V3135.99Z" fill="#33363D"/>
</svg>
