<svg width="1600" height="6598" viewBox="0 0 1600 6598" fill="none" xmlns="http://www.w3.org/2000/svg">
<rect width="1600" height="6598" rx="100" fill="#8EE7F8"/>
<path d="M632.642 2738.29V2960.95H601.147V2738.29H632.642ZM488.843 2755.87V2810.07H536.694V2755.87H567.456V2908.95H457.593V2755.87H488.843ZM488.843 2883.8H536.694V2834.24H488.843V2883.8ZM849.438 2738.29V2960.46H818.433V2738.29H849.438ZM663.647 2897.72C680.615 2897.59 700.024 2897.59 720.288 2896.98V2878.19C695.874 2873.91 680.005 2858.78 680.249 2837.9C680.005 2813 702.71 2796.15 735.425 2796.15C768.384 2796.15 791.333 2813 791.333 2837.9C791.333 2858.65 775.464 2873.79 751.05 2878.19V2896.01C769.604 2895.15 788.403 2893.69 806.226 2891.37L808.423 2914.32C759.839 2922.62 707.349 2923.11 667.798 2923.11L663.647 2897.72ZM803.052 2762.95V2787.37H668.042V2762.95H720.288V2739.27H751.294V2762.95H803.052ZM735.425 2819.84C720.288 2819.84 709.546 2826.43 709.79 2837.9C709.546 2849.62 720.288 2855.97 735.425 2855.97C751.05 2855.97 761.548 2849.62 761.548 2837.9C761.548 2826.43 751.05 2819.84 735.425 2819.84ZM1066.97 2738.54V2906.26H1035.72V2888.68H993.237V2867.44H1035.72V2738.54H1066.97ZM1071.85 2931.65V2956.55H906.323V2890.15H937.329V2860.61C917.432 2861.46 898.511 2861.58 881.665 2861.58L878.003 2836.93C918.774 2836.68 973.706 2836.19 1020.58 2830.33L1022.29 2852.55C1004.71 2855.48 986.523 2857.56 968.579 2858.9V2901.13H937.329V2931.65H1071.85ZM950.269 2746.11C982.495 2745.86 1005.69 2762.22 1005.69 2785.9C1005.69 2809.58 982.495 2824.96 950.269 2824.96C917.31 2824.96 894.36 2809.58 894.36 2785.9C894.36 2762.22 917.065 2745.86 950.269 2746.11ZM950.269 2768.81C934.399 2768.81 923.657 2774.91 923.901 2785.9C923.657 2796.64 934.399 2802.5 950.269 2802.5C965.161 2802.5 975.903 2796.64 976.147 2785.9C975.903 2774.91 965.161 2768.81 950.269 2768.81ZM1141.67 2919.93L1120.68 2989.51H1094.8L1107.01 2919.93H1141.67ZM531.689 3038.29V3260.95H500.195V3038.29H531.689ZM387.891 3055.87V3110.07H435.742V3055.87H466.504V3208.95H356.641V3055.87H387.891ZM387.891 3183.8H435.742V3134.24H387.891V3183.8ZM822.705 3210.17V3235.8H619.336V3210.17H705.029V3176.72H642.773V3102.01H768.506V3077.6H642.529V3052.7H799.268V3126.43H674.023V3151.33H804.395V3176.72H736.035V3210.17H822.705ZM1013.13 3058.8V3085.41C1013.13 3115.93 1013.13 3146.2 1005.08 3192.1L973.584 3189.42C981.885 3146.69 981.885 3114.95 982.129 3085.41V3083.7H856.396V3058.8H1013.13ZM1038.04 3205.77V3231.41H835.4V3205.77H1038.04ZM1237.5 3038.54V3198.21H1206.25V3038.54H1237.5ZM1243.36 3231.65V3256.55H1088.57V3182.09H1120.07V3231.65H1243.36ZM1115.67 3052.7C1149.85 3052.7 1176.46 3076.13 1176.46 3108.61C1176.46 3141.81 1149.85 3165 1115.67 3165C1081.49 3165 1054.88 3141.81 1054.88 3108.61C1054.88 3076.13 1081.49 3052.7 1115.67 3052.7ZM1115.67 3079.8C1098.34 3079.55 1085.16 3090.54 1085.4 3108.61C1085.16 3127.16 1098.34 3137.9 1115.67 3137.9C1132.52 3137.9 1145.7 3127.16 1145.7 3108.61C1145.7 3090.54 1132.52 3079.55 1115.67 3079.8ZM316.357 3638.29V3860.46H284.863V3638.29H316.357ZM249.707 3661.49C249.707 3728.87 226.025 3784.78 146.68 3822.38L130.322 3797.47C187.695 3770.37 212.964 3735.22 217.969 3685.9H142.285V3661.49H249.707ZM548.779 3766.47V3790.88H461.865V3860.46H431.104V3790.88H345.41V3766.47H548.779ZM400.098 3646.84V3672.47H493.359V3646.84H524.609V3744.98H369.336V3646.84H400.098ZM400.098 3720.08H493.359V3696.89H400.098V3720.08ZM740.918 3648.3V3666.12C740.918 3683.46 740.918 3702.75 735.791 3728.14H765.088V3753.28H561.719V3728.14H704.297C709.18 3705.92 709.79 3688.71 709.912 3673.21H586.621V3648.3H740.918ZM740.186 3776.72V3858.02H585.889V3776.72H740.186ZM616.406 3801.13V3833.12H709.18V3801.13H616.406ZM897.412 3650.26C915.112 3650.26 930.615 3656.73 941.357 3667.59H991.65V3638.29H1022.66V3768.42H991.65V3741.81H941.113C930.371 3752.55 914.99 3759.02 897.412 3758.9C863.721 3759.14 838.086 3735.95 838.33 3704.7C838.086 3672.96 863.721 3650.26 897.412 3650.26ZM897.412 3676.87C880.078 3676.87 867.627 3687.12 867.871 3704.7C867.627 3721.79 880.078 3732.78 897.412 3732.53C914.258 3732.78 926.465 3721.79 926.465 3704.7C926.465 3687.12 914.258 3676.87 897.412 3676.87ZM946.729 3773.06C993.848 3773.06 1023.14 3789.17 1023.39 3816.76C1023.14 3844.35 993.848 3860.46 946.729 3860.46C899.854 3860.46 870.312 3844.35 870.312 3816.76C870.312 3789.17 899.854 3773.06 946.729 3773.06ZM946.729 3796.74C917.188 3796.74 900.83 3803.33 900.83 3816.76C900.83 3829.7 917.188 3836.29 946.729 3836.29C976.758 3836.29 992.871 3829.7 992.871 3816.76C992.871 3803.33 976.758 3796.74 946.729 3796.74ZM954.785 3692.25C955.518 3696.15 956.006 3700.43 956.006 3704.7C956.006 3708.97 955.518 3713 954.785 3716.91H991.65V3692.25H954.785ZM1169.38 3655.63C1169.38 3681.75 1196 3710.8 1247.02 3717.15L1234.81 3742.3C1196 3736.68 1167.55 3718.74 1153.03 3694.69C1138.38 3718.74 1110.18 3736.68 1071.73 3742.3L1059.28 3717.15C1109.81 3710.8 1136.67 3681.75 1136.67 3655.63V3644.88H1169.38V3655.63ZM1254.1 3759.14V3784.53H1167.68V3860.46H1136.91V3784.53H1051.46V3759.14H1254.1ZM1470.17 3740.59V3765.73H1267.53V3740.59H1470.17ZM1368.6 3778.19C1416.7 3778.19 1445.75 3793.32 1446 3819.45C1445.75 3845.81 1416.7 3860.46 1368.6 3860.46C1320.02 3860.46 1290.72 3845.81 1290.72 3819.45C1290.72 3793.32 1320.02 3778.19 1368.6 3778.19ZM1368.6 3802.36C1337.84 3802.36 1322.22 3807.73 1322.46 3819.45C1322.22 3830.92 1337.84 3836.29 1368.6 3836.29C1398.63 3836.29 1414.5 3830.92 1414.75 3819.45C1414.5 3807.73 1398.63 3802.36 1368.6 3802.36ZM1451.86 3648.55V3673.45H1391.31C1396.31 3688.95 1418.9 3704.33 1461.62 3708.12L1450.63 3732.53C1408.76 3728.5 1380.44 3712.63 1368.6 3691.03C1356.88 3712.63 1329.05 3728.5 1286.82 3732.53L1276.56 3708.12C1318.31 3704.33 1341.14 3689.07 1346.39 3673.45H1286.08V3648.55H1451.86Z" fill="#33363D"/>
</svg>
