<svg width="1600" height="1679" viewBox="0 0 1600 1679" fill="none" xmlns="http://www.w3.org/2000/svg">
<rect width="1600" height="1679" rx="100" fill="#D0C9FF"/>
<path d="M690.625 867.221C739.209 867.221 769.727 882.602 769.971 909.213C769.727 935.336 739.209 950.961 690.625 950.961C642.529 950.961 611.523 935.336 611.523 909.213C611.523 882.602 642.529 867.221 690.625 867.221ZM690.625 890.414C660.107 890.414 642.529 896.762 642.529 909.213C642.529 921.176 660.107 927.279 690.625 927.279C721.143 927.279 738.965 921.176 738.965 909.213C738.965 896.762 721.143 890.414 690.625 890.414ZM768.75 738.803V756.869C768.75 774.447 768.75 793.49 762.402 816.439L731.885 813.51C736.768 793.368 737.378 778.354 737.744 763.217H613.721V738.803H768.75ZM792.676 827.914V853.061H591.016V827.914H666.699V789.096H697.461V827.914H792.676ZM1009.23 843.295V867.709H806.104V843.295H892.041V829.623H831.494V734.164H985.547V758.09H862.744V770.541H980.42V793.002H862.744V805.697H987.5V829.623H923.291V843.295H1009.23ZM907.666 877.963C956.738 877.719 984.814 890.902 985.059 914.34C984.814 938.266 956.738 950.961 907.666 950.961C857.861 950.961 829.785 938.266 829.785 914.34C829.785 890.902 857.861 877.719 907.666 877.963ZM907.666 900.912C875.684 900.912 860.791 905.062 861.035 914.34C860.791 923.861 875.684 928.012 907.666 928.012C938.916 928.012 953.564 923.861 953.809 914.34C953.564 905.062 938.916 900.912 907.666 900.912Z" fill="#33363D"/>
</svg>
