<svg width="1600" height="2729" viewBox="0 0 1600 2729" fill="none" xmlns="http://www.w3.org/2000/svg">
<rect width="1600" height="2729" rx="100" fill="#D0C9FF"/>
<path d="M581.128 1267.71C581.128 1325.08 557.446 1365.37 496.167 1390.51L481.274 1368.05C506.909 1358.16 524.243 1345.83 535.229 1330.94L487.378 1336.31L483.716 1311.65L546.704 1308.48C548.169 1303.48 549.268 1298.35 550.122 1292.86H492.993V1267.71H581.128ZM673.413 1254.04V1384.16H643.872V1330.94H623.853V1382.21H594.556V1257.94H623.853V1305.55H643.872V1254.04H673.413ZM673.413 1392.22V1473.52H521.802V1392.22H673.413ZM552.563 1417.12V1448.62H642.896V1417.12H552.563ZM892.896 1253.79V1475.96H862.866V1253.79H892.896ZM847.974 1258.19V1465.46H818.433V1362.44H796.948V1334.6H818.433V1258.19H847.974ZM802.075 1278.94V1304.09H787.915V1396.37C794.141 1395.88 800.122 1395.27 805.737 1394.42L807.935 1416.88C772.778 1424.45 727.368 1425.18 699.536 1425.18L696.118 1399.54H714.673V1304.09H700.269V1278.94H802.075ZM742.261 1399.06L759.595 1398.32V1304.09H742.261V1399.06ZM1100.66 1254.04V1413.71H1069.41V1254.04H1100.66ZM1106.52 1447.15V1472.05H951.733V1397.59H983.228V1447.15H1106.52ZM978.833 1268.2C1013.01 1268.2 1039.62 1291.63 1039.62 1324.11C1039.62 1357.31 1013.01 1380.5 978.833 1380.5C944.653 1380.5 918.042 1357.31 918.042 1324.11C918.042 1291.63 944.653 1268.2 978.833 1268.2ZM978.833 1295.3C961.499 1295.05 948.315 1306.04 948.56 1324.11C948.315 1342.66 961.499 1353.4 978.833 1353.4C995.679 1353.4 1008.86 1342.66 1008.86 1324.11C1008.86 1306.04 995.679 1295.05 978.833 1295.3Z" fill="#33363D"/>
</svg>
