<svg width="24" height="24" viewBox="0 0 24 24" fill="none" xmlns="http://www.w3.org/2000/svg">
<path d="M4.5 4.5L19.5 19.5L4.5 4.5Z" fill="#697077"/>
<path d="M4.5 4.5L19.5 19.5" stroke="black" stroke-width="1.5" stroke-linecap="round" stroke-linejoin="round"/>
<path d="M10.7497 10.8975C10.4903 11.1912 10.333 11.5772 10.333 11.9999C10.333 12.9203 11.0792 13.6665 11.9997 13.6665C12.4223 13.6665 12.8083 13.5092 13.1021 13.2499" stroke="black" stroke-width="1.5" stroke-linecap="round" stroke-linejoin="round"/>
<path d="M8.13487 8.30078C6.73335 9.28293 5.56578 10.6822 4.5 11.9999C6.0738 14.4924 8.90142 16.9999 12 16.9999C13.2916 16.9999 14.5362 16.5642 15.6624 15.8755" stroke="black" stroke-width="1.5" stroke-linecap="round" stroke-linejoin="round"/>
<path d="M12 7C15.3403 7 17.5846 9.63183 19.5 12C19.2346 12.4202 18.9336 12.841 18.6017 13.25" stroke="black" stroke-width="1.5" stroke-linecap="round" stroke-linejoin="round"/>
</svg>
