<svg width="24" height="24" viewBox="0 0 24 24" fill="none" xmlns="http://www.w3.org/2000/svg">
<path d="M4.5 4.5L19.5 19.5L4.5 4.5Z" fill="#697077"/>
<path d="M4.5 4.5L19.5 19.5" stroke="black" stroke-width="1.5" stroke-linecap="round" stroke-linejoin="round"/>
<path d="M10.7502 10.8976C10.4908 11.1913 10.3335 11.5773 10.3335 12C10.3335 12.9204 11.0797 13.6667 12.0002 13.6667C12.4228 13.6667 12.8087 13.5093 13.1026 13.25" stroke="black" stroke-width="1.5" stroke-linecap="round" stroke-linejoin="round"/>
<path d="M8.13487 8.3009C6.73335 9.28305 5.56578 10.6823 4.5 12C6.0738 14.4925 8.90142 17 12 17C13.2916 17 14.5362 16.5643 15.6624 15.8757" stroke="black" stroke-width="1.5" stroke-linecap="round" stroke-linejoin="round"/>
<path d="M12 7C15.3403 7 17.5846 9.63183 19.5 12C19.2346 12.4202 18.9336 12.841 18.6017 13.25" stroke="black" stroke-width="1.5" stroke-linecap="round" stroke-linejoin="round"/>
</svg>
