<svg width="24" height="24" viewBox="0 0 24 24" fill="none" xmlns="http://www.w3.org/2000/svg">
<path fill-rule="evenodd" clip-rule="evenodd" d="M16.8702 15.4556C18.1172 13.8479 18.7049 11.8256 18.5137 9.80003C18.3225 7.77446 17.3669 5.89779 15.8411 4.55182C14.3154 3.20585 12.3342 2.49168 10.3006 2.55461C8.26702 2.61754 6.33378 3.45284 4.89419 4.89057C3.45334 6.32929 2.61532 8.26328 2.55089 10.2984C2.48645 12.3336 3.20047 14.3167 4.54742 15.8437C5.89437 17.3707 7.77289 18.3266 9.80016 18.5167C11.8274 18.7067 13.8509 18.1166 15.4582 16.8666L15.5012 16.9116L19.7432 21.1546C19.8361 21.2475 19.9464 21.3212 20.0678 21.3715C20.1892 21.4217 20.3193 21.4476 20.4507 21.4476C20.5821 21.4476 20.7122 21.4217 20.8336 21.3715C20.955 21.3212 21.0653 21.2475 21.1582 21.1546C21.2511 21.0617 21.3248 20.9514 21.3751 20.83C21.4254 20.7086 21.4512 20.5785 21.4512 20.4471C21.4512 20.3157 21.4254 20.1856 21.3751 20.0642C21.3248 19.9428 21.2511 19.8325 21.1582 19.7396L16.9152 15.4976L16.8702 15.4556ZM14.7942 6.30557C15.3588 6.86104 15.8078 7.52281 16.1154 8.2527C16.423 8.98259 16.583 9.76615 16.5862 10.5582C16.5894 11.3502 16.4358 12.1351 16.1342 12.8674C15.8326 13.5998 15.3889 14.2652 14.8289 14.8253C14.2688 15.3853 13.6034 15.8289 12.871 16.1306C12.1387 16.4322 11.3538 16.5858 10.5618 16.5826C9.76977 16.5793 8.98621 16.4193 8.25632 16.1118C7.52644 15.8042 6.86467 15.3552 6.30919 14.7906C5.19911 13.6623 4.57984 12.141 4.58629 10.5582C4.59273 8.97536 5.22436 7.45921 6.3436 6.33998C7.46283 5.22074 8.97899 4.58911 10.5618 4.58267C12.1446 4.57622 13.6659 5.19548 14.7942 6.30557Z" fill="black"/>
</svg>
