<svg width="24" height="24" viewBox="0 0 24 24" fill="none" xmlns="http://www.w3.org/2000/svg">
<path d="M4.5 4.5L19.5 19.5L4.5 4.5Z" fill="#697077"/>
<path d="M4.5 4.5L19.5 19.5" stroke="black" stroke-width="1.5" stroke-linecap="round" stroke-linejoin="round"/>
<path d="M10.7507 10.8984C10.4913 11.1922 10.334 11.5782 10.334 12.0009C10.334 12.9213 11.0802 13.6675 12.0007 13.6675C12.4233 13.6675 12.8092 13.5102 13.1031 13.2509" stroke="black" stroke-width="1.5" stroke-linecap="round" stroke-linejoin="round"/>
<path d="M8.13487 8.30078C6.73335 9.28293 5.56578 10.6822 4.5 11.9999C6.0738 14.4924 8.90142 16.9999 12 16.9999C13.2916 16.9999 14.5362 16.5642 15.6624 15.8755" stroke="black" stroke-width="1.5" stroke-linecap="round" stroke-linejoin="round"/>
<path d="M12 7C15.3403 7 17.5846 9.63183 19.5 12C19.2346 12.4202 18.9336 12.841 18.6017 13.25" stroke="black" stroke-width="1.5" stroke-linecap="round" stroke-linejoin="round"/>
</svg>
