<svg width="24" height="24" viewBox="0 0 24 24" fill="none" xmlns="http://www.w3.org/2000/svg">
<path d="M4.5 4.5L19.5 19.5L4.5 4.5Z" fill="#697077"/>
<path d="M4.5 4.5L19.5 19.5" stroke="black" stroke-width="1.5" stroke-linecap="round" stroke-linejoin="round"/>
<path d="M10.7499 10.8975C10.4906 11.1912 10.3333 11.5772 10.3333 11.9999C10.3333 12.9203 11.0794 13.6665 11.9999 13.6665C12.4226 13.6665 12.8085 13.5092 13.1023 13.2499" stroke="black" stroke-width="1.5" stroke-linecap="round" stroke-linejoin="round"/>
<path d="M8.13487 8.30103C6.73335 9.28318 5.56578 10.6824 4.5 12.0001C6.0738 14.4926 8.90142 17.0001 12 17.0001C13.2916 17.0001 14.5362 16.5644 15.6624 15.8758" stroke="black" stroke-width="1.5" stroke-linecap="round" stroke-linejoin="round"/>
<path d="M12 7C15.3403 7 17.5846 9.63183 19.5 12C19.2346 12.4202 18.9336 12.841 18.6017 13.25" stroke="black" stroke-width="1.5" stroke-linecap="round" stroke-linejoin="round"/>
</svg>
