<svg width="1200" height="94" viewBox="0 0 1200 94" fill="none" xmlns="http://www.w3.org/2000/svg">
<mask id="path-1-inside-1_1173_68317" fill="white">
<path d="M0 0H1200V94H0V0Z"/>
</mask>
<path d="M1200 94V93H0V94V95H1200V94Z" fill="black" mask="url(#path-1-inside-1_1173_68317)"/>
<path d="M44.608 59.424V33.272H48.08V59.424H44.608ZM35.228 42.456H38.924V33.692H42.312V58.808H38.924V45.704H35.228V42.456ZM32.792 39.544C32.792 41.2613 32.6333 42.988 32.316 44.724L37.832 53.74L35.06 55.644L31.028 49.204C30.1133 51.556 28.872 53.796 27.304 55.924L24.588 53.852C26.2867 51.5747 27.5373 49.288 28.34 46.992C29.1427 44.696 29.544 42.2133 29.544 39.544V38.48H25.54V35.204H36.992V38.48H32.792V39.544ZM68.4721 57.884H64.8601V39.768L60.1841 43.436L58.1681 40.776L65.5041 35.036H68.4721V57.884ZM81.6634 58.304C80.0767 58.304 78.6394 57.94 77.3514 57.212C76.0634 56.484 75.0367 55.392 74.2714 53.936C73.5247 52.48 73.1514 50.7067 73.1514 48.616V44.304C73.1514 42.232 73.5247 40.468 74.2714 39.012C75.0367 37.556 76.0634 36.464 77.3514 35.736C78.6394 34.9893 80.0767 34.616 81.6634 34.616C83.2314 34.616 84.6594 34.9893 85.9474 35.736C87.2354 36.464 88.2527 37.556 88.9994 39.012C89.7647 40.468 90.1474 42.232 90.1474 44.304V48.616C90.1474 50.7067 89.7647 52.48 88.9994 53.936C88.2527 55.392 87.2354 56.484 85.9474 57.212C84.678 57.94 83.25 58.304 81.6634 58.304ZM81.6634 55.112C83.138 55.112 84.3234 54.552 85.2194 53.432C86.1154 52.2933 86.5634 50.632 86.5634 48.448V44.472C86.5634 42.288 86.1154 40.636 85.2194 39.516C84.3234 38.3773 83.138 37.808 81.6634 37.808C80.1887 37.808 79.0034 38.3773 78.1074 39.516C77.2114 40.636 76.7634 42.288 76.7634 44.472V48.448C76.7634 50.632 77.2114 52.2933 78.1074 53.432C79.0034 54.552 80.1887 55.112 81.6634 55.112ZM111.997 59.424V33.272H115.581V59.424H111.997ZM103.401 35.96H109.337V38.844H93.8252V35.96H99.7892V33.3H103.401V35.96ZM103.401 52.956C105.417 52.8627 107.648 52.6667 110.093 52.368L110.513 55.588C108.497 55.8493 106.313 56.0547 103.961 56.204C101.609 56.3533 99.4626 56.428 97.5212 56.428H93.3212L93.1532 53.152H97.8572C98.6972 53.152 99.3506 53.1427 99.8172 53.124V50.492C98.3426 50.2307 97.1572 49.68 96.2612 48.84C95.3839 48 94.9452 46.9173 94.9452 45.592V45.2C94.9452 43.5947 95.5706 42.3533 96.8212 41.476C98.0719 40.5987 99.6772 40.16 101.637 40.16C103.56 40.16 105.137 40.608 106.369 41.504C107.62 42.3813 108.245 43.6133 108.245 45.2V45.592C108.245 46.9173 107.797 48.0093 106.901 48.868C106.024 49.708 104.857 50.2493 103.401 50.492V52.956ZM98.4172 45.564C98.4172 46.2733 98.7159 46.8333 99.3132 47.244C99.9292 47.636 100.704 47.832 101.637 47.832C102.533 47.832 103.28 47.636 103.877 47.244C104.475 46.8333 104.773 46.2733 104.773 45.564V45.228C104.773 44.5187 104.475 43.968 103.877 43.576C103.28 43.1653 102.533 42.96 101.637 42.96C100.704 42.96 99.9292 43.1653 99.3132 43.576C98.7159 43.968 98.4172 44.5187 98.4172 45.228V45.564ZM136.365 41.896C134.125 41.896 132.361 41.5507 131.073 40.86C129.785 40.1507 129.141 39.068 129.141 37.612C129.141 36.156 129.785 35.0827 131.073 34.392C132.361 33.7013 134.125 33.356 136.365 33.356H141.069C143.309 33.356 145.073 33.7013 146.361 34.392C147.668 35.0827 148.321 36.156 148.321 37.612C148.321 39.068 147.668 40.1507 146.361 40.86C145.073 41.5507 143.309 41.896 141.069 41.896H136.365ZM137.093 36.156C135.637 36.156 134.536 36.2773 133.789 36.52C133.061 36.744 132.697 37.1173 132.697 37.64C132.697 38.648 134.163 39.152 137.093 39.152H140.369C143.281 39.152 144.737 38.648 144.737 37.64C144.737 37.1173 144.364 36.744 143.617 36.52C142.889 36.2773 141.807 36.156 140.369 36.156H137.093ZM151.037 43.408V46.236H140.509V48.112H148.181V55.14H132.837V56.708H148.881V59.564H129.281V52.396H144.597V50.912H129.141V48.112H136.925V46.236H126.397V43.408H151.037ZM175.628 47.944H172.044V33.272H175.628V47.944ZM154.236 47.468V39.348H163.672V37.444H154.236V34.392H167.172V42.344H157.708V44.388H160.284C163.327 44.388 166.416 44.136 169.552 43.632L169.944 46.6C166.659 47.1787 163.224 47.468 159.64 47.468H154.236ZM175.628 59.424H157.876V49.372H175.628V59.424ZM161.46 52.48V56.232H172.044V52.48H161.46ZM199.267 38.676V33.3H202.655V48.084H199.267V41.84H196.691V48.084H193.443V33.552H196.691V38.676H199.267ZM187.927 34.252H191.035V46.936H180.143V34.252H183.279V37.584H187.927V34.252ZM183.279 40.72V43.828H187.927V40.72H183.279ZM199.099 52.732H184.427V49.512H202.655V59.704H199.099V52.732ZM228.73 46.012H225.146V33.272H228.73V46.012ZM214.142 45.592C212.014 45.592 210.278 45.0973 208.934 44.108C207.59 43.1 206.918 41.6533 206.918 39.768V39.404C206.918 37.5187 207.58 36.0813 208.906 35.092C210.25 34.084 211.995 33.58 214.142 33.58C216.251 33.58 217.968 34.084 219.294 35.092C220.638 36.0813 221.31 37.5187 221.31 39.404V39.768C221.31 41.6347 220.638 43.072 219.294 44.08C217.968 45.088 216.251 45.592 214.142 45.592ZM214.142 42.456C215.224 42.456 216.092 42.2227 216.746 41.756C217.418 41.2893 217.754 40.608 217.754 39.712V39.432C217.754 38.536 217.418 37.8547 216.746 37.388C216.074 36.9213 215.206 36.688 214.142 36.688C213.059 36.688 212.182 36.9213 211.51 37.388C210.838 37.8547 210.502 38.536 210.502 39.432V39.712C210.502 40.608 210.838 41.2893 211.51 41.756C212.182 42.2227 213.059 42.456 214.142 42.456ZM229.57 59.564H210.978V51.948H225.146V50.352H210.866V47.44H228.73V54.832H214.562V56.568H229.57V59.564ZM253.796 33.3V38.396H257.576V41.616H253.796V47.524H250.24V33.3H253.796ZM239.824 43.24C238.536 44.9387 236.483 46.4973 233.664 47.916L232.012 45.032C234.14 43.912 235.699 42.7453 236.688 41.532C237.696 40.3187 238.247 38.984 238.34 37.528H233.02V34.392H247.216V37.528H241.812C241.794 38.5173 241.635 39.46 241.336 40.356L248.196 44.416L246.432 47.356L239.824 43.24ZM248.084 48.672C249.316 48.672 250.408 48.9053 251.36 49.372C252.312 49.82 253.05 50.464 253.572 51.304C254.114 52.144 254.384 53.1053 254.384 54.188C254.384 55.2893 254.114 56.2507 253.572 57.072C253.05 57.912 252.312 58.556 251.36 59.004C250.408 59.4707 249.316 59.704 248.084 59.704H242.344C241.112 59.704 240.02 59.4707 239.068 59.004C238.116 58.556 237.37 57.912 236.828 57.072C236.306 56.2507 236.044 55.2893 236.044 54.188C236.044 53.1053 236.306 52.144 236.828 51.304C237.37 50.464 238.116 49.82 239.068 49.372C240.039 48.9053 241.131 48.672 242.344 48.672H248.084ZM247.552 56.512C248.598 56.512 249.4 56.2973 249.96 55.868C250.52 55.4573 250.8 54.888 250.8 54.16C250.8 53.4507 250.52 52.8907 249.96 52.48C249.4 52.0507 248.598 51.836 247.552 51.836H242.848C241.803 51.836 241 52.0507 240.44 52.48C239.899 52.8907 239.628 53.4507 239.628 54.16C239.628 54.888 239.899 55.4573 240.44 55.868C241 56.2973 241.803 56.512 242.848 56.512H247.552ZM283.289 42.596C283.587 40.7293 283.774 38.9653 283.849 37.304H269.093V34.056H287.489V35.596C287.489 37.892 287.265 40.3373 286.817 42.932L283.289 42.596ZM278.977 39.768V44.22H290.737V47.356H266.097V44.22H275.393V39.768H278.977ZM281.497 49.484C282.859 49.484 284.045 49.708 285.053 50.156C286.061 50.5853 286.826 51.192 287.349 51.976C287.89 52.7413 288.161 53.6093 288.161 54.58C288.161 55.5507 287.89 56.4187 287.349 57.184C286.826 57.968 286.061 58.584 285.053 59.032C284.045 59.48 282.859 59.704 281.497 59.704H275.337C273.974 59.704 272.789 59.48 271.781 59.032C270.791 58.584 270.026 57.968 269.485 57.184C268.962 56.4187 268.701 55.5507 268.701 54.58C268.701 53.6093 268.962 52.7413 269.485 51.976C270.026 51.192 270.791 50.5853 271.781 50.156C272.789 49.708 273.974 49.484 275.337 49.484H281.497ZM280.741 56.652C282.029 56.652 282.99 56.4653 283.625 56.092C284.259 55.7373 284.577 55.224 284.577 54.552C284.577 53.9173 284.259 53.4227 283.625 53.068C282.99 52.7133 282.029 52.536 280.741 52.536H276.093C274.805 52.536 273.843 52.7133 273.209 53.068C272.574 53.4227 272.257 53.9173 272.257 54.552C272.257 55.224 272.574 55.7373 273.209 56.092C273.843 56.4653 274.805 56.652 276.093 56.652H280.741ZM310.959 38.452H295.111V35.176H314.571V37.528C314.571 39.4133 314.459 41.504 314.235 43.8C314.011 46.0773 313.703 48.3453 313.311 50.604L309.783 50.044C310.138 48.0093 310.418 45.9187 310.623 43.772C310.847 41.6253 310.959 39.8987 310.959 38.592V38.452ZM304.715 44.472V54.328H317.287V57.604H292.647V54.328H301.131V44.472H304.715Z" fill="black"/>
<path d="M1021.49 52.5L1021.48 51.4688L1025.34 47.4062C1026.68 45.9844 1027.32 45.2188 1027.32 44.1719C1027.32 43.0156 1026.34 42.25 1025.07 42.25C1023.73 42.25 1022.87 43.1094 1022.87 44.375H1021.54C1021.52 42.375 1023.07 41.0312 1025.12 41.0312C1027.16 41.0312 1028.63 42.4062 1028.63 44.1719C1028.63 45.4375 1028.04 46.4219 1026.04 48.4844L1023.45 51.1562V51.25H1028.84V52.5H1021.49ZM1034.59 52.6562C1032.07 52.6562 1030.63 50.5469 1030.63 46.8438C1030.63 43.1719 1032.1 41.0312 1034.59 41.0312C1037.07 41.0312 1038.54 43.1719 1038.54 46.8438C1038.54 50.5469 1037.09 52.6562 1034.59 52.6562ZM1034.59 51.4062C1036.21 51.4062 1037.16 49.7656 1037.16 46.8438C1037.16 43.9219 1036.21 42.25 1034.59 42.25C1032.96 42.25 1031.99 43.9219 1031.99 46.8438C1031.99 49.7656 1032.95 51.4062 1034.59 51.4062ZM1040.41 52.5L1040.4 51.4688L1044.26 47.4062C1045.6 45.9844 1046.24 45.2188 1046.24 44.1719C1046.24 43.0156 1045.26 42.25 1043.99 42.25C1042.65 42.25 1041.79 43.1094 1041.79 44.375H1040.46C1040.45 42.375 1041.99 41.0312 1044.04 41.0312C1046.09 41.0312 1047.55 42.4062 1047.55 44.1719C1047.55 45.4375 1046.96 46.4219 1044.96 48.4844L1042.37 51.1562V51.25H1047.76V52.5H1040.41ZM1049.29 50.1875V49.0312L1054.38 41.1875H1056.12V48.9531H1057.7V50.1875H1056.12V52.5H1054.77V50.1875H1049.29ZM1050.8 48.9531H1054.77V42.9688H1054.63L1050.8 48.8594V48.9531ZM1060.01 52.5938C1059.46 52.5938 1058.99 52.1406 1059.01 51.5781C1058.99 51.0312 1059.46 50.5781 1060.01 50.5781C1060.55 50.5781 1061.01 51.0312 1061.01 51.5781C1061.01 52.1406 1060.55 52.5938 1060.01 52.5938ZM1066.41 52.6562C1063.9 52.6562 1062.46 50.5469 1062.46 46.8438C1062.46 43.1719 1063.93 41.0312 1066.41 41.0312C1068.9 41.0312 1070.37 43.1719 1070.37 46.8438C1070.37 50.5469 1068.91 52.6562 1066.41 52.6562ZM1066.41 51.4062C1068.04 51.4062 1068.99 49.7656 1068.99 46.8438C1068.99 43.9219 1068.04 42.25 1066.41 42.25C1064.79 42.25 1063.82 43.9219 1063.82 46.8438C1063.82 49.7656 1064.77 51.4062 1066.41 51.4062ZM1075.93 52.6562C1073.88 52.6562 1072.34 51.3906 1072.26 49.6562H1073.62C1073.73 50.6719 1074.71 51.4219 1075.93 51.4219C1077.4 51.4219 1078.46 50.3438 1078.46 48.9219C1078.46 47.4531 1077.35 46.375 1075.84 46.3594C1074.88 46.3438 1074.15 46.6406 1073.73 47.375H1072.37L1073.16 41.1875H1079.29V42.4375H1074.34L1073.91 45.75H1074.02C1074.52 45.3594 1075.29 45.0938 1076.09 45.0938C1078.24 45.0938 1079.84 46.6875 1079.84 48.8906C1079.84 51.0781 1078.18 52.6562 1075.93 52.6562ZM1082.34 52.5938C1081.79 52.5938 1081.32 52.1406 1081.34 51.5781C1081.32 51.0312 1081.79 50.5781 1082.34 50.5781C1082.88 50.5781 1083.34 51.0312 1083.34 51.5781C1083.34 52.1406 1082.88 52.5938 1082.34 52.5938ZM1088.09 41.1875V52.5H1086.66V42.6562H1086.6L1083.85 44.4844V43.0625L1086.66 41.1875H1088.09ZM1094.8 52.6562C1092.29 52.6562 1090.85 50.5469 1090.85 46.8438C1090.85 43.1719 1092.32 41.0312 1094.8 41.0312C1097.29 41.0312 1098.76 43.1719 1098.76 46.8438C1098.76 50.5469 1097.3 52.6562 1094.8 52.6562ZM1094.8 51.4062C1096.43 51.4062 1097.38 49.7656 1097.38 46.8438C1097.38 43.9219 1096.43 42.25 1094.8 42.25C1093.18 42.25 1092.21 43.9219 1092.21 46.8438C1092.21 49.7656 1093.16 51.4062 1094.8 51.4062Z" fill="black"/>
<path d="M1164.18 55H1159.34L1164.5 49H1149V45H1164.5L1159.34 39L1164.18 39L1171 47L1164.18 55Z" fill="black"/>
</svg>
