<svg width="1200" height="94" viewBox="0 0 1200 94" fill="none" xmlns="http://www.w3.org/2000/svg">
<mask id="path-1-inside-1_1173_68315" fill="white">
<path d="M0 0H1200V94H0V0Z"/>
</mask>
<path d="M1200 94V93H0V94V95H1200V94Z" fill="black" mask="url(#path-1-inside-1_1173_68315)"/>
<path d="M44.608 59.424V33.272H48.08V59.424H44.608ZM35.228 42.456H38.924V33.692H42.312V58.808H38.924V45.704H35.228V42.456ZM32.792 39.544C32.792 41.2613 32.6333 42.988 32.316 44.724L37.832 53.74L35.06 55.644L31.028 49.204C30.1133 51.556 28.872 53.796 27.304 55.924L24.588 53.852C26.2867 51.5747 27.5373 49.288 28.34 46.992C29.1427 44.696 29.544 42.2133 29.544 39.544V38.48H25.54V35.204H36.992V38.48H32.792V39.544ZM68.4721 57.884H64.8601V39.768L60.1841 43.436L58.1681 40.776L65.5041 35.036H68.4721V57.884ZM82.3354 57.884H78.7234V39.768L74.0474 43.436L72.0314 40.776L79.3674 35.036H82.3354V57.884ZM105.271 59.424V33.272H108.855V59.424H105.271ZM96.6747 35.96H102.611V38.844H87.0987V35.96H93.0627V33.3H96.6747V35.96ZM96.6747 52.956C98.6907 52.8627 100.921 52.6667 103.367 52.368L103.787 55.588C101.771 55.8493 99.5867 56.0547 97.2347 56.204C94.8827 56.3533 92.736 56.428 90.7947 56.428H86.5947L86.4267 53.152H91.1307C91.9707 53.152 92.624 53.1427 93.0907 53.124V50.492C91.616 50.2307 90.4307 49.68 89.5347 48.84C88.6573 48 88.2187 46.9173 88.2187 45.592V45.2C88.2187 43.5947 88.844 42.3533 90.0947 41.476C91.3453 40.5987 92.9507 40.16 94.9107 40.16C96.8333 40.16 98.4107 40.608 99.6427 41.504C100.893 42.3813 101.519 43.6133 101.519 45.2V45.592C101.519 46.9173 101.071 48.0093 100.175 48.868C99.2973 49.708 98.1307 50.2493 96.6747 50.492V52.956ZM91.6907 45.564C91.6907 46.2733 91.9893 46.8333 92.5867 47.244C93.2027 47.636 93.9773 47.832 94.9107 47.832C95.8067 47.832 96.5533 47.636 97.1507 47.244C97.748 46.8333 98.0467 46.2733 98.0467 45.564V45.228C98.0467 44.5187 97.748 43.968 97.1507 43.576C96.5533 43.1653 95.8067 42.96 94.9107 42.96C93.9773 42.96 93.2027 43.1653 92.5867 43.576C91.9893 43.968 91.6907 44.5187 91.6907 45.228V45.564ZM129.639 41.896C127.399 41.896 125.635 41.5507 124.347 40.86C123.059 40.1507 122.415 39.068 122.415 37.612C122.415 36.156 123.059 35.0827 124.347 34.392C125.635 33.7013 127.399 33.356 129.639 33.356H134.343C136.583 33.356 138.347 33.7013 139.635 34.392C140.941 35.0827 141.595 36.156 141.595 37.612C141.595 39.068 140.941 40.1507 139.635 40.86C138.347 41.5507 136.583 41.896 134.343 41.896H129.639ZM130.367 36.156C128.911 36.156 127.809 36.2773 127.063 36.52C126.335 36.744 125.971 37.1173 125.971 37.64C125.971 38.648 127.436 39.152 130.367 39.152H133.643C136.555 39.152 138.011 38.648 138.011 37.64C138.011 37.1173 137.637 36.744 136.891 36.52C136.163 36.2773 135.08 36.156 133.643 36.156H130.367ZM144.311 43.408V46.236H133.783V48.112H141.455V55.14H126.111V56.708H142.155V59.564H122.555V52.396H137.871V50.912H122.415V48.112H130.199V46.236H119.671V43.408H144.311ZM168.902 47.944H165.318V33.272H168.902V47.944ZM147.51 47.468V39.348H156.946V37.444H147.51V34.392H160.446V42.344H150.982V44.388H153.558C156.6 44.388 159.69 44.136 162.826 43.632L163.218 46.6C159.932 47.1787 156.498 47.468 152.914 47.468H147.51ZM168.902 59.424H151.15V49.372H168.902V59.424ZM154.734 52.48V56.232H165.318V52.48H154.734ZM192.54 38.676V33.3H195.928V48.084H192.54V41.84H189.964V48.084H186.716V33.552H189.964V38.676H192.54ZM181.2 34.252H184.308V46.936H173.416V34.252H176.552V37.584H181.2V34.252ZM176.552 40.72V43.828H181.2V40.72H176.552ZM192.372 52.732H177.7V49.512H195.928V59.704H192.372V52.732ZM222.003 46.012H218.419V33.272H222.003V46.012ZM207.415 45.592C205.287 45.592 203.551 45.0973 202.207 44.108C200.863 43.1 200.191 41.6533 200.191 39.768V39.404C200.191 37.5187 200.854 36.0813 202.179 35.092C203.523 34.084 205.268 33.58 207.415 33.58C209.524 33.58 211.242 34.084 212.567 35.092C213.911 36.0813 214.583 37.5187 214.583 39.404V39.768C214.583 41.6347 213.911 43.072 212.567 44.08C211.242 45.088 209.524 45.592 207.415 45.592ZM207.415 42.456C208.498 42.456 209.366 42.2227 210.019 41.756C210.691 41.2893 211.027 40.608 211.027 39.712V39.432C211.027 38.536 210.691 37.8547 210.019 37.388C209.347 36.9213 208.479 36.688 207.415 36.688C206.332 36.688 205.455 36.9213 204.783 37.388C204.111 37.8547 203.775 38.536 203.775 39.432V39.712C203.775 40.608 204.111 41.2893 204.783 41.756C205.455 42.2227 206.332 42.456 207.415 42.456ZM222.843 59.564H204.251V51.948H218.419V50.352H204.139V47.44H222.003V54.832H207.835V56.568H222.843V59.564ZM247.07 33.3V38.396H250.85V41.616H247.07V47.524H243.514V33.3H247.07ZM233.098 43.24C231.81 44.9387 229.757 46.4973 226.938 47.916L225.286 45.032C227.414 43.912 228.973 42.7453 229.962 41.532C230.97 40.3187 231.521 38.984 231.614 37.528H226.294V34.392H240.49V37.528H235.086C235.067 38.5173 234.909 39.46 234.61 40.356L241.47 44.416L239.706 47.356L233.098 43.24ZM241.358 48.672C242.59 48.672 243.682 48.9053 244.634 49.372C245.586 49.82 246.323 50.464 246.846 51.304C247.387 52.144 247.658 53.1053 247.658 54.188C247.658 55.2893 247.387 56.2507 246.846 57.072C246.323 57.912 245.586 58.556 244.634 59.004C243.682 59.4707 242.59 59.704 241.358 59.704H235.618C234.386 59.704 233.294 59.4707 232.342 59.004C231.39 58.556 230.643 57.912 230.102 57.072C229.579 56.2507 229.318 55.2893 229.318 54.188C229.318 53.1053 229.579 52.144 230.102 51.304C230.643 50.464 231.39 49.82 232.342 49.372C233.313 48.9053 234.405 48.672 235.618 48.672H241.358ZM240.826 56.512C241.871 56.512 242.674 56.2973 243.234 55.868C243.794 55.4573 244.074 54.888 244.074 54.16C244.074 53.4507 243.794 52.8907 243.234 52.48C242.674 52.0507 241.871 51.836 240.826 51.836H236.122C235.077 51.836 234.274 52.0507 233.714 52.48C233.173 52.8907 232.902 53.4507 232.902 54.16C232.902 54.888 233.173 55.4573 233.714 55.868C234.274 56.2973 235.077 56.512 236.122 56.512H240.826ZM276.562 42.596C276.861 40.7293 277.047 38.9653 277.122 37.304H262.366V34.056H280.762V35.596C280.762 37.892 280.538 40.3373 280.09 42.932L276.562 42.596ZM272.25 39.768V44.22H284.01V47.356H259.37V44.22H268.666V39.768H272.25ZM274.77 49.484C276.133 49.484 277.318 49.708 278.326 50.156C279.334 50.5853 280.099 51.192 280.622 51.976C281.163 52.7413 281.434 53.6093 281.434 54.58C281.434 55.5507 281.163 56.4187 280.622 57.184C280.099 57.968 279.334 58.584 278.326 59.032C277.318 59.48 276.133 59.704 274.77 59.704H268.61C267.247 59.704 266.062 59.48 265.054 59.032C264.065 58.584 263.299 57.968 262.758 57.184C262.235 56.4187 261.974 55.5507 261.974 54.58C261.974 53.6093 262.235 52.7413 262.758 51.976C263.299 51.192 264.065 50.5853 265.054 50.156C266.062 49.708 267.247 49.484 268.61 49.484H274.77ZM274.014 56.652C275.302 56.652 276.263 56.4653 276.898 56.092C277.533 55.7373 277.85 55.224 277.85 54.552C277.85 53.9173 277.533 53.4227 276.898 53.068C276.263 52.7133 275.302 52.536 274.014 52.536H269.366C268.078 52.536 267.117 52.7133 266.482 53.068C265.847 53.4227 265.53 53.9173 265.53 54.552C265.53 55.224 265.847 55.7373 266.482 56.092C267.117 56.4653 268.078 56.652 269.366 56.652H274.014ZM304.233 38.452H288.385V35.176H307.845V37.528C307.845 39.4133 307.733 41.504 307.509 43.8C307.285 46.0773 306.977 48.3453 306.585 50.604L303.057 50.044C303.411 48.0093 303.691 45.9187 303.897 43.772C304.121 41.6253 304.233 39.8987 304.233 38.592V38.452ZM297.989 44.472V54.328H310.561V57.604H285.921V54.328H294.405V44.472H297.989Z" fill="black"/>
<path d="M1019.34 52.5L1019.33 51.4688L1023.19 47.4062C1024.53 45.9844 1025.17 45.2188 1025.17 44.1719C1025.17 43.0156 1024.19 42.25 1022.92 42.25C1021.58 42.25 1020.72 43.1094 1020.72 44.375H1019.39C1019.38 42.375 1020.92 41.0312 1022.97 41.0312C1025.02 41.0312 1026.48 42.4062 1026.48 44.1719C1026.48 45.4375 1025.89 46.4219 1023.89 48.4844L1021.3 51.1562V51.25H1026.69V52.5H1019.34ZM1032.44 52.6562C1029.92 52.6562 1028.48 50.5469 1028.48 46.8438C1028.48 43.1719 1029.95 41.0312 1032.44 41.0312C1034.92 41.0312 1036.39 43.1719 1036.39 46.8438C1036.39 50.5469 1034.94 52.6562 1032.44 52.6562ZM1032.44 51.4062C1034.06 51.4062 1035.02 49.7656 1035.02 46.8438C1035.02 43.9219 1034.06 42.25 1032.44 42.25C1030.81 42.25 1029.84 43.9219 1029.84 46.8438C1029.84 49.7656 1030.8 51.4062 1032.44 51.4062ZM1038.27 52.5L1038.25 51.4688L1042.11 47.4062C1043.45 45.9844 1044.09 45.2188 1044.09 44.1719C1044.09 43.0156 1043.11 42.25 1041.84 42.25C1040.5 42.25 1039.64 43.1094 1039.64 44.375H1038.31C1038.3 42.375 1039.84 41.0312 1041.89 41.0312C1043.94 41.0312 1045.41 42.4062 1045.41 44.1719C1045.41 45.4375 1044.81 46.4219 1042.81 48.4844L1040.22 51.1562V51.25H1045.61V52.5H1038.27ZM1051.34 52.6562C1049.3 52.6562 1047.75 51.3906 1047.67 49.6562H1049.03C1049.14 50.6719 1050.12 51.4219 1051.34 51.4219C1052.81 51.4219 1053.88 50.3438 1053.88 48.9219C1053.88 47.4531 1052.77 46.375 1051.25 46.3594C1050.3 46.3438 1049.56 46.6406 1049.14 47.375H1047.78L1048.58 41.1875H1054.7V42.4375H1049.75L1049.33 45.75H1049.44C1049.94 45.3594 1050.7 45.0938 1051.5 45.0938C1053.66 45.0938 1055.25 46.6875 1055.25 48.8906C1055.25 51.0781 1053.59 52.6562 1051.34 52.6562ZM1057.75 52.5938C1057.2 52.5938 1056.73 52.1406 1056.75 51.5781C1056.73 51.0312 1057.2 50.5781 1057.75 50.5781C1058.3 50.5781 1058.75 51.0312 1058.75 51.5781C1058.75 52.1406 1058.3 52.5938 1057.75 52.5938ZM1064.16 52.6562C1061.64 52.6562 1060.2 50.5469 1060.2 46.8438C1060.2 43.1719 1061.67 41.0312 1064.16 41.0312C1066.64 41.0312 1068.11 43.1719 1068.11 46.8438C1068.11 50.5469 1066.66 52.6562 1064.16 52.6562ZM1064.16 51.4062C1065.78 51.4062 1066.73 49.7656 1066.73 46.8438C1066.73 43.9219 1065.78 42.25 1064.16 42.25C1062.53 42.25 1061.56 43.9219 1061.56 46.8438C1061.56 49.7656 1062.52 51.4062 1064.16 51.4062ZM1069.7 50.1875V49.0312L1074.8 41.1875H1076.53V48.9531H1078.11V50.1875H1076.53V52.5H1075.19V50.1875H1069.7ZM1071.22 48.9531H1075.19V42.9688H1075.05L1071.22 48.8594V48.9531ZM1080.42 52.5938C1079.88 52.5938 1079.41 52.1406 1079.42 51.5781C1079.41 51.0312 1079.88 50.5781 1080.42 50.5781C1080.97 50.5781 1081.42 51.0312 1081.42 51.5781C1081.42 52.1406 1080.97 52.5938 1080.42 52.5938ZM1083.52 52.5L1083.5 51.4688L1087.36 47.4062C1088.7 45.9844 1089.34 45.2188 1089.34 44.1719C1089.34 43.0156 1088.36 42.25 1087.09 42.25C1085.75 42.25 1084.89 43.1094 1084.89 44.375H1083.56C1083.55 42.375 1085.09 41.0312 1087.14 41.0312C1089.19 41.0312 1090.66 42.4062 1090.66 44.1719C1090.66 45.4375 1090.06 46.4219 1088.06 48.4844L1085.47 51.1562V51.25H1090.86V52.5H1083.52ZM1096.81 52.6562C1094.56 52.6562 1092.95 51.4531 1092.88 49.6562H1094.3C1094.38 50.7344 1095.45 51.4062 1096.8 51.4062C1098.28 51.4062 1099.38 50.5938 1099.38 49.4219C1099.38 48.1875 1098.39 47.3125 1096.62 47.3125H1095.7V46.0781H1096.62C1098 46.0781 1098.95 45.3125 1098.95 44.1406C1098.95 43.0156 1098.12 42.25 1096.84 42.25C1095.64 42.25 1094.53 42.9219 1094.47 44.0312H1093.11C1093.19 42.2344 1094.84 41.0312 1096.86 41.0312C1099.02 41.0312 1100.33 42.4375 1100.31 44.0625C1100.33 45.3438 1099.58 46.2969 1098.39 46.625V46.7031C1099.86 46.9375 1100.77 47.9844 1100.75 49.4219C1100.77 51.2812 1099.06 52.6562 1096.81 52.6562Z" fill="black"/>
<path d="M1164.18 55H1159.34L1164.5 49H1149V45H1164.5L1159.34 39L1164.18 39L1171 47L1164.18 55Z" fill="black"/>
</svg>
