<svg width="1200" height="94" viewBox="0 0 1200 94" fill="none" xmlns="http://www.w3.org/2000/svg">
<mask id="path-1-inside-1_1173_68314" fill="white">
<path d="M0 0H1200V94H0V0Z"/>
</mask>
<path d="M1200 94V93H0V94V95H1200V94Z" fill="black" mask="url(#path-1-inside-1_1173_68314)"/>
<path d="M44.608 59.424V33.272H48.08V59.424H44.608ZM35.228 42.456H38.924V33.692H42.312V58.808H38.924V45.704H35.228V42.456ZM32.792 39.544C32.792 41.2613 32.6333 42.988 32.316 44.724L37.832 53.74L35.06 55.644L31.028 49.204C30.1133 51.556 28.872 53.796 27.304 55.924L24.588 53.852C26.2867 51.5747 27.5373 49.288 28.34 46.992C29.1427 44.696 29.544 42.2133 29.544 39.544V38.48H25.54V35.204H36.992V38.48H32.792V39.544ZM68.4721 57.884H64.8601V39.768L60.1841 43.436L58.1681 40.776L65.5041 35.036H68.4721V57.884ZM82.3354 57.884H78.7234V39.768L74.0474 43.436L72.0314 40.776L79.3674 35.036H82.3354V57.884ZM105.271 59.424V33.272H108.855V59.424H105.271ZM96.6747 35.96H102.611V38.844H87.0987V35.96H93.0627V33.3H96.6747V35.96ZM96.6747 52.956C98.6907 52.8627 100.921 52.6667 103.367 52.368L103.787 55.588C101.771 55.8493 99.5867 56.0547 97.2347 56.204C94.8827 56.3533 92.736 56.428 90.7947 56.428H86.5947L86.4267 53.152H91.1307C91.9707 53.152 92.624 53.1427 93.0907 53.124V50.492C91.616 50.2307 90.4307 49.68 89.5347 48.84C88.6573 48 88.2187 46.9173 88.2187 45.592V45.2C88.2187 43.5947 88.844 42.3533 90.0947 41.476C91.3453 40.5987 92.9507 40.16 94.9107 40.16C96.8333 40.16 98.4107 40.608 99.6427 41.504C100.893 42.3813 101.519 43.6133 101.519 45.2V45.592C101.519 46.9173 101.071 48.0093 100.175 48.868C99.2973 49.708 98.1307 50.2493 96.6747 50.492V52.956ZM91.6907 45.564C91.6907 46.2733 91.9893 46.8333 92.5867 47.244C93.2027 47.636 93.9773 47.832 94.9107 47.832C95.8067 47.832 96.5533 47.636 97.1507 47.244C97.748 46.8333 98.0467 46.2733 98.0467 45.564V45.228C98.0467 44.5187 97.748 43.968 97.1507 43.576C96.5533 43.1653 95.8067 42.96 94.9107 42.96C93.9773 42.96 93.2027 43.1653 92.5867 43.576C91.9893 43.968 91.6907 44.5187 91.6907 45.228V45.564ZM129.639 41.896C127.399 41.896 125.635 41.5507 124.347 40.86C123.059 40.1507 122.415 39.068 122.415 37.612C122.415 36.156 123.059 35.0827 124.347 34.392C125.635 33.7013 127.399 33.356 129.639 33.356H134.343C136.583 33.356 138.347 33.7013 139.635 34.392C140.941 35.0827 141.595 36.156 141.595 37.612C141.595 39.068 140.941 40.1507 139.635 40.86C138.347 41.5507 136.583 41.896 134.343 41.896H129.639ZM130.367 36.156C128.911 36.156 127.809 36.2773 127.063 36.52C126.335 36.744 125.971 37.1173 125.971 37.64C125.971 38.648 127.436 39.152 130.367 39.152H133.643C136.555 39.152 138.011 38.648 138.011 37.64C138.011 37.1173 137.637 36.744 136.891 36.52C136.163 36.2773 135.08 36.156 133.643 36.156H130.367ZM144.311 43.408V46.236H133.783V48.112H141.455V55.14H126.111V56.708H142.155V59.564H122.555V52.396H137.871V50.912H122.415V48.112H130.199V46.236H119.671V43.408H144.311ZM168.902 47.944H165.318V33.272H168.902V47.944ZM147.51 47.468V39.348H156.946V37.444H147.51V34.392H160.446V42.344H150.982V44.388H153.558C156.6 44.388 159.69 44.136 162.826 43.632L163.218 46.6C159.932 47.1787 156.498 47.468 152.914 47.468H147.51ZM168.902 59.424H151.15V49.372H168.902V59.424ZM154.734 52.48V56.232H165.318V52.48H154.734ZM192.54 38.676V33.3H195.928V48.084H192.54V41.84H189.964V48.084H186.716V33.552H189.964V38.676H192.54ZM181.2 34.252H184.308V46.936H173.416V34.252H176.552V37.584H181.2V34.252ZM176.552 40.72V43.828H181.2V40.72H176.552ZM192.372 52.732H177.7V49.512H195.928V59.704H192.372V52.732ZM222.003 46.012H218.419V33.272H222.003V46.012ZM207.415 45.592C205.287 45.592 203.551 45.0973 202.207 44.108C200.863 43.1 200.191 41.6533 200.191 39.768V39.404C200.191 37.5187 200.854 36.0813 202.179 35.092C203.523 34.084 205.268 33.58 207.415 33.58C209.524 33.58 211.242 34.084 212.567 35.092C213.911 36.0813 214.583 37.5187 214.583 39.404V39.768C214.583 41.6347 213.911 43.072 212.567 44.08C211.242 45.088 209.524 45.592 207.415 45.592ZM207.415 42.456C208.498 42.456 209.366 42.2227 210.019 41.756C210.691 41.2893 211.027 40.608 211.027 39.712V39.432C211.027 38.536 210.691 37.8547 210.019 37.388C209.347 36.9213 208.479 36.688 207.415 36.688C206.332 36.688 205.455 36.9213 204.783 37.388C204.111 37.8547 203.775 38.536 203.775 39.432V39.712C203.775 40.608 204.111 41.2893 204.783 41.756C205.455 42.2227 206.332 42.456 207.415 42.456ZM222.843 59.564H204.251V51.948H218.419V50.352H204.139V47.44H222.003V54.832H207.835V56.568H222.843V59.564ZM247.07 33.3V38.396H250.85V41.616H247.07V47.524H243.514V33.3H247.07ZM233.098 43.24C231.81 44.9387 229.757 46.4973 226.938 47.916L225.286 45.032C227.414 43.912 228.973 42.7453 229.962 41.532C230.97 40.3187 231.521 38.984 231.614 37.528H226.294V34.392H240.49V37.528H235.086C235.067 38.5173 234.909 39.46 234.61 40.356L241.47 44.416L239.706 47.356L233.098 43.24ZM241.358 48.672C242.59 48.672 243.682 48.9053 244.634 49.372C245.586 49.82 246.323 50.464 246.846 51.304C247.387 52.144 247.658 53.1053 247.658 54.188C247.658 55.2893 247.387 56.2507 246.846 57.072C246.323 57.912 245.586 58.556 244.634 59.004C243.682 59.4707 242.59 59.704 241.358 59.704H235.618C234.386 59.704 233.294 59.4707 232.342 59.004C231.39 58.556 230.643 57.912 230.102 57.072C229.579 56.2507 229.318 55.2893 229.318 54.188C229.318 53.1053 229.579 52.144 230.102 51.304C230.643 50.464 231.39 49.82 232.342 49.372C233.313 48.9053 234.405 48.672 235.618 48.672H241.358ZM240.826 56.512C241.871 56.512 242.674 56.2973 243.234 55.868C243.794 55.4573 244.074 54.888 244.074 54.16C244.074 53.4507 243.794 52.8907 243.234 52.48C242.674 52.0507 241.871 51.836 240.826 51.836H236.122C235.077 51.836 234.274 52.0507 233.714 52.48C233.173 52.8907 232.902 53.4507 232.902 54.16C232.902 54.888 233.173 55.4573 233.714 55.868C234.274 56.2973 235.077 56.512 236.122 56.512H240.826ZM278.466 47.384V33.272H282.05V47.384H278.466ZM267.518 42.512C266.174 44.3227 264.149 45.9747 261.442 47.468L259.594 44.584C261.946 43.2587 263.635 41.8773 264.662 40.44C265.707 39.0027 266.23 37.4347 266.23 35.736V34.056H269.73V35.736C269.73 37.1173 269.525 38.3867 269.114 39.544L276.254 44.052L274.378 46.908L267.518 42.512ZM282.05 59.424H264.27V48.812H282.05V59.424ZM278.466 51.976H267.854V56.232H278.466V51.976ZM307.117 42.736H310.897V45.984H307.117V59.424H303.533V33.272H307.117V42.736ZM295.021 38.284C295.021 40.4493 294.787 42.4933 294.321 44.416L301.377 53.46L298.661 55.672L292.949 48.392C291.754 51.0613 290.037 53.572 287.797 55.924L285.221 53.628C287.423 51.276 289.019 48.8773 290.009 46.432C291.017 43.9867 291.521 41.2707 291.521 38.284V34.728H295.021V38.284ZM333.193 39.376C332.446 41.1493 331.102 42.6333 329.161 43.828C327.238 45.004 324.746 45.9747 321.685 46.74L320.481 43.548C323.356 42.8573 325.624 41.9987 327.285 40.972C328.965 39.9267 329.954 38.788 330.253 37.556H321.181V34.392H333.865V35.848C333.865 36.1653 333.856 36.3987 333.837 36.548H338.513V33.272H342.097V46.012H338.513V44.304H333.249V41.448H338.513V39.376H333.193ZM327.929 54.832V56.568H342.937V59.564H324.373V51.948H338.513V50.352H324.233V47.44H342.097V54.832H327.929ZM367.444 42.988H370.944V46.264H367.444V59.424H363.86V33.272H367.444V42.988ZM357 38.48H347.116V35.204H360.612V37.276C360.612 40.7107 360.229 44.7053 359.464 49.26L355.936 48.728C356.253 46.7867 356.505 44.892 356.692 43.044C356.897 41.196 357 39.684 357 38.508V38.48ZM353.556 52.256C356.225 52.144 359.025 51.92 361.956 51.584L362.348 54.748C360.481 55.028 358.409 55.2333 356.132 55.364C353.854 55.5133 351.717 55.588 349.72 55.588H345.744L345.548 52.34H349.972V43.436H353.556V52.256ZM400.688 33.272V37.836H404.468V41.084H400.688V46.152H397.104V33.272H400.688ZM389.516 34.112H392.932V45.452H379.8V34.112H383.244V36.884H389.516V34.112ZM383.244 39.908V42.428H389.516V39.908H383.244ZM400.688 54.888H387.052V56.596H401.472V59.564H383.468V52.032H397.104V50.464H383.328V47.58H400.688V54.888ZM424.299 45.76H428.219V48.924H408.479V45.76H412.399V38.116H408.479V34.896H428.219V38.116H424.299V45.76ZM420.827 38.116H415.871V45.76H420.827V38.116ZM424.439 50.38V54.328H430.655V57.604H406.015V54.328H412.258V50.38H415.731V54.328H420.967V50.38H424.439Z" fill="black"/>
<path d="M1021.61 52.5L1021.59 51.4688L1025.45 47.4062C1026.8 45.9844 1027.44 45.2188 1027.44 44.1719C1027.44 43.0156 1026.45 42.25 1025.19 42.25C1023.84 42.25 1022.98 43.1094 1022.98 44.375H1021.66C1021.64 42.375 1023.19 41.0312 1025.23 41.0312C1027.28 41.0312 1028.75 42.4062 1028.75 44.1719C1028.75 45.4375 1028.16 46.4219 1026.16 48.4844L1023.56 51.1562V51.25H1028.95V52.5H1021.61ZM1034.7 52.6562C1032.19 52.6562 1030.75 50.5469 1030.75 46.8438C1030.75 43.1719 1032.22 41.0312 1034.7 41.0312C1037.19 41.0312 1038.66 43.1719 1038.66 46.8438C1038.66 50.5469 1037.2 52.6562 1034.7 52.6562ZM1034.7 51.4062C1036.33 51.4062 1037.28 49.7656 1037.28 46.8438C1037.28 43.9219 1036.33 42.25 1034.7 42.25C1033.08 42.25 1032.11 43.9219 1032.11 46.8438C1032.11 49.7656 1033.06 51.4062 1034.7 51.4062ZM1040.53 52.5L1040.52 51.4688L1044.38 47.4062C1045.72 45.9844 1046.36 45.2188 1046.36 44.1719C1046.36 43.0156 1045.38 42.25 1044.11 42.25C1042.77 42.25 1041.91 43.1094 1041.91 44.375H1040.58C1040.56 42.375 1042.11 41.0312 1044.16 41.0312C1046.2 41.0312 1047.67 42.4062 1047.67 44.1719C1047.67 45.4375 1047.08 46.4219 1045.08 48.4844L1042.48 51.1562V51.25H1047.88V52.5H1040.53ZM1053.61 52.6562C1051.56 52.6562 1050.02 51.3906 1049.94 49.6562H1051.3C1051.41 50.6719 1052.39 51.4219 1053.61 51.4219C1055.08 51.4219 1056.14 50.3438 1056.14 48.9219C1056.14 47.4531 1055.03 46.375 1053.52 46.3594C1052.56 46.3438 1051.83 46.6406 1051.41 47.375H1050.05L1050.84 41.1875H1056.97V42.4375H1052.02L1051.59 45.75H1051.7C1052.2 45.3594 1052.97 45.0938 1053.77 45.0938C1055.92 45.0938 1057.52 46.6875 1057.52 48.8906C1057.52 51.0781 1055.86 52.6562 1053.61 52.6562ZM1060.02 52.5938C1059.47 52.5938 1059 52.1406 1059.02 51.5781C1059 51.0312 1059.47 50.5781 1060.02 50.5781C1060.56 50.5781 1061.02 51.0312 1061.02 51.5781C1061.02 52.1406 1060.56 52.5938 1060.02 52.5938ZM1065.77 41.1875V52.5H1064.34V42.6562H1064.28L1061.53 44.4844V43.0625L1064.34 41.1875H1065.77ZM1072.48 52.6562C1069.97 52.6562 1068.53 50.5469 1068.53 46.8438C1068.53 43.1719 1070 41.0312 1072.48 41.0312C1074.97 41.0312 1076.44 43.1719 1076.44 46.8438C1076.44 50.5469 1074.98 52.6562 1072.48 52.6562ZM1072.48 51.4062C1074.11 51.4062 1075.06 49.7656 1075.06 46.8438C1075.06 43.9219 1074.11 42.25 1072.48 42.25C1070.86 42.25 1069.89 43.9219 1069.89 46.8438C1069.89 49.7656 1070.84 51.4062 1072.48 51.4062ZM1078.89 52.5938C1078.34 52.5938 1077.88 52.1406 1077.89 51.5781C1077.88 51.0312 1078.34 50.5781 1078.89 50.5781C1079.44 50.5781 1079.89 51.0312 1079.89 51.5781C1079.89 52.1406 1079.44 52.5938 1078.89 52.5938ZM1085.3 52.6562C1082.78 52.6562 1081.34 50.5469 1081.34 46.8438C1081.34 43.1719 1082.81 41.0312 1085.3 41.0312C1087.78 41.0312 1089.25 43.1719 1089.25 46.8438C1089.25 50.5469 1087.8 52.6562 1085.3 52.6562ZM1085.3 51.4062C1086.92 51.4062 1087.88 49.7656 1087.88 46.8438C1087.88 43.9219 1086.92 42.25 1085.3 42.25C1083.67 42.25 1082.7 43.9219 1082.7 46.8438C1082.7 49.7656 1083.66 51.4062 1085.3 51.4062ZM1091.12 52.5L1091.11 51.4688L1094.97 47.4062C1096.31 45.9844 1096.95 45.2188 1096.95 44.1719C1096.95 43.0156 1095.97 42.25 1094.7 42.25C1093.36 42.25 1092.5 43.1094 1092.5 44.375H1091.17C1091.16 42.375 1092.7 41.0312 1094.75 41.0312C1096.8 41.0312 1098.27 42.4062 1098.27 44.1719C1098.27 45.4375 1097.67 46.4219 1095.67 48.4844L1093.08 51.1562V51.25H1098.47V52.5H1091.12Z" fill="black"/>
<path d="M1164.18 55H1159.34L1164.5 49H1149V45H1164.5L1159.34 39L1164.18 39L1171 47L1164.18 55Z" fill="black"/>
</svg>
