<svg width="1200" height="94" viewBox="0 0 1200 94" fill="none" xmlns="http://www.w3.org/2000/svg">
<mask id="path-1-inside-1_1173_68316" fill="white">
<path d="M0 0H1200V94H0V0Z"/>
</mask>
<path d="M1200 94V93H0V94V95H1200V94Z" fill="black" mask="url(#path-1-inside-1_1173_68316)"/>
<path d="M44.608 59.424V33.272H48.08V59.424H44.608ZM35.228 42.456H38.924V33.692H42.312V58.808H38.924V45.704H35.228V42.456ZM32.792 39.544C32.792 41.2613 32.6333 42.988 32.316 44.724L37.832 53.74L35.06 55.644L31.028 49.204C30.1133 51.556 28.872 53.796 27.304 55.924L24.588 53.852C26.2867 51.5747 27.5373 49.288 28.34 46.992C29.1427 44.696 29.544 42.2133 29.544 39.544V38.48H25.54V35.204H36.992V38.48H32.792V39.544ZM68.4721 57.884H64.8601V39.768L60.1841 43.436L58.1681 40.776L65.5041 35.036H68.4721V57.884ZM81.6634 58.304C80.0767 58.304 78.6394 57.94 77.3514 57.212C76.0634 56.484 75.0367 55.392 74.2714 53.936C73.5247 52.48 73.1514 50.7067 73.1514 48.616V44.304C73.1514 42.232 73.5247 40.468 74.2714 39.012C75.0367 37.556 76.0634 36.464 77.3514 35.736C78.6394 34.9893 80.0767 34.616 81.6634 34.616C83.2314 34.616 84.6594 34.9893 85.9474 35.736C87.2354 36.464 88.2527 37.556 88.9994 39.012C89.7647 40.468 90.1474 42.232 90.1474 44.304V48.616C90.1474 50.7067 89.7647 52.48 88.9994 53.936C88.2527 55.392 87.2354 56.484 85.9474 57.212C84.678 57.94 83.25 58.304 81.6634 58.304ZM81.6634 55.112C83.138 55.112 84.3234 54.552 85.2194 53.432C86.1154 52.2933 86.5634 50.632 86.5634 48.448V44.472C86.5634 42.288 86.1154 40.636 85.2194 39.516C84.3234 38.3773 83.138 37.808 81.6634 37.808C80.1887 37.808 79.0034 38.3773 78.1074 39.516C77.2114 40.636 76.7634 42.288 76.7634 44.472V48.448C76.7634 50.632 77.2114 52.2933 78.1074 53.432C79.0034 54.552 80.1887 55.112 81.6634 55.112ZM111.997 59.424V33.272H115.581V59.424H111.997ZM103.401 35.96H109.337V38.844H93.8252V35.96H99.7892V33.3H103.401V35.96ZM103.401 52.956C105.417 52.8627 107.648 52.6667 110.093 52.368L110.513 55.588C108.497 55.8493 106.313 56.0547 103.961 56.204C101.609 56.3533 99.4626 56.428 97.5212 56.428H93.3212L93.1532 53.152H97.8572C98.6972 53.152 99.3506 53.1427 99.8172 53.124V50.492C98.3426 50.2307 97.1572 49.68 96.2612 48.84C95.3839 48 94.9452 46.9173 94.9452 45.592V45.2C94.9452 43.5947 95.5706 42.3533 96.8212 41.476C98.0719 40.5987 99.6772 40.16 101.637 40.16C103.56 40.16 105.137 40.608 106.369 41.504C107.62 42.3813 108.245 43.6133 108.245 45.2V45.592C108.245 46.9173 107.797 48.0093 106.901 48.868C106.024 49.708 104.857 50.2493 103.401 50.492V52.956ZM98.4172 45.564C98.4172 46.2733 98.7159 46.8333 99.3132 47.244C99.9292 47.636 100.704 47.832 101.637 47.832C102.533 47.832 103.28 47.636 103.877 47.244C104.475 46.8333 104.773 46.2733 104.773 45.564V45.228C104.773 44.5187 104.475 43.968 103.877 43.576C103.28 43.1653 102.533 42.96 101.637 42.96C100.704 42.96 99.9292 43.1653 99.3132 43.576C98.7159 43.968 98.4172 44.5187 98.4172 45.228V45.564ZM136.365 41.896C134.125 41.896 132.361 41.5507 131.073 40.86C129.785 40.1507 129.141 39.068 129.141 37.612C129.141 36.156 129.785 35.0827 131.073 34.392C132.361 33.7013 134.125 33.356 136.365 33.356H141.069C143.309 33.356 145.073 33.7013 146.361 34.392C147.668 35.0827 148.321 36.156 148.321 37.612C148.321 39.068 147.668 40.1507 146.361 40.86C145.073 41.5507 143.309 41.896 141.069 41.896H136.365ZM137.093 36.156C135.637 36.156 134.536 36.2773 133.789 36.52C133.061 36.744 132.697 37.1173 132.697 37.64C132.697 38.648 134.163 39.152 137.093 39.152H140.369C143.281 39.152 144.737 38.648 144.737 37.64C144.737 37.1173 144.364 36.744 143.617 36.52C142.889 36.2773 141.807 36.156 140.369 36.156H137.093ZM151.037 43.408V46.236H140.509V48.112H148.181V55.14H132.837V56.708H148.881V59.564H129.281V52.396H144.597V50.912H129.141V48.112H136.925V46.236H126.397V43.408H151.037ZM175.628 47.944H172.044V33.272H175.628V47.944ZM154.236 47.468V39.348H163.672V37.444H154.236V34.392H167.172V42.344H157.708V44.388H160.284C163.327 44.388 166.416 44.136 169.552 43.632L169.944 46.6C166.659 47.1787 163.224 47.468 159.64 47.468H154.236ZM175.628 59.424H157.876V49.372H175.628V59.424ZM161.46 52.48V56.232H172.044V52.48H161.46ZM199.267 38.676V33.3H202.655V48.084H199.267V41.84H196.691V48.084H193.443V33.552H196.691V38.676H199.267ZM187.927 34.252H191.035V46.936H180.143V34.252H183.279V37.584H187.927V34.252ZM183.279 40.72V43.828H187.927V40.72H183.279ZM199.099 52.732H184.427V49.512H202.655V59.704H199.099V52.732ZM228.73 46.012H225.146V33.272H228.73V46.012ZM214.142 45.592C212.014 45.592 210.278 45.0973 208.934 44.108C207.59 43.1 206.918 41.6533 206.918 39.768V39.404C206.918 37.5187 207.58 36.0813 208.906 35.092C210.25 34.084 211.995 33.58 214.142 33.58C216.251 33.58 217.968 34.084 219.294 35.092C220.638 36.0813 221.31 37.5187 221.31 39.404V39.768C221.31 41.6347 220.638 43.072 219.294 44.08C217.968 45.088 216.251 45.592 214.142 45.592ZM214.142 42.456C215.224 42.456 216.092 42.2227 216.746 41.756C217.418 41.2893 217.754 40.608 217.754 39.712V39.432C217.754 38.536 217.418 37.8547 216.746 37.388C216.074 36.9213 215.206 36.688 214.142 36.688C213.059 36.688 212.182 36.9213 211.51 37.388C210.838 37.8547 210.502 38.536 210.502 39.432V39.712C210.502 40.608 210.838 41.2893 211.51 41.756C212.182 42.2227 213.059 42.456 214.142 42.456ZM229.57 59.564H210.978V51.948H225.146V50.352H210.866V47.44H228.73V54.832H214.562V56.568H229.57V59.564ZM253.796 33.3V38.396H257.576V41.616H253.796V47.524H250.24V33.3H253.796ZM239.824 43.24C238.536 44.9387 236.483 46.4973 233.664 47.916L232.012 45.032C234.14 43.912 235.699 42.7453 236.688 41.532C237.696 40.3187 238.247 38.984 238.34 37.528H233.02V34.392H247.216V37.528H241.812C241.794 38.5173 241.635 39.46 241.336 40.356L248.196 44.416L246.432 47.356L239.824 43.24ZM248.084 48.672C249.316 48.672 250.408 48.9053 251.36 49.372C252.312 49.82 253.05 50.464 253.572 51.304C254.114 52.144 254.384 53.1053 254.384 54.188C254.384 55.2893 254.114 56.2507 253.572 57.072C253.05 57.912 252.312 58.556 251.36 59.004C250.408 59.4707 249.316 59.704 248.084 59.704H242.344C241.112 59.704 240.02 59.4707 239.068 59.004C238.116 58.556 237.37 57.912 236.828 57.072C236.306 56.2507 236.044 55.2893 236.044 54.188C236.044 53.1053 236.306 52.144 236.828 51.304C237.37 50.464 238.116 49.82 239.068 49.372C240.039 48.9053 241.131 48.672 242.344 48.672H248.084ZM247.552 56.512C248.598 56.512 249.4 56.2973 249.96 55.868C250.52 55.4573 250.8 54.888 250.8 54.16C250.8 53.4507 250.52 52.8907 249.96 52.48C249.4 52.0507 248.598 51.836 247.552 51.836H242.848C241.803 51.836 241 52.0507 240.44 52.48C239.899 52.8907 239.628 53.4507 239.628 54.16C239.628 54.888 239.899 55.4573 240.44 55.868C241 56.2973 241.803 56.512 242.848 56.512H247.552ZM285.193 47.384V33.272H288.777V47.384H285.193ZM274.245 42.512C272.901 44.3227 270.875 45.9747 268.169 47.468L266.321 44.584C268.673 43.2587 270.362 41.8773 271.389 40.44C272.434 39.0027 272.957 37.4347 272.957 35.736V34.056H276.457V35.736C276.457 37.1173 276.251 38.3867 275.841 39.544L282.981 44.052L281.105 46.908L274.245 42.512ZM288.777 59.424H270.997V48.812H288.777V59.424ZM285.193 51.976H274.581V56.232H285.193V51.976ZM313.843 42.736H317.623V45.984H313.843V59.424H310.259V33.272H313.843V42.736ZM301.747 38.284C301.747 40.4493 301.514 42.4933 301.047 44.416L308.103 53.46L305.387 55.672L299.675 48.392C298.481 51.0613 296.763 53.572 294.523 55.924L291.947 53.628C294.15 51.276 295.746 48.8773 296.735 46.432C297.743 43.9867 298.247 41.2707 298.247 38.284V34.728H301.747V38.284ZM339.919 39.376C339.173 41.1493 337.829 42.6333 335.887 43.828C333.965 45.004 331.473 45.9747 328.411 46.74L327.207 43.548C330.082 42.8573 332.35 41.9987 334.011 40.972C335.691 39.9267 336.681 38.788 336.979 37.556H327.907V34.392H340.591V35.848C340.591 36.1653 340.582 36.3987 340.563 36.548H345.239V33.272H348.823V46.012H345.239V44.304H339.975V41.448H345.239V39.376H339.919ZM334.655 54.832V56.568H349.663V59.564H331.099V51.948H345.239V50.352H330.959V47.44H348.823V54.832H334.655ZM374.17 42.988H377.67V46.264H374.17V59.424H370.586V33.272H374.17V42.988ZM363.726 38.48H353.842V35.204H367.338V37.276C367.338 40.7107 366.956 44.7053 366.19 49.26L362.662 48.728C362.98 46.7867 363.232 44.892 363.418 43.044C363.624 41.196 363.726 39.684 363.726 38.508V38.48ZM360.282 52.256C362.952 52.144 365.752 51.92 368.682 51.584L369.074 54.748C367.208 55.028 365.136 55.2333 362.858 55.364C360.581 55.5133 358.444 55.588 356.446 55.588H352.47L352.274 52.34H356.698V43.436H360.282V52.256ZM407.414 33.272V37.836H411.194V41.084H407.414V46.152H403.83V33.272H407.414ZM396.242 34.112H399.658V45.452H386.526V34.112H389.97V36.884H396.242V34.112ZM389.97 39.908V42.428H396.242V39.908H389.97ZM407.414 54.888H393.778V56.596H408.198V59.564H390.194V52.032H403.83V50.464H390.054V47.58H407.414V54.888ZM431.025 45.76H434.945V48.924H415.205V45.76H419.125V38.116H415.205V34.896H434.945V38.116H431.025V45.76ZM427.553 38.116H422.597V45.76H427.553V38.116ZM431.165 50.38V54.328H437.381V57.604H412.741V54.328H418.985V50.38H422.457V54.328H427.693V50.38H431.165Z" fill="black"/>
<path d="M1024.48 52.5L1024.46 51.4688L1028.32 47.4062C1029.66 45.9844 1030.3 45.2188 1030.3 44.1719C1030.3 43.0156 1029.32 42.25 1028.05 42.25C1026.71 42.25 1025.85 43.1094 1025.85 44.375H1024.52C1024.51 42.375 1026.05 41.0312 1028.1 41.0312C1030.15 41.0312 1031.62 42.4062 1031.62 44.1719C1031.62 45.4375 1031.02 46.4219 1029.02 48.4844L1026.43 51.1562V51.25H1031.82V52.5H1024.48ZM1037.57 52.6562C1035.05 52.6562 1033.62 50.5469 1033.62 46.8438C1033.62 43.1719 1035.09 41.0312 1037.57 41.0312C1040.05 41.0312 1041.52 43.1719 1041.52 46.8438C1041.52 50.5469 1040.07 52.6562 1037.57 52.6562ZM1037.57 51.4062C1039.2 51.4062 1040.15 49.7656 1040.15 46.8438C1040.15 43.9219 1039.2 42.25 1037.57 42.25C1035.95 42.25 1034.98 43.9219 1034.98 46.8438C1034.98 49.7656 1035.93 51.4062 1037.57 51.4062ZM1043.4 52.5L1043.38 51.4688L1047.24 47.4062C1048.59 45.9844 1049.23 45.2188 1049.23 44.1719C1049.23 43.0156 1048.24 42.25 1046.98 42.25C1045.63 42.25 1044.77 43.1094 1044.77 44.375H1043.45C1043.43 42.375 1044.98 41.0312 1047.02 41.0312C1049.07 41.0312 1050.54 42.4062 1050.54 44.1719C1050.54 45.4375 1049.95 46.4219 1047.95 48.4844L1045.35 51.1562V51.25H1050.74V52.5H1043.4ZM1052.27 50.1875V49.0312L1057.37 41.1875H1059.1V48.9531H1060.68V50.1875H1059.1V52.5H1057.76V50.1875H1052.27ZM1053.79 48.9531H1057.76V42.9688H1057.62L1053.79 48.8594V48.9531ZM1062.99 52.5938C1062.45 52.5938 1061.98 52.1406 1061.99 51.5781C1061.98 51.0312 1062.45 50.5781 1062.99 50.5781C1063.54 50.5781 1063.99 51.0312 1063.99 51.5781C1063.99 52.1406 1063.54 52.5938 1062.99 52.5938ZM1068.74 41.1875V52.5H1067.32V42.6562H1067.26L1064.51 44.4844V43.0625L1067.32 41.1875H1068.74ZM1075.46 52.6562C1072.95 52.6562 1071.51 50.5469 1071.51 46.8438C1071.51 43.1719 1072.98 41.0312 1075.46 41.0312C1077.95 41.0312 1079.41 43.1719 1079.41 46.8438C1079.41 50.5469 1077.96 52.6562 1075.46 52.6562ZM1075.46 51.4062C1077.09 51.4062 1078.04 49.7656 1078.04 46.8438C1078.04 43.9219 1077.09 42.25 1075.46 42.25C1073.84 42.25 1072.87 43.9219 1072.87 46.8438C1072.87 49.7656 1073.82 51.4062 1075.46 51.4062ZM1081.87 52.5938C1081.32 52.5938 1080.85 52.1406 1080.87 51.5781C1080.85 51.0312 1081.32 50.5781 1081.87 50.5781C1082.41 50.5781 1082.87 51.0312 1082.87 51.5781C1082.87 52.1406 1082.41 52.5938 1081.87 52.5938ZM1087.62 41.1875V52.5H1086.2V42.6562H1086.13L1083.38 44.4844V43.0625L1086.2 41.1875H1087.62ZM1094.63 41.1875V52.5H1093.21V42.6562H1093.15L1090.4 44.4844V43.0625L1093.21 41.1875H1094.63Z" fill="black"/>
<path d="M1164.18 55H1159.34L1164.5 49H1149V45H1164.5L1159.34 39L1164.18 39L1171 47L1164.18 55Z" fill="black"/>
</svg>
