<svg width="230" height="84" viewBox="0 0 230 84" fill="none" xmlns="http://www.w3.org/2000/svg">
<rect width="230" height="84" rx="8" fill="white"/>
<g clip-path="url(#clip0_0_435)">
<path d="M64.8569 30.9242C66.5145 30.9242 67.8583 29.5981 67.8583 27.9621C67.8583 26.3262 66.5145 25 64.8569 25C63.1992 25 61.8555 26.3262 61.8555 27.9621C61.8555 29.5981 63.1992 30.9242 64.8569 30.9242Z" fill="#F5B228"/>
<path d="M65.085 34.0794C64.2042 32.9847 63.0949 32.0832 61.8226 31.4393C60.2893 30.6344 58.5602 30.1836 56.7332 30.1836C54.4496 30.1836 52.329 30.8919 50.5673 32.0832C49.3928 32.8881 48.3815 33.9184 47.5985 35.1419C46.5871 36.784 45.9673 38.6836 45.9673 40.7764C45.9673 42.1287 46.2283 43.3844 46.685 44.5756C47.0765 45.5415 47.5659 46.4109 48.2183 47.2158C48.6425 47.7309 49.0992 48.2139 49.5886 48.6647C49.7843 48.8256 50.0127 49.0188 50.2084 49.1798C51.0893 49.8559 52.1006 50.4033 53.1772 50.7575C54.2864 51.1438 55.4283 51.337 56.6354 51.337H56.7659C57.5162 51.337 58.234 51.2726 58.9517 51.0794L60.6481 53.4942C59.5389 54.3313 58.1687 54.7821 56.7006 54.7821C54.7758 54.7821 53.0467 53.945 51.8396 52.6249L49.3928 56.07C51.285 57.8408 53.8623 58.9355 56.7332 58.9355C59.0822 58.9355 61.3332 58.1628 63.0949 56.8749C64.2694 56.0378 65.2481 54.9753 65.9985 53.7518L62.9318 49.4374C62.9318 49.4374 63.1276 49.2764 63.2907 49.1798C64.0737 48.6325 64.7262 47.9241 65.3134 47.1836C65.9332 46.3787 66.4552 45.4772 66.8467 44.5434C67.3035 43.3522 67.5644 42.0643 67.5644 40.7442C67.5318 38.2006 66.651 35.8825 65.1176 34.015L65.085 34.0794ZM63.3233 40.8086C63.3233 42.2253 62.8666 43.5453 62.051 44.6078C61.6269 45.1874 61.1049 45.7025 60.485 46.1211C59.4737 46.8294 58.234 47.2802 56.8964 47.3124H56.5375C56.5375 47.3124 56.2765 47.3124 56.1786 47.2802C56.0481 47.2802 55.885 47.248 55.7545 47.248C54.2864 47.0548 52.9815 46.3465 51.9701 45.3484C51.7744 45.1552 51.5786 44.8976 51.3829 44.64C50.5999 43.5453 50.1105 42.2575 50.1105 40.8408C50.1105 40.551 50.1432 40.2934 50.1758 40.0037C50.2084 39.7139 50.2737 39.4241 50.3389 39.1344C50.763 37.6855 51.6765 36.3976 52.9162 35.5605C53.9602 34.82 55.2652 34.3692 56.7006 34.3692C57.6467 34.3692 58.5276 34.5624 59.3758 34.9165C60.7134 35.4961 61.8226 36.5264 62.4751 37.7821C62.8666 38.4904 63.0949 39.1987 63.2254 40.0037C63.2581 40.2612 63.2907 40.5188 63.2907 40.8408L63.3233 40.8086Z" fill="#141213"/>
<path d="M181.227 34.0794C180.346 32.9847 179.237 32.0832 177.965 31.4393C176.431 30.6344 174.702 30.1836 172.875 30.1836C170.592 30.1836 168.471 30.8919 166.709 32.0832C165.535 32.8881 164.524 33.9184 163.741 35.1419C162.729 36.784 162.109 38.6836 162.109 40.7764C162.109 42.1287 162.37 43.3844 162.827 44.5756C163.219 45.5415 163.708 46.4109 164.36 47.2158C164.785 47.7309 165.241 48.2139 165.731 48.6647C165.926 48.8256 166.155 49.0188 166.351 49.1798C167.231 49.8559 168.243 50.4033 169.319 50.7575C170.429 51.1438 171.57 51.337 172.777 51.337H172.908C173.658 51.337 174.376 51.2726 175.094 51.0794L176.79 53.4942C175.681 54.3313 174.311 54.7821 172.843 54.7821C170.918 54.7821 169.189 53.945 167.982 52.6249L165.535 56.07C167.427 57.8408 170.004 58.9355 172.875 58.9355C175.224 58.9355 177.475 58.1628 179.237 56.8749C180.412 56.0378 181.39 54.9753 182.141 53.7518L179.074 49.4052C179.074 49.4052 179.27 49.2442 179.433 49.1476C180.216 48.6003 180.868 47.8919 181.455 47.1514C182.075 46.3465 182.597 45.445 182.989 44.5112C183.446 43.32 183.707 42.0321 183.707 40.712C183.674 38.2006 182.793 35.8825 181.26 34.015L181.227 34.0794ZM179.465 40.8086C179.465 42.2253 179.009 43.5453 178.193 44.6078C177.769 45.1874 177.247 45.7025 176.627 46.1211C175.616 46.8294 174.376 47.2802 173.038 47.3124H172.68C172.68 47.3124 172.419 47.3124 172.321 47.2802C172.19 47.2802 172.027 47.248 171.897 47.248C170.429 47.0548 169.124 46.3465 168.112 45.3484C167.916 45.1552 167.721 44.8976 167.525 44.64C166.742 43.5453 166.253 42.2575 166.253 40.8408C166.253 40.551 166.285 40.2934 166.318 40.0037C166.351 39.7139 166.416 39.4241 166.481 39.1344C166.905 37.6855 167.819 36.3976 169.058 35.5605C170.102 34.82 171.407 34.3692 172.843 34.3692C173.789 34.3692 174.67 34.5624 175.518 34.9165C176.855 35.4961 177.965 36.5264 178.617 37.7821C179.009 38.4904 179.237 39.1987 179.368 40.0037C179.4 40.2612 179.433 40.5188 179.433 40.8408L179.465 40.8086Z" fill="#141213"/>
<path d="M180.998 30.9242C182.656 30.9242 184 29.5981 184 27.9621C184 26.3262 182.656 25 180.998 25C179.341 25 177.997 26.3262 177.997 27.9621C177.997 29.5981 179.341 30.9242 180.998 30.9242Z" fill="#F5B228"/>
<path d="M90.9557 40.8086C90.9557 34.9487 86.16 30.1836 80.1898 30.1836C74.2522 30.1836 69.4238 34.9165 69.4238 40.8086C69.4238 46.6684 74.2196 51.4336 80.1898 51.4336C82.6692 51.4336 84.9203 50.5965 86.7472 49.2442V51.4658H90.9557V40.8086ZM80.1898 47.248C76.5685 47.248 73.6323 44.3503 73.6323 40.7764C73.6323 37.2025 76.5685 34.3048 80.1898 34.3048C83.8111 34.3048 86.7472 37.2025 86.7472 40.7764C86.7472 44.3503 83.8111 47.248 80.1898 47.248Z" fill="#141213"/>
<path d="M114.38 40.8086C114.38 34.9487 109.584 30.1836 103.614 30.1836C97.6765 30.1836 92.8481 34.9165 92.8481 40.8086V51.4658H97.0567V40.8086C97.0567 37.2347 99.9928 34.337 103.614 34.337C107.235 34.337 110.172 37.2347 110.172 40.8086V51.4658H114.38V40.8086Z" fill="#141213"/>
<path d="M160.184 40.8086C160.184 34.9487 155.389 30.1836 149.418 30.1836C143.481 30.1836 138.652 34.9165 138.652 40.8086V51.4658H142.861V40.8086C142.861 37.2347 145.797 34.337 149.418 34.337C153.04 34.337 155.976 37.2347 155.976 40.8086V51.4658H160.184V40.8086Z" fill="#141213"/>
<path d="M130.431 31.5037C129.289 30.6344 127.952 30.1836 126.516 30.1836C125.081 30.1836 123.743 30.6344 122.602 31.5037C118.621 34.5946 116.272 39.3275 116.272 44.3181C116.272 49.8881 120.872 54.3957 126.484 54.3957C132.095 54.3957 136.695 49.8559 136.695 44.3181C136.76 39.3275 134.444 34.5946 130.464 31.5037H130.431ZM126.516 50.2745C123.189 50.2745 120.514 47.3124 120.514 43.6097C120.514 40.2934 121.884 37.2025 124.233 35.1741C124.918 34.6268 125.668 34.3048 126.516 34.3048C127.365 34.3048 128.18 34.6268 128.8 35.1741C131.116 37.2025 132.519 40.3256 132.519 43.6097C132.552 47.3124 129.844 50.2745 126.516 50.2745Z" fill="#F5B228"/>
</g>
<defs>
<clipPath id="clip0_0_435">
<rect width="138" height="34" fill="white" transform="translate(46 25)"/>
</clipPath>
</defs>
</svg>
