<svg width="230" height="84" viewBox="0 0 230 84" fill="none" xmlns="http://www.w3.org/2000/svg">
<rect width="230" height="84" rx="8" fill="white"/>
<g clip-path="url(#clip0_0_567)">
<path d="M159.632 34.1913C158.787 36.8372 158.382 39.4832 158.382 42.1659C158.382 45.1793 158.787 48.009 159.632 50.5814C160.514 53.3376 161.874 55.7998 163.748 58.0047L163.38 58.2987C160.845 56.057 158.97 53.5213 157.868 50.6917C156.876 48.1927 156.398 45.2895 156.398 42.0189C156.398 39.2994 156.912 36.6167 157.978 33.9708C159.117 31.0676 160.881 28.3482 163.27 25.8125L163.674 26.1432C161.874 28.6422 160.514 31.3249 159.669 34.1913H159.632Z" fill="#231815"/>
<path d="M191.383 33.9692C192.412 36.5417 192.927 39.2611 192.927 42.1275C192.927 45.2512 192.375 48.0809 191.31 50.6533C190.134 53.336 188.296 55.9084 185.797 58.3339L185.43 58.0399C187.341 55.6512 188.7 53.1523 189.582 50.5063C190.428 47.9706 190.832 45.1777 190.832 42.1275C190.832 39.5183 190.428 36.8724 189.619 34.3C188.737 31.3233 187.377 28.6038 185.577 26.1784L185.944 25.8477C188.406 28.3098 190.207 31.0293 191.383 34.006V33.9692Z" fill="#231815"/>
<path d="M185.76 58.4443L185.283 58.0033V57.9298C187.23 55.5411 188.627 53.0054 189.472 50.433C190.317 47.934 190.722 45.1043 190.722 42.0909C190.722 39.4817 190.317 36.8725 189.509 34.2634C188.627 31.2867 187.267 28.5672 185.466 26.1786V26.1051L185.907 25.6641L185.981 25.7376C188.443 28.1998 190.281 30.9559 191.457 33.9326C192.486 36.5051 193 39.2612 193 42.1277C193 45.2513 192.449 48.1178 191.383 50.6902C190.207 53.4096 188.333 55.9821 185.834 58.3708L185.76 58.4443ZM185.54 57.9665L185.76 58.1503C188.223 55.7983 190.023 53.2259 191.199 50.58C192.265 48.0443 192.816 45.2146 192.816 42.0909C192.816 39.2612 192.302 36.5418 191.273 33.9694C190.134 31.0662 188.333 28.3467 185.907 25.9213L185.687 26.1418C187.451 28.5672 188.811 31.2867 189.693 34.2266C190.501 36.8358 190.905 39.4817 190.905 42.0909C190.905 45.1411 190.464 47.9708 189.656 50.5065C188.811 53.0789 187.414 55.6146 185.54 58.0033V57.9665Z" fill="#00633D"/>
<path d="M62.9449 30.9586C63.7534 29.6356 65.7378 27.9452 68.2368 27.9452C68.2368 27.9452 72.3527 27.4674 74.4841 32.6491C74.9251 33.7515 76.4318 39.4109 71.3972 42.5713C71.3972 42.5713 67.906 45.0703 64.2311 42.0568C63.1286 41.1749 59.3802 36.7282 62.9449 30.9586Z" fill="#231815"/>
<path d="M38.0292 30.701C38.0292 30.701 37.7352 30.6643 37.5882 30.554C37.3677 30.3703 36.9267 30.1498 37.0369 29.4516C37.0002 29.4148 37.0737 28.5328 38.3967 28.4961H41.8878C41.8878 28.4961 43.909 28.5696 43.8355 31.142V36.6177C43.8355 36.6177 43.762 37.3526 44.4603 37.3526H46.261C46.261 37.3526 46.8857 37.3526 46.8489 36.6177V31.3993C46.8489 31.3993 46.8489 30.6643 46.3712 30.6643C46.3712 30.6643 45.1952 30.6643 45.1952 29.5251C45.1952 29.5251 45.1952 28.5696 46.702 28.5696H50.4136C50.4136 28.5696 52.0673 28.8636 52.0673 30.7378V50.0311C52.0673 50.0311 52.0673 52.3463 49.5684 52.7505C48.8334 52.8608 47.6207 52.53 47.1429 51.5745C47.1429 51.5745 46.8857 50.7661 46.3712 50.8396H44.3133C44.3133 50.8396 43.7253 50.8028 43.3945 51.2438C43.3945 51.2438 42.88 52.677 40.7486 52.6403C40.7486 52.6403 38.7274 52.7505 38.5069 50.1413V31.73C38.5069 31.73 38.6539 30.7378 38.0292 30.6643V30.701Z" fill="#231815"/>
<path d="M43.8721 40.2888C43.8721 40.2888 43.7618 39.6641 44.4968 39.6641H46.1505C46.1505 39.6641 46.9223 39.6641 46.8855 40.5828V47.5651C46.8855 47.5651 46.8855 48.2266 46.224 48.2634H44.4601C44.4601 48.2634 44.0191 48.2634 43.9088 47.6019V40.252L43.8721 40.2888Z" fill="white"/>
<path d="M44.3867 48.6695C44.1295 48.6695 43.615 48.4857 43.5047 47.6773V40.2907C43.5047 40.2907 43.468 39.8497 43.6885 39.5925C43.7987 39.4455 44.056 39.2617 44.497 39.2617H46.1507C46.1507 39.2617 46.5917 39.2617 46.9224 39.5925C47.1797 39.813 47.2899 40.1804 47.2531 40.6214V47.6038C47.2531 47.6038 47.2531 48.0448 46.9592 48.3755C46.8489 48.5225 46.5917 48.7062 46.1874 48.7062H44.3867V48.6695ZM44.497 40.0335C44.497 40.0335 44.3132 40.0335 44.2765 40.1069C44.2765 40.1437 44.2765 40.2172 44.2765 40.2539V47.6405C44.2765 47.7875 44.3867 47.8978 44.4235 47.8978H46.1874C46.1874 47.8978 46.3344 47.8978 46.3712 47.8243C46.4447 47.7508 46.4447 47.6405 46.4447 47.6038V40.5847C46.4447 40.5847 46.4447 40.2539 46.3712 40.1437C46.2977 40.0702 46.1507 40.0702 46.1507 40.0702H44.497V40.0335Z" fill="#231815"/>
<path d="M53.7945 53.1544C53.7945 53.1544 53.5372 54.8448 55.0072 54.8816H57.8369C57.8369 54.8816 59.0128 55.1021 58.9393 53.4484L59.0863 28.1282C59.0863 28.1282 59.3803 25.666 56.8079 25.5558H53.5005C53.5005 25.5558 52.1408 25.4823 52.104 26.548C52.104 26.548 52.104 27.6137 53.2065 27.577C53.2065 27.577 53.9415 27.43 53.7945 28.8999V53.1544Z" fill="#231815"/>
<path d="M67.3183 31.365C67.3183 31.365 68.0533 29.1601 68.972 30.8873C68.972 30.8873 69.7438 32.3205 69.7438 35.6279C69.7438 35.6279 69.7438 38.7516 69.0088 40.2216C68.9353 40.3318 68.0901 42.1325 67.3551 39.8908C67.3551 39.8908 66.0321 35.8484 67.3551 31.365H67.3183Z" fill="white"/>
<path d="M68.2004 41.3963C68.2004 41.3963 68.2004 41.3963 68.1637 41.3963C67.4654 41.3595 67.0979 40.3673 66.9877 40.0366C66.9142 39.8528 65.628 35.8472 66.9877 31.2535C67.0612 30.9963 67.4654 29.8938 68.2372 29.8203C68.6414 29.8203 69.0456 30.0776 69.3396 30.6655C69.3396 30.739 70.1481 32.209 70.1481 35.5899C70.1481 35.7369 70.1481 38.8238 69.3764 40.3673C69.1926 40.7348 68.7884 41.3595 68.2372 41.3595L68.2004 41.3963ZM67.6859 31.474C66.4365 35.8104 67.6859 39.7426 67.6859 39.7793C67.9432 40.5511 68.1637 40.6246 68.1637 40.6246C68.2004 40.6246 68.4209 40.4776 68.6046 40.0733C69.3029 38.6768 69.3029 35.6634 69.3029 35.6267C69.3029 32.4662 68.5679 31.0698 68.5679 31.0698C68.3842 30.7023 68.2372 30.6288 68.2004 30.6288C68.2004 30.6288 67.7962 31.033 67.6492 31.5108L67.6859 31.474Z" fill="#231815"/>
<path d="M75.5498 27.5787C75.5498 27.5787 74.5576 27.6889 74.5943 26.5865C74.5943 26.5865 74.4841 25.631 76.1378 25.5942H79.5554C79.5554 25.5942 81.9074 25.484 81.7971 28.5709V32.2091C81.7971 32.2091 81.6869 33.1646 82.2014 33.2381H82.8996C82.8996 33.2381 83.7816 33.3851 83.7816 34.3773C83.7816 34.3773 83.7816 35.6267 82.3851 35.5533C82.3851 35.5533 81.5399 35.4063 81.6134 36.3985L81.5399 41.4699C81.5399 41.4699 81.6501 43.4543 80.0699 43.3441H77.4607C77.4607 43.3441 76.0275 43.4911 76.248 41.3229L76.395 28.5342C76.395 28.5342 76.542 27.6154 75.5498 27.6522V27.5787Z" fill="#231815"/>
<path d="M66.2893 44.4435C66.2893 44.4435 64.6356 44.223 64.5621 45.5459C64.5621 45.5459 64.4151 46.7587 65.8115 46.7219L74.9253 46.7954C74.9253 46.7954 75.991 46.7219 75.991 47.7509C75.991 47.7509 76.1013 48.6696 74.4843 48.5961H66.326C66.326 48.5961 64.7458 48.7064 64.8193 49.9926V51.7565C64.8193 51.7565 64.7458 54.8067 68.2002 55.064L80.5479 54.9905C80.5479 54.9905 82.0546 55.064 82.0179 53.6675C82.0179 53.6675 82.0179 52.6753 80.4009 52.712H72.6101C72.6101 52.712 71.6546 52.7855 71.1402 51.83C71.1402 51.83 70.4787 50.8378 71.5076 50.8746H79.9599C79.9599 50.8746 81.6504 51.0216 81.5402 49.3311V46.0972C81.5402 46.0972 81.7974 44.5537 80.2539 44.517L66.3628 44.4435H66.2893Z" fill="#231815"/>
<path d="M88.5593 30.8122C88.5593 30.8122 87.3466 30.8122 87.2731 29.5627C87.2731 29.5627 87.3466 28.4602 88.9268 28.497H101.679C101.679 28.497 104.839 28.6807 104.949 32.1352L104.692 44.0419C104.692 44.0419 104.619 46.5041 103.296 48.8927C103.296 48.8927 102.818 49.8115 103.663 49.8115H106.089C106.089 49.8115 107.265 49.9217 107.228 50.9875C107.228 50.9875 107.301 52.3104 105.611 52.0899H86.0236C86.0236 52.0899 84.5904 52.0899 84.6639 50.8037C84.6639 50.8037 84.5536 49.7747 86.3176 49.738H89.5882C89.5882 49.738 90.4335 49.885 90.3232 49.0397V40.6242C90.3232 40.6242 90.4335 39.7055 89.7352 39.779H89.1105C89.1105 39.779 87.7508 39.779 87.7875 38.4928C87.7875 38.4928 87.7875 37.3168 89.2943 37.3168H98.261C98.261 37.3168 99.1798 37.6108 99.1063 36.5818V32.7231C99.1063 32.7231 99.1063 31.0327 97.3423 30.8857H88.6695L88.5593 30.8122Z" fill="#231815"/>
<path d="M109.359 30.9198C109.359 30.9198 107.926 30.8463 107.889 29.7438C107.889 29.7438 107.779 28.5311 109.617 28.5311H118.914C118.914 28.5311 121.523 28.2371 121.487 31.3608L121.413 39.3353C121.413 39.3353 121.744 41.6873 119.686 41.5403L115.276 41.6138C115.276 41.6138 113.99 41.3933 113.806 42.6795V48.2654C113.806 48.2654 113.659 49.9926 115.313 50.0293L120.053 49.9191C120.053 49.9191 122.957 49.5883 123.14 47.4936L123.434 29.1558C123.434 29.1558 123.581 27.9799 123.03 27.9799C123.03 27.9799 121.487 28.1269 121.487 26.7304C121.487 26.4364 121.781 25.5912 123.508 25.6647L126.705 25.7749C126.705 25.7749 128.873 25.6647 128.653 29.4498L128.469 53.1163C128.469 53.1163 128.469 55.358 126.962 55.211H124.022C124.022 55.211 122.993 55.1375 123.104 53.888L123.177 51.977C123.177 51.977 123.324 51.2788 122.442 51.5728C122.442 51.5728 121.413 52.3078 119.612 52.2343H111.858C111.858 52.2343 108.698 52.0138 108.661 49.0004V40.6216C108.661 40.6216 108.661 39.1516 110.278 39.2986L114.762 39.3721C114.762 39.3721 116.342 39.5558 116.268 37.6816L116.342 32.3898C116.342 32.3898 116.342 31.177 114.945 30.9565H109.359V30.9198Z" fill="#231815"/>
<path d="M133.21 30.7733C133.21 30.7733 134.937 27.7599 138.097 27.8334C138.097 27.8334 141.037 27.8334 143.132 31.9493C143.132 31.9493 147.064 39.8503 143.316 48.0086C143.316 48.0086 141 52.8963 137.693 52.5288C137.693 52.5288 134.9 52.6758 132.658 48.5231C132.658 48.5231 128.028 39.4828 133.246 30.7365L133.21 30.7733Z" fill="#231815"/>
<path d="M137.289 31.1772C137.289 31.1772 137.877 29.4132 138.428 30.8464C138.428 30.8464 138.869 32.0224 139.052 33.8598C139.052 33.8598 140.045 42.8266 138.685 48.1552C138.685 48.1552 138.281 50.2499 137.619 49.515C137.619 49.515 136.002 47.31 136.223 39.0415C136.223 39.0415 136.627 32.8309 137.325 31.2139L137.289 31.1772Z" fill="white"/>
<path d="M137.913 50.0291C137.913 50.0291 137.546 49.9556 137.362 49.7352C137.289 49.6249 135.672 47.3097 135.855 39.0044C135.855 38.7472 136.296 32.7571 136.958 31.0298C137.068 30.6624 137.399 29.8906 137.95 29.8906C138.465 29.8906 138.722 30.5154 138.795 30.6991C138.795 30.7359 139.273 31.9486 139.42 33.786C139.457 34.1535 140.412 42.8631 139.053 48.1917C138.942 48.7797 138.648 49.8087 138.06 49.9924C138.024 49.9924 137.95 49.9924 137.913 49.9924V50.0291ZM137.95 30.7359C137.95 30.7359 137.73 31.1033 137.656 31.2871C137.031 32.8673 136.59 38.9677 136.59 39.0412C136.407 46.3175 137.656 48.8164 137.877 49.2207C138.024 49.0369 138.171 48.5224 138.281 48.0814C139.604 42.8631 138.648 34.0065 138.648 33.8963C138.501 32.1323 138.06 30.9931 138.06 30.9931C138.024 30.8829 137.987 30.7726 137.95 30.7359Z" fill="#231815"/>
<path d="M145.226 27.834C145.226 27.834 144.271 27.7605 144.308 26.6213C144.308 26.6213 144.381 25.5188 145.741 25.6658H149.195C149.195 25.6658 151.437 25.5923 151.364 28.275V36.3966C151.364 36.3966 151.29 37.3521 152.025 37.3153C152.025 37.3153 153.495 37.2051 153.532 38.4545C153.532 38.4545 153.642 39.704 151.915 39.6305C151.915 39.6305 151.217 39.4835 151.29 40.6595L151.217 53.1909C151.217 53.1909 151.364 55.0651 149.379 54.9916H147.468C147.468 54.9916 146.108 55.2856 145.961 53.3012C145.814 51.28 145.888 28.9733 145.888 28.9733C145.888 28.9733 146.072 27.7973 145.153 27.834H145.226Z" fill="#231815"/>
<path d="M164.263 29.268C164.263 29.268 164.226 27.9451 166.431 28.0186L183.666 28.0921C183.666 28.0921 184.475 27.9451 184.658 29.3048C184.658 29.3048 184.622 30.5175 183.262 30.4073H177.933C177.933 30.4073 177.125 30.3705 177.455 31.1423C177.455 31.1423 179.036 35.7359 184.364 39.4108C184.364 39.4108 185.32 39.9253 184.511 40.7705C184.511 40.7705 183.923 41.873 182.343 41.1748C182.343 41.1748 178.631 39.7783 174.957 35.7726C174.957 35.7726 174.442 34.8539 173.707 35.8829C173.707 35.8829 170.142 40.1458 166.21 41.2115C166.21 41.2115 165.145 41.7627 164.704 40.9543C164.704 40.9543 163.748 40.2193 164.41 39.5946C164.41 39.5946 169.187 36.6914 171.282 31.2158C171.282 31.2158 171.686 30.3705 170.841 30.4808H165.402C165.402 30.4808 164.299 30.2603 164.226 29.268H164.263Z" fill="#231815"/>
<path d="M165.034 43.3414C165.034 43.3414 162.903 43.1944 162.866 44.6277C162.866 44.6277 162.719 45.8771 164.887 45.7301H170.51C170.51 45.7301 171.281 45.5831 171.281 46.6856V53.7047C171.281 53.7047 170.987 55.0644 172.568 55.0277H175.985C175.985 55.0277 177.345 55.1012 177.235 53.3739V46.4284C177.235 46.4284 177.235 45.8771 177.896 45.8771H184.805C184.805 45.8771 186.055 45.8404 186.018 44.4807C186.018 44.4807 186.018 43.3047 184.474 43.3047H164.997L165.034 43.3414Z" fill="#231815"/>
<path d="M95.4314 40.6595C95.4314 40.6595 95.2844 39.7775 96.0929 39.7775H98.4816C98.4816 39.7775 99.0328 39.6305 99.0328 41.1005C99.0328 41.1005 99.2901 45.4001 97.3056 48.8913C96.7176 49.957 96.1664 49.8468 95.7989 49.7733C95.7989 49.7733 95.3579 49.7733 95.3579 48.8178L95.4314 40.6595Z" fill="white"/>
<path d="M96.1296 50.216C96.1296 50.216 95.8356 50.216 95.7253 50.1792C95.7253 50.1792 94.9536 50.1057 94.9536 48.8195L95.0271 40.6612C95.0271 40.6612 94.9904 40.0365 95.2844 39.7057C95.3946 39.5587 95.6518 39.375 96.0561 39.375C96.0561 39.375 96.0561 39.375 96.0928 39.375H98.4448C98.4448 39.375 98.7755 39.375 98.9225 39.522C99.2533 39.7792 99.4003 40.257 99.4003 41.0655C99.4003 41.2125 99.6575 45.5121 97.6363 49.04C97.1218 49.9587 96.5706 50.1425 96.1296 50.1425V50.216ZM96.0561 40.1835C96.0561 40.1835 95.9091 40.1835 95.8723 40.2202C95.7988 40.2937 95.7988 40.4775 95.7988 40.5877V40.6612L95.7253 48.8195C95.7253 49.2238 95.8356 49.3708 95.8723 49.4075C96.2031 49.4443 96.4971 49.5178 96.9748 48.7093C98.8858 45.3651 98.6285 41.1757 98.6285 41.139C98.6285 40.4775 98.5183 40.257 98.4815 40.1835H96.0928H96.0561Z" fill="#231815"/>
</g>
<defs>
<clipPath id="clip0_0_567">
<rect width="156" height="32.8905" fill="white" transform="translate(37 25.5547)"/>
</clipPath>
</defs>
</svg>
