<svg width="1920" height="127" viewBox="0 0 1920 127" fill="none" xmlns="http://www.w3.org/2000/svg">
<path d="M0 16C0 7.16344 7.16344 0 16 0H1904C1912.84 0 1920 7.16344 1920 16V111C1920 119.837 1912.84 127 1904 127H16C7.16343 127 0 119.837 0 111V16Z" fill="#FFF1C2"/>
<path d="M908.52 39.92H930.42V75.92H908.52V39.92ZM923.04 46.16H915.96V69.74H923.04V46.16ZM947.04 34.22H954.66V89.78H947.04V34.22ZM926.4 54.44H938.88V60.86H926.4V54.44ZM935.76 35.12H943.2V87.32H935.76V35.12ZM1000.32 34.28H1008.3V74.18H1000.32V34.28ZM971.275 82.46H1009.74V88.88H971.275V82.46ZM971.275 70.22H979.255V85.1H971.275V70.22ZM978.055 37.82C980.895 37.82 983.455 38.42 985.735 39.62C988.015 40.82 989.815 42.48 991.135 44.6C992.495 46.72 993.175 49.16 993.175 51.92C993.175 54.6 992.495 57.02 991.135 59.18C989.815 61.3 988.015 62.98 985.735 64.22C983.455 65.42 980.895 66.02 978.055 66.02C975.215 66.02 972.655 65.42 970.375 64.22C968.095 62.98 966.275 61.3 964.915 59.18C963.595 57.02 962.935 54.6 962.935 51.92C962.935 49.16 963.595 46.72 964.915 44.6C966.275 42.48 968.095 40.82 970.375 39.62C972.655 38.42 975.215 37.82 978.055 37.82ZM978.055 44.66C976.695 44.66 975.455 44.96 974.335 45.56C973.215 46.12 972.335 46.94 971.695 48.02C971.055 49.06 970.735 50.36 970.735 51.92C970.735 53.4 971.055 54.68 971.695 55.76C972.335 56.8 973.215 57.62 974.335 58.22C975.455 58.78 976.695 59.06 978.055 59.06C979.415 59.06 980.655 58.78 981.775 58.22C982.895 57.62 983.775 56.8 984.415 55.76C985.055 54.68 985.375 53.4 985.375 51.92C985.375 50.36 985.055 49.06 984.415 48.02C983.775 46.94 982.895 46.12 981.775 45.56C980.655 44.96 979.415 44.66 978.055 44.66Z" fill="black"/>
</svg>
