<svg width="1920" height="538" viewBox="0 0 1920 538" fill="none" xmlns="http://www.w3.org/2000/svg">
<path d="M0 16C0 7.16346 7.16344 0 16 0H1904C1912.84 0 1920 7.16344 1920 16V522C1920 530.837 1912.84 538 1904 538H16C7.16343 538 0 530.837 0 522V16Z" fill="#FFF1C2"/>
<path d="M678.16 194.422V337H652.281V224.598L618.004 235.926V215.027L675.23 194.422H678.16ZM764.358 217.6H785.158V227.2C785.158 236.933 784.091 246.533 781.958 256C779.958 265.467 776.824 274.4 772.558 282.8C768.424 291.2 763.224 298.667 756.958 305.2C750.691 311.733 743.291 316.867 734.758 320.6L720.558 300C728.024 296.667 734.491 292.333 739.958 287C745.558 281.533 750.158 275.533 753.758 269C757.358 262.333 760.024 255.467 761.758 248.4C763.491 241.2 764.358 234.133 764.358 227.2V217.6ZM770.358 217.6H790.758V227.2C790.758 233.733 791.624 240.4 793.358 247.2C795.091 254 797.624 260.533 800.958 266.8C804.424 273.067 808.758 278.867 813.958 284.2C819.291 289.4 825.558 293.733 832.758 297.2L818.558 317.2C810.424 313.6 803.358 308.6 797.358 302.2C791.358 295.8 786.358 288.6 782.358 280.6C778.358 272.467 775.358 263.867 773.358 254.8C771.358 245.6 770.358 236.4 770.358 227.2V217.6ZM726.758 199.6H827.758V220.6H726.758V199.6ZM764.358 173.8H790.958V210.6H764.358V173.8ZM842.158 169.6H868.958V354.8H842.158V169.6ZM863.158 241.4H895.758V263.4H863.158V241.4ZM1053.55 225.6H1089.15V247H1053.55V225.6ZM1027.35 183.4H1054.75C1054.75 200.867 1052.08 216.4 1046.75 230C1041.41 243.6 1032.61 255.467 1020.35 265.6C1008.08 275.6 991.547 283.933 970.747 290.6L960.347 270C973.414 265.867 984.28 261.2 992.947 256C1001.61 250.8 1008.41 245.067 1013.35 238.8C1018.41 232.4 1022.01 225.533 1024.15 218.2C1026.28 210.733 1027.35 202.733 1027.35 194.2V183.4ZM970.147 183.4H1044.55V204.8H970.147V183.4ZM1030.35 219.6V237.8L964.347 242.6L960.747 222L1030.35 219.6ZM1085.95 169.4H1112.75V306.2H1085.95V169.4ZM991.547 330.2H1117.55V351.6H991.547V330.2ZM991.547 293H1018.35V344.2H991.547V293ZM1243.93 214.2H1285.53V235.6H1243.93V214.2ZM1269.93 169.6H1296.73V277.6H1269.93V169.6ZM1173.13 285.8H1296.73V352.8H1173.13V285.8ZM1270.53 306.6H1199.33V331.8H1270.53V306.6ZM1146.13 180.6H1244.73V201.6H1146.13V180.6ZM1144.33 273.2L1141.73 251.4C1152.26 251.4 1163.73 251.333 1176.13 251.2C1188.66 251.067 1201.4 250.667 1214.33 250C1227.26 249.333 1239.53 248.267 1251.13 246.8L1252.93 266.2C1240.93 268.2 1228.53 269.733 1215.73 270.8C1203.06 271.733 1190.6 272.4 1178.33 272.8C1166.06 273.067 1154.73 273.2 1144.33 273.2ZM1160.93 197.4H1186.53V259.4H1160.93V197.4ZM1204.53 197.4H1230.13V259.4H1204.53V197.4Z" fill="black"/>
</svg>
