<svg width="1920" height="492" viewBox="0 0 1920 492" fill="none" xmlns="http://www.w3.org/2000/svg">
<g id="bg">
<mask id="mask0_0_3" style="mask-type:alpha" maskUnits="userSpaceOnUse" x="0" y="0" width="1920" height="492">
<path id="Rectangle 63" d="M0 0H1920V492H0V0Z" fill="#D9D9D9"/>
</mask>
<g mask="url(#mask0_0_3)">
<path id="Vector" d="M1994.25 3469.13C1992.29 3590.76 1982.06 3624.56 1933.19 3622.11C1485.84 3599.56 121.867 3569.33 -313.163 3622.11C-356.171 3616.81 -370.425 3587.5 -370.911 3492.32C-352.02 2336.93 -354.922 1259.36 -378 216.852C-378 126.957 -368.024 97.0276 -336.41 73.3155C-234.498 -3.12387 1886.84 -36.7305 1954.1 50.3754C1983.05 74.5767 1982.35 155.077 1984.47 270.069C2005.67 1417.4 2005.97 2480.22 1994.25 3469.13Z" fill="#D0C9FF"/>
</g>
</g>
</svg>
