<svg width="32" height="32" viewBox="0 0 32 32" fill="none" xmlns="http://www.w3.org/2000/svg">
<path d="M17.3999 4C17.9522 4 18.3999 4.44772 18.3999 5L18.3999 27C18.3999 27.5523 17.9522 28 17.3999 28L14.5999 28C14.0476 28 13.5999 27.5523 13.5999 27L13.5999 5C13.5999 4.44772 14.0476 4 14.5999 4L17.3999 4Z" fill="black"/>
<path d="M28 17.3994C28 17.9517 27.5523 18.3994 27 18.3994L5 18.3994C4.44772 18.3994 4 17.9517 4 17.3994L4 14.5994C4 14.0471 4.44772 13.5994 5 13.5994L27 13.5994C27.5523 13.5994 28 14.0471 28 14.5994L28 17.3994Z" fill="black"/>
</svg>
