<svg width="20" height="20" viewBox="0 0 20 20" fill="none" xmlns="http://www.w3.org/2000/svg">
<path d="M10.0027 1C14.9731 1.00137 19.0016 5.03239 19 10.0025C18.9986 14.9226 15.0496 18.9194 10.149 18.9988L9.99746 19C5.02711 18.9986 0.998631 14.968 1 9.99746C1.00155 5.07778 4.95064 1.08066 9.85121 1.00121L10.0027 1ZM6.14636 10.7815C6.25347 12.5892 6.7298 14.2957 7.48974 15.5534C7.99738 16.3935 8.5997 16.9819 9.21551 17.2575L9.2172 10.7824L6.14636 10.7815ZM10.7824 10.7828L10.7808 17.2571C12.256 16.5966 13.6623 14.1465 13.8545 10.7838L10.7824 10.7828ZM2.60549 10.7806C2.78081 12.4707 3.52375 14.0372 4.74146 15.2556C5.17114 15.6856 5.64422 16.0565 6.15081 16.3641C5.27056 14.9078 4.69079 12.9549 4.57817 10.7812L2.60549 10.7806ZM15.4215 10.7843C15.308 12.9532 14.7294 14.9019 13.8516 16.3566C15.7868 15.18 17.1449 13.1452 17.3937 10.785L15.4215 10.7843ZM13.8494 3.63586C14.7299 5.09327 15.3094 7.04582 15.422 9.21895L17.3946 9.21965C17.2194 7.52951 16.4765 5.963 15.2587 4.74439C14.8621 4.34748 14.4285 4.00094 13.9657 3.70798L13.8494 3.63586ZM10.7848 2.74258L10.783 9.21759L13.8538 9.21865C13.7493 7.45485 13.2935 5.78747 12.5653 4.53919L12.5104 4.44661C12.0028 3.6066 11.4005 3.01825 10.7848 2.74258ZM9.21962 2.74262C7.7445 3.40275 6.33794 5.8532 6.14562 9.21638L9.21778 9.2172L9.21962 2.74262ZM6.14894 3.64278L6.08741 3.68037C4.18493 4.86262 2.85255 6.87955 2.60635 9.21523L4.57862 9.21589C4.68971 7.09488 5.24544 5.18431 6.09085 3.7405L6.14894 3.64278Z" fill="black"/>
</svg>
