<svg width="24" height="24" viewBox="0 0 24 24" fill="none" xmlns="http://www.w3.org/2000/svg">
<path fill-rule="evenodd" clip-rule="evenodd" d="M12 23C13.3789 23 14.7443 22.7284 16.0182 22.2007C17.2921 21.6731 18.4496 20.8996 19.4246 19.9246C20.3996 18.9496 21.1731 17.7921 21.7007 16.5182C22.2284 15.2443 22.5 13.8789 22.5 12.5C22.5 11.1211 22.2284 9.75574 21.7007 8.48182C21.1731 7.20791 20.3996 6.05039 19.4246 5.07538C18.4496 4.10036 17.2921 3.32694 16.0182 2.79926C14.7443 2.27159 13.3789 2 12 2C9.21523 2 6.54451 3.10625 4.57538 5.07538C2.60625 7.04451 1.5 9.71523 1.5 12.5C1.5 15.2848 2.60625 17.9555 4.57538 19.9246C6.54451 21.8938 9.21523 23 12 23ZM11.7293 16.7467L17.5627 9.74667L15.7707 8.25333L10.754 14.2722L8.15817 11.6752L6.5085 13.3248L10.0085 16.8248L10.9115 17.7278L11.7293 16.7467Z" fill="black"/>
</svg>
