<svg width="24" height="24" viewBox="0 0 24 24" fill="none" xmlns="http://www.w3.org/2000/svg">
<path d="M12.0014 24.0027C18.6295 24.0027 24.0027 18.6295 24.0027 12.0014C24.0027 5.3732 18.6295 0 12.0014 0C5.3732 0 0 5.3732 0 12.0014C0 18.6295 5.3732 24.0027 12.0014 24.0027Z" fill="#FAE100"/>
<path d="M12.0016 4.93438C7.75467 4.93438 4.31006 7.65611 4.31006 11.0158C4.31006 13.2009 5.7695 15.1176 7.96003 16.1882C7.79848 16.7879 7.3768 18.3651 7.29192 18.7019C7.18787 19.1208 7.44526 19.1153 7.61502 19.0031C7.74645 18.9154 9.72341 17.571 10.575 16.9905C11.0377 17.059 11.5142 17.0946 12.0016 17.0946C16.2485 17.0946 19.6931 14.3728 19.6931 11.0131C19.6931 7.65337 16.2485 4.93164 12.0016 4.93164" fill="#371C1D"/>
</svg>
