<svg width="24" height="24" viewBox="0 0 24 24" fill="none" xmlns="http://www.w3.org/2000/svg">
<path d="M20.1 11.6C19.56 11.6 19.2 11.96 19.2 12.5C19.2 15.11 17.85 17.45 15.6 18.71C12.18 20.69 7.77 19.52 5.79 16.1C3.81 12.68 4.98 8.27 8.4 6.29C11.37 4.58 14.97 5.21 17.22 7.55H15.06C14.52 7.55 14.16 7.91 14.16 8.45C14.16 8.99 14.52 9.35 15.06 9.35H19.11C19.65 9.35 20.01 8.99 20.01 8.45V4.4C20.01 3.86 19.65 3.5 19.11 3.5C18.57 3.5 18.21 3.86 18.21 4.4V6.02C16.5 4.4 14.34 3.5 12 3.5C7.05 3.5 3 7.55 3 12.5C3 17.45 7.05 21.5 12 21.5C16.95 21.5 21 17.45 21 12.5C21 11.96 20.64 11.6 20.1 11.6Z" fill="black"/>
</svg>
