<svg width="41" height="40" viewBox="0 0 41 40" fill="none" xmlns="http://www.w3.org/2000/svg">
<g clip-path="url(#clip0_1436_2732)">
<path d="M40.7778 38.3112C40.7179 39.654 40.4048 40 38.9087 40C30.4054 39.3467 13.0092 39.3317 1.98488 40C0.668264 39.9416 0.231888 39.6179 0.217012 38.5671C0.795336 25.8111 0.706503 13.9144 0 2.40471C0 1.41224 0.306393 1.08531 1.2732 0.820015C4.39627 -0.0125792 37.49 -0.394937 39.5486 0.566747C40.4352 0.833938 40.4086 1.72294 40.4787 2.99225C41.077 15.6616 41.1369 27.3932 40.7778 38.3112Z" fill="#DB0007"/>
<path d="M33.3594 19.8377C33.3347 16.064 32.6801 11.4175 30.9169 9.69392C29.1676 7.98382 25.3372 7.5955 22.1956 7.44824C20.5938 7.3732 18.1969 7.30291 15.8849 7.55837C13.103 7.86575 11.1116 8.58353 9.96606 9.69175C9.00153 10.6249 8.32253 12.5522 7.94791 15.4202C7.65709 17.6465 7.60687 20.0612 7.65683 21.5785C7.67416 22.1042 7.76336 23.9743 8.18472 25.9666C8.60362 27.9472 9.20207 29.3268 9.96342 30.0669C11.6791 31.7347 16.3759 32.3257 20.2806 32.3257C20.352 32.3257 20.4232 32.3255 20.494 32.3251C24.438 32.3033 29.2805 31.6685 31.0435 29.9525C32.7886 28.2539 33.384 23.6138 33.3594 19.8377ZM28.1615 28.4024C27.1049 29.0837 23.4998 29.5047 19.7758 29.3815C17.8422 29.3175 16.0876 29.1188 14.7018 28.8068C12.7635 28.3705 12.1303 27.8458 11.9254 27.572C11.3012 26.7374 10.8646 24.5837 10.7276 21.663C10.6016 18.978 10.7473 16.3882 10.936 15.1182C11.1469 13.6979 11.5218 12.7182 12.1157 12.035C12.7556 11.2988 13.6906 10.8522 15.0581 10.6295C16.7182 10.359 19.9113 10.1921 22.8023 10.3962C24.4482 10.5124 25.8309 10.7331 26.9121 11.0522C28.071 11.3942 28.8598 11.85 29.1934 12.3702C29.9316 13.5216 30.3827 17.1104 30.2426 20.7183C30.0892 24.6699 29.2724 27.6861 28.1615 28.4024ZM23.2299 13.9675C21.9388 13.4798 20.4318 13.4045 18.7509 13.7435C17.2805 14.0402 16.0493 14.8048 15.1902 15.9547C14.4249 16.9791 13.9851 18.2513 13.9184 19.6337C13.853 20.9879 14.1652 22.3397 14.7975 23.4399C15.5023 24.6662 16.551 25.5171 17.8302 25.9005C18.8096 26.194 19.7433 26.3409 20.6233 26.3409C21.2809 26.3409 21.9087 26.2588 22.5029 26.0945C23.7502 25.7497 24.8284 25.0347 25.6206 24.0271C27.3495 21.8282 27.5209 18.5471 26.0283 16.2254C25.3613 15.1879 24.3936 14.4072 23.2299 13.9675ZM23.4976 21.8356C22.9176 22.889 21.9262 23.4824 20.7061 23.5063C18.086 23.5571 17.0911 21.7497 17.0334 20.1859C16.9985 19.239 17.2931 18.2939 17.8415 17.5929C18.2611 17.0567 19.0331 16.4038 20.3287 16.3383C22.0639 16.2504 22.9623 17.0539 23.4102 17.7433C24.156 18.8917 24.192 20.5745 23.4976 21.8356ZM28.627 13.85C28.627 14.7334 27.8929 15.4496 26.9874 15.4496C26.0819 15.4496 25.3479 14.7334 25.3479 13.85C25.3479 12.9666 26.0819 12.2504 26.9874 12.2504C27.8929 12.2504 28.627 12.9666 28.627 13.85Z" fill="#FFFDE9"/>
</g>
<defs>
<clipPath id="clip0_1436_2732">
<rect width="41" height="40" fill="white"/>
</clipPath>
</defs>
</svg>
