<svg width="40" height="40" viewBox="0 0 40 40" fill="none" xmlns="http://www.w3.org/2000/svg">
<g clip-path="url(#clip0_1436_2735)">
<path d="M39.7833 38.3112C39.7248 39.654 39.4193 40 37.9597 40C29.6638 39.3467 12.6919 39.3317 1.93647 40C0.651965 39.9416 0.226233 39.6179 0.211719 38.5671C0.775938 25.8111 0.689271 13.9144 0 2.40471C0 1.41224 0.29892 1.08531 1.24215 0.820015C4.28905 -0.0125792 36.5756 -0.394937 38.584 0.566747C39.449 0.833938 39.423 1.72294 39.4914 2.99225C40.0751 15.6616 40.1336 27.3932 39.7833 38.3112Z" fill="#DB0007"/>
<path d="M8.20962 10.0489C8.66343 7.02219 13.0272 6.98781 13.8716 8.32549C17.0339 13.3343 7.27512 16.2835 8.20962 10.0489ZM13.7918 16.4064C13.7666 15.9388 13.7762 15.6113 13.4575 15.5128C12.7588 15.3145 9.8528 15.345 8.67849 15.4557C8.33099 15.5534 8.22087 15.6738 8.22087 16.0395C8.43863 20.2799 8.38665 26.6643 8.21206 31.3637C8.21741 31.7509 8.37425 31.8701 8.84748 31.8916C11.2452 31.798 11.5708 31.8463 13.2709 31.8916C13.8086 31.8916 13.9212 31.7642 13.9427 31.2695C14.0718 27.2471 14.0068 21.074 13.7918 16.4064ZM32.7187 24.5998C32.7107 23.0842 32.6948 21.5686 32.6948 20.0534C32.6948 15.6503 25.1989 13.4672 22.3047 16.7625C22.2836 16.7866 22.2444 16.775 22.2398 16.7433C22.1713 16.2644 22.1929 15.8266 21.9741 15.6185C21.9308 15.5717 21.8749 15.5358 21.8006 15.5128C21.1018 15.3145 18.4997 15.345 17.3254 15.4557C16.9779 15.5534 16.8677 15.6739 16.8677 16.0395C17.0485 20.2881 16.988 26.6745 16.8589 31.3637C16.8643 31.7509 17.0211 31.8701 17.4943 31.8916C18.9744 31.8431 19.6536 31.8274 21.2667 31.8916C21.8045 31.8916 21.917 31.7642 21.9385 31.2695C22.0075 29.1187 21.8676 26.4515 21.9248 23.6299C22.048 21.2557 22.5197 19.839 24.573 19.839C27.3669 19.839 27.1395 22.2163 27.1706 24.0343C27.2124 26.478 27.1624 28.9217 27.0717 31.3637C27.077 31.7509 27.2339 31.8701 27.7071 31.8916C30.1048 31.798 30.2568 31.8463 31.9569 31.8916C32.4947 31.8916 32.6072 31.7642 32.6287 31.2695C32.7255 29.0474 32.7305 26.8236 32.7187 24.5998Z" fill="#FFFDE9"/>
</g>
<defs>
<clipPath id="clip0_1436_2735">
<rect width="40" height="40" fill="white"/>
</clipPath>
</defs>
</svg>
