<svg width="116" height="63" viewBox="0 0 116 63" fill="none" xmlns="http://www.w3.org/2000/svg">
<g clip-path="url(#clip0_1436_3435)">
<path d="M65.1318 26.4083C63.0105 26.4083 61.4088 24.8478 61.4088 22.7707C61.4088 20.6936 63.0105 19.1477 65.1318 19.1477C67.2531 19.1477 68.8548 20.6949 68.8548 22.7707C68.8548 24.8464 67.2666 26.4083 65.1318 26.4083ZM66.7336 22.772C66.7336 21.796 66.0032 21.0997 65.1318 21.0997C64.2605 21.0997 63.5301 21.796 63.5301 22.772C63.5301 23.748 64.2753 24.4723 65.1318 24.4723C65.9884 24.4723 66.7336 23.7613 66.7336 22.772ZM74.4199 26.2977C74.2789 26.2977 74.1661 26.1726 74.1661 26.0328V22.1316C74.1661 21.4485 73.7311 21.0171 73.0558 21.0171C72.3805 21.0171 71.8623 21.4632 71.8623 22.1036V26.0328C71.8623 26.1726 71.7361 26.2977 71.5951 26.2977H69.9934C69.8524 26.2977 69.7396 26.1726 69.7396 26.0328V19.5245C69.7396 19.3847 69.8524 19.2596 69.9934 19.2596H71.5387C71.6797 19.2596 71.8059 19.3847 71.8059 19.5245V20.165C72.2409 19.5245 72.9444 19.1477 73.801 19.1477C75.3463 19.1477 76.2874 20.0957 76.2874 21.6842V26.0314C76.2874 26.1712 76.1612 26.2964 76.0203 26.2964H74.4185L74.4199 26.2977ZM82.6272 26.2977C82.4862 26.2977 82.3748 26.1726 82.3748 26.0328V25.5308C81.8834 26.0741 81.2228 26.4083 80.3931 26.4083C78.5658 26.4083 77.1185 24.8478 77.1185 22.7707C77.1185 20.6936 78.6074 19.1477 80.4199 19.1477C81.2349 19.1477 81.8807 19.454 82.3734 19.9839V19.5245C82.3734 19.3847 82.4862 19.2596 82.6258 19.2596H84.1711C84.3121 19.2596 84.4383 19.3847 84.4383 19.5245V26.0328C84.4383 26.1726 84.3121 26.2977 84.1711 26.2977H82.6258H82.6272ZM82.4016 22.772C82.4016 21.7827 81.6847 21.0863 80.8133 21.0863C79.942 21.0863 79.2398 21.7974 79.2398 22.772C79.2398 23.7466 79.9567 24.4856 80.8133 24.4856C81.6699 24.4856 82.4016 23.7746 82.4016 22.772ZM85.9017 26.2977C85.7608 26.2977 85.648 26.1726 85.648 26.0328V17.0866C85.648 16.9468 85.7608 16.8216 85.9017 16.8216H87.5035C87.6444 16.8216 87.7706 16.9468 87.7706 17.0866V26.0328C87.7706 26.1726 87.6444 26.2977 87.5035 26.2977H85.9017ZM94.2339 26.2977C94.0929 26.2977 93.9815 26.1726 93.9815 26.0328V25.5308C93.5035 26.0741 92.8148 26.4083 91.9716 26.4083C90.1175 26.4083 88.6554 24.8478 88.6554 22.7707C88.6554 20.6936 90.1591 19.1477 91.9998 19.1477C92.7866 19.1477 93.4323 19.426 93.9103 19.9147V17.0866C93.9103 16.9468 94.0231 16.8216 94.1627 16.8216H95.7792C95.9202 16.8216 96.0464 16.9468 96.0464 17.0866V26.0328C96.0464 26.1726 95.9202 26.2977 95.7792 26.2977H94.2339ZM94.0083 22.772C94.0083 21.7827 93.2779 21.0863 92.3918 21.0863C91.5057 21.0863 90.7754 21.7974 90.7754 22.772C90.7754 23.7466 91.5057 24.4856 92.3918 24.4856C93.2779 24.4856 94.0083 23.7746 94.0083 22.772ZM53.1599 26.0328V17.0866C53.1599 16.9468 53.2727 16.8216 53.4123 16.8216H57.4589C59.6366 16.8216 60.9711 17.8522 60.9711 19.8175C60.9711 21.0437 60.3952 21.8799 59.3412 22.4232C59.1023 22.5483 59.1452 22.6881 59.2285 22.8412L61.0839 25.9209C61.1967 26.1153 61.1121 26.2977 60.9013 26.2977H58.9761C58.8498 26.2977 58.7653 26.2418 58.7089 26.13L57.0373 23.1342C56.9393 22.9531 56.8548 22.8838 56.7138 22.8838H55.6182C55.4491 22.8838 55.3658 22.981 55.3658 23.1488V26.0328C55.3658 26.1726 55.253 26.2977 55.1134 26.2977H53.4137C53.2727 26.2977 53.1613 26.1726 53.1613 26.0328H53.1599ZM57.5583 21.0291C58.1906 21.0291 58.6968 20.5138 58.6968 19.8308C58.6968 19.1477 58.2188 18.7017 57.5583 18.7017H55.6048C55.4356 18.7017 55.3658 18.7709 55.3658 18.9387V20.7788C55.3658 20.9599 55.4356 21.0291 55.6048 21.0291H57.5583ZM60.5509 38.6924C60.4099 38.6924 60.2985 38.5673 60.2985 38.4275V32.9378C60.2985 32.826 60.1938 32.806 60.1293 32.8819L57.9799 35.4316C57.8536 35.5715 57.7691 35.5715 57.6563 35.4316L55.4786 32.8672C55.4222 32.798 55.3376 32.8393 55.3376 32.9232V38.4275C55.3376 38.5673 55.2114 38.6924 55.0705 38.6924H53.4123C53.2714 38.6924 53.1599 38.5673 53.1599 38.4275V29.4813C53.1599 29.3415 53.2727 29.2163 53.4123 29.2163H55.057C55.198 29.2163 55.3242 29.3135 55.4222 29.4533L57.7261 32.4358C57.7825 32.5051 57.8523 32.5051 57.9087 32.4358L60.2408 29.4533C60.3536 29.3135 60.4798 29.2163 60.6194 29.2163H62.2211C62.3621 29.2163 62.4883 29.3415 62.4883 29.4813V38.4275C62.4883 38.5673 62.3621 38.6924 62.2211 38.6924H60.5496H60.5509ZM63.5019 35.1667C63.5019 33.0909 65.062 31.5437 67.1833 31.5437C68.926 31.5437 70.3451 32.589 70.7103 34.1361C70.7667 34.3731 70.7103 34.485 70.5559 34.485H68.7998C68.589 34.485 68.4762 34.4157 68.3917 34.2347C68.1956 33.8033 67.7177 33.5236 67.1699 33.5236C66.2986 33.5236 65.6246 34.248 65.6246 35.168C65.6246 36.0881 66.2999 36.8403 67.1699 36.8403C67.7459 36.8403 68.1258 36.618 68.4198 36.0881C68.5044 35.9203 68.6306 35.8377 68.8132 35.8377H70.4015C70.6553 35.8377 70.7533 35.9349 70.7103 36.144C70.3733 37.7324 68.9542 38.8056 67.1833 38.8056C65.0755 38.8056 63.5019 37.2584 63.5019 35.168V35.1667ZM71.8918 38.6924C71.7508 38.6924 71.6394 38.5673 71.6394 38.4275V29.4813C71.6394 29.3415 71.7522 29.2163 71.8918 29.2163H75.7142C78.6222 29.2163 80.7583 31.1949 80.7583 33.9817C80.7583 36.7684 78.6088 38.6911 75.7142 38.6911H71.8918V38.6924ZM75.7128 36.7551C77.2581 36.7551 78.4249 35.5568 78.4249 33.9537C78.4249 32.3506 77.2447 31.1523 75.6994 31.1523H74.0977C73.9567 31.1523 73.8453 31.2774 73.8453 31.4173V36.5035C73.8453 36.6433 73.958 36.7538 74.0977 36.7538H75.7142L75.7128 36.7551ZM85.0854 38.8043C82.9642 38.8043 81.3624 37.2438 81.3624 35.1667C81.3624 33.0896 82.9642 31.5437 85.0854 31.5437C87.2067 31.5437 88.8085 33.0909 88.8085 35.1667C88.8085 37.2425 87.2202 38.8043 85.0854 38.8043ZM86.6885 35.1667C86.6885 34.1907 85.9581 33.4944 85.0868 33.4944C84.2155 33.4944 83.4851 34.1907 83.4851 35.1667C83.4851 36.1427 84.2302 36.867 85.0868 36.867C85.9434 36.867 86.6885 36.156 86.6885 35.1667ZM94.3748 38.6924C94.2339 38.6924 94.1211 38.5673 94.1211 38.4275V34.5262C94.1211 33.8432 93.6861 33.4118 93.0108 33.4118C92.3355 33.4118 91.8172 33.8578 91.8172 34.4983V38.4275C91.8172 38.5673 91.691 38.6924 91.55 38.6924H89.9483C89.8074 38.6924 89.6946 38.5673 89.6946 38.4275V31.9192C89.6946 31.7794 89.8074 31.6543 89.9483 31.6543H91.4936C91.6346 31.6543 91.7608 31.7794 91.7608 31.9192V32.5597C92.1958 31.9192 92.8993 31.5424 93.7559 31.5424C95.3012 31.5424 96.2424 32.4904 96.2424 34.0789V38.4261C96.2424 38.5659 96.1162 38.6911 95.9752 38.6911H94.3735L94.3748 38.6924ZM102.581 38.6924C102.44 38.6924 102.328 38.5673 102.328 38.4275V37.9255C101.837 38.4687 101.176 38.8029 100.347 38.8029C98.5194 38.8029 97.0721 37.2425 97.0721 35.1654C97.0721 33.0883 98.5611 31.5424 100.374 31.5424C101.189 31.5424 101.834 31.8487 102.327 32.3786V31.9192C102.327 31.7794 102.44 31.6543 102.579 31.6543H104.125C104.266 31.6543 104.392 31.7794 104.392 31.9192V38.4275C104.392 38.5673 104.266 38.6924 104.125 38.6924H102.579H102.581ZM102.357 35.1667C102.357 34.1774 101.64 33.481 100.768 33.481C99.8969 33.481 99.1948 34.192 99.1948 35.1667C99.1948 36.1413 99.9117 36.8803 100.768 36.8803C101.625 36.8803 102.357 36.1693 102.357 35.1667ZM105.855 38.6924C105.714 38.6924 105.602 38.5673 105.602 38.4275V29.4813C105.602 29.3415 105.714 29.2163 105.855 29.2163H107.457C107.598 29.2163 107.724 29.3415 107.724 29.4813V38.4275C107.724 38.5673 107.598 38.6924 107.457 38.6924H105.855ZM114.187 38.6924C114.047 38.6924 113.935 38.5673 113.935 38.4275V37.9255C113.457 38.4687 112.768 38.8029 111.925 38.8029C110.071 38.8029 108.609 37.2425 108.609 35.1654C108.609 33.0883 110.113 31.5424 111.953 31.5424C112.74 31.5424 113.386 31.8207 113.864 32.3093V29.4813C113.864 29.3415 113.977 29.2163 114.116 29.2163H115.733C115.874 29.2163 116 29.3415 116 29.4813V38.4275C116 38.5673 115.874 38.6924 115.733 38.6924H114.187ZM113.963 35.1667C113.963 34.1774 113.233 33.481 112.347 33.481C111.461 33.481 110.73 34.192 110.73 35.1667C110.73 36.1413 111.461 36.8803 112.347 36.8803C113.233 36.8803 113.963 36.1693 113.963 35.1667ZM59.4124 51.0884C59.2714 51.0884 59.1586 50.9633 59.1586 50.8235V47.5068C59.1586 47.367 59.0459 47.2418 58.9062 47.2418H55.6182C55.4773 47.2418 55.3658 47.367 55.3658 47.5068V50.8235C55.3658 50.9633 55.2396 51.0884 55.0986 51.0884H53.4123C53.2714 51.0884 53.1599 50.9633 53.1599 50.8235V41.8773C53.1599 41.7375 53.2727 41.6123 53.4123 41.6123H55.0986C55.2396 41.6123 55.3658 41.7375 55.3658 41.8773V45.0262C55.3658 45.1661 55.4786 45.2912 55.6182 45.2912H58.9062C59.0472 45.2912 59.1586 45.1661 59.1586 45.0262V41.8773C59.1586 41.7375 59.2714 41.6123 59.4124 41.6123H61.0987C61.2397 41.6123 61.3659 41.7375 61.3659 41.8773V50.8235C61.3659 50.9633 61.2397 51.0884 61.0987 51.0884H59.4124ZM66.1012 51.2003C63.9799 51.2003 62.3782 49.6398 62.3782 47.5627C62.3782 45.4856 63.9799 43.9398 66.1012 43.9398C68.2225 43.9398 69.8242 45.4869 69.8242 47.5627C69.8242 49.6385 68.2359 51.2003 66.1012 51.2003ZM67.7029 47.5627C67.7029 46.5867 66.9725 45.8904 66.1012 45.8904C65.2298 45.8904 64.4995 46.5867 64.4995 47.5627C64.4995 48.5387 65.2446 49.263 66.1012 49.263C66.9578 49.263 67.7029 48.552 67.7029 47.5627ZM70.6553 48.6771V44.3152C70.6553 44.1754 70.7815 44.0503 70.9224 44.0503H72.5242C72.6651 44.0503 72.7779 44.1754 72.7779 44.3152V48.2444C72.7779 48.9275 73.2129 49.3455 73.8735 49.3455C74.534 49.3455 75.0402 48.9128 75.0402 48.2724V44.3152C75.0402 44.1754 75.1664 44.0503 75.3073 44.0503H76.9238C77.0648 44.0503 77.1762 44.1754 77.1762 44.3152V50.8235C77.1762 50.9633 77.0635 51.0884 76.9238 51.0884H75.3785C75.2375 51.0884 75.1113 50.9633 75.1113 50.8235V50.183C74.6898 50.8102 74.001 51.2003 73.1297 51.2003C71.5978 51.2003 70.6566 50.2669 70.6566 48.6785L70.6553 48.6771ZM77.9482 49.1511C77.92 48.9142 77.9912 48.817 78.2288 48.817H79.7178C79.942 48.817 80.0548 48.8862 80.1246 49.054C80.279 49.4161 80.6589 49.5839 81.3181 49.5839C82.0915 49.5839 82.4701 49.3895 82.4701 48.998C82.4701 48.7198 82.2593 48.552 81.8377 48.4961L80.1662 48.3003C78.7753 48.1326 78.0449 47.4642 78.0449 46.3351C78.0449 44.8864 79.323 43.9384 81.3047 43.9384C83.0474 43.9384 84.2973 44.7054 84.4799 45.8757C84.5216 46.126 84.4101 46.2379 84.1564 46.2379H82.7373C82.5412 46.2379 82.3855 46.154 82.3439 46.0288C82.2311 45.7226 81.8525 45.5548 81.2617 45.5548C80.5878 45.5548 80.1944 45.7639 80.1944 46.1407C80.1944 46.4057 80.4052 46.5441 80.9113 46.6L82.5829 46.7944C83.9322 46.9476 84.6478 47.6306 84.6478 48.773C84.6478 50.2643 83.3414 51.1976 81.2752 51.1976C79.4063 51.1976 78.1563 50.4307 77.9455 49.1485L77.9482 49.1511ZM88.8514 51.2003C86.7019 51.2003 85.1566 49.709 85.1566 47.5907C85.1566 45.4723 86.7167 43.9398 88.838 43.9398C90.9593 43.9398 92.4912 45.4869 92.4912 47.6319C92.4912 47.9808 92.3502 48.1619 92.0696 48.1619H87.3759C87.5585 48.9288 88.0929 49.3748 88.8648 49.3748C89.3428 49.3748 89.7496 49.2217 89.9604 48.9714C90.0866 48.8183 90.2276 48.7624 90.4518 48.7624H91.9837C92.2361 48.7624 92.3207 48.9022 92.2361 49.1392C91.8145 50.3655 90.437 51.2016 88.8501 51.2016L88.8514 51.2003ZM87.3759 46.8943H90.2424C90.088 46.1979 89.5684 45.7519 88.8232 45.7519C88.0781 45.7519 87.5585 46.1553 87.3759 46.8943ZM41.5036 9.21094V9.46125H40.7893V11.312H40.4993V9.46125H39.785V9.21094H41.5022H41.5036ZM41.76 9.21094H42.1708L42.7804 10.9871L43.3859 9.21094H43.794V11.312H43.5201C43.5201 11.312 43.5255 9.65299 43.5255 9.53981L42.92 11.312H42.6354L42.0245 9.53981V9.60372C42.0245 9.65565 42.0325 11.312 42.0325 11.312H41.7586V9.21094H41.76ZM96.0316 46.4536C95.7416 46.7425 95.3912 46.8863 94.9804 46.8863C94.5695 46.8863 94.2191 46.7425 93.9305 46.4536C93.6431 46.166 93.4995 45.8171 93.4995 45.4084C93.4995 44.9996 93.6445 44.6561 93.9345 44.3698C94.2245 44.0836 94.5722 43.9411 94.9804 43.9411C95.3885 43.9411 95.7416 44.0849 96.0316 44.3698C96.3216 44.6561 96.4666 45.0023 96.4666 45.4084C96.4666 45.8145 96.3216 46.1647 96.0316 46.4536ZM94.0768 44.5136C93.8284 44.7613 93.7049 45.0595 93.7049 45.4097C93.7049 45.7599 93.8284 46.0635 94.0755 46.3124C94.3238 46.5614 94.6246 46.6853 94.9804 46.6853C95.3361 46.6853 95.6369 46.5614 95.8839 46.3124C96.1323 46.0635 96.2558 45.7626 96.2558 45.4097C96.2558 45.0569 96.1323 44.76 95.8839 44.5136C95.6342 44.2646 95.3335 44.1408 94.9804 44.1408C94.6273 44.1408 94.3279 44.2646 94.0781 44.5136H94.0768ZM94.9508 44.5948C95.1535 44.5948 95.3012 44.6148 95.3952 44.6534C95.563 44.7227 95.6476 44.8598 95.6476 45.0635C95.6476 45.2073 95.5953 45.3138 95.4892 45.3831C95.4328 45.419 95.3549 45.4457 95.2542 45.4616C95.3818 45.4816 95.4744 45.5349 95.5335 45.6201C95.5926 45.7053 95.6221 45.7892 95.6221 45.8704V45.9889C95.6221 46.0262 95.6221 46.0661 95.6261 46.1087C95.6288 46.1513 95.6329 46.1793 95.6409 46.1926L95.6517 46.2126H95.3831C95.3831 46.2126 95.3804 46.2019 95.3791 46.1966C95.3778 46.1913 95.3764 46.186 95.3751 46.1793L95.3697 46.1274V45.9996C95.3697 45.8131 95.3187 45.6893 95.2153 45.6294C95.1549 45.5948 95.0475 45.5775 94.8958 45.5775H94.6689V46.2139H94.3816V44.5975H94.9522L94.9508 44.5948ZM95.261 44.8505C95.1885 44.8105 95.073 44.7906 94.9132 44.7906H94.6675V45.3764H94.9267C95.0488 45.3764 95.1401 45.3644 95.2005 45.3405C95.3133 45.2965 95.3684 45.2127 95.3684 45.0875C95.3684 44.9703 95.3321 44.8904 95.2596 44.8505H95.261Z" fill="black"/>
<path d="M43.9769 49.8916C43.9245 51.0872 43.5056 51.5027 42.1952 51.5027C38.683 51.5027 30.6114 50.9301 21.9637 50.9301C12.634 50.9301 5.6096 51.6065 1.94163 51.5027C0.788346 51.4507 0.224457 50.9834 0.212374 50.0474C0.192235 48.5574 0.429874 44.808 0.429874 36.4397C0.429874 30.5652 0.00158691 22.0305 0.00158691 19.4315C0.00158691 18.5474 0.211031 18.1839 0.945429 17.6646C5.8177 14.232 14.6238 6.79843 20.7567 0.665666C21.6482 -0.166505 22.3289 -0.218433 23.4298 0.509883C28.3571 3.88916 38.4722 12.2055 42.7189 16.4157C43.5056 17.144 43.7151 17.7152 43.7151 18.7551C44.2387 30.0353 44.291 40.1705 43.9769 49.8916Z" fill="#DB0007"/>
<path d="M7.02307 29.4106C7.02307 25.5121 9.69617 22.913 13.6796 22.913C16.5098 22.913 19.3924 24.2126 21.856 26.6039C22.1702 26.9154 22.4844 26.9154 22.9046 26.5C27.8319 21.6135 31.8677 19.0664 34.6456 19.0664C36.638 19.0664 37.7376 20.314 37.7376 22.5495C37.7376 27.7476 31.7093 36.7404 22.8522 44.7452C22.2239 45.3177 21.6989 45.3177 20.7551 44.8491C12.2632 40.6389 7.02307 34.7645 7.02307 29.4106Z" fill="#FFFDE9"/>
<path d="M53.1666 56.9082H54.0084V59.4726L56.5768 56.9082H57.5905L54.7469 59.695L57.6509 62.8732H56.5849L54.0071 60.0611V62.8732H53.1653V56.9082H53.1666Z" fill="black"/>
<path d="M57.5233 60.6816C57.5233 59.2929 58.3906 58.3809 59.646 58.3809C60.9013 58.3809 61.7686 59.2929 61.7686 60.6816C61.7686 62.0704 60.9013 62.9904 59.646 62.9904C58.3906 62.9904 57.5233 62.0784 57.5233 60.6816ZM60.9429 60.6816C60.9429 59.7443 60.5052 59.0972 59.646 59.0972C58.7867 59.0972 58.349 59.7443 58.349 60.6816C58.349 61.619 58.7961 62.2754 59.646 62.2754C60.4958 62.2754 60.9429 61.6283 60.9429 60.6816Z" fill="black"/>
<path d="M63.4684 60.7417V62.8721H62.6521V58.5089H63.4174V59.574C63.6067 58.9696 64.0793 58.4316 64.8526 58.4316V59.2239C64.0618 59.1733 63.4697 59.8803 63.4697 60.7404L63.4684 60.7417Z" fill="black"/>
<path d="M65.101 60.7164C65.101 59.4036 65.9602 58.373 67.241 58.373C68.4266 58.373 69.1918 59.2332 69.1918 60.5966V60.9122H65.9522C65.9777 61.7137 66.4677 62.2929 67.241 62.2929C67.7996 62.2929 68.2117 62.0293 68.4266 61.5087L69.0791 61.8575C68.7609 62.5898 68.099 62.9999 67.2316 62.9999C65.9777 62.9999 65.101 62.0879 65.101 60.7164ZM67.2316 59.0641C66.5697 59.0641 66.0206 59.5501 65.9683 60.3503H68.3822C68.3218 59.4049 67.8412 59.0641 67.2303 59.0641H67.2316Z" fill="black"/>
<path d="M69.7839 61.7821C69.7839 60.8274 70.7291 60.2735 72.5591 60.1124V59.9846C72.5591 59.2856 72.0945 59.0645 71.5709 59.0645C71.0124 59.0645 70.6606 59.3548 70.4458 59.7635L69.7839 59.3881C70.0672 58.8688 70.6607 58.3828 71.6313 58.3828C72.602 58.3828 73.3834 58.8941 73.3834 59.9087V61.9445C73.3834 62.2774 73.6922 62.4212 73.9419 62.328V62.8898C73.8305 62.9325 73.6922 62.9751 73.5204 62.9751C73.0827 62.9751 72.6692 62.77 72.5832 62.2081C72.3255 62.7873 71.7669 63.0004 71.1829 63.0004C70.3666 63.0004 69.7826 62.4891 69.7826 61.7821H69.7839ZM72.5591 61.3906V60.6663C71.0124 60.8447 70.6083 61.2881 70.6083 61.7142C70.6083 62.1402 70.96 62.3959 71.4246 62.3959C72.018 62.3959 72.5591 62.0044 72.5591 61.3906Z" fill="black"/>
</g>
<defs>
<clipPath id="clip0_1436_3435">
<rect width="116" height="63" fill="white"/>
</clipPath>
</defs>
</svg>
