<svg width="40" height="40" viewBox="0 0 40 40" fill="none" xmlns="http://www.w3.org/2000/svg">
<g clip-path="url(#clip0_1436_2738)">
<path d="M39.7833 38.3112C39.7248 39.654 39.4193 40 37.9597 40C29.6638 39.3467 12.6919 39.3317 1.93647 40C0.651965 39.9416 0.226233 39.6179 0.211719 38.5671C0.775938 25.8111 0.689271 13.9144 0 2.40471C0 1.41224 0.29892 1.08531 1.24215 0.820015C4.28905 -0.0125792 36.5756 -0.394937 38.584 0.566747C39.449 0.833938 39.423 1.72294 39.4914 2.99225C40.0751 15.6616 40.1336 27.3932 39.7833 38.3112Z" fill="#DB0007"/>
<path d="M31.3994 12.529C29.3032 10.591 11.5771 10.6751 9.20804 12.3465C6.73213 14.0932 6.77274 27.0778 9.96045 28.5096C11.1425 29.0405 29.1704 29.0617 30.3988 28.5096C33.6904 27.0301 33.411 14.3888 31.3994 12.529ZM24.6013 20.2079L17.5377 24.8951C17.2092 25.113 16.7703 24.8775 16.7703 24.4833V16.0357C16.7703 15.6629 17.1675 15.4243 17.4967 15.5995L24.5603 19.3599C24.8907 19.5358 24.9132 20.0009 24.6013 20.2079Z" fill="#FFFDE9"/>
</g>
<defs>
<clipPath id="clip0_1436_2738">
<rect width="40" height="40" fill="white"/>
</clipPath>
</defs>
</svg>
