<svg width="100" height="100" viewBox="0 0 100 100" fill="none" xmlns="http://www.w3.org/2000/svg">
<path d="M58.5564 98.3307C58.914 96.5443 58.9869 87.3047 63.1952 83.7908C66.763 80.8194 74.1822 81.8177 78.7395 81.1424C80.9383 80.8168 82.4366 78.7448 82.0251 76.5747C81.7786 75.276 81.3315 74.0747 82.0607 73.0347C82.8949 71.8472 83.8645 72.0486 83.6267 70.3924C83.4175 68.9453 80.894 66.5495 81.2222 66.4592C84.7577 65.5243 84.9279 64.066 84.8958 62.7604C84.8645 61.3524 84.4366 60.5009 84.0807 60.0312C83.361 59.0885 83.776 57.8542 84.8602 57.5425C86.3628 57.1128 90.2968 58.1719 90.9609 55.1111C91.4079 53.0842 89.7065 51.2326 88.348 50.0885C86.5381 48.5651 85.6084 47.0946 84.6215 45.6024C82.6336 42.599 82.2708 40.3733 82.611 36.7873C82.9878 32.8177 84.6458 27.7422 79.6024 19.98L73.7907 10.2066C73.7907 10.2066 67.743 0.0868073 48.3602 0.0868073C34.8715 0.0868073 23.026 2.71354 15.9435 10.9991C8.75514 19.4097 7.24039 34.2057 10.8515 44.6398C10.8515 44.6398 15.9374 54.8385 17.5043 63.3255C18.2282 67.2474 20.5755 87.1319 19.4583 97.7457C19.263 99.5981 20.5364 100.023 22.1883 99.8906C30.7682 99.2083 52.1163 99.5938 54.7543 99.6953C57.289 99.7925 58.2647 99.7925 58.5572 98.3299L58.5564 98.3307Z" fill="#DB0007"/>
<path d="M45.2896 73.7856C45.2896 73.7856 41.3104 76.329 36.8295 75.6649C31.4571 74.8681 26.9146 69.2813 26.4927 67.8646C26.0708 66.4471 27.379 66.6233 28.7088 66.3576C30.6732 65.9644 34.2054 63.5208 38.1871 65.757C41.0248 67.3507 43.3677 69.171 45.2887 73.7865L45.2896 73.7856Z" fill="#9CD83E"/>
<path d="M46.7109 73.98C46.7109 73.98 47.77 69.3776 51.4332 66.7135C55.8255 63.5191 62.9809 64.3247 64.2743 65.0408C65.5677 65.7569 64.5113 66.5477 63.7483 67.6693C62.6215 69.3255 61.8125 73.5443 57.4037 74.737C54.2613 75.5868 51.3151 75.9288 46.7109 73.98Z" fill="#9CD83E"/>
<path d="M45.7015 99.4644C45.6746 99.4644 44.8517 99.4661 44.8247 99.4644C43.9402 99.4193 43.6798 99.158 43.724 98.2726C43.7405 97.9462 45.2753 62.7943 43.6702 52.5156C43.5331 51.6415 44.2023 52.3646 45.0773 52.2274C45.9463 52.0929 46.626 51.4097 46.7631 52.2847C48.4176 62.8872 46.9949 97.0833 46.9263 98.434C46.8838 99.2908 46.5496 99.4635 45.7006 99.4635L45.7015 99.4644Z" fill="#9CD83E"/>
<path d="M25.5742 32.3038C25.5742 27.0582 29.1411 23.5608 34.457 23.5608C38.2339 23.5608 42.0812 25.309 45.3676 28.5269C45.7869 28.9462 46.207 28.9462 46.7669 28.3871C53.3416 21.8125 58.727 18.3854 62.4345 18.3854C65.0924 18.3854 66.5612 20.0642 66.5612 23.0712C66.5612 30.0651 58.5178 42.1658 46.6975 52.9366C45.8581 53.7057 45.1584 53.7057 43.8997 53.0764C32.569 47.4106 25.5742 39.5069 25.5742 32.3029V32.3038Z" fill="#FFFDE9"/>
</svg>
