<svg width="100" height="100" viewBox="0 0 100 100" fill="none" xmlns="http://www.w3.org/2000/svg">
<g clip-path="url(#clip0_2110_48472)">
<path d="M35.2246 12.579C35.2246 7.87066 38.426 4.73177 43.1977 4.73177C46.5875 4.73177 50.0406 6.30122 52.9902 9.18924C53.367 9.56597 53.7437 9.56597 54.2454 9.06337C60.1473 3.16233 64.9807 0.0868073 68.3079 0.0868073C70.6934 0.0868073 72.0119 1.59375 72.0119 4.29254C72.0119 10.5703 64.7923 21.4306 54.1838 31.0981C53.4303 31.7891 52.8027 31.7891 51.6725 31.224C41.5024 26.1389 35.2255 19.0451 35.2255 12.579H35.2246Z" fill="#DB0007"/>
<path d="M46.2325 87.8941C44.0164 85.9097 42.0875 87.2283 43.7637 89.2387C44.5841 90.2231 48.9565 93.4141 51.769 95.4288C52.5354 94.9149 53.3879 94.3047 54.3037 93.6181C54.0033 93.4991 53.6952 93.3576 53.3766 93.1918C50.6552 91.6632 48.6535 90.0616 46.2325 87.8941Z" fill="#D0C9FF"/>
<path d="M53.5087 79.9757C50.8733 78.2257 48.8681 80.1936 51.1024 81.5564C55.1467 84.0226 57.9514 86.0469 60.0339 88.9809C60.0425 88.9931 60.0503 89.0061 60.059 89.0182C60.8264 88.3741 61.6059 87.7109 62.388 87.0356C62.3038 86.98 62.2196 86.9219 62.1372 86.8585C60.1215 85.1502 56.8533 82.1962 53.5087 79.9757Z" fill="#D0C9FF"/>
<path d="M60.9054 73.1467C59.2309 72.2578 57.5079 74.2127 59.6207 75.5165C64.2552 78.375 65.6138 79.2326 68.2023 81.8481C68.9888 81.1241 69.757 80.4063 70.4974 79.7031C70.3438 79.5972 70.1901 79.4826 70.0356 79.3559C65.8525 75.9167 62.9514 74.2335 60.9046 73.1476L60.9054 73.1467Z" fill="#D0C9FF"/>
<path d="M99.1469 53.6641C98.3414 52.0434 91.4273 34.6632 90.5827 32.2231C88.6495 26.6337 86.8223 23.9245 79.4863 31.5738C77.2224 33.3655 75.5775 36.1788 73.1243 37.5755C66.969 41.079 58.7823 37.8533 52.0801 39.2674C50.9238 39.5113 49.692 39.9549 48.449 40.5304C47.2658 41.0773 46.0714 41.7457 44.9203 42.4757C44.5766 42.6936 44.2372 42.9167 43.903 43.1441C42.4533 44.1858 41.1252 45.2917 40.0506 46.3212C39.4282 46.9193 38.8934 47.7387 38.192 48.3507C36.3709 49.9366 33.896 50.9922 32.304 52.8542C28.5679 57.2231 31.4238 62.7925 36.8318 63.1719C42.7181 63.5851 48.1808 61.7561 52.8075 58.2135C53.0688 58.013 53.3275 57.8073 53.5835 57.5972C54.0809 57.1858 55.2172 56.2457 55.7346 55.5382L58.771 57.3767L71.844 65.763C75.4768 68.1719 77.2363 70.1128 77.8674 72.0903C78.1426 71.7491 78.3743 71.441 78.5558 71.1736C78.6044 71.1016 78.6486 71.033 78.6903 70.967C78.9516 70.3021 79.7467 69.1319 80.1756 68.5052C83.3275 63.8984 88.35 60.3142 93.7433 58.829C94.3518 58.6615 95.2962 58.5434 96.0948 58.3368C96.0966 58.3368 96.0983 58.3359 96.1 58.3359C99.1929 57.6267 100.679 56.7474 99.1469 53.6632V53.6641Z" fill="#D0C9FF"/>
<path d="M71.8446 65.763L58.7717 57.3767L55.7352 55.5382C55.2179 56.2457 54.0807 57.1858 53.5842 57.5972C53.329 57.8082 53.0694 58.0139 52.8081 58.2135C48.1814 61.7552 42.7196 63.5842 36.8324 63.1719C31.4244 62.7934 28.5685 57.2231 32.3047 52.8542C33.8975 50.9922 36.3715 49.9358 38.1927 48.3507C38.8949 47.7396 39.4288 46.9193 40.0512 46.3212C41.125 45.2917 42.4531 44.1849 43.9036 43.1441C44.3932 42.7925 44.8975 42.4479 45.4097 42.1163C46.5338 41.388 47.7014 40.7222 48.8576 40.1771C48.1241 39.3507 47.0842 38.3134 45.9192 37.5599C43.3099 35.6363 39.3142 35.3585 36.2118 35.691C31.2265 36.224 23.3915 39.6858 19.1883 35.5182C18.8602 35.1927 18.618 34.7743 18.3758 34.3672C18.3741 34.3629 18.3715 34.3576 18.368 34.3533C18.3593 34.3377 18.3498 34.3221 18.3394 34.3056C18.2708 34.1927 18.2031 34.0842 18.1363 33.9766C18.131 33.9679 18.125 33.9601 18.1198 33.9514C15.3159 29.434 14.3854 29.046 11.533 32.1224C8.80292 35.0668 3.17445 51.6285 1.31074 54.9792C-0.552111 58.3316 0.237819 59.5 2.0781 61.6554C4.25258 64.3516 7.17185 67.2873 9.58504 69.8273C16.4757 77.0816 23.9001 84.1606 31.4297 90.724C34.6744 93.553 40.414 98.7274 44.3923 99.6866C45.9896 100.072 47.7508 99.9887 49.5894 99.2778C50.9297 98.7587 52.9375 96.2674 51.7699 95.4306C48.9574 93.4158 44.5859 90.224 43.7647 89.2405C42.0885 87.2309 44.0173 85.9115 46.2335 87.8958C48.6545 90.0634 50.6562 91.6649 53.3776 93.1936C53.6962 93.3594 54.0052 93.5009 54.3047 93.6198C59.2968 95.6068 61.6527 91.3464 60.0581 89.02C60.0494 89.0078 60.0416 88.9948 60.033 88.9826C57.9505 86.0486 55.1449 84.0243 51.1015 81.5582C48.8672 80.1962 50.8724 78.2274 53.5078 79.9774C56.8533 82.1988 60.1206 85.1519 62.1363 86.8602C62.2187 86.9236 62.3021 86.9818 62.3871 87.0373C65.9574 89.3898 71.2092 84.895 68.2534 81.9002C68.2361 81.8828 68.2205 81.8663 68.2031 81.8498C65.6146 79.2344 64.2552 78.3767 59.6215 75.5182C57.5087 74.2153 59.2317 72.2596 60.9062 73.1484C62.9531 74.2352 65.8541 75.9175 70.0373 79.3568C70.1918 79.4835 70.3455 79.599 70.4991 79.704C74.1979 82.2526 77.4548 78.6675 78.0156 75.4471C78.2222 74.2622 78.2126 73.171 77.868 72.0911C77.237 70.1129 75.4774 68.1727 71.8446 65.7639V65.763Z" fill="#DB0007"/>
</g>
<defs>
<clipPath id="clip0_2110_48472">
<rect width="100" height="100" fill="white"/>
</clipPath>
</defs>
</svg>
