<svg width="80" height="80" viewBox="0 0 80 80" fill="none" xmlns="http://www.w3.org/2000/svg">
<g clip-path="url(#clip0_1662_87342)">
<path d="M28.1797 10.0632C28.1797 6.29654 30.7408 3.78543 34.5582 3.78543C37.27 3.78543 40.0325 5.04099 42.3922 7.3514C42.6936 7.65279 42.995 7.65279 43.3964 7.25071C48.1179 2.52987 51.9845 0.069458 54.6464 0.069458C56.5547 0.069458 57.6095 1.27501 57.6095 3.43404C57.6095 8.45626 51.8339 17.1445 43.347 24.8785C42.7443 25.4313 42.2422 25.4313 41.338 24.9792C33.2019 20.9111 28.1804 15.2361 28.1804 10.0632H28.1797Z" fill="#DB0007"/>
<path d="M36.9848 70.3153C35.2119 68.7278 33.6689 69.7827 35.0098 71.391C35.6661 72.1785 39.164 74.7313 41.414 76.3431C42.0272 75.932 42.7091 75.4438 43.4418 74.8945C43.2015 74.7993 42.955 74.6861 42.7001 74.5535C40.523 73.3306 38.9216 72.0493 36.9848 70.3153Z" fill="#D0C9FF"/>
<path d="M42.8054 63.9806C40.6971 62.5806 39.0929 64.1549 40.8804 65.2452C44.1158 67.2181 46.3596 68.8375 48.0255 71.1848C48.0325 71.1945 48.0387 71.2049 48.0457 71.2146C48.6595 70.6993 49.2832 70.1688 49.9089 69.6285C49.8415 69.5841 49.7741 69.5375 49.7082 69.4868C48.0957 68.1202 45.4811 65.757 42.8054 63.9806Z" fill="#D0C9FF"/>
<path d="M48.7243 58.5174C47.3848 57.8063 46.0063 59.3702 47.6966 60.4133C51.4042 62.7001 52.491 63.3862 54.5618 65.4785C55.191 64.8994 55.8056 64.3251 56.3979 63.7626C56.275 63.6779 56.1521 63.5862 56.0285 63.4848C52.682 60.7334 50.3611 59.3869 48.7236 58.5181L48.7243 58.5174Z" fill="#D0C9FF"/>
<path d="M79.3164 42.9313C78.6719 41.6348 73.1407 27.7306 72.465 25.7785C70.9184 21.307 69.4566 19.1396 63.5879 25.2591C61.7768 26.6924 60.4608 28.9431 58.4983 30.0605C53.574 32.8633 47.0247 30.2827 41.6629 31.4139C40.7379 31.6091 39.7525 31.9639 38.758 32.4244C37.8115 32.8619 36.8559 33.3966 35.9351 33.9806C35.6601 34.1549 35.3886 34.3334 35.1212 34.5153C33.9615 35.3487 32.899 36.2334 32.0393 37.057C31.5414 37.5355 31.1136 38.191 30.5525 38.6806C29.0955 39.9494 27.1157 40.7938 25.8421 42.2834C22.8532 45.7785 25.1379 50.2341 29.4643 50.5376C34.1733 50.8681 38.5434 49.4049 42.2448 46.5709C42.4539 46.4105 42.6608 46.2459 42.8657 46.0778C43.2636 45.7487 44.1726 44.9966 44.5865 44.4306L47.0157 45.9014L57.474 52.6105C60.3802 54.5376 61.7879 56.0903 62.2927 57.6723C62.5129 57.3994 62.6983 57.1528 62.8434 56.9389C62.8823 56.8813 62.9177 56.8264 62.9511 56.7737C63.1601 56.2417 63.7962 55.3056 64.1393 54.8042C66.6608 51.1188 70.6789 48.2514 74.9934 47.0633C75.4802 46.9292 76.2358 46.8348 76.8747 46.6695C76.8761 46.6695 76.8775 46.6688 76.8789 46.6688C79.3532 46.1014 80.542 45.398 79.3164 42.9306V42.9313Z" fill="#D0C9FF"/>
<path d="M57.4751 52.6104L47.0168 45.9014L44.5876 44.4306C44.1737 44.9966 43.264 45.7486 42.8668 46.0778C42.6626 46.2466 42.4549 46.4111 42.2459 46.5709C38.5445 49.4042 34.1751 50.8674 29.4654 50.5375C25.139 50.2347 22.8543 45.7785 25.8431 42.2834C27.1174 40.7938 29.0966 39.9486 30.5536 38.6806C31.1154 38.1917 31.5424 37.5354 32.0404 37.057C32.8994 36.2334 33.9619 35.3479 35.1223 34.5153C35.514 34.2341 35.9174 33.9584 36.3272 33.6931C37.2265 33.1104 38.1605 32.5778 39.0855 32.1417C38.4987 31.4806 37.6667 30.6507 36.7348 30.0479C34.6473 28.5091 31.4508 28.2868 28.9688 28.5528C24.9806 28.9792 18.7126 31.7486 15.3501 28.4146C15.0876 28.1542 14.8938 27.8195 14.7001 27.4938C14.6987 27.4903 14.6966 27.4861 14.6938 27.4827C14.6869 27.4702 14.6793 27.4577 14.6709 27.4445C14.6161 27.3542 14.5619 27.2674 14.5084 27.1813C14.5043 27.1743 14.4994 27.1681 14.4952 27.1611C12.2522 23.5472 11.5077 23.2368 9.22578 25.6979C7.04175 28.0535 2.53897 41.3028 1.048 43.9834C-0.442275 46.6653 0.18967 47.6 1.66189 49.3243C3.40147 51.4813 5.73689 53.8299 7.66745 55.8618C13.1799 61.6653 19.1195 67.3285 25.1431 72.5792C27.739 74.8424 32.3306 78.982 35.5133 79.7493C36.7911 80.0577 38.2001 79.991 39.6709 79.4222C40.7431 79.007 42.3494 77.0139 41.4154 76.3445C39.1654 74.7327 35.6681 72.1792 35.0112 71.3924C33.6702 69.7847 35.2133 68.7292 36.9862 70.3167C38.923 72.0507 40.5244 73.332 42.7015 74.5549C42.9563 74.6875 43.2036 74.8007 43.4431 74.8959C47.4369 76.4854 49.3216 73.0771 48.0459 71.216C48.039 71.2063 48.0327 71.1959 48.0258 71.1861C46.3598 68.8389 44.1154 67.2195 40.8806 65.2466C39.0931 64.157 40.6973 62.582 42.8056 63.982C45.482 65.7591 48.0959 68.1216 49.7084 69.4882C49.7744 69.5389 49.8411 69.5854 49.9091 69.6299C52.7654 71.5118 56.9668 67.916 54.6022 65.5202C54.5883 65.5063 54.5758 65.4931 54.5619 65.4799C52.4911 63.3875 51.4036 62.7014 47.6966 60.4146C46.0063 59.3722 47.3848 57.8077 48.7244 58.5188C50.3619 59.3882 52.6827 60.7341 56.0293 63.4854C56.1529 63.5868 56.2758 63.6792 56.3987 63.7632C59.3577 65.8021 61.9633 62.9341 62.4119 60.3577C62.5772 59.4097 62.5695 58.5368 62.2938 57.6729C61.789 56.0903 60.3813 54.5382 57.4751 52.6111V52.6104Z" fill="#DB0007"/>
</g>
<defs>
<clipPath id="clip0_1662_87342">
<rect width="80" height="80" fill="white"/>
</clipPath>
</defs>
</svg>
