<svg width="32" height="32" viewBox="0 0 32 32" fill="none" xmlns="http://www.w3.org/2000/svg">
<path d="M27.4469 3.7853C27.0841 2.94474 26.558 2.01113 25.1075 2.57613C23.2416 3.25224 6.21552 9.93085 3.34691 11.0753C2.44774 11.4339 2.34441 12.3881 2.60385 13.0542C3.85052 16.2559 6.20218 22.0731 7.17107 24.352C7.45579 25.0531 7.83357 25.1564 8.73274 24.8517C10.128 24.3789 13.9225 22.5917 19.8127 20.2978C25.703 18.0039 29.1941 16.8347 31.0005 16.1314C32.0052 15.7403 32.1402 15.4209 31.8144 14.5092C29.7258 8.66641 28.7469 6.79752 27.4466 3.78558L27.4469 3.7853Z" fill="#FFBC0D"/>
<path d="M7.73985 11.1222C9.5754 10.2156 21.8157 5.4875 22.716 5.2375C23.6162 4.9875 23.1773 6.0875 24.6529 6.58861C26.0218 7.05333 26.529 6.17389 27.0032 6.98917C27.4762 7.8025 28.6426 11.16 28.9054 12.0083C29.1093 12.6658 28.4057 11.9542 27.5048 13.6294C26.7132 15.1019 27.8248 15.3953 26.9807 15.6525C25.7357 16.0319 12.7854 21.2858 11.6593 21.7244C10.5332 22.1631 11.1057 20.5569 9.66096 20.0817C8.34262 19.6478 7.62735 21.0314 7.2279 19.8714C6.66818 18.2458 5.59235 15.2689 5.35429 14.6581C5.11651 14.0472 6.45346 13.9922 6.85707 13.1506C7.52985 11.7486 6.73151 11.6206 7.73929 11.1228L7.73985 11.1222Z" fill="#FFFDE9"/>
<path d="M15.4696 9.38643C14.3546 9.9192 13.1074 11.2436 13.568 13.4325C14.0285 15.6214 15.7266 17.7689 17.9257 17.7053C21.0738 17.6142 21.8471 13.5634 21.1055 11.5334C20.3638 9.50337 17.9085 8.22087 15.4696 9.38643Z" fill="#FFBC0D"/>
<path d="M8.48 15.71C8.69528 15.1092 10.2561 13.9822 10.9175 15.3036C11.5789 16.6247 10.7433 17.2461 10.1147 17.3925C9.22111 17.6003 7.9875 17.0861 8.48 15.7103V15.71Z" fill="#D0C9FF"/>
<path d="M23.1128 10.0853C23.3281 9.48443 24.8889 8.35749 25.5503 9.67887C26.2117 11 25.3761 11.6214 24.7475 11.7678C23.8539 11.9755 22.6203 11.4614 23.1128 10.0855V10.0853Z" fill="#FFBC0D"/>
<path d="M30.6381 14.6211C30.5948 13.565 30.4137 12.3411 28.6165 12.3503C26.3256 12.3075 5.21202 12.465 1.64702 12.5123C0.529524 12.527 0.0236909 13.5125 0.0278576 14.3378C0.0478576 18.3042 0.176469 25.547 0.278691 28.4039C0.295635 29.2775 0.66008 29.545 1.75536 29.5884C3.4548 29.6556 8.28369 29.2986 15.5812 29.2622C22.879 29.2256 27.1251 29.4092 29.3631 29.3981C30.6079 29.392 30.8856 29.1034 30.9112 27.9861C31.0762 20.8247 30.794 18.4056 30.6381 14.6214V14.6211Z" fill="#DB0007"/>
<path d="M6.36265 14.3797C8.71626 14.1616 23.8646 14.1272 24.9385 14.2299C26.0121 14.3327 25.0843 15.3372 26.4674 16.4872C27.7507 17.5541 28.661 16.8158 28.8351 17.8908C29.0088 18.963 28.8774 23.0641 28.8099 24.0874C28.7577 24.8805 28.2938 23.8224 26.6299 25.2558C25.1676 26.5155 26.2446 27.2913 25.2282 27.2197C23.7293 27.1138 7.59821 27.4213 6.20321 27.4283C4.80821 27.4352 6.08932 25.9411 4.72876 24.8311C3.48709 23.818 2.14404 25.0138 2.19321 23.598C2.26209 21.6144 2.33348 17.9605 2.32987 17.2038C2.32598 16.4472 3.78987 16.9405 4.57321 16.2005C5.87793 14.9677 5.07043 14.4994 6.36265 14.3797Z" fill="#FFFDE9"/>
<path d="M15.3666 14.8663C13.561 14.9961 11.1577 16.0327 10.6371 18.9288C10.1166 21.8249 11.3105 25.2508 14.353 26.2041C18.7082 27.5688 21.8963 22.9713 21.9491 20.138C22.0018 17.3044 19.3166 14.5827 15.3666 14.8663Z" fill="#DB0007"/>
<path d="M5.24326 19.5769C5.72659 19.0205 7.87771 18.4625 8.03576 20.1608C8.19382 21.8591 7.03465 22.1778 6.29715 22.0714C5.24882 21.9205 4.13687 20.8505 5.24326 19.5769Z" fill="#DB0007"/>
<path d="M23.3612 19.6198C23.8418 19.0609 25.9901 18.492 26.1565 20.1895C26.3232 21.887 25.1657 22.2114 24.4274 22.1089C23.3782 21.9634 22.261 20.8989 23.3612 19.6198Z" fill="#DB0007"/>
<path d="M16.7867 24.5688C16.7911 24.6316 16.7728 24.6866 16.732 24.7338C16.6911 24.7808 16.6392 24.8066 16.5764 24.8111L16.4256 24.8216C16.3628 24.8261 16.3078 24.8077 16.2609 24.7669C16.2136 24.7261 16.1881 24.6741 16.1836 24.6113L16.1453 24.0647C15.5836 24.0725 15.1023 24.0038 14.7006 23.8583C14.2986 23.713 13.9803 23.538 13.745 23.3333C13.6306 23.2341 13.5581 23.1208 13.527 22.9933C13.4959 22.8661 13.5395 22.7477 13.6584 22.6383L14.3525 22.0025C14.4531 21.9072 14.5517 21.8716 14.6481 21.8963C14.7445 21.9213 14.8334 21.9719 14.9145 22.048C15.0556 22.1708 15.2209 22.2761 15.4103 22.3636C15.5995 22.4513 15.8086 22.5061 16.0375 22.528L15.9567 21.378L15.2292 21.268C14.9867 21.2347 14.7584 21.1702 14.5431 21.0747C14.3281 20.9794 14.1395 20.8566 13.9775 20.7072C13.8156 20.5575 13.6848 20.3805 13.585 20.1758C13.4853 19.9713 13.4267 19.7402 13.4084 19.4825C13.3881 19.1936 13.4289 18.9208 13.5309 18.6641C13.6328 18.4077 13.7825 18.1791 13.98 17.9791C14.1775 17.7791 14.4198 17.6105 14.707 17.4736C14.9942 17.3366 15.3128 17.2463 15.6636 17.2027L15.6245 16.6466C15.62 16.5838 15.6384 16.5305 15.6795 16.4863C15.7206 16.4425 15.7725 16.4183 15.8353 16.4138L15.9861 16.4033C16.0489 16.3988 16.1039 16.4155 16.1506 16.4533C16.1973 16.4911 16.2231 16.5413 16.2275 16.6041L16.2673 17.1697C16.7411 17.1744 17.1484 17.2405 17.4886 17.368C17.8292 17.4955 18.0861 17.6261 18.2598 17.7591C18.3461 17.8227 18.4059 17.8847 18.4386 17.9455C18.4714 18.0063 18.4895 18.0636 18.4934 18.1169C18.4973 18.1705 18.4895 18.2183 18.4703 18.2605C18.4511 18.303 18.427 18.3411 18.3978 18.3747L17.8375 19.0297C17.7614 19.1172 17.6734 19.1644 17.5728 19.1713C17.4723 19.1783 17.3659 19.148 17.2539 19.08C17.1214 18.9947 16.9823 18.9191 16.8356 18.8536C16.6889 18.788 16.5353 18.7388 16.3753 18.7058L16.4481 19.7425L17.0034 19.8266C17.2711 19.8647 17.5234 19.9275 17.76 20.015C17.9967 20.1025 18.2056 20.2205 18.3864 20.3688C18.5673 20.5172 18.7142 20.6994 18.8273 20.9155C18.9403 21.1319 19.0073 21.3875 19.0278 21.683C19.0456 21.9344 19.0142 22.1861 18.9339 22.4377C18.8536 22.6897 18.72 22.9233 18.5331 23.1383C18.3459 23.3536 18.105 23.5394 17.8098 23.6958C17.5145 23.8522 17.1606 23.9608 16.7481 24.0213L16.7864 24.568L16.7867 24.5688ZM15.8348 19.6441L15.77 18.7205C15.6084 18.7572 15.477 18.8186 15.3756 18.9044C15.2742 18.9905 15.2278 19.0933 15.2361 19.2125C15.2436 19.3194 15.2892 19.4091 15.3734 19.4822C15.4573 19.5552 15.592 19.6075 15.7775 19.6386L15.8348 19.6441ZM17.172 21.9655C17.1623 21.8275 17.1059 21.7208 17.0028 21.6458C16.8995 21.5711 16.7553 21.515 16.5695 21.4772L16.6409 22.4952C16.8267 22.4444 16.9636 22.37 17.0514 22.2722C17.1392 22.1744 17.1795 22.0722 17.172 21.9652V21.9655Z" fill="#FFFDE9"/>
</svg>
