<svg width="100" height="100" viewBox="0 0 100 100" fill="none" xmlns="http://www.w3.org/2000/svg">
<g clip-path="url(#clip0_2110_90949)">
<path d="M82.0251 56.9333C88.4165 59.3854 89.5752 66.8417 85.6162 71.9646C84.0356 74.0099 81.9294 74.8866 79.3832 75.0578C77.2003 75.2056 74.7996 74.7736 72.8534 73.755C62.2482 68.2069 72.4289 53.2511 82.0251 56.9333Z" fill="#D0C9FF"/>
<path d="M25.7313 56.251C18.9266 55.5047 14.4827 61.6029 15.6566 67.9699C16.5396 72.7583 21.5578 75.435 26.1835 75.4053C38.152 75.3283 35.9485 57.371 25.7313 56.251Z" fill="#DB0007"/>
<path d="M84.2294 78.8607C88.2689 80.0122 93.1917 81.5895 96.0251 85.126C98.216 87.8605 99.0087 90.8482 99.5947 94.2446C99.8843 95.9279 100.776 99.0779 98.3964 99.5745C97.7363 99.7127 96.0319 99.763 95.2705 99.7794C94.8346 99.7881 94.3247 99.8229 93.8226 99.8113C93.8089 99.8122 93.7962 99.8132 93.7826 99.8142C89.4838 100.037 67.4679 99.7736 59.702 99.7794C59.2417 99.8238 55.6549 99.7925 54.8776 99.6277C52.2636 99.0315 53.2532 95.8863 53.5945 93.9702C54.3325 89.8259 55.3271 86.9658 58.1985 83.8128C60.5736 81.2058 64.47 79.8391 67.7097 78.8607C70.9495 77.8823 80.19 77.7092 84.2294 78.8607Z" fill="#D0C9FF"/>
<path d="M33.1781 78.8607C37.4868 80.0122 42.7379 81.5894 45.7602 85.126C48.097 87.8605 48.9426 90.8482 49.5676 94.2446C49.8765 95.9279 50.8281 99.0779 48.2895 99.5745C47.5854 99.7127 45.7674 99.763 44.9552 99.7794C44.4903 99.7881 43.9464 99.8229 43.4108 99.8113C43.3962 99.8122 43.3826 99.8132 43.3681 99.8142C38.7827 100.037 15.2991 99.7736 7.01543 99.7794C6.52452 99.8238 3.09938 99.7295 1.86944 99.6277C-0.918853 99.0315 0.136755 95.8863 0.500765 93.9702C1.28804 89.8259 2.34887 86.9658 5.41174 83.8128C7.9452 81.2058 12.1014 79.8391 15.5571 78.8607C19.0128 77.8823 28.8693 77.7092 33.1781 78.8607Z" fill="#DB0007"/>
<path d="M57.9658 31.4765C57.7149 33.6822 55.1785 35.8298 53.0804 36.23C50.4449 36.7326 47.4398 36.6597 44.7548 36.7412C44.7548 36.7412 42.3902 36.7369 40.9658 36.7369C39.076 36.7395 37.1854 36.7491 35.2956 36.7473C34.379 36.7465 33.6724 36.7091 32.7106 36.7473C32.1803 36.7686 31.6447 36.732 31.112 36.7358C30.9014 36.7374 30.7005 36.8237 30.5513 36.9724C30.1606 37.3619 29.2442 38.1418 28.8026 38.5307C27.2913 39.8606 25.7401 41.2846 24.1029 42.4756C23.1637 43.1588 21.1811 44.7595 20.2462 45.17C19.083 45.6805 17.7149 44.9964 17.563 43.7282C17.3252 41.7508 17.5057 38.3975 17.5587 36.3029C17.5621 36.1647 17.5622 35.9681 17.5619 35.8489C17.5617 35.7901 17.5162 35.7412 17.4575 35.7369C14.9696 35.5529 12.456 35.7551 9.98403 35.3636C7.68974 34.999 6.54394 34.131 6.33473 31.7213C5.92677 27.0138 5.99446 21.8914 5.82954 17.1483C5.71145 13.7404 5.17804 6.23142 6.81434 3.25832C7.82124 1.42933 9.64851 0.260938 11.6876 0.173282C11.6962 0.170651 11.7049 0.168915 11.7145 0.168065C13.1738 -0.027682 16.7361 0.0496097 19.4856 0.146615C22.3844 0.248889 28.5803 0.176762 34.7597 0.129063C39.5063 0.0924222 44.2553 0.0598093 49.0018 0.131927C56.612 0.247387 58.3768 1.11437 58.2323 10.9678C58.2304 11.0982 58.2462 11.2283 58.2523 11.3593C58.3122 12.5885 58.3347 13.8298 58.3339 15.0764C58.3312 18.3289 58.1689 21.618 58.0977 24.8107C58.0491 26.9913 58.2123 29.3142 57.9658 31.4765Z" fill="#DB0007"/>
<path d="M91.9093 43.1735C89.2478 45.8246 85.0473 44.5112 81.7079 44.776V52.8706C81.5178 54.0095 80.141 54.7977 79.0629 54.2803L67.3034 45.7699C64.668 45.7751 62.0308 45.7447 59.3945 45.7595C55.4388 45.7803 51.5056 45.9774 47.536 45.5155C43.8832 45.0911 41.4197 43.2577 41.1654 39.4044C41.1393 39.0173 41.2765 37.2334 41.0534 36.8202C41.0291 36.7742 40.9996 36.7447 40.9648 36.7369C42.3893 36.7369 44.7539 36.7412 44.7539 36.7412C47.4388 36.6597 50.444 36.7326 53.0794 36.23C55.1775 35.8298 57.7139 33.6822 57.9648 31.4765C58.2113 29.3142 58.0482 26.9912 58.0968 24.8107C58.1679 21.618 58.3303 18.3289 58.3329 15.0763C58.3337 13.8298 58.3112 12.5885 58.2513 11.3593C60.0482 11.2569 62.5846 11.144 64.9553 11.1527C72.1133 11.5268 79.7391 10.677 86.8416 11.1544C91.0048 11.434 93.3997 13.2404 93.6948 17.5251C93.97 21.5242 93.6662 26.0668 93.6905 30.1362C93.7114 33.8315 94.7487 40.3445 91.9093 43.1735Z" fill="#D0C9FF"/>
<path d="M22.3848 15.9284C22.3848 13.5078 24.0309 11.8939 26.4839 11.8939C28.2267 11.8939 30.0019 12.7009 31.5188 14.1855C31.7125 14.3792 31.9061 14.3792 32.1644 14.121C35.1983 11.087 37.6836 9.50558 39.3941 9.50558C40.6207 9.50558 41.2985 10.2802 41.2985 11.6681C41.2985 14.8956 37.5868 20.4793 32.1321 25.4498C31.7448 25.8049 31.422 25.8049 30.841 25.5144C25.6123 22.9 22.3848 19.2528 22.3848 15.9284Z" fill="#FFFDE9"/>
</g>
<defs>
<clipPath id="clip0_2110_90949">
<rect width="100" height="100" fill="white"/>
</clipPath>
</defs>
</svg>
