<svg width="100" height="100" viewBox="0 0 100 100" fill="none" xmlns="http://www.w3.org/2000/svg">
<g clip-path="url(#clip0_2110_48457)">
<path d="M50.7289 95.4731C50.7289 97.2943 49.321 99.4948 53.9468 99.4948H84.9173C86.5258 99.4948 87.3262 98.8854 87.202 97.0217C86.9746 93.6102 86.5423 79.5833 86.3244 77.9766C85.9599 75.2821 87.7637 73.5434 88.5684 77.7674C89.373 81.9904 91.4781 93.1241 92.1048 96.0477C92.5154 97.9627 93.4538 98.5165 94.4303 98.783C95.9347 99.1936 98.064 98.8116 98.6699 97.9627C99.3539 97.0052 99.3965 96.2778 99.196 93.8646C98.9946 91.4514 96.9303 66.5269 94.7715 59.0729C91.6942 48.4505 89.7307 44.0408 83.8982 42.4323C78.0658 40.8238 53.544 41.3759 52.1369 41.9792C50.7289 42.5825 50.7289 93.2613 50.7289 95.4731Z" fill="#D0C9FF"/>
<path d="M22.0477 12.2092C22.0477 19.6189 27.9175 26.6562 35.3255 26.6562C42.7335 26.6562 48.5304 21.6701 48.5304 14.2604C48.5304 6.8507 43.0703 0.0868073 35.6615 0.0868073C28.2526 0.0868073 22.0469 4.80035 22.0469 12.2092H22.0477Z" fill="#DB0007"/>
<path d="M61.0751 16.3906C61.0751 23.8004 66.9449 30.8377 74.3529 30.8377C81.7608 30.8377 87.5577 25.8516 87.5577 18.4418C87.5577 11.0321 82.0977 4.26736 74.6888 4.26736C67.2799 4.26736 61.0742 8.98091 61.0742 16.3898L61.0751 16.3906Z" fill="#D0C9FF"/>
<path d="M53.6615 97.0226C53.6615 98.6311 54.1467 99.8793 52.171 99.8793C45.9601 99.8793 22.4809 99.3828 17.8846 99.8793C16.5261 100.026 15.7726 99.7552 15.8967 97.7674C16.0721 94.9575 16.8794 80.0686 16.8794 77.8568C16.8794 75.0686 15.7847 73.0694 13.8707 77.5833C11.5504 83.0538 9.20055 95.3394 8.69794 96.8811C7.98874 99.0564 7.59725 99.9089 6.08336 99.6962C3.47572 99.3299 2.24482 99.467 1.1502 98.5095C0.526068 97.9635 0.603325 96.4583 1.05558 93.4618C1.49308 90.5668 5.88197 65.1059 8.29517 58.8715C10.7084 52.6372 16.0209 35.6545 29.8134 33.934C39.0712 32.7795 53.5365 33.046 65.2084 34.9392C72.9601 36.197 84.1441 39.5877 88.5686 40.9957C92.9931 42.4036 92.9167 42.5651 92.961 43.7882C93.04 45.9653 92.5434 46.5859 91.7544 47.6094C91.0929 48.467 90.8203 48.7995 88.0712 48.5738C79.0026 47.8281 64.5686 47.4557 57.3637 48.4497C55.3907 48.7214 53.2882 48.822 53.3429 50.6259C53.4349 53.6476 53.6606 94.6085 53.6606 97.0217L53.6615 97.0226Z" fill="#DB0007"/>
<path d="M24.0419 65.7309C24.0419 62.6667 26.1261 60.6233 29.2311 60.6233C31.4377 60.6233 33.6842 61.645 35.6053 63.5243C35.85 63.7691 36.0957 63.7691 36.4221 63.4427C40.2624 59.6016 43.4091 57.5998 45.574 57.5998C47.127 57.5998 47.9846 58.5807 47.9846 60.3377C47.9846 64.4236 43.2858 71.4922 36.3804 77.7839C35.89 78.2335 35.4811 78.2335 34.7459 77.8655C28.127 74.5556 24.041 69.9392 24.041 65.7309H24.0419Z" fill="#FFFDE9"/>
</g>
<defs>
<clipPath id="clip0_2110_48457">
<rect width="100" height="100" fill="white"/>
</clipPath>
</defs>
</svg>
